<?xml version="1.0" standalone="no"?>
<!DOCTYPE svg PUBLIC "-//W3C//DTD SVG 1.1//EN" "http://www.w3.org/Graphics/SVG/1.1/DTD/svg11.dtd" >
<!--
2022-10-4: Created with FontForge (http://fontforge.org)
-->
<svg xmlns="http://www.w3.org/2000/svg" xmlns:xlink="http://www.w3.org/1999/xlink" version="1.1">
<metadata>
Created by FontForge 20220308 at Tue Oct  4 14:57:36 2022
 By Jason
Copyright (c) 2022, Jason
</metadata>
<defs>
<font id="ClockFaceFatSolid-Regular" horiz-adv-x="1000" >
  <font-face 
    font-family="ClockFaceFatSolid"
    font-weight="400"
    font-stretch="normal"
    units-per-em="1000"
    panose-1="2 0 5 9 0 0 0 0 0 0"
    ascent="833"
    descent="-167"
    bbox="130 -37 870 703"
    underline-thickness="55.5556"
    underline-position="-111.111"
    unicode-range="U+F0000-F008F"
  />
    <missing-glyph />
    <glyph glyph-name="uF0000" unicode="&#xf0000;" 
d="M460 583v-40v-30v-180c0.308594 -21.8135 18.1133 -39.4277 40 -39.4277s39.6914 17.6143 40 39.4277v180v30v40h-80zM500 703c203.989 0 370 -166.011 370 -370s-166.011 -370 -370 -370s-370 166.011 -370 370s166.011 370 370 370z" />
    <glyph glyph-name="uF0001" unicode="&#xf0001;" 
d="M590.359 569.506l-20 -34.6406l-30.3594 -52.584v30.7188h-80v-40v-140c0.00878906 -22.0713 17.9053 -40.0312 39.9785 -40.0312c14.8066 0 27.7451 8.06152 34.6621 20.0312l105 181.865l20 34.6406zM500 703c203.989 0 370 -166.011 370 -370s-166.011 -370 -370 -370
s-370 166.011 -370 370s166.011 370 370 370z" />
    <glyph glyph-name="uF0002" unicode="&#xf0002;" 
d="M460 513v-40s0.0429688 -139.975 0 -140c0.00390625 -22.0752 17.9707 -39.9717 40.0469 -39.9717c7.26367 0 14.0791 1.94043 19.9531 5.33105l181.865 105l34.6406 20l-40 69.2812l-34.6406 -20l-121.865 -70.3594v70.7188v40h-80zM500 703
c203.989 0 370 -166.011 370 -370s-166.011 -370 -370 -370s-370 166.011 -370 370s166.011 370 370 370z" />
    <glyph glyph-name="uF0003" unicode="&#xf0003;" 
d="M460 513v-40v-140c0.00195312 -22.0752 17.9248 -39.998 40 -40h210h40v80h-40h-170v100v40h-80zM500 703c203.989 0 370 -166.011 370 -370s-166.011 -370 -370 -370s-370 166.011 -370 370s166.011 370 370 370z" />
    <glyph glyph-name="uF0004" unicode="&#xf0004;" 
d="M460 513v-40s-0.0429688 -139.975 0 -140c0.000976562 -14.8105 8.02441 -27.7256 20 -34.6406l181.865 -105l34.6406 -20l40 69.2812l-34.6406 20l-161.865 93.4531v116.906v40h-80zM500 703c203.989 0 370 -166.011 370 -370s-166.011 -370 -370 -370
s-370 166.011 -370 370s166.011 370 370 370z" />
    <glyph glyph-name="uF0005" unicode="&#xf0005;" 
d="M460 513v-40v-140c0 -7.26562 1.96777 -14.125 5.35938 -20l105 -181.865l20 -34.6406l69.2812 40l-20 34.6406l-99.6406 172.584v129.281v40h-80zM500 703c203.989 0 370 -166.011 370 -370s-166.011 -370 -370 -370s-370 166.011 -370 370s166.011 370 370 370z" />
    <glyph glyph-name="uF0006" unicode="&#xf0006;" 
d="M460 513v-40v-140v-210v-40h80v40v210v140v40h-80zM500 703c203.989 0 370 -166.011 370 -370s-166.011 -370 -370 -370s-370 166.011 -370 370s166.011 370 370 370z" />
    <glyph glyph-name="uF0007" unicode="&#xf0007;" 
d="M460 513v-40v-129.281l-99.6406 -172.584l-20 -34.6406l69.2812 -40l20 34.6406l105 181.865c3.3916 5.875 5.35938 12.7344 5.35938 20v140v40h-80zM500 703c203.989 0 370 -166.011 370 -370s-166.011 -370 -370 -370s-370 166.011 -370 370s166.011 370 370 370z" />
    <glyph glyph-name="uF0008" unicode="&#xf0008;" 
d="M460 513v-40v-116.906l-161.865 -93.4531l-34.6406 -20l40 -69.2812l34.6406 20s181.822 104.975 181.865 105c11.9756 6.91504 19.999 19.8301 20 34.6406v140v40h-80zM500 703c203.989 0 370 -166.011 370 -370s-166.011 -370 -370 -370s-370 166.011 -370 370
s166.011 370 370 370z" />
    <glyph glyph-name="uF0009" unicode="&#xf0009;" 
d="M460 513v-40v-100h-170h-40v-80h40h210c22.0752 0.00195312 39.998 17.9248 40 40v140v40h-80zM500 703c203.989 0 370 -166.011 370 -370s-166.011 -370 -370 -370s-370 166.011 -370 370s166.011 370 370 370z" />
    <glyph glyph-name="uF000A" unicode="&#xf000a;" 
d="M460 513v-40v-70.7188l-121.865 70.3594l-34.6406 20l-40 -69.2812l34.6406 -20l181.865 -105c5.87402 -3.39062 12.7314 -5.35547 19.9961 -5.35547c22.0762 0 40 17.9209 40.0039 39.9961v140v40h-80zM500 703c203.989 0 370 -166.011 370 -370
s-166.011 -370 -370 -370s-370 166.011 -370 370s166.011 370 370 370z" />
    <glyph glyph-name="uF000B" unicode="&#xf000b;" 
d="M409.641 569.506l-69.2812 -40l20 -34.6406s104.975 -181.822 105 -181.865c6.91699 -11.9697 19.8301 -19.9883 34.6367 -19.9883c22.0732 0 39.9951 17.917 40.0039 39.9883v140v40h-80v-30.7188l-30.3594 52.584zM500 703c203.989 0 370 -166.011 370 -370
s-166.011 -370 -370 -370s-370 166.011 -370 370s166.011 370 370 370z" />
    <glyph glyph-name="uF000C" unicode="&#xf000c;" 
d="M460 583v-40v-210c0.00878906 -22.0713 17.9053 -40.0312 39.9785 -40.0312c14.8066 0 27.7451 8.06152 34.6621 20.0312l70 121.244l20 34.6406l-69.2812 40l-15.3594 -26.6035v60.7188v40h-80zM500 703c203.989 0 370 -166.011 370 -370s-166.011 -370 -370 -370
s-370 166.011 -370 370s166.011 370 370 370z" />
    <glyph glyph-name="uF000D" unicode="&#xf000d;" 
d="M590.359 569.506l-20 -34.6406l-15 -25.9805l-20 -34.6406l-70 -121.244c-2.81836 -5.04492 -4.60156 -10.8379 -4.99609 -16.9238c-0.0556641 -0.865234 -0.109375 -1.74707 -0.109375 -2.62695c0 -22.0791 17.9258 -40.0039 40.0039 -40.0039
c14.6094 0 27.4004 7.84766 34.3828 19.5547l70 121.244l20 34.6406l15 25.9805l20 34.6406zM500 703c203.989 0 370 -166.011 370 -370s-166.011 -370 -370 -370s-370 166.011 -370 370s166.011 370 370 370z" />
    <glyph glyph-name="uF000E" unicode="&#xf000e;" 
d="M555.359 508.885l-20 -34.6406l-70 -121.244c-2.83496 -4.91504 -4.68262 -10.5684 -5.20117 -16.5117c-0.101562 -1.1582 -0.108398 -2.2666 -0.108398 -3.45117c0 -22.0791 17.9248 -40.0049 40.0039 -40.0049c7.26172 0 14.0732 1.93945 19.9463 5.32715l181.865 105
l34.6406 20l-40 69.2812l-34.6406 -20l-52.584 -30.3594l15.3594 26.6035zM500 703c203.989 0 370 -166.011 370 -370s-166.011 -370 -370 -370s-370 166.011 -370 370s166.011 370 370 370z" />
    <glyph glyph-name="uF000F" unicode="&#xf000f;" 
d="M555.359 508.885l-20 -34.6406l-70 -121.244c-2.72559 -4.72266 -4.54199 -10.1357 -5.13867 -15.8184c-0.145508 -1.38672 -0.21875 -2.75293 -0.21875 -4.17773c0 -22.0771 17.9219 -40.001 39.998 -40.0039h210h40v80h-40h-140.719l35.3594 61.2441l20 34.6406z
M500 703c203.989 0 370 -166.011 370 -370s-166.011 -370 -370 -370s-370 166.011 -370 370s166.011 370 370 370z" />
    <glyph glyph-name="uF0010" unicode="&#xf0010;" 
d="M555.359 508.885l-20 -34.6406l-70 -121.244c-2.55859 -4.43359 -4.31934 -9.48633 -5.01562 -14.7793c-0.226562 -1.72168 -0.384766 -3.41113 -0.384766 -5.19336c0 -14.8105 8.06641 -27.752 20.041 -34.668l181.865 -105l34.6406 -20l40 69.2812l-34.6406 20
l-147.225 85l50 86.6035l20 34.6406zM500 703c203.989 0 370 -166.011 370 -370s-166.011 -370 -370 -370s-370 166.011 -370 370s166.011 370 370 370z" />
    <glyph glyph-name="uF0011" unicode="&#xf0011;" 
d="M555.359 508.885l-20 -34.6406l-70 -121.244c-3.39258 -5.87598 -5.36035 -12.6992 -5.36035 -19.9658c0 -2.38086 0.208984 -4.71289 0.608398 -6.97949c0.820312 -4.65137 2.47168 -9.10449 4.75195 -13.0547l105 -181.865l20 -34.6406l69.2812 40l-20 34.6406
l-93.4531 161.865l58.4531 101.244l20 34.6406zM500 703c203.989 0 370 -166.011 370 -370s-166.011 -370 -370 -370s-370 166.011 -370 370s166.011 370 370 370z" />
    <glyph glyph-name="uF0012" unicode="&#xf0012;" 
d="M555.359 508.885l-20 -34.6406l-70 -121.244c-3.3916 -5.875 -5.35938 -12.7344 -5.35938 -20v-210v-40h80v40v199.281l64.6406 111.963l20 34.6406zM500 703c203.989 0 370 -166.011 370 -370s-166.011 -370 -370 -370s-370 166.011 -370 370s166.011 370 370 370z" />
    <glyph glyph-name="uF0013" unicode="&#xf0013;" 
d="M555.359 508.885l-20 -34.6406l-70 -121.244l-105 -181.865l-20 -34.6406l69.2812 -40l20 34.6406l105 181.865l70 121.244l20 34.6406zM500 703c203.989 0 370 -166.011 370 -370s-166.011 -370 -370 -370s-370 166.011 -370 370s166.011 370 370 370z" />
    <glyph glyph-name="uF0014" unicode="&#xf0014;" 
d="M555.359 508.885l-20 -34.6406l-64.6406 -111.963l-172.584 -99.6406l-34.6406 -20l40 -69.2812l34.6406 20s181.797 104.932 181.865 105c6.10059 3.52246 11.1182 8.54004 14.6406 14.6406l70 121.244l20 34.6406zM500 703c203.989 0 370 -166.011 370 -370
s-166.011 -370 -370 -370s-370 166.011 -370 370s166.011 370 370 370z" />
    <glyph glyph-name="uF0015" unicode="&#xf0015;" 
d="M555.359 508.885l-20 -34.6406l-58.4531 -101.244h-186.906h-40v-80h40s209.975 -0.0429688 210 0c14.8105 0.000976562 27.7256 8.02441 34.6406 20l70 121.244l20 34.6406zM500 703c203.989 0 370 -166.011 370 -370s-166.011 -370 -370 -370s-370 166.011 -370 370
s166.011 370 370 370z" />
    <glyph glyph-name="uF0016" unicode="&#xf0016;" 
d="M555.359 508.885l-20 -34.6406l-50 -86.6035l-147.225 85l-34.6406 20l-40 -69.2812l34.6406 -20l181.865 -105c5.875 -3.39062 12.708 -5.40039 19.9727 -5.40039c14.8105 0 27.752 8.06641 34.668 20.041l70 121.244l20 34.6406zM500 703
c203.989 0 370 -166.011 370 -370s-166.011 -370 -370 -370s-370 166.011 -370 370s166.011 370 370 370z" />
    <glyph glyph-name="uF0017" unicode="&#xf0017;" 
d="M409.641 569.506l-69.2812 -40l20 -34.6406s104.949 -181.865 105 -181.865c6.91602 -11.9736 19.8057 -20.0381 34.6152 -20.0381s27.75 8.06445 34.666 20.0381l70 121.244l20 34.6406l-69.2812 40l-20 -34.6406l-35.3594 -61.2441l-70.3594 121.865zM500 703
c203.989 0 370 -166.011 370 -370s-166.011 -370 -370 -370s-370 166.011 -370 370s166.011 370 370 370z" />
    <glyph glyph-name="uF0018" unicode="&#xf0018;" 
d="M460 583v-40s0.0429688 -209.975 0 -210c0.00390625 -22.0752 17.9707 -39.9717 40.0469 -39.9717c7.26367 0 14.0791 1.94043 19.9531 5.33105l121.244 70l34.6406 20l-40 69.2812l-34.6406 -20l-61.2441 -35.3594v140.719v40h-80zM500 703
c203.989 0 370 -166.011 370 -370s-166.011 -370 -370 -370s-370 166.011 -370 370s166.011 370 370 370z" />
    <glyph glyph-name="uF0019" unicode="&#xf0019;" 
d="M590.359 569.506l-20 -34.6406l-105 -181.865c-2.83496 -4.91504 -4.68262 -10.5684 -5.20117 -16.5117c-0.101562 -1.1582 -0.108398 -2.2666 -0.108398 -3.45117c0 -22.0791 17.9248 -40.0049 40.0039 -40.0049c7.26172 0 14.0732 1.93945 19.9463 5.32715l121.244 70
l34.6406 20l-40 69.2812l-26.6035 -15.3594l30.3594 52.584l20 34.6406zM500 703c203.989 0 370 -166.011 370 -370s-166.011 -370 -370 -370s-370 166.011 -370 370s166.011 370 370 370z" />
    <glyph glyph-name="uF001A" unicode="&#xf001a;" 
d="M696.506 492.641l-34.6406 -20l-25.9805 -15l-34.6406 -20s-121.202 -70.0146 -121.244 -70c-10.1396 -6.04688 -17.3438 -16.4658 -19.1035 -28.6348c-0.272461 -1.88184 -0.369141 -3.74121 -0.369141 -5.69824c0 -22.0781 17.9258 -40.0039 40.0039 -40.0039
c7.06543 0 13.7051 1.83594 19.4688 5.05566l121.244 70l34.6406 20l25.9805 15l34.6406 20zM500 703c203.989 0 370 -166.011 370 -370s-166.011 -370 -370 -370s-370 166.011 -370 370s166.011 370 370 370z" />
    <glyph glyph-name="uF001B" unicode="&#xf001b;" 
d="M635.885 457.641l-34.6406 -20s-121.202 -70.0107 -121.244 -70c-10.0459 -5.80469 -17.2979 -15.8623 -19.3828 -27.6953c-0.399414 -2.26562 -0.606445 -4.56152 -0.606445 -6.94141c0 -22.0742 17.917 -39.9961 39.9893 -40.0039h210h40v80h-40h-60.7188
l26.6035 15.3594zM500 703c203.989 0 370 -166.011 370 -370s-166.011 -370 -370 -370s-370 166.011 -370 370s166.011 370 370 370z" />
    <glyph glyph-name="uF001C" unicode="&#xf001c;" 
d="M635.885 457.641l-34.6406 -20s-121.2 -69.9463 -121.244 -70c-11.9746 -6.91602 -19.9961 -19.8037 -19.9961 -34.6133c0 -2.86133 0.300781 -5.65234 0.873047 -8.34375c2.38965 -11.2412 9.46191 -20.7451 19.123 -26.3242l181.865 -105l34.6406 -20l40 69.2812
l-34.6406 20l-121.865 70.3594l61.2441 35.3594l34.6406 20zM500 703c203.989 0 370 -166.011 370 -370s-166.011 -370 -370 -370s-370 166.011 -370 370s166.011 370 370 370z" />
    <glyph glyph-name="uF001D" unicode="&#xf001d;" 
d="M635.885 457.641l-34.6406 -20s-121.203 -69.9336 -121.244 -70c-11.9746 -6.91602 -20 -19.79 -20 -34.6006c0 -1.7832 0.117188 -3.53906 0.34375 -5.26074c0.696289 -5.29297 2.45703 -10.3457 5.01562 -14.7793l105 -181.865l20 -34.6406l69.2812 40l-20 34.6406
l-85 147.225l86.6035 50l34.6406 20zM500 703c203.989 0 370 -166.011 370 -370s-166.011 -370 -370 -370s-370 166.011 -370 370s166.011 370 370 370z" />
    <glyph glyph-name="uF001E" unicode="&#xf001e;" 
d="M635.885 457.641l-34.6406 -20s-121.201 -69.9746 -121.244 -70c-11.9756 -6.91504 -19.999 -19.8301 -20 -34.6406v-210v-40h80v40v186.906l101.244 58.4531l34.6406 20zM500 703c203.989 0 370 -166.011 370 -370s-166.011 -370 -370 -370s-370 166.011 -370 370
s166.011 370 370 370z" />
    <glyph glyph-name="uF001F" unicode="&#xf001f;" 
d="M635.885 457.641l-34.6406 -20s-121.176 -69.9316 -121.244 -70c-6.10059 -3.52246 -11.1182 -8.54004 -14.6406 -14.6406l-105 -181.865l-20 -34.6406l69.2812 -40l20 34.6406l99.6406 172.584l111.963 64.6406l34.6406 20zM500 703c203.989 0 370 -166.011 370 -370
s-166.011 -370 -370 -370s-370 166.011 -370 370s166.011 370 370 370z" />
    <glyph glyph-name="uF0020" unicode="&#xf0020;" 
d="M635.885 457.641l-34.6406 -20l-121.244 -70l-181.865 -105l-34.6406 -20l40 -69.2812l34.6406 20l181.865 105l121.244 70l34.6406 20zM500 703c203.989 0 370 -166.011 370 -370s-166.011 -370 -370 -370s-370 166.011 -370 370s166.011 370 370 370z" />
    <glyph glyph-name="uF0021" unicode="&#xf0021;" 
d="M635.885 457.641l-34.6406 -20l-111.963 -64.6406h-199.281h-40v-80h40h210c7.26562 0 14.125 1.96777 20 5.35938l121.244 70l34.6406 20zM500 703c203.989 0 370 -166.011 370 -370s-166.011 -370 -370 -370s-370 166.011 -370 370s166.011 370 370 370z" />
    <glyph glyph-name="uF0022" unicode="&#xf0022;" 
d="M303.494 492.641l-40 -69.2812l34.6406 -20l181.865 -105c5.875 -3.3916 12.7773 -5.33301 20.043 -5.33301s14.082 1.94141 19.957 5.33301l121.244 70l34.6406 20l-40 69.2812l-34.6406 -20l-101.244 -58.4531l-161.865 93.4531zM500 703
c203.989 0 370 -166.011 370 -370s-166.011 -370 -370 -370s-370 166.011 -370 370s166.011 370 370 370z" />
    <glyph glyph-name="uF0023" unicode="&#xf0023;" 
d="M409.641 569.506l-69.2812 -40l20 -34.6406s105.018 -181.797 105 -181.865c6.91602 -11.9746 19.875 -19.9727 34.6855 -19.9727c7.26465 0 14.0801 1.94141 19.9551 5.33203l121.244 70l34.6406 20l-40 69.2812l-34.6406 -20l-86.6035 -50l-85 147.225zM500 703
c203.989 0 370 -166.011 370 -370s-166.011 -370 -370 -370s-370 166.011 -370 370s166.011 370 370 370z" />
    <glyph glyph-name="uF0024" unicode="&#xf0024;" 
d="M460 583v-40v-210c0.00195312 -22.0752 17.9248 -39.998 40 -40h140h40v80h-40h-100v170v40h-80zM500 703c203.989 0 370 -166.011 370 -370s-166.011 -370 -370 -370s-370 166.011 -370 370s166.011 370 370 370z" />
    <glyph glyph-name="uF0025" unicode="&#xf0025;" 
d="M590.359 569.506l-20 -34.6406l-105 -181.865c-2.72559 -4.72266 -4.54199 -10.1357 -5.13867 -15.8184c-0.145508 -1.38672 -0.21875 -2.75293 -0.21875 -4.17773c0 -22.0771 17.9219 -40.001 39.998 -40.0039h140h40v80h-40h-70.7188l70.3594 121.865l20 34.6406z
M500 703c203.989 0 370 -166.011 370 -370s-166.011 -370 -370 -370s-370 166.011 -370 370s166.011 370 370 370z" />
    <glyph glyph-name="uF0026" unicode="&#xf0026;" 
d="M696.506 492.641l-34.6406 -20s-181.823 -105.011 -181.865 -105c-10.0459 -5.80469 -17.2979 -15.8623 -19.3828 -27.6953c-0.399414 -2.26562 -0.606445 -4.56152 -0.606445 -6.94141c0 -22.0742 17.917 -39.9961 39.9893 -40.0039h140h40v80h-30.7188l52.584 30.3594
l34.6406 20zM500 703c203.989 0 370 -166.011 370 -370s-166.011 -370 -370 -370s-370 166.011 -370 370s166.011 370 370 370z" />
    <glyph glyph-name="uF0027" unicode="&#xf0027;" 
d="M500 373c-21.8135 -0.308594 -39.4365 -18.0889 -39.4365 -39.9756c0 -3.04004 0.339844 -6.00098 0.983398 -8.84668c3.99023 -17.6475 19.6689 -30.9121 38.4531 -31.1777h140h40h30h40v80h-40h-30h-180zM500 703c203.989 0 370 -166.011 370 -370
s-166.011 -370 -370 -370s-370 166.011 -370 370s166.011 370 370 370z" />
    <glyph glyph-name="uF0028" unicode="&#xf0028;" 
d="M500 373c-22.0723 0 -39.9902 -17.8945 -39.9902 -39.9678c0 -2.37988 0.208008 -4.71191 0.607422 -6.97754c2.08496 -11.833 9.33691 -21.8906 19.3828 -27.6953l181.865 -105l34.6406 -20l40 69.2812l-34.6406 20l-52.584 30.3594h30.7188v80h-40h-140zM500 703
c203.989 0 370 -166.011 370 -370s-166.011 -370 -370 -370s-370 166.011 -370 370s166.011 370 370 370z" />
    <glyph glyph-name="uF0029" unicode="&#xf0029;" 
d="M500 373c-22.0762 0 -40 -17.8867 -40 -39.9629c0 -1.4248 0.0751953 -2.83203 0.220703 -4.21875c0.59668 -5.68262 2.41309 -11.0957 5.13867 -15.8184l105 -181.865l20 -34.6406l69.2812 40l-20 34.6406l-70.3594 121.865h70.7188h40v80h-40h-140zM500 703
c203.989 0 370 -166.011 370 -370s-166.011 -370 -370 -370s-370 166.011 -370 370s166.011 370 370 370z" />
    <glyph glyph-name="uF002A" unicode="&#xf002a;" 
d="M500 373c-22.0752 0 -39.998 -17.9248 -40 -40v-210v-40h80v40v170h100h40v80h-40h-140zM500 703c203.989 0 370 -166.011 370 -370s-166.011 -370 -370 -370s-370 166.011 -370 370s166.011 370 370 370z" />
    <glyph glyph-name="uF002B" unicode="&#xf002b;" 
d="M500 373c-14.8105 0 -27.7256 -8.02441 -34.6406 -20l-105 -181.865l-20 -34.6406l69.2812 -40l20 34.6406l93.4531 161.865h116.906h40v80h-40h-140zM500 703c203.989 0 370 -166.011 370 -370s-166.011 -370 -370 -370s-370 166.011 -370 370s166.011 370 370 370z" />
    <glyph glyph-name="uF002C" unicode="&#xf002c;" 
d="M500 373c-7.26562 0 -14.125 -1.96777 -20 -5.35938l-181.865 -105l-34.6406 -20l40 -69.2812l34.6406 20l172.584 99.6406h129.281h40v80h-40h-140zM500 703c203.989 0 370 -166.011 370 -370s-166.011 -370 -370 -370s-370 166.011 -370 370s166.011 370 370 370z" />
    <glyph glyph-name="uF002D" unicode="&#xf002d;" 
d="M250 373v-80h40h210h140h40v80h-40h-140h-210h-40zM500 703c203.989 0 370 -166.011 370 -370s-166.011 -370 -370 -370s-370 166.011 -370 370s166.011 370 370 370z" />
    <glyph glyph-name="uF002E" unicode="&#xf002e;" 
d="M303.494 492.641l-40 -69.2812l34.6406 -20l181.865 -105c5.875 -3.3916 12.7344 -5.35938 20 -5.35938h140h40v80h-40h-129.281l-172.584 99.6406zM500 703c203.989 0 370 -166.011 370 -370s-166.011 -370 -370 -370s-370 166.011 -370 370s166.011 370 370 370z" />
    <glyph glyph-name="uF002F" unicode="&#xf002f;" 
d="M409.641 569.506l-69.2812 -40l20 -34.6406s104.975 -181.822 105 -181.865c6.91504 -11.9756 19.8301 -19.999 34.6406 -20h140h40v80h-40h-116.906l-93.4531 161.865zM500 703c203.989 0 370 -166.011 370 -370s-166.011 -370 -370 -370s-370 166.011 -370 370
s166.011 370 370 370z" />
    <glyph glyph-name="uF0030" unicode="&#xf0030;" 
d="M460 583v-40s-0.0429688 -209.975 0 -210c0.000976562 -14.8105 8.02441 -27.7256 20 -34.6406l121.244 -70l34.6406 -20l40 69.2812l-34.6406 20l-101.244 58.4531v186.906v40h-80zM500 703c203.989 0 370 -166.011 370 -370s-166.011 -370 -370 -370
s-370 166.011 -370 370s166.011 370 370 370z" />
    <glyph glyph-name="uF0031" unicode="&#xf0031;" 
d="M590.359 569.506l-20 -34.6406l-105 -181.865c-2.55859 -4.43359 -4.31934 -9.48633 -5.01562 -14.7793c-0.226562 -1.72168 -0.384766 -3.41113 -0.384766 -5.19336c0 -14.8105 8.06641 -27.752 20.041 -34.668l121.244 -70l34.6406 -20l40 69.2812l-34.6406 20
l-86.6035 50l85 147.225l20 34.6406zM500 703c203.989 0 370 -166.011 370 -370s-166.011 -370 -370 -370s-370 166.011 -370 370s166.011 370 370 370z" />
    <glyph glyph-name="uF0032" unicode="&#xf0032;" 
d="M696.506 492.641l-34.6406 -20s-181.821 -104.946 -181.865 -105c-11.9746 -6.91602 -19.9961 -19.8037 -19.9961 -34.6133c0 -2.86133 0.300781 -5.65234 0.873047 -8.34375c2.38965 -11.2412 9.46191 -20.7451 19.123 -26.3242l121.244 -70l34.6406 -20l40 69.2812
l-34.6406 20l-61.2441 35.3594l121.865 70.3594l34.6406 20zM500 703c203.989 0 370 -166.011 370 -370s-166.011 -370 -370 -370s-370 166.011 -370 370s166.011 370 370 370z" />
    <glyph glyph-name="uF0033" unicode="&#xf0033;" 
d="M500 373c-22.0723 0 -39.9902 -17.8945 -39.9902 -39.9678c0 -2.37988 0.208008 -4.71191 0.607422 -6.97754c2.08496 -11.833 9.33691 -21.8906 19.3828 -27.6953l121.244 -70l34.6406 -20l40 69.2812l-26.6035 15.3594h60.7188h40v80h-40h-210zM500 703
c203.989 0 370 -166.011 370 -370s-166.011 -370 -370 -370s-370 166.011 -370 370s166.011 370 370 370z" />
    <glyph glyph-name="uF0034" unicode="&#xf0034;" 
d="M505.291 372.432c-1.58691 0.191406 -3.16309 0.248047 -4.80176 0.248047c-20.2471 0 -37.001 -15.0742 -39.6416 -34.6016c-0.239258 -1.7666 -0.40332 -3.50391 -0.40332 -5.33594c0 -14.6094 7.84863 -27.4004 19.5557 -34.3828l121.244 -70l34.6406 -20l25.9805 -15
l34.6406 -20l40 69.2812l-34.6406 20l-25.9805 15l-34.6406 20l-121.244 70c-4.42578 2.47266 -9.45312 4.15527 -14.709 4.79102zM500 703c203.989 0 370 -166.011 370 -370s-166.011 -370 -370 -370s-370 166.011 -370 370s166.011 370 370 370z" />
    <glyph glyph-name="uF0035" unicode="&#xf0035;" 
d="M504.645 372.725c-1.53418 0.178711 -3.05371 0.237305 -4.63574 0.237305c-21.2842 0 -38.708 -16.6582 -39.9346 -37.6377c-0.0517578 -0.882085 -0.0429688 -1.58203 -0.0429688 -2.37598c0 -7.26172 1.93945 -14.0752 5.32812 -19.9482l105 -181.865l20 -34.6406
l69.2812 40l-20 34.6406l-30.3594 52.584l26.6035 -15.3594l40 69.2812l-34.6406 20l-121.244 70c-4.59375 2.65039 -9.84668 4.44141 -15.3555 5.08398zM500 703c203.989 0 370 -166.011 370 -370s-166.011 -370 -370 -370s-370 166.011 -370 370s166.011 370 370 370z" />
    <glyph glyph-name="uF0036" unicode="&#xf0036;" 
d="M504.182 372.777c-1.38672 0.145508 -2.75293 0.21875 -4.17773 0.21875c-22.0762 0 -40 -17.9209 -40.0039 -39.9961v-210v-40h80v40v140.719l61.2441 -35.3594l34.6406 -20l40 69.2812l-34.6406 20l-121.244 70c-4.72266 2.72559 -10.1357 4.54004 -15.8184 5.13672z
M500 703c203.989 0 370 -166.011 370 -370s-166.011 -370 -370 -370s-370 166.011 -370 370s166.011 370 370 370z" />
    <glyph glyph-name="uF0037" unicode="&#xf0037;" 
d="M505.221 372.656c-1.72168 0.226562 -3.41113 0.384766 -5.19336 0.384766c-14.8105 0 -27.752 -8.06641 -34.668 -20.041l-105 -181.865l-20 -34.6406l69.2812 -40l20 34.6406l85 147.225l86.6035 -50l34.6406 -20l40 69.2812l-34.6406 20l-121.244 70
c-4.43359 2.55859 -9.48633 4.31934 -14.7793 5.01562zM500 703c203.989 0 370 -166.011 370 -370s-166.011 -370 -370 -370s-370 166.011 -370 370s166.011 370 370 370z" />
    <glyph glyph-name="uF0038" unicode="&#xf0038;" 
d="M493.055 372.391c-4.65137 -0.819336 -9.10449 -2.46973 -13.0547 -4.75l-181.865 -105l-34.6406 -20l40 -69.2812l34.6406 20l161.865 93.4531l101.244 -58.4531l34.6406 -20l40 69.2812l-34.6406 20l-121.244 70c-5.875 3.3916 -12.6973 5.3584 -19.9629 5.3584
c-2.38184 0 -4.71484 -0.208984 -6.98242 -0.608398zM500 703c203.989 0 370 -166.011 370 -370s-166.011 -370 -370 -370s-370 166.011 -370 370s166.011 370 370 370z" />
    <glyph glyph-name="uF0039" unicode="&#xf0039;" 
d="M250 373v-80h40h199.281l111.963 -64.6406l34.6406 -20l40 69.2812l-34.6406 20l-121.244 70c-5.875 3.3916 -12.7344 5.35938 -20 5.35938h-210h-40zM500 703c203.989 0 370 -166.011 370 -370s-166.011 -370 -370 -370s-370 166.011 -370 370s166.011 370 370 370z" />
    <glyph glyph-name="uF003A" unicode="&#xf003a;" 
d="M303.494 492.641l-40 -69.2812l34.6406 -20l181.865 -105l121.244 -70l34.6406 -20l40 69.2812l-34.6406 20l-121.244 70l-181.865 105zM500 703c203.989 0 370 -166.011 370 -370s-166.011 -370 -370 -370s-370 166.011 -370 370s166.011 370 370 370z" />
    <glyph glyph-name="uF003B" unicode="&#xf003b;" 
d="M409.641 569.506l-69.2812 -40l20 -34.6406s104.932 -181.797 105 -181.865c3.52246 -6.10059 8.54004 -11.1182 14.6406 -14.6406l121.244 -70l34.6406 -20l40 69.2812l-34.6406 20l-111.963 64.6406l-99.6406 172.584zM500 703c203.989 0 370 -166.011 370 -370
s-166.011 -370 -370 -370s-370 166.011 -370 370s166.011 370 370 370z" />
    <glyph glyph-name="uF003C" unicode="&#xf003c;" 
d="M460 583v-40v-210c0 -7.26562 1.96777 -14.125 5.35938 -20l70 -121.244l20 -34.6406l69.2812 40l-20 34.6406l-64.6406 111.963v199.281v40h-80zM500 703c203.989 0 370 -166.011 370 -370s-166.011 -370 -370 -370s-370 166.011 -370 370s166.011 370 370 370z" />
    <glyph glyph-name="uF003D" unicode="&#xf003d;" 
d="M590.359 569.506l-20 -34.6406l-105 -181.865c-3.39258 -5.87598 -5.36035 -12.6992 -5.36035 -19.9658c0 -2.38086 0.208984 -4.71289 0.608398 -6.97949c0.820312 -4.65137 2.47168 -9.10449 4.75195 -13.0547l70 -121.244l20 -34.6406l69.2812 40l-20 34.6406
l-58.4531 101.244l93.4531 161.865l20 34.6406zM500 703c203.989 0 370 -166.011 370 -370s-166.011 -370 -370 -370s-370 166.011 -370 370s166.011 370 370 370z" />
    <glyph glyph-name="uF003E" unicode="&#xf003e;" 
d="M696.506 492.641l-34.6406 -20s-181.824 -104.934 -181.865 -105c-11.9746 -6.91602 -20 -19.79 -20 -34.6006c0 -1.7832 0.117188 -3.53906 0.34375 -5.26074c0.696289 -5.29297 2.45703 -10.3457 5.01562 -14.7793l70 -121.244l20 -34.6406l69.2812 40l-20 34.6406
l-50 86.6035l147.225 85l34.6406 20zM500 703c203.989 0 370 -166.011 370 -370s-166.011 -370 -370 -370s-370 166.011 -370 370s166.011 370 370 370z" />
    <glyph glyph-name="uF003F" unicode="&#xf003f;" 
d="M500 373c-22.0762 0 -40 -17.8867 -40 -39.9629c0 -1.4248 0.0751953 -2.83203 0.220703 -4.21875c0.59668 -5.68262 2.41309 -11.0957 5.13867 -15.8184l70 -121.244l20 -34.6406l69.2812 40l-20 34.6406l-35.3594 61.2441h140.719h40v80h-40h-210zM500 703
c203.989 0 370 -166.011 370 -370s-166.011 -370 -370 -370s-370 166.011 -370 370s166.011 370 370 370z" />
    <glyph glyph-name="uF0040" unicode="&#xf0040;" 
d="M504.645 372.725c-1.53418 0.178711 -3.05371 0.237305 -4.63574 0.237305c-21.2842 0 -38.708 -16.6582 -39.9346 -37.6377c-0.0517578 -0.882085 -0.0429688 -1.58203 -0.0429688 -2.37598c0 -7.26172 1.93945 -14.0752 5.32812 -19.9482l70 -121.244l20 -34.6406
l69.2812 40l-15.3594 26.6035l52.584 -30.3594l34.6406 -20l40 69.2812l-34.6406 20l-181.865 105c-4.59375 2.65039 -9.84668 4.44141 -15.3555 5.08398zM500 703c203.989 0 370 -166.011 370 -370s-166.011 -370 -370 -370s-370 166.011 -370 370s166.011 370 370 370z
" />
    <glyph glyph-name="uF0041" unicode="&#xf0041;" 
d="M505.27 372.201c-1.64648 0.207031 -3.28516 0.353516 -4.9873 0.353516c-22.0791 0 -40.0049 -17.9248 -40.0049 -40.0039c0 -1.63867 0.0996094 -3.25488 0.291016 -4.8418c0.635742 -5.25586 2.31836 -10.2832 4.79102 -14.709l70 -121.244l20 -34.6406l15 -25.9805
l20 -34.6406l69.2812 40l-20 34.6406l-15 25.9805l-20 34.6406s-70.0156 121.203 -70 121.244c-6.16797 10.3428 -16.8867 17.6328 -29.3711 19.2012zM500 703c203.989 0 370 -166.011 370 -370s-166.011 -370 -370 -370s-370 166.011 -370 370s166.011 370 370 370z" />
    <glyph glyph-name="uF0042" unicode="&#xf0042;" 
d="M506.945 372.381c-2.26562 0.399414 -4.56152 0.606445 -6.94141 0.606445c-22.0732 0 -39.9951 -17.916 -40.0039 -39.9873v-210v-40h80v40v60.7188l15.3594 -26.6035l69.2812 40l-20 34.6406s-70.0107 121.202 -70 121.244
c-5.80566 10.0459 -15.8623 17.2959 -27.6953 19.3809zM500 703c203.989 0 370 -166.011 370 -370s-166.011 -370 -370 -370s-370 166.011 -370 370s166.011 370 370 370z" />
    <glyph glyph-name="uF0043" unicode="&#xf0043;" 
d="M491.684 372.121c-11.2402 -2.38867 -20.7441 -9.46094 -26.3242 -19.1211l-105 -181.865l-20 -34.6406l69.2812 -40l20 34.6406l70.3594 121.865l35.3594 -61.2441l20 -34.6406l69.2812 40l-20 34.6406s-69.9463 121.2 -70 121.244
c-6.91602 11.9736 -19.8037 19.9941 -34.6123 19.9941c-2.86133 0 -5.65332 -0.300781 -8.34473 -0.873047zM500 703c203.989 0 370 -166.011 370 -370s-166.011 -370 -370 -370s-370 166.011 -370 370s166.011 370 370 370z" />
    <glyph glyph-name="uF0044" unicode="&#xf0044;" 
d="M494.779 372.656c-5.29297 -0.696289 -10.3457 -2.45703 -14.7793 -5.01562l-181.865 -105l-34.6406 -20l40 -69.2812l34.6406 20l147.225 85l50 -86.6035l20 -34.6406l69.2812 40l-20 34.6406s-69.9336 121.203 -70 121.244c-6.91602 11.9746 -19.79 20 -34.6006 20
c-1.7832 0 -3.53906 -0.117188 -5.26074 -0.34375zM500 703c203.989 0 370 -166.011 370 -370s-166.011 -370 -370 -370s-370 166.011 -370 370s166.011 370 370 370z" />
    <glyph glyph-name="uF0045" unicode="&#xf0045;" 
d="M250 373v-80h40h186.906l58.4531 -101.244l20 -34.6406l69.2812 40l-20 34.6406s-69.9746 121.201 -70 121.244c-6.91504 11.9756 -19.8301 19.999 -34.6406 20h-210h-40zM500 703c203.989 0 370 -166.011 370 -370s-166.011 -370 -370 -370s-370 166.011 -370 370
s166.011 370 370 370z" />
    <glyph glyph-name="uF0046" unicode="&#xf0046;" 
d="M303.494 492.641l-40 -69.2812l34.6406 -20l172.584 -99.6406l64.6406 -111.963l20 -34.6406l69.2812 40l-20 34.6406s-69.9316 121.176 -70 121.244c-3.52246 6.10059 -8.54004 11.1182 -14.6406 14.6406l-181.865 105zM500 703c203.989 0 370 -166.011 370 -370
s-166.011 -370 -370 -370s-370 166.011 -370 370s166.011 370 370 370z" />
    <glyph glyph-name="uF0047" unicode="&#xf0047;" 
d="M409.641 569.506l-69.2812 -40l20 -34.6406l105 -181.865l70 -121.244l20 -34.6406l69.2812 40l-20 34.6406l-70 121.244l-105 181.865zM500 703c203.989 0 370 -166.011 370 -370s-166.011 -370 -370 -370s-370 166.011 -370 370s166.011 370 370 370z" />
    <glyph glyph-name="uF0048" unicode="&#xf0048;" 
d="M460 583v-40v-210v-140v-40h80v40v140v210v40h-80zM500 703c203.989 0 370 -166.011 370 -370s-166.011 -370 -370 -370s-370 166.011 -370 370s166.011 370 370 370z" />
    <glyph glyph-name="uF0049" unicode="&#xf0049;" 
d="M590.359 569.506l-20 -34.6406l-105 -181.865c-3.3916 -5.875 -5.35938 -12.7344 -5.35938 -20v-140v-40h80v40v129.281l99.6406 172.584l20 34.6406zM500 703c203.989 0 370 -166.011 370 -370s-166.011 -370 -370 -370s-370 166.011 -370 370s166.011 370 370 370z" />
    <glyph glyph-name="uF004A" unicode="&#xf004a;" 
d="M696.506 492.641l-34.6406 -20s-181.822 -104.975 -181.865 -105c-11.9756 -6.91504 -19.999 -19.8301 -20 -34.6406v-140v-40h80v40v116.906l161.865 93.4531l34.6406 20zM500 703c203.989 0 370 -166.011 370 -370s-166.011 -370 -370 -370s-370 166.011 -370 370
s166.011 370 370 370z" />
    <glyph glyph-name="uF004B" unicode="&#xf004b;" 
d="M500 373c-22.0752 0 -39.998 -17.9248 -40 -40v-140v-40h80v40v100h170h40v80h-40h-210zM500 703c203.989 0 370 -166.011 370 -370s-166.011 -370 -370 -370s-370 166.011 -370 370s166.011 370 370 370z" />
    <glyph glyph-name="uF004C" unicode="&#xf004c;" 
d="M504.182 372.777c-1.38672 0.145508 -2.75293 0.21875 -4.17773 0.21875c-22.0762 0 -40 -17.9209 -40.0039 -39.9961v-140v-40h80v40v70.7188l121.865 -70.3594l34.6406 -20l40 69.2812l-34.6406 20l-181.865 105c-4.72266 2.72559 -10.1357 4.54004 -15.8184 5.13672z
M500 703c203.989 0 370 -166.011 370 -370s-166.011 -370 -370 -370s-370 166.011 -370 370s166.011 370 370 370z" />
    <glyph glyph-name="uF004D" unicode="&#xf004d;" 
d="M506.945 372.381c-2.26562 0.399414 -4.56152 0.606445 -6.94141 0.606445c-22.0732 0 -39.9951 -17.916 -40.0039 -39.9873v-140v-40h80v30.7188l30.3594 -52.584l20 -34.6406l69.2812 40l-20 34.6406s-105.011 181.823 -105 181.865
c-5.80566 10.0459 -15.8623 17.2959 -27.6953 19.3809zM500 703c203.989 0 370 -166.011 370 -370s-166.011 -370 -370 -370s-370 166.011 -370 370s166.011 370 370 370z" />
    <glyph glyph-name="uF004E" unicode="&#xf004e;" 
d="M491.178 371.453c-17.6475 -3.99023 -30.9121 -19.6689 -31.1777 -38.4531v-180v-30v-40h80v40v30v180c-0.308594 21.8135 -18.0889 39.4365 -39.9756 39.4365c-3.04004 0 -6.00098 -0.339844 -8.84668 -0.983398zM500 703c203.989 0 370 -166.011 370 -370
s-166.011 -370 -370 -370s-370 166.011 -370 370s166.011 370 370 370z" />
    <glyph glyph-name="uF004F" unicode="&#xf004f;" 
d="M493.055 372.381c-11.833 -2.08496 -21.8896 -9.33496 -27.6953 -19.3809l-105 -181.865l-20 -34.6406l69.2812 -40l20 34.6406l30.3594 52.584v-30.7188h80v40v140c-0.00878906 22.0713 -17.8945 39.9883 -39.9678 39.9883
c-2.37988 0 -4.71191 -0.208008 -6.97754 -0.607422zM500 703c203.989 0 370 -166.011 370 -370s-166.011 -370 -370 -370s-370 166.011 -370 370s166.011 370 370 370z" />
    <glyph glyph-name="uF0050" unicode="&#xf0050;" 
d="M495.818 372.777c-5.68262 -0.59668 -11.0957 -2.41113 -15.8184 -5.13672l-181.865 -105l-34.6406 -20l40 -69.2812l34.6406 20l121.865 70.3594v-70.7188v-40h80v40v140c-0.00390625 22.0752 -17.8867 39.998 -39.9629 39.998
c-1.4248 0 -2.83203 -0.0751953 -4.21875 -0.220703zM500 703c203.989 0 370 -166.011 370 -370s-166.011 -370 -370 -370s-370 166.011 -370 370s166.011 370 370 370z" />
    <glyph glyph-name="uF0051" unicode="&#xf0051;" 
d="M250 373v-80h40h170v-100v-40h80v40v140c-0.00195312 22.0752 -17.9248 39.998 -40 40h-210h-40zM500 703c203.989 0 370 -166.011 370 -370s-166.011 -370 -370 -370s-370 166.011 -370 370s166.011 370 370 370z" />
    <glyph glyph-name="uF0052" unicode="&#xf0052;" 
d="M303.494 492.641l-40 -69.2812l34.6406 -20l161.865 -93.4531v-116.906v-40h80v40s0.0429688 139.975 0 140c-0.000976562 14.8105 -8.02441 27.7256 -20 34.6406l-181.865 105zM500 703c203.989 0 370 -166.011 370 -370s-166.011 -370 -370 -370s-370 166.011 -370 370
s166.011 370 370 370z" />
    <glyph glyph-name="uF0053" unicode="&#xf0053;" 
d="M409.641 569.506l-69.2812 -40l20 -34.6406l99.6406 -172.584v-129.281v-40h80v40v140c0 7.26562 -1.96777 14.125 -5.35938 20l-105 181.865zM500 703c203.989 0 370 -166.011 370 -370s-166.011 -370 -370 -370s-370 166.011 -370 370s166.011 370 370 370z" />
    <glyph glyph-name="uF0054" unicode="&#xf0054;" 
d="M460 583v-40v-199.281l-64.6406 -111.963l-20 -34.6406l69.2812 -40l20 34.6406l70 121.244c3.3916 5.875 5.35938 12.7344 5.35938 20v210v40h-80zM500 703c203.989 0 370 -166.011 370 -370s-166.011 -370 -370 -370s-370 166.011 -370 370s166.011 370 370 370z" />
    <glyph glyph-name="uF0055" unicode="&#xf0055;" 
d="M590.359 569.506l-20 -34.6406l-105 -181.865l-70 -121.244l-20 -34.6406l69.2812 -40l20 34.6406l70 121.244l105 181.865l20 34.6406zM500 703c203.989 0 370 -166.011 370 -370s-166.011 -370 -370 -370s-370 166.011 -370 370s166.011 370 370 370z" />
    <glyph glyph-name="uF0056" unicode="&#xf0056;" 
d="M696.506 492.641l-34.6406 -20s-181.797 -104.932 -181.865 -105c-6.10059 -3.52246 -11.1182 -8.54004 -14.6406 -14.6406l-70 -121.244l-20 -34.6406l69.2812 -40l20 34.6406l64.6406 111.963l172.584 99.6406l34.6406 20zM500 703c203.989 0 370 -166.011 370 -370
s-166.011 -370 -370 -370s-370 166.011 -370 370s166.011 370 370 370z" />
    <glyph glyph-name="uF0057" unicode="&#xf0057;" 
d="M500 373c-14.8105 0 -27.7256 -8.02441 -34.6406 -20l-70 -121.244l-20 -34.6406l69.2812 -40l20 34.6406l58.4531 101.244h186.906h40v80h-40h-210zM500 703c203.989 0 370 -166.011 370 -370s-166.011 -370 -370 -370s-370 166.011 -370 370s166.011 370 370 370z" />
    <glyph glyph-name="uF0058" unicode="&#xf0058;" 
d="M505.221 372.656c-1.72168 0.226562 -3.41113 0.384766 -5.19336 0.384766c-14.8105 0 -27.752 -8.06641 -34.668 -20.041l-70 -121.244l-20 -34.6406l69.2812 -40l20 34.6406l50 86.6035l147.225 -85l34.6406 -20l40 69.2812l-34.6406 20l-181.865 105
c-4.43359 2.55859 -9.48633 4.31934 -14.7793 5.01562zM500 703c203.989 0 370 -166.011 370 -370s-166.011 -370 -370 -370s-370 166.011 -370 370s166.011 370 370 370z" />
    <glyph glyph-name="uF0059" unicode="&#xf0059;" 
d="M491.684 372.121c-11.2402 -2.38867 -20.7441 -9.46094 -26.3242 -19.1211l-70 -121.244l-20 -34.6406l69.2812 -40l20 34.6406l35.3594 61.2441l70.3594 -121.865l20 -34.6406l69.2812 40l-20 34.6406s-104.946 181.821 -105 181.865
c-6.91602 11.9736 -19.8037 19.9941 -34.6123 19.9941c-2.86133 0 -5.65332 -0.300781 -8.34473 -0.873047zM500 703c203.989 0 370 -166.011 370 -370s-166.011 -370 -370 -370s-370 166.011 -370 370s166.011 370 370 370z" />
    <glyph glyph-name="uF005A" unicode="&#xf005a;" 
d="M493.055 372.381c-11.833 -2.08496 -21.8896 -9.33496 -27.6953 -19.3809l-70 -121.244l-20 -34.6406l69.2812 -40l15.3594 26.6035v-60.7188v-40h80v40v210c-0.00878906 22.0713 -17.8945 39.9883 -39.9678 39.9883c-2.37988 0 -4.71191 -0.208008 -6.97754 -0.607422z
M500 703c203.989 0 370 -166.011 370 -370s-166.011 -370 -370 -370s-370 166.011 -370 370s166.011 370 370 370z" />
    <glyph glyph-name="uF005B" unicode="&#xf005b;" 
d="M493.992 372.084c-12.165 -1.75586 -22.583 -8.95215 -28.6328 -19.084l-70 -121.244l-20 -34.6406l-15 -25.9805l-20 -34.6406l69.2812 -40l20 34.6406l15 25.9805l20 34.6406l70 121.244c3.21289 5.75879 5.10938 12.4346 5.10938 19.4912
c0 22.0791 -17.9248 40.0039 -40.0039 40.0039c-1.9541 0 -3.875 -0.139648 -5.75391 -0.411133zM500 703c203.989 0 370 -166.011 370 -370s-166.011 -370 -370 -370s-370 166.011 -370 370s166.011 370 370 370z" />
    <glyph glyph-name="uF005C" unicode="&#xf005c;" 
d="M505.217 372.648c-1.72461 0.227539 -3.48535 0.317383 -5.27246 0.317383c-7.26074 0 -14.0723 -1.93848 -19.9443 -5.3252l-181.865 -105l-34.6406 -20l40 -69.2812l34.6406 20l52.584 30.3594l-15.3594 -26.6035l69.2812 -40l20 34.6406l70 121.244
c3.3877 5.87207 5.30957 12.7285 5.30957 19.9893c0 20.292 -15.1416 37.0762 -34.7334 39.6592zM500 703c203.989 0 370 -166.011 370 -370s-166.011 -370 -370 -370s-370 166.011 -370 370s166.011 370 370 370z" />
    <glyph glyph-name="uF005D" unicode="&#xf005d;" 
d="M250 373v-80h40h140.719l-35.3594 -61.2441l-20 -34.6406l69.2812 -40l20 34.6406l70 121.244c3.39062 5.87402 5.35547 12.7314 5.35547 19.9961c0 22.0762 -17.9209 40 -39.9961 40.0039h-210h-40zM500 703c203.989 0 370 -166.011 370 -370s-166.011 -370 -370 -370
s-370 166.011 -370 370s166.011 370 370 370z" />
    <glyph glyph-name="uF005E" unicode="&#xf005e;" 
d="M303.494 492.641l-40 -69.2812l34.6406 -20l147.225 -85l-50 -86.6035l-20 -34.6406l69.2812 -40l20 34.6406l70 121.244c3.39062 5.875 5.40039 12.708 5.40039 19.9727c0 14.8105 -8.06641 27.752 -20.041 34.668l-181.865 105zM500 703
c203.989 0 370 -166.011 370 -370s-166.011 -370 -370 -370s-370 166.011 -370 370s166.011 370 370 370z" />
    <glyph glyph-name="uF005F" unicode="&#xf005f;" 
d="M409.641 569.506l-69.2812 -40l20 -34.6406l93.4531 -161.865l-58.4531 -101.244l-20 -34.6406l69.2812 -40l20 34.6406l70 121.244c3.3916 5.875 5.33301 12.7773 5.33301 20.043s-1.94141 14.082 -5.33301 19.957l-105 181.865zM500 703
c203.989 0 370 -166.011 370 -370s-166.011 -370 -370 -370s-370 166.011 -370 370s166.011 370 370 370z" />
    <glyph glyph-name="uF0060" unicode="&#xf0060;" 
d="M460 583v-40v-186.906l-101.244 -58.4531l-34.6406 -20l40 -69.2812l34.6406 20s121.201 69.9746 121.244 70c11.9756 6.91504 19.999 19.8301 20 34.6406v210v40h-80zM500 703c203.989 0 370 -166.011 370 -370s-166.011 -370 -370 -370s-370 166.011 -370 370
s166.011 370 370 370z" />
    <glyph glyph-name="uF0061" unicode="&#xf0061;" 
d="M590.359 569.506l-20 -34.6406l-99.6406 -172.584l-111.963 -64.6406l-34.6406 -20l40 -69.2812l34.6406 20s121.176 69.9316 121.244 70c6.10059 3.52246 11.1182 8.54004 14.6406 14.6406l105 181.865l20 34.6406zM500 703c203.989 0 370 -166.011 370 -370
s-166.011 -370 -370 -370s-370 166.011 -370 370s166.011 370 370 370z" />
    <glyph glyph-name="uF0062" unicode="&#xf0062;" 
d="M696.506 492.641l-34.6406 -20l-181.865 -105l-121.244 -70l-34.6406 -20l40 -69.2812l34.6406 20l121.244 70l181.865 105l34.6406 20zM500 703c203.989 0 370 -166.011 370 -370s-166.011 -370 -370 -370s-370 166.011 -370 370s166.011 370 370 370z" />
    <glyph glyph-name="uF0063" unicode="&#xf0063;" 
d="M500 373c-7.26562 0 -14.125 -1.96777 -20 -5.35938l-121.244 -70l-34.6406 -20l40 -69.2812l34.6406 20l111.963 64.6406h199.281h40v80h-40h-210zM500 703c203.989 0 370 -166.011 370 -370s-166.011 -370 -370 -370s-370 166.011 -370 370s166.011 370 370 370z" />
    <glyph glyph-name="uF0064" unicode="&#xf0064;" 
d="M493.055 372.391c-4.65137 -0.819336 -9.10449 -2.46973 -13.0547 -4.75l-121.244 -70l-34.6406 -20l40 -69.2812l34.6406 20l101.244 58.4531l161.865 -93.4531l34.6406 -20l40 69.2812l-34.6406 20l-181.865 105c-5.875 3.3916 -12.6973 5.3584 -19.9629 5.3584
c-2.38184 0 -4.71484 -0.208984 -6.98242 -0.608398zM500 703c203.989 0 370 -166.011 370 -370s-166.011 -370 -370 -370s-370 166.011 -370 370s166.011 370 370 370z" />
    <glyph glyph-name="uF0065" unicode="&#xf0065;" 
d="M494.779 372.656c-5.29297 -0.696289 -10.3457 -2.45703 -14.7793 -5.01562l-121.244 -70l-34.6406 -20l40 -69.2812l34.6406 20l86.6035 50l85 -147.225l20 -34.6406l69.2812 40l-20 34.6406s-104.934 181.824 -105 181.865c-6.91602 11.9746 -19.79 20 -34.6006 20
c-1.7832 0 -3.53906 -0.117188 -5.26074 -0.34375zM500 703c203.989 0 370 -166.011 370 -370s-166.011 -370 -370 -370s-370 166.011 -370 370s166.011 370 370 370z" />
    <glyph glyph-name="uF0066" unicode="&#xf0066;" 
d="M495.818 372.777c-5.68262 -0.59668 -11.0957 -2.41113 -15.8184 -5.13672l-121.244 -70l-34.6406 -20l40 -69.2812l34.6406 20l61.2441 35.3594v-140.719v-40h80v40v210c-0.00390625 22.0752 -17.8867 39.998 -39.9629 39.998
c-1.4248 0 -2.83203 -0.0751953 -4.21875 -0.220703zM500 703c203.989 0 370 -166.011 370 -370s-166.011 -370 -370 -370s-370 166.011 -370 370s166.011 370 370 370z" />
    <glyph glyph-name="uF0067" unicode="&#xf0067;" 
d="M505.217 372.648c-1.72461 0.227539 -3.48535 0.317383 -5.27246 0.317383c-7.26074 0 -14.0723 -1.93848 -19.9443 -5.3252l-121.244 -70l-34.6406 -20l40 -69.2812l26.6035 15.3594l-30.3594 -52.584l-20 -34.6406l69.2812 -40l20 34.6406l105 181.865
c3.3877 5.87207 5.30957 12.7285 5.30957 19.9893c0 20.292 -15.1416 37.0762 -34.7334 39.6592zM500 703c203.989 0 370 -166.011 370 -370s-166.011 -370 -370 -370s-370 166.011 -370 370s166.011 370 370 370z" />
    <glyph glyph-name="uF0068" unicode="&#xf0068;" 
d="M496.92 372.627c-6.08398 -0.391602 -11.875 -2.17188 -16.9199 -4.98633l-121.244 -70l-34.6406 -20l-25.9805 -15l-34.6406 -20l40 -69.2812l34.6406 20l25.9805 15l34.6406 20s121.235 69.9756 121.244 70c11.6963 6.98438 19.5283 19.7451 19.5283 34.3467
c0 22.0791 -17.9258 40.0049 -40.0039 40.0049c-0.875 0 -1.74316 -0.0283203 -2.60449 -0.0839844zM500 703c203.989 0 370 -166.011 370 -370s-166.011 -370 -370 -370s-370 166.011 -370 370s166.011 370 370 370z" />
    <glyph glyph-name="uF0069" unicode="&#xf0069;" 
d="M250 373v-80h40h60.7188l-26.6035 -15.3594l40 -69.2812l34.6406 20s121.201 69.9746 121.244 70c11.9697 6.91699 19.9883 19.8301 19.9883 34.6367c0 22.0732 -17.917 39.9951 -39.9883 40.0039h-210h-40zM500 703c203.989 0 370 -166.011 370 -370
s-166.011 -370 -370 -370s-370 166.011 -370 370s166.011 370 370 370z" />
    <glyph glyph-name="uF006A" unicode="&#xf006a;" 
d="M303.494 492.641l-40 -69.2812l34.6406 -20l121.865 -70.3594l-61.2441 -35.3594l-34.6406 -20l40 -69.2812l34.6406 20s121.244 69.9492 121.244 70c11.9736 6.91602 20.0381 19.8057 20.0381 34.6152s-8.06445 27.75 -20.0381 34.666l-181.865 105zM500 703
c203.989 0 370 -166.011 370 -370s-166.011 -370 -370 -370s-370 166.011 -370 370s166.011 370 370 370z" />
    <glyph glyph-name="uF006B" unicode="&#xf006b;" 
d="M409.641 569.506l-69.2812 -40l20 -34.6406l85 -147.225l-86.6035 -50l-34.6406 -20l40 -69.2812l34.6406 20s121.176 70.0176 121.244 70c11.9746 6.91602 19.9727 19.875 19.9727 34.6855c0 7.26465 -1.94141 14.0801 -5.33203 19.9551l-105 181.865zM500 703
c203.989 0 370 -166.011 370 -370s-166.011 -370 -370 -370s-370 166.011 -370 370s166.011 370 370 370z" />
    <glyph glyph-name="uF006C" unicode="&#xf006c;" 
d="M460 583v-40v-170h-100h-40v-80h40h140c22.0752 0.00195312 39.998 17.9248 40 40v210v40h-80zM500 703c203.989 0 370 -166.011 370 -370s-166.011 -370 -370 -370s-370 166.011 -370 370s166.011 370 370 370z" />
    <glyph glyph-name="uF006D" unicode="&#xf006d;" 
d="M590.359 569.506l-20 -34.6406l-93.4531 -161.865h-116.906h-40v-80h40s139.975 -0.0429688 140 0c14.8105 0.000976562 27.7256 8.02441 34.6406 20l105 181.865l20 34.6406zM500 703c203.989 0 370 -166.011 370 -370s-166.011 -370 -370 -370s-370 166.011 -370 370
s166.011 370 370 370z" />
    <glyph glyph-name="uF006E" unicode="&#xf006e;" 
d="M696.506 492.641l-34.6406 -20l-172.584 -99.6406h-129.281h-40v-80h40h140c7.26562 0 14.125 1.96777 20 5.35938l181.865 105l34.6406 20zM500 703c203.989 0 370 -166.011 370 -370s-166.011 -370 -370 -370s-370 166.011 -370 370s166.011 370 370 370z" />
    <glyph glyph-name="uF006F" unicode="&#xf006f;" 
d="M320 373v-80h40h140h210h40v80h-40h-210h-140h-40zM500 703c203.989 0 370 -166.011 370 -370s-166.011 -370 -370 -370s-370 166.011 -370 370s166.011 370 370 370z" />
    <glyph glyph-name="uF0070" unicode="&#xf0070;" 
d="M320 373v-80h40h129.281l172.584 -99.6406l34.6406 -20l40 69.2812l-34.6406 20l-181.865 105c-5.875 3.3916 -12.7344 5.35938 -20 5.35938h-140h-40zM500 703c203.989 0 370 -166.011 370 -370s-166.011 -370 -370 -370s-370 166.011 -370 370s166.011 370 370 370z
" />
    <glyph glyph-name="uF0071" unicode="&#xf0071;" 
d="M320 373v-80h40h116.906l93.4531 -161.865l20 -34.6406l69.2812 40l-20 34.6406s-104.975 181.822 -105 181.865c-6.91504 11.9756 -19.8301 19.999 -34.6406 20h-140h-40zM500 703c203.989 0 370 -166.011 370 -370s-166.011 -370 -370 -370s-370 166.011 -370 370
s166.011 370 370 370z" />
    <glyph glyph-name="uF0072" unicode="&#xf0072;" 
d="M320 373v-80h40h100v-170v-40h80v40v210c-0.00195312 22.0752 -17.9248 39.998 -40 40h-140h-40zM500 703c203.989 0 370 -166.011 370 -370s-166.011 -370 -370 -370s-370 166.011 -370 370s166.011 370 370 370z" />
    <glyph glyph-name="uF0073" unicode="&#xf0073;" 
d="M320 373v-80h40h70.7188l-70.3594 -121.865l-20 -34.6406l69.2812 -40l20 34.6406l105 181.865c3.39062 5.87402 5.35547 12.7314 5.35547 19.9961c0 22.0762 -17.9209 40 -39.9961 40.0039h-140h-40zM500 703c203.989 0 370 -166.011 370 -370s-166.011 -370 -370 -370
s-370 166.011 -370 370s166.011 370 370 370z" />
    <glyph glyph-name="uF0074" unicode="&#xf0074;" 
d="M320 373v-80h30.7188l-52.584 -30.3594l-34.6406 -20l40 -69.2812l34.6406 20s181.822 104.975 181.865 105c11.9697 6.91699 19.9883 19.8301 19.9883 34.6367c0 22.0732 -17.917 39.9951 -39.9883 40.0039h-140h-40zM500 703c203.989 0 370 -166.011 370 -370
s-166.011 -370 -370 -370s-370 166.011 -370 370s166.011 370 370 370z" />
    <glyph glyph-name="uF0075" unicode="&#xf0075;" 
d="M250 373v-80h40h30h40h140c21.8135 0.308594 39.4277 18.1133 39.4277 40s-17.6143 39.6914 -39.4277 40h-140h-40h-30h-40zM500 703c203.989 0 370 -166.011 370 -370s-166.011 -370 -370 -370s-370 166.011 -370 370s166.011 370 370 370z" />
    <glyph glyph-name="uF0076" unicode="&#xf0076;" 
d="M303.494 492.641l-40 -69.2812l34.6406 -20l52.584 -30.3594h-30.7188v-80h40h140c22.0713 0.00878906 40.0312 17.9053 40.0312 39.9785c0 14.8066 -8.06152 27.7451 -20.0312 34.6621l-181.865 105zM500 703c203.989 0 370 -166.011 370 -370s-166.011 -370 -370 -370
s-370 166.011 -370 370s166.011 370 370 370z" />
    <glyph glyph-name="uF0077" unicode="&#xf0077;" 
d="M409.641 569.506l-69.2812 -40l20 -34.6406l70.3594 -121.865h-70.7188h-40v-80h40s139.975 0.0429688 140 0c22.0752 0.00390625 39.9717 17.9707 39.9717 40.0469c0 7.26367 -1.94043 14.0791 -5.33105 19.9531l-105 181.865zM500 703c203.989 0 370 -166.011 370 -370
s-166.011 -370 -370 -370s-370 166.011 -370 370s166.011 370 370 370z" />
    <glyph glyph-name="uF0078" unicode="&#xf0078;" 
d="M460 583v-40v-140.719l-61.2441 35.3594l-34.6406 20l-40 -69.2812l34.6406 -20l121.244 -70c5.87402 -3.39062 12.7314 -5.35547 19.9961 -5.35547c22.0762 0 40 17.9209 40.0039 39.9961v210v40h-80zM500 703c203.989 0 370 -166.011 370 -370s-166.011 -370 -370 -370
s-370 166.011 -370 370s166.011 370 370 370z" />
    <glyph glyph-name="uF0079" unicode="&#xf0079;" 
d="M590.359 569.506l-20 -34.6406l-85 -147.225l-86.6035 50l-34.6406 20l-40 -69.2812l34.6406 -20l121.244 -70c5.875 -3.39062 12.708 -5.40039 19.9727 -5.40039c14.8105 0 27.752 8.06641 34.668 20.041l105 181.865l20 34.6406zM500 703
c203.989 0 370 -166.011 370 -370s-166.011 -370 -370 -370s-370 166.011 -370 370s166.011 370 370 370z" />
    <glyph glyph-name="uF007A" unicode="&#xf007a;" 
d="M696.506 492.641l-34.6406 -20l-161.865 -93.4531l-101.244 58.4531l-34.6406 20l-40 -69.2812l34.6406 -20l121.244 -70c5.875 -3.3916 12.7773 -5.33301 20.043 -5.33301s14.082 1.94141 19.957 5.33301l181.865 105l34.6406 20zM500 703
c203.989 0 370 -166.011 370 -370s-166.011 -370 -370 -370s-370 166.011 -370 370s166.011 370 370 370z" />
    <glyph glyph-name="uF007B" unicode="&#xf007b;" 
d="M364.115 457.641l-40 -69.2812l34.6406 -20l121.244 -70c5.875 -3.3916 12.7344 -5.35938 20 -5.35938h210h40v80h-40h-199.281l-111.963 64.6406zM500 703c203.989 0 370 -166.011 370 -370s-166.011 -370 -370 -370s-370 166.011 -370 370s166.011 370 370 370z" />
    <glyph glyph-name="uF007C" unicode="&#xf007c;" 
d="M364.115 457.641l-40 -69.2812l34.6406 -20l121.244 -70l181.865 -105l34.6406 -20l40 69.2812l-34.6406 20l-181.865 105l-121.244 70zM500 703c203.989 0 370 -166.011 370 -370s-166.011 -370 -370 -370s-370 166.011 -370 370s166.011 370 370 370z" />
    <glyph glyph-name="uF007D" unicode="&#xf007d;" 
d="M364.115 457.641l-40 -69.2812l34.6406 -20l111.963 -64.6406l99.6406 -172.584l20 -34.6406l69.2812 40l-20 34.6406s-104.932 181.797 -105 181.865c-3.52246 6.10059 -8.54004 11.1182 -14.6406 14.6406l-121.244 70zM500 703c203.989 0 370 -166.011 370 -370
s-166.011 -370 -370 -370s-370 166.011 -370 370s166.011 370 370 370z" />
    <glyph glyph-name="uF007E" unicode="&#xf007e;" 
d="M364.115 457.641l-40 -69.2812l34.6406 -20l101.244 -58.4531v-186.906v-40h80v40s0.0429688 209.975 0 210c-0.000976562 14.8105 -8.02441 27.7256 -20 34.6406l-121.244 70zM500 703c203.989 0 370 -166.011 370 -370s-166.011 -370 -370 -370s-370 166.011 -370 370
s166.011 370 370 370z" />
    <glyph glyph-name="uF007F" unicode="&#xf007f;" 
d="M364.115 457.641l-40 -69.2812l34.6406 -20l86.6035 -50l-85 -147.225l-20 -34.6406l69.2812 -40l20 34.6406l105 181.865c3.39062 5.875 5.40039 12.708 5.40039 19.9727c0 14.8105 -8.06641 27.752 -20.041 34.668l-121.244 70zM500 703
c203.989 0 370 -166.011 370 -370s-166.011 -370 -370 -370s-370 166.011 -370 370s166.011 370 370 370z" />
    <glyph glyph-name="uF0080" unicode="&#xf0080;" 
d="M364.115 457.641l-40 -69.2812l34.6406 -20l61.2441 -35.3594l-121.865 -70.3594l-34.6406 -20l40 -69.2812l34.6406 20s181.865 104.949 181.865 105c11.9736 6.91602 20.0381 19.8057 20.0381 34.6152s-8.06445 27.75 -20.0381 34.666l-121.244 70zM500 703
c203.989 0 370 -166.011 370 -370s-166.011 -370 -370 -370s-370 166.011 -370 370s166.011 370 370 370z" />
    <glyph glyph-name="uF0081" unicode="&#xf0081;" 
d="M364.115 457.641l-40 -69.2812l26.6035 -15.3594h-60.7188h-40v-80h40h210c22.0713 0.00878906 40.0312 17.9053 40.0312 39.9785c0 14.8066 -8.06152 27.7451 -20.0312 34.6621l-121.244 70zM500 703c203.989 0 370 -166.011 370 -370s-166.011 -370 -370 -370
s-370 166.011 -370 370s166.011 370 370 370z" />
    <glyph glyph-name="uF0082" unicode="&#xf0082;" 
d="M303.494 492.641l-40 -69.2812l34.6406 -20l25.9805 -15l34.6406 -20l121.244 -70c5.75879 -3.21289 12.4756 -5.09375 19.5322 -5.09375c22.0791 0 40.0039 17.9248 40.0039 40.0039c0 14.6016 -7.83984 27.3867 -19.5361 34.3711l-121.244 70l-34.6406 20l-25.9805 15z
M500 703c203.989 0 370 -166.011 370 -370s-166.011 -370 -370 -370s-370 166.011 -370 370s166.011 370 370 370z" />
    <glyph glyph-name="uF0083" unicode="&#xf0083;" 
d="M409.641 569.506l-69.2812 -40l20 -34.6406l30.3594 -52.584l-26.6035 15.3594l-40 -69.2812l34.6406 -20l121.244 -70c5.87305 -3.3877 12.7021 -5.30859 19.9629 -5.30859c22.0791 0 40.0039 17.9248 40.0039 40.0039c0 7.26074 -1.93848 14.0723 -5.32617 19.9453
l-105 181.865zM500 703c203.989 0 370 -166.011 370 -370s-166.011 -370 -370 -370s-370 166.011 -370 370s166.011 370 370 370z" />
    <glyph glyph-name="uF0084" unicode="&#xf0084;" 
d="M460 583v-40v-60.7188l-15.3594 26.6035l-69.2812 -40l20 -34.6406s69.9746 -121.201 70 -121.244c6.91699 -11.9697 19.8301 -19.9883 34.6367 -19.9883c22.0732 0 39.9951 17.917 40.0039 39.9883v210v40h-80zM500 703c203.989 0 370 -166.011 370 -370
s-166.011 -370 -370 -370s-370 166.011 -370 370s166.011 370 370 370z" />
    <glyph glyph-name="uF0085" unicode="&#xf0085;" 
d="M590.359 569.506l-20 -34.6406l-70.3594 -121.865l-35.3594 61.2441l-20 34.6406l-69.2812 -40l20 -34.6406s69.9492 -121.244 70 -121.244c6.91602 -11.9736 19.8057 -20.0381 34.6152 -20.0381s27.75 8.06445 34.666 20.0381l105 181.865l20 34.6406zM500 703
c203.989 0 370 -166.011 370 -370s-166.011 -370 -370 -370s-370 166.011 -370 370s166.011 370 370 370z" />
    <glyph glyph-name="uF0086" unicode="&#xf0086;" 
d="M444.641 508.885l-69.2812 -40l20 -34.6406s70.0176 -121.176 70 -121.244c6.91602 -11.9746 19.875 -19.9727 34.6855 -19.9727c7.26465 0 14.0801 1.94141 19.9551 5.33203l181.865 105l34.6406 20l-40 69.2812l-34.6406 -20l-147.225 -85l-50 86.6035zM500 703
c203.989 0 370 -166.011 370 -370s-166.011 -370 -370 -370s-370 166.011 -370 370s166.011 370 370 370z" />
    <glyph glyph-name="uF0087" unicode="&#xf0087;" 
d="M444.641 508.885l-69.2812 -40l20 -34.6406s69.9746 -121.201 70 -121.244c6.91504 -11.9756 19.8301 -19.999 34.6406 -20h210h40v80h-40h-186.906l-58.4531 101.244zM500 703c203.989 0 370 -166.011 370 -370s-166.011 -370 -370 -370s-370 166.011 -370 370
s166.011 370 370 370z" />
    <glyph glyph-name="uF0088" unicode="&#xf0088;" 
d="M444.641 508.885l-69.2812 -40l20 -34.6406s69.9316 -121.176 70 -121.244c3.52246 -6.10059 8.54004 -11.1182 14.6406 -14.6406l181.865 -105l34.6406 -20l40 69.2812l-34.6406 20l-172.584 99.6406l-64.6406 111.963zM500 703c203.989 0 370 -166.011 370 -370
s-166.011 -370 -370 -370s-370 166.011 -370 370s166.011 370 370 370z" />
    <glyph glyph-name="uF0089" unicode="&#xf0089;" 
d="M444.641 508.885l-69.2812 -40l20 -34.6406l70 -121.244l105 -181.865l20 -34.6406l69.2812 40l-20 34.6406l-105 181.865l-70 121.244zM500 703c203.989 0 370 -166.011 370 -370s-166.011 -370 -370 -370s-370 166.011 -370 370s166.011 370 370 370z" />
    <glyph glyph-name="uF008A" unicode="&#xf008a;" 
d="M444.641 508.885l-69.2812 -40l20 -34.6406l64.6406 -111.963v-199.281v-40h80v40v210c0 7.26562 -1.96777 14.125 -5.35938 20l-70 121.244zM500 703c203.989 0 370 -166.011 370 -370s-166.011 -370 -370 -370s-370 166.011 -370 370s166.011 370 370 370z" />
    <glyph glyph-name="uF008B" unicode="&#xf008b;" 
d="M444.641 508.885l-69.2812 -40l20 -34.6406l58.4531 -101.244l-93.4531 -161.865l-20 -34.6406l69.2812 -40l20 34.6406l105 181.865c3.3916 5.875 5.33301 12.7773 5.33301 20.043s-1.94141 14.082 -5.33301 19.957l-70 121.244zM500 703
c203.989 0 370 -166.011 370 -370s-166.011 -370 -370 -370s-370 166.011 -370 370s166.011 370 370 370z" />
    <glyph glyph-name="uF008C" unicode="&#xf008c;" 
d="M444.641 508.885l-69.2812 -40l20 -34.6406l50 -86.6035l-147.225 -85l-34.6406 -20l40 -69.2812l34.6406 20s181.797 105.018 181.865 105c11.9746 6.91602 19.9727 19.875 19.9727 34.6855c0 7.26465 -1.94141 14.0801 -5.33203 19.9551l-70 121.244zM500 703
c203.989 0 370 -166.011 370 -370s-166.011 -370 -370 -370s-370 166.011 -370 370s166.011 370 370 370z" />
    <glyph glyph-name="uF008D" unicode="&#xf008d;" 
d="M444.641 508.885l-69.2812 -40l20 -34.6406l35.3594 -61.2441h-140.719h-40v-80h40s209.975 0.0429688 210 0c22.0752 0.00390625 39.9717 17.9707 39.9717 40.0469c0 7.26367 -1.94043 14.0791 -5.33105 19.9531l-70 121.244zM500 703c203.989 0 370 -166.011 370 -370
s-166.011 -370 -370 -370s-370 166.011 -370 370s166.011 370 370 370z" />
    <glyph glyph-name="uF008E" unicode="&#xf008e;" 
d="M444.641 508.885l-69.2812 -40l15.3594 -26.6035l-52.584 30.3594l-34.6406 20l-40 -69.2812l34.6406 -20l181.865 -105c5.87305 -3.3877 12.7021 -5.30859 19.9629 -5.30859c22.0791 0 40.0039 17.9248 40.0039 40.0039c0 7.26074 -1.93848 14.0723 -5.32617 19.9453
l-70 121.244zM500 703c203.989 0 370 -166.011 370 -370s-166.011 -370 -370 -370s-370 166.011 -370 370s166.011 370 370 370z" />
    <glyph glyph-name="uF008F" unicode="&#xf008f;" 
d="M409.641 569.506l-69.2812 -40l20 -34.6406l15 -25.9805l20 -34.6406s69.9492 -121.159 70 -121.244c6.98438 -11.6963 19.7188 -19.4512 34.3203 -19.4512c22.0791 0 40.0039 17.9258 40.0039 40.0039c0 7.05664 -1.83008 13.6885 -5.04297 19.4473l-70 121.244
l-20 34.6406l-15 25.9805zM500 703c203.989 0 370 -166.011 370 -370s-166.011 -370 -370 -370s-370 166.011 -370 370s166.011 370 370 370z" />
  </font>
</defs>
</svg>
