<?xml version="1.0" standalone="no"?>
<!DOCTYPE svg PUBLIC "-//W3C//DTD SVG 1.1//EN" "http://www.w3.org/Graphics/SVG/1.1/DTD/svg11.dtd" >
<!--
2022-10-4: Created with FontForge (http://fontforge.org)
-->
<svg xmlns="http://www.w3.org/2000/svg" xmlns:xlink="http://www.w3.org/1999/xlink" version="1.1">
<metadata>
Created by FontForge 20220308 at Tue Oct  4 13:56:31 2022
 By Jason
Copyright (c) 2022, Jason
</metadata>
<defs>
<font id="ClockFace-Regular" horiz-adv-x="1000" >
  <font-face 
    font-family="ClockFace"
    font-weight="400"
    font-stretch="normal"
    units-per-em="1000"
    panose-1="2 0 5 9 0 0 0 0 0 0"
    ascent="833"
    descent="-167"
    bbox="130 -37 870 703"
    underline-thickness="55.5556"
    underline-position="-111.111"
    unicode-range="U+F0000-F008F"
  />
    <missing-glyph />
    <glyph glyph-name="uF0000" unicode="&#xf0000;" 
d="M500 643c-171.563 0 -310 -138.437 -310 -310s138.437 -310 310 -310s310 138.437 310 310s-138.437 310 -310 310zM500 703c203.99 0 370 -166.01 370 -370s-166.01 -370 -370 -370s-370 166.01 -370 370s166.01 370 370 370zM470 333v180v90
c0 16.5576 13.4424 30 30 30s30 -13.4424 30 -30v-90v-180c-0.231445 -16.3604 -13.585 -29.5713 -30 -29.5713s-29.7686 13.2109 -30 29.5713z" />
    <glyph glyph-name="uF0001" unicode="&#xf0001;" 
d="M500 643c-171.563 0 -310 -138.437 -310 -310s138.437 -310 310 -310s310 138.437 310 310s-138.437 310 -310 310zM500 703c203.99 0 370 -166.01 370 -370s-166.01 -370 -370 -370s-370 166.01 -370 370s166.01 370 370 370zM470 333v180c0 16.5576 13.4424 30 30 30
s30 -13.4424 30 -30v-68.0391s79.0322 136.814 79.0195 136.865c5.18555 8.98242 14.9053 14.9824 26.0137 14.9824c5.44922 0 10.5605 -1.45605 14.9668 -4c8.98242 -5.18555 14.9814 -14.9053 14.9814 -26.0137c0 -5.44922 -1.45605 -10.5625 -4.00098 -14.9688
c0 0 -134.98 -233.794 -135 -233.826c-5.1875 -8.97754 -14.8721 -14.9912 -25.9775 -14.9912c-16.5547 0 -30.0029 13.4375 -30.0029 29.9912z" />
    <glyph glyph-name="uF0002" unicode="&#xf0002;" 
d="M500 643c-171.563 0 -310 -138.437 -310 -310s138.437 -310 310 -310s310 138.437 310 310s-138.437 310 -310 310zM500 703c203.99 0 370 -166.01 370 -370s-166.01 -370 -370 -370s-370 166.01 -370 370s166.01 370 370 370zM470 333v180c0 16.5576 13.4424 30 30 30
s30 -13.4424 30 -30v-128.039l188.826 109.02c4.40625 2.54492 9.53223 4.05176 14.9824 4.05176c11.1084 0 20.8145 -6.0498 26 -15.0322c2.54395 -4.40625 4.05078 -9.53125 4.05078 -14.9805c0 -11.1084 -6.05078 -20.8145 -15.0332 -26l-233.826 -135
c-4.40625 -2.54297 -9.54883 -4.0166 -14.9971 -4.0166c-16.5576 0 -30.0029 13.4404 -30.0029 29.9971z" />
    <glyph glyph-name="uF0003" unicode="&#xf0003;" 
d="M500 643c-171.563 0 -310 -138.437 -310 -310s138.437 -310 310 -310s310 138.437 310 310s-138.437 310 -310 310zM500 703c203.99 0 370 -166.01 370 -370s-166.01 -370 -370 -370s-370 166.01 -370 370s166.01 370 370 370zM470 333v180c0 16.5576 13.4424 30 30 30
s30 -13.4424 30 -30v-150h240c16.5576 0 30 -13.4424 30 -30s-13.4424 -30 -30 -30h-270c-16.5566 0.00195312 -30 13.4434 -30 30z" />
    <glyph glyph-name="uF0004" unicode="&#xf0004;" 
d="M500 643c-171.563 0 -310 -138.437 -310 -310s138.437 -310 310 -310s310 138.437 310 310s-138.437 310 -310 310zM500 703c203.99 0 370 -166.01 370 -370s-166.01 -370 -370 -370s-370 166.01 -370 370s166.01 370 370 370zM470 333v180c0 16.5576 13.4424 30 30 30
s30 -13.4424 30 -30v-162.68s218.775 -126.353 218.826 -126.34c8.98242 -5.18555 14.9824 -14.9053 14.9824 -26.0137c0 -5.44922 -1.45605 -10.5605 -4 -14.9668c-5.18555 -8.98242 -14.9053 -14.9814 -26.0137 -14.9814c-5.44922 0 -10.5625 1.45605 -14.9688 4.00098
c0 0 -233.794 134.981 -233.826 135c-8.98145 5.18652 -15 14.873 -15 25.9805z" />
    <glyph glyph-name="uF0005" unicode="&#xf0005;" 
d="M500 643c-171.563 0 -310 -138.437 -310 -310s138.437 -310 310 -310s310 138.437 310 310s-138.437 310 -310 310zM500 703c203.99 0 370 -166.01 370 -370s-166.01 -370 -370 -370s-370 166.01 -370 370s166.01 370 370 370zM470 333v180c0 16.5576 13.4424 30 30 30
s30 -13.4424 30 -30v-171.961l130.98 -226.865c2.54492 -4.40625 4.05176 -9.53223 4.05176 -14.9824c0 -11.1084 -6.0498 -20.8145 -15.0322 -26c-4.40625 -2.54395 -9.53125 -4.05078 -14.9805 -4.05078c-11.1084 0 -20.8145 6.05078 -26 15.0332l-135 233.826
c-2.54395 4.40625 -4.01953 9.55078 -4.01953 15z" />
    <glyph glyph-name="uF0006" unicode="&#xf0006;" 
d="M500 643c-171.563 0 -310 -138.437 -310 -310s138.437 -310 310 -310s310 138.437 310 310s-138.437 310 -310 310zM500 703c203.99 0 370 -166.01 370 -370s-166.01 -370 -370 -370s-370 166.01 -370 370s166.01 370 370 370zM470 63v270v180
c0 16.5576 13.4424 30 30 30s30 -13.4424 30 -30v-180v-270c0 -16.5576 -13.4424 -30 -30 -30s-30 13.4424 -30 30z" />
    <glyph glyph-name="uF0007" unicode="&#xf0007;" 
d="M500 643c-171.563 0 -310 -138.437 -310 -310s138.437 -310 310 -310s310 138.437 310 310s-138.437 310 -310 310zM500 703c203.99 0 370 -166.01 370 -370s-166.01 -370 -370 -370s-370 166.01 -370 370s166.01 370 370 370zM335.256 103.088
c0.522461 3.9707 1.84375 7.76074 3.76367 11.0859l130.98 226.865v171.961c0 16.5576 13.4424 30 30 30s30 -13.4424 30 -30v-180c0 -5.44922 -1.47559 -10.5938 -4.01953 -15c0 0 -135.013 -233.775 -135 -233.826c-5.18555 -8.98242 -14.9053 -14.9824 -26.0137 -14.9824
c-5.44922 0 -10.5605 1.45605 -14.9668 4c-8.98242 5.18555 -15.002 14.8418 -15.002 25.9502c0 1.33789 0.0878906 2.65527 0.257812 3.94629z" />
    <glyph glyph-name="uF0008" unicode="&#xf0008;" 
d="M500 643c-171.563 0 -310 -138.437 -310 -310s138.437 -310 310 -310s310 138.437 310 310s-138.437 310 -310 310zM500 703c203.99 0 370 -166.01 370 -370s-166.01 -370 -370 -370s-370 166.01 -370 370s166.01 370 370 370zM236.43 194.084
c-0.169922 1.29102 -0.289062 2.55859 -0.289062 3.89648c0 11.1084 6.05078 20.8145 15.0332 26l218.826 126.34v162.68c0 16.5576 13.4424 30 30 30s30 -13.4424 30 -30c0 0 0.0322266 -179.981 0 -180c-0.000976562 -11.1074 -6.01855 -20.7939 -15 -25.9805
l-233.826 -135c-4.40625 -2.54492 -9.53223 -4.05176 -14.9824 -4.05176c-11.1084 0 -20.8145 6.0498 -26 15.0322c-1.91895 3.3252 -3.23926 7.11426 -3.76172 11.084z" />
    <glyph glyph-name="uF0009" unicode="&#xf0009;" 
d="M500 643c-171.563 0 -310 -138.437 -310 -310s138.437 -310 310 -310s310 138.437 310 310s-138.437 310 -310 310zM500 703c203.99 0 370 -166.01 370 -370s-166.01 -370 -370 -370s-370 166.01 -370 370s166.01 370 370 370zM200 333c0 16.5576 13.4424 30 30 30h240
v150c0 16.5576 13.4424 30 30 30s30 -13.4424 30 -30v-180c-0.00195312 -16.5566 -13.4434 -29.998 -30 -30h-270c-16.5576 0 -30 13.4424 -30 30z" />
    <glyph glyph-name="uF000A" unicode="&#xf000a;" 
d="M500 643c-171.563 0 -310 -138.437 -310 -310s138.437 -310 310 -310s310 138.437 310 310s-138.437 310 -310 310zM500 703c203.99 0 370 -166.01 370 -370s-166.01 -370 -370 -370s-370 166.01 -370 370s166.01 370 370 370zM236.43 471.916
c0.522461 3.96973 1.84277 7.75879 3.76172 11.084c5.18555 8.98242 14.9053 14.9814 26.0137 14.9814c5.44922 0 10.5625 -1.45605 14.9688 -4.00098l188.826 -109.02v128.039c0 16.5576 13.4424 30 30 30s30 -13.4424 30 -30c0 0 -0.0322266 -179.981 0 -180
c-0.00292969 -16.5566 -13.4775 -29.9785 -30.0352 -29.9785c-5.44824 0 -10.5586 1.45508 -14.9648 3.99805c0 0 -233.795 134.95 -233.826 135c-8.98242 5.18555 -15.002 14.8418 -15.002 25.9502c0 1.33789 0.0878906 2.65527 0.257812 3.94629z" />
    <glyph glyph-name="uF000B" unicode="&#xf000b;" 
d="M500 643c-171.563 0 -310 -138.437 -310 -310s138.437 -310 310 -310s310 138.437 310 310s-138.437 310 -310 310zM500 703c203.99 0 370 -166.01 370 -370s-166.01 -370 -370 -370s-370 166.01 -370 370s166.01 370 370 370zM335.256 562.912
c-0.169922 1.29102 -0.289062 2.55859 -0.289062 3.89648c0 11.1084 6.05078 20.8145 15.0332 26c4.40625 2.54395 9.53125 4.05078 14.9805 4.05078c11.1084 0 20.8145 -6.05078 26 -15.0332l79.0195 -136.865v68.0391c0 16.5576 13.4424 30 30 30s30 -13.4424 30 -30v-180
c-0.00683594 -16.5537 -13.4287 -30.0234 -29.9844 -30.0234c-11.1045 0 -20.8086 6.0459 -25.9961 15.0234l-135 233.826c-1.91992 3.3252 -3.24121 7.11523 -3.76367 11.0859z" />
    <glyph glyph-name="uF000C" unicode="&#xf000c;" 
d="M500 643c-171.563 0 -310 -138.437 -310 -310s138.437 -310 310 -310s310 138.437 310 310s-138.437 310 -310 310zM500 703c203.99 0 370 -166.01 370 -370s-166.01 -370 -370 -370s-370 166.01 -370 370s166.01 370 370 370zM470 333v270c0 16.5576 13.4424 30 30 30
s30 -13.4424 30 -30v-158.039s34.0322 58.873 34.0195 58.9238c5.18555 8.98145 14.9053 14.9805 26.0127 14.9805c5.44922 0 10.5615 -1.45605 14.9678 -4c8.98145 -5.18555 14.9805 -14.9053 14.9805 -26.0127c0 -5.44922 -1.45605 -10.5615 -4 -14.9678
c0 0 -89.9805 -155.853 -90 -155.885c-5.1875 -8.97754 -14.8721 -14.9912 -25.9775 -14.9912c-16.5547 0 -30.0029 13.4375 -30.0029 29.9912z" />
    <glyph glyph-name="uF000D" unicode="&#xf000d;" 
d="M500 643c-171.563 0 -310 -138.437 -310 -310s138.437 -310 310 -310s310 138.437 310 310s-138.437 310 -310 310zM500 703c203.99 0 370 -166.01 370 -370s-166.01 -370 -370 -370s-370 166.01 -370 370s166.01 370 370 370zM470.271 335.307
c0.295898 4.56445 1.63379 8.90918 3.74805 12.6934l90 155.885c0.00195312 0.00390625 45.0127 77.8906 45 77.9414c5.18555 8.98242 14.9053 14.9824 26.0137 14.9824c5.44922 0 10.5605 -1.45605 14.9668 -4c8.98242 -5.18555 14.9814 -14.9053 14.9814 -26.0137
c0 -5.44922 -1.45605 -10.5625 -4.00098 -14.9688l-45 -77.9414s-89.9814 -155.878 -90 -155.885c-5.23633 -8.78125 -14.8115 -14.6611 -25.7695 -14.6611c-16.5586 0 -30.0029 13.4434 -30.0029 30.0029c0 0.660156 0.0214844 1.31543 0.0634766 1.96484z" />
    <glyph glyph-name="uF000E" unicode="&#xf000e;" 
d="M500 643c-171.563 0 -310 -138.437 -310 -310s138.437 -310 310 -310s310 138.437 310 310s-138.437 310 -310 310zM500 703c203.99 0 370 -166.01 370 -370s-166.01 -370 -370 -370s-370 166.01 -370 370s166.01 370 370 370zM470.119 335.615
c0.388672 4.45801 1.77441 8.69824 3.90039 12.3848c0 0 90.0127 155.834 90 155.885c5.18555 8.98145 14.9053 14.9805 26.0127 14.9805c5.44922 0 10.5615 -1.45605 14.9678 -4c8.98145 -5.18555 14.9805 -14.9053 14.9805 -26.0127
c0 -5.44922 -1.45605 -10.5615 -4 -14.9678l-34.0195 -58.9238l136.865 79.0195c4.40625 2.54492 9.53223 4.05176 14.9824 4.05176c11.1084 0 20.8145 -6.0498 26 -15.0322c2.54395 -4.40625 4.05078 -9.53125 4.05078 -14.9805c0 -11.1084 -6.05078 -20.8145 -15.0332 -26
l-233.826 -135c-4.4043 -2.54102 -9.54688 -4.04297 -14.9922 -4.04297c-16.5596 0 -30.0029 13.4443 -30.0029 30.0029c0 0.887695 0.0380859 1.76758 0.114258 2.63574z" />
    <glyph glyph-name="uF000F" unicode="&#xf000f;" 
d="M500 643c-171.563 0 -310 -138.437 -310 -310s138.437 -310 310 -310s310 138.437 310 310s-138.437 310 -310 310zM500 703c203.99 0 370 -166.01 370 -370s-166.01 -370 -370 -370s-370 166.01 -370 370s166.01 370 370 370zM470.166 336.137
c0.447266 4.26172 1.80957 8.32129 3.85352 11.8633c0 0 90.0127 155.834 90 155.885c5.18555 8.98145 14.9053 14.9805 26.0127 14.9805c5.44922 0 10.5615 -1.45605 14.9678 -4c8.98145 -5.18555 14.9805 -14.9053 14.9805 -26.0127
c0 -5.44922 -1.45605 -10.5615 -4 -14.9678l-64.0195 -110.885h218.039c16.5576 0 30 -13.4424 30 -30s-13.4424 -30 -30 -30h-270c-16.5566 0.00292969 -29.999 13.415 -29.999 29.9727c0 1.06836 0.0556641 2.12402 0.165039 3.16406z" />
    <glyph glyph-name="uF0010" unicode="&#xf0010;" 
d="M500 643c-171.563 0 -310 -138.437 -310 -310s138.437 -310 310 -310s310 138.437 310 310s-138.437 310 -310 310zM500 703c203.99 0 370 -166.01 370 -370s-166.01 -370 -370 -370s-370 166.01 -370 370s166.01 370 370 370zM470.258 336.916
c0.522461 3.96973 1.84277 7.75879 3.76172 11.084c0 0 90.0127 155.834 90 155.885c5.18555 8.98145 14.9053 14.9805 26.0127 14.9805c5.44922 0 10.5615 -1.45605 14.9678 -4c8.98145 -5.18555 14.9805 -14.9053 14.9805 -26.0127
c0 -5.44922 -1.45605 -10.5615 -4 -14.9678l-75 -129.904s207.795 -120.013 207.846 -120c8.98242 -5.18555 14.9824 -14.9053 14.9824 -26.0137c0 -5.44922 -1.45605 -10.5605 -4 -14.9668c-5.18555 -8.98242 -14.9053 -14.9814 -26.0137 -14.9814
c-5.44922 0 -10.5625 1.45605 -14.9688 4.00098c0 0 -233.795 134.95 -233.826 135c-8.98145 5.18652 -15 14.8428 -15 25.9512c0 1.33691 0.0878906 2.6543 0.257812 3.94531z" />
    <glyph glyph-name="uF0011" unicode="&#xf0011;" 
d="M500 643c-171.563 0 -310 -138.437 -310 -310s138.437 -310 310 -310s310 138.437 310 310s-138.437 310 -310 310zM500 703c203.99 0 370 -166.01 370 -370s-166.01 -370 -370 -370s-370 166.01 -370 370s166.01 370 370 370zM470.457 327.791
c-0.299805 1.7002 -0.436523 3.45605 -0.436523 5.24219c0 5.44922 1.45508 10.5605 3.99902 14.9668c0 0 90.0127 155.834 90 155.885c5.18555 8.98145 14.9053 14.9805 26.0127 14.9805c5.44922 0 10.5615 -1.45605 14.9678 -4
c8.98145 -5.18555 14.9805 -14.9053 14.9805 -26.0127c0 -5.44922 -1.45605 -10.5615 -4 -14.9678l-81.3398 -140.885l126.34 -218.826c2.54492 -4.40625 4.05176 -9.53223 4.05176 -14.9824c0 -11.1084 -6.0498 -20.8145 -15.0322 -26
c-4.40625 -2.54395 -9.53125 -4.05078 -14.9805 -4.05078c-11.1084 0 -20.8145 6.05078 -26 15.0332l-135 233.826c-1.70996 2.96289 -2.94727 6.30273 -3.5625 9.79102z" />
    <glyph glyph-name="uF0012" unicode="&#xf0012;" 
d="M500 643c-171.563 0 -310 -138.437 -310 -310s138.437 -310 310 -310s310 138.437 310 310s-138.437 310 -310 310zM500 703c203.99 0 370 -166.01 370 -370s-166.01 -370 -370 -370s-370 166.01 -370 370s166.01 370 370 370zM470 63v270
c0 5.44922 1.47559 10.5938 4.01953 15c0 0 90.0127 155.834 90 155.885c5.18555 8.98145 14.9053 14.9805 26.0127 14.9805c5.44922 0 10.5615 -1.45605 14.9678 -4c8.98145 -5.18555 14.9805 -14.9053 14.9805 -26.0127c0 -5.44922 -1.45605 -10.5615 -4 -14.9678
l-85.9805 -148.924v-261.961c0 -16.5576 -13.4424 -30 -30 -30s-30 13.4424 -30 30z" />
    <glyph glyph-name="uF0013" unicode="&#xf0013;" 
d="M500 643c-171.563 0 -310 -138.437 -310 -310s138.437 -310 310 -310s310 138.437 310 310s-138.437 310 -310 310zM500 703c203.99 0 370 -166.01 370 -370s-166.01 -370 -370 -370s-370 166.01 -370 370s166.01 370 370 370zM335.256 103.088
c0.522461 3.9707 1.84375 7.76074 3.76367 11.0859l135 233.826s90.0127 155.834 90 155.885c5.18555 8.98145 14.9053 14.9805 26.0127 14.9805c5.44922 0 10.5615 -1.45605 14.9678 -4c8.98145 -5.18555 14.9805 -14.9053 14.9805 -26.0127
c0 -5.44922 -1.45605 -10.5615 -4 -14.9678l-90 -155.885s-135.013 -233.775 -135 -233.826c-5.18555 -8.98242 -14.9053 -14.9824 -26.0137 -14.9824c-5.44922 0 -10.5605 1.45605 -14.9668 4c-8.98242 5.18555 -15.002 14.8418 -15.002 25.9502
c0 1.33789 0.0878906 2.65527 0.257812 3.94629z" />
    <glyph glyph-name="uF0014" unicode="&#xf0014;" 
d="M500 643c-171.563 0 -310 -138.437 -310 -310s138.437 -310 310 -310s310 138.437 310 310s-138.437 310 -310 310zM500 703c203.99 0 370 -166.01 370 -370s-166.01 -370 -370 -370s-370 166.01 -370 370s166.01 370 370 370zM236.43 194.084
c-0.169922 1.29102 -0.289062 2.55859 -0.289062 3.89648c0 11.1084 6.05078 20.8145 15.0332 26l226.865 130.98s85.9932 148.873 85.9805 148.924c5.18555 8.98145 14.9053 14.9805 26.0127 14.9805c5.44922 0 10.5615 -1.45605 14.9678 -4
c8.98145 -5.18555 14.9805 -14.9053 14.9805 -26.0127c0 -5.44922 -1.45605 -10.5615 -4 -14.9678c0 0 -89.9492 -155.834 -90 -155.885c-2.6416 -4.5752 -6.40527 -8.33887 -10.9805 -10.9805l-233.826 -135c-4.40625 -2.54492 -9.53223 -4.05176 -14.9824 -4.05176
c-11.1084 0 -20.8145 6.0498 -26 15.0322c-1.91895 3.3252 -3.23926 7.11426 -3.76172 11.084z" />
    <glyph glyph-name="uF0015" unicode="&#xf0015;" 
d="M500 643c-171.563 0 -310 -138.437 -310 -310s138.437 -310 310 -310s310 138.437 310 310s-138.437 310 -310 310zM500 703c203.99 0 370 -166.01 370 -370s-166.01 -370 -370 -370s-370 166.01 -370 370s166.01 370 370 370zM200 333c0 16.5576 13.4424 30 30 30
h252.68s81.3525 140.834 81.3398 140.885c5.18555 8.98145 14.9053 14.9805 26.0127 14.9805c5.44922 0 10.5615 -1.45605 14.9678 -4c8.98145 -5.18555 14.9805 -14.9053 14.9805 -26.0127c0 -5.44922 -1.45605 -10.5615 -4 -14.9678c0 0 -89.9814 -155.853 -90 -155.885
c-5.18652 -8.98145 -14.873 -14.999 -25.9805 -15h-270c-16.5576 0 -30 13.4424 -30 30z" />
    <glyph glyph-name="uF0016" unicode="&#xf0016;" 
d="M500 643c-171.563 0 -310 -138.437 -310 -310s138.437 -310 310 -310s310 138.437 310 310s-138.437 310 -310 310zM500 703c203.99 0 370 -166.01 370 -370s-166.01 -370 -370 -370s-370 166.01 -370 370s166.01 370 370 370zM236.43 471.916
c0.522461 3.96973 1.84277 7.75879 3.76172 11.084c5.18555 8.98242 14.9053 14.9814 26.0137 14.9814c5.44922 0 10.5625 -1.45605 14.9688 -4.00098l207.846 -120s75.0127 129.854 75 129.904c5.18555 8.98145 14.9053 14.9805 26.0127 14.9805
c5.44922 0 10.5615 -1.45605 14.9678 -4c8.98145 -5.18555 14.9805 -14.9053 14.9805 -26.0127c0 -5.44922 -1.45605 -10.5615 -4 -14.9678c0 0 -90.0127 -155.834 -90 -155.885c-5.18652 -8.98145 -14.9062 -14.9795 -26.0137 -14.9795
c-5.44922 0 -10.5605 1.45605 -14.9668 3.99902c0 0 -233.795 134.95 -233.826 135c-8.98242 5.18555 -15.002 14.8418 -15.002 25.9502c0 1.33789 0.0878906 2.65527 0.257812 3.94629z" />
    <glyph glyph-name="uF0017" unicode="&#xf0017;" 
d="M500 643c-171.563 0 -310 -138.437 -310 -310s138.437 -310 310 -310s310 138.437 310 310s-138.437 310 -310 310zM500 703c203.99 0 370 -166.01 370 -370s-166.01 -370 -370 -370s-370 166.01 -370 370s166.01 370 370 370zM335.256 562.912
c-0.169922 1.29102 -0.289062 2.55859 -0.289062 3.89648c0 11.1084 6.05078 20.8145 15.0332 26c4.40625 2.54395 9.53125 4.05078 14.9805 4.05078c11.1084 0 20.8145 -6.05078 26 -15.0332l109.02 -188.826s64.0322 110.834 64.0195 110.885
c5.18555 8.98145 14.9053 14.9805 26.0127 14.9805c5.44922 0 10.5615 -1.45605 14.9678 -4c8.98145 -5.18555 14.9805 -14.9053 14.9805 -26.0127c0 -5.44922 -1.45605 -10.5615 -4 -14.9678c0 0 -89.9619 -155.885 -90 -155.885
c-5.18652 -8.98047 -14.8545 -15.0283 -25.9609 -15.0283c-11.1074 0 -20.8135 6.04785 -26 15.0283l-135 233.826c-1.91992 3.3252 -3.24121 7.11523 -3.76367 11.0859z" />
    <glyph glyph-name="uF0018" unicode="&#xf0018;" 
d="M500 643c-171.563 0 -310 -138.437 -310 -310s138.437 -310 310 -310s310 138.437 310 310s-138.437 310 -310 310zM500 703c203.99 0 370 -166.01 370 -370s-166.01 -370 -370 -370s-370 166.01 -370 370s166.01 370 370 370zM470 333v270c0 16.5576 13.4424 30 30 30
s30 -13.4424 30 -30v-218.039l110.885 64.0195c4.40625 2.54395 9.53125 4.05176 14.9805 4.05176c11.1084 0 20.8145 -6.05078 26 -15.0322c2.54395 -4.40625 4.05176 -9.53125 4.05176 -14.9805c0 -11.1084 -6.05078 -20.8145 -15.0322 -26l-155.885 -90
c-4.40625 -2.54297 -9.54883 -4.0166 -14.9971 -4.0166c-16.5576 0 -30.0029 13.4404 -30.0029 29.9971z" />
    <glyph glyph-name="uF0019" unicode="&#xf0019;" 
d="M500 643c-171.563 0 -310 -138.437 -310 -310s138.437 -310 310 -310s310 138.437 310 310s-138.437 310 -310 310zM500 703c203.99 0 370 -166.01 370 -370s-166.01 -370 -370 -370s-370 166.01 -370 370s166.01 370 370 370zM470.119 335.615
c0.388672 4.45801 1.77441 8.69824 3.90039 12.3848c0 0 135.013 233.775 135 233.826c5.18555 8.98242 14.9053 14.9824 26.0137 14.9824c5.44922 0 10.5605 -1.45605 14.9668 -4c8.98242 -5.18555 14.9814 -14.9053 14.9814 -26.0137
c0 -5.44922 -1.45605 -10.5625 -4.00098 -14.9688l-79.0195 -136.865l58.9238 34.0195c4.40625 2.54395 9.53125 4.05176 14.9805 4.05176c11.1084 0 20.8145 -6.05078 26 -15.0322c2.54395 -4.40625 4.05176 -9.53125 4.05176 -14.9805
c0 -11.1084 -6.05078 -20.8145 -15.0322 -26l-155.885 -90c-4.4043 -2.54102 -9.54688 -4.04297 -14.9922 -4.04297c-16.5596 0 -30.0029 13.4443 -30.0029 30.0029c0 0.887695 0.0380859 1.76758 0.114258 2.63574z" />
    <glyph glyph-name="uF001A" unicode="&#xf001a;" 
d="M500 643c-171.563 0 -310 -138.437 -310 -310s138.437 -310 310 -310s310 138.437 310 310s-138.437 310 -310 310zM500 703c203.99 0 370 -166.01 370 -370s-166.01 -370 -370 -370s-370 166.01 -370 370s166.01 370 370 370zM470.674 337.504
c1.31934 9.12695 6.72168 16.9414 14.3262 21.4766l155.885 90l77.9414 45c4.40625 2.54492 9.53223 4.05176 14.9824 4.05176c11.1084 0 20.8145 -6.0498 26 -15.0322c2.54395 -4.40625 4.05078 -9.53125 4.05078 -14.9795c0 -11.1094 -6.05078 -20.8154 -15.0332 -26.001
l-77.9395 -44.998l-155.887 -90.002c-4.32227 -2.41406 -9.33398 -3.83984 -14.6328 -3.83984c-16.5586 0 -30.0029 13.4443 -30.0029 30.0029c0 1.46777 0.105469 2.91016 0.30957 4.32129z" />
    <glyph glyph-name="uF001B" unicode="&#xf001b;" 
d="M500 643c-171.563 0 -310 -138.437 -310 -310s138.437 -310 310 -310s310 138.437 310 310s-138.437 310 -310 310zM500 703c203.99 0 370 -166.01 370 -370s-166.01 -370 -370 -370s-370 166.01 -370 370s166.01 370 370 370zM470.463 338.209
c1.56348 8.875 7.00195 16.418 14.5371 20.7715l155.885 90c4.40625 2.54395 9.53125 4.05176 14.9805 4.05176c11.1084 0 20.8145 -6.05078 26 -15.0322c2.54395 -4.40625 4.05176 -9.53125 4.05176 -14.9805c0 -11.1084 -6.05078 -20.8145 -15.0322 -26l-58.9238 -34.0195
h158.039c16.5576 0 30 -13.4424 30 -30s-13.4424 -30 -30 -30h-270c-16.5537 0.00585938 -29.9932 13.4209 -29.9932 29.9766c0 1.78418 0.15625 3.5332 0.456055 5.23242z" />
    <glyph glyph-name="uF001C" unicode="&#xf001c;" 
d="M500 643c-171.563 0 -310 -138.437 -310 -310s138.437 -310 310 -310s310 138.437 310 310s-138.437 310 -310 310zM500 703c203.99 0 370 -166.01 370 -370s-166.01 -370 -370 -370s-370 166.01 -370 370s166.01 370 370 370zM470.658 326.764
c-0.428711 2.01855 -0.6875 4.07129 -0.6875 6.2168c0 11.1074 6.04883 20.8135 15.0293 26l155.885 90c4.40625 2.54395 9.53125 4.05176 14.9805 4.05176c11.1084 0 20.8145 -6.05078 26 -15.0322c2.54395 -4.40625 4.05176 -9.53125 4.05176 -14.9805
c0 -11.1084 -6.05078 -20.8145 -15.0322 -26l-110.885 -64.0195s188.775 -109.032 188.826 -109.02c8.98242 -5.18555 14.9824 -14.9053 14.9824 -26.0137c0 -5.44922 -1.45605 -10.5605 -4 -14.9668c-5.18555 -8.98242 -14.9053 -14.9814 -26.0137 -14.9814
c-5.44922 0 -10.5625 1.45605 -14.9688 4.00098c0 0 -233.793 135.002 -233.826 135c-7.24609 4.18457 -12.5498 11.3135 -14.3418 19.7441z" />
    <glyph glyph-name="uF001D" unicode="&#xf001d;" 
d="M500 643c-171.563 0 -310 -138.437 -310 -310s138.437 -310 310 -310s310 138.437 310 310s-138.437 310 -310 310zM500 703c203.99 0 370 -166.01 370 -370s-166.01 -370 -370 -370s-370 166.01 -370 370s166.01 370 370 370zM470.258 329.084
c-0.169922 1.29102 -0.289062 2.55859 -0.289062 3.89551c0 11.1084 6.0498 20.8145 15.0312 26.001l155.885 90c4.40625 2.54395 9.53125 4.05176 14.9805 4.05176c11.1084 0 20.8145 -6.05078 26 -15.0322c2.54395 -4.40625 4.05176 -9.53125 4.05176 -14.9805
c0 -11.1084 -6.05078 -20.8145 -15.0322 -26l-129.904 -75l120 -207.846c2.54492 -4.40625 4.05176 -9.53223 4.05176 -14.9824c0 -11.1084 -6.0498 -20.8145 -15.0322 -26c-4.40625 -2.54395 -9.53125 -4.05078 -14.9805 -4.05078c-11.1084 0 -20.8145 6.05078 -26 15.0332
l-135 233.826c-1.91895 3.3252 -3.23926 7.11426 -3.76172 11.084z" />
    <glyph glyph-name="uF001E" unicode="&#xf001e;" 
d="M500 643c-171.563 0 -310 -138.437 -310 -310s138.437 -310 310 -310s310 138.437 310 310s-138.437 310 -310 310zM500 703c203.99 0 370 -166.01 370 -370s-166.01 -370 -370 -370s-370 166.01 -370 370s166.01 370 370 370zM470 63c0 0 -0.0322266 269.981 0 270
c0.000976562 11.1074 6.01855 20.7939 15 25.9805l155.885 90c4.40625 2.54395 9.53125 4.05176 14.9805 4.05176c11.1084 0 20.8145 -6.05078 26 -15.0322c2.54395 -4.40625 4.05176 -9.53125 4.05176 -14.9805c0 -11.1084 -6.05078 -20.8145 -15.0322 -26
l-140.885 -81.3398v-252.68c0 -16.5576 -13.4424 -30 -30 -30s-30 13.4424 -30 30z" />
    <glyph glyph-name="uF001F" unicode="&#xf001f;" 
d="M500 643c-171.563 0 -310 -138.437 -310 -310s138.437 -310 310 -310s310 138.437 310 310s-138.437 310 -310 310zM500 703c203.99 0 370 -166.01 370 -370s-166.01 -370 -370 -370s-370 166.01 -370 370s166.01 370 370 370zM335.256 103.088
c0.522461 3.9707 1.84375 7.76074 3.76367 11.0859c0 0 134.949 233.775 135 233.826c2.6416 4.5752 6.40527 8.33887 10.9805 10.9805l155.885 90c4.40625 2.54395 9.53125 4.05176 14.9805 4.05176c11.1084 0 20.8145 -6.05078 26 -15.0322
c2.54395 -4.40625 4.05176 -9.53125 4.05176 -14.9805c0 -11.1084 -6.05078 -20.8145 -15.0322 -26l-148.924 -85.9805s-130.993 -226.814 -130.98 -226.865c-5.18555 -8.98242 -14.9053 -14.9824 -26.0137 -14.9824c-5.44922 0 -10.5605 1.45605 -14.9668 4
c-8.98242 5.18555 -15.002 14.8418 -15.002 25.9502c0 1.33789 0.0878906 2.65527 0.257812 3.94629z" />
    <glyph glyph-name="uF0020" unicode="&#xf0020;" 
d="M500 643c-171.563 0 -310 -138.437 -310 -310s138.437 -310 310 -310s310 138.437 310 310s-138.437 310 -310 310zM500 703c203.99 0 370 -166.01 370 -370s-166.01 -370 -370 -370s-370 166.01 -370 370s166.01 370 370 370zM236.43 194.084
c-0.169922 1.29102 -0.289062 2.55859 -0.289062 3.89648c0 11.1084 6.05078 20.8145 15.0332 26l233.826 135l155.885 90c4.40625 2.54395 9.53125 4.05176 14.9805 4.05176c11.1084 0 20.8145 -6.05078 26 -15.0322c2.54395 -4.40625 4.05176 -9.53125 4.05176 -14.9805
c0 -11.1084 -6.05078 -20.8145 -15.0322 -26l-155.885 -90l-233.826 -135c-4.40625 -2.54492 -9.53223 -4.05176 -14.9824 -4.05176c-11.1084 0 -20.8145 6.0498 -26 15.0322c-1.91895 3.3252 -3.23926 7.11426 -3.76172 11.084z" />
    <glyph glyph-name="uF0021" unicode="&#xf0021;" 
d="M500 643c-171.563 0 -310 -138.437 -310 -310s138.437 -310 310 -310s310 138.437 310 310s-138.437 310 -310 310zM500 703c203.99 0 370 -166.01 370 -370s-166.01 -370 -370 -370s-370 166.01 -370 370s166.01 370 370 370zM200 333c0 16.5576 13.4424 30 30 30
h261.961l148.924 85.9805c4.40625 2.54395 9.53125 4.05176 14.9805 4.05176c11.1084 0 20.8145 -6.05078 26 -15.0322c2.54395 -4.40625 4.05176 -9.53125 4.05176 -14.9805c0 -11.1084 -6.05078 -20.8145 -15.0322 -26l-155.885 -90
c-4.40625 -2.54395 -9.55078 -4.01953 -15 -4.01953h-270c-16.5576 0 -30 13.4424 -30 30z" />
    <glyph glyph-name="uF0022" unicode="&#xf0022;" 
d="M500 643c-171.563 0 -310 -138.437 -310 -310s138.437 -310 310 -310s310 138.437 310 310s-138.437 310 -310 310zM500 703c203.99 0 370 -166.01 370 -370s-166.01 -370 -370 -370s-370 166.01 -370 370s166.01 370 370 370zM236.43 471.916
c0.522461 3.96973 1.84277 7.75879 3.76172 11.084c5.18555 8.98242 14.9053 14.9814 26.0137 14.9814c5.44922 0 10.5625 -1.45605 14.9688 -4.00098l218.826 -126.34l140.885 81.3398c4.40625 2.54395 9.53125 4.05176 14.9805 4.05176
c11.1084 0 20.8145 -6.05078 26 -15.0322c2.54395 -4.40625 4.05176 -9.53125 4.05176 -14.9805c0 -11.1084 -6.05078 -20.8145 -15.0322 -26l-155.885 -90c-4.40625 -2.54395 -9.58301 -4 -15.0322 -4s-10.5615 1.45605 -14.9678 4c0 0 -233.795 134.95 -233.826 135
c-8.98242 5.18555 -15.002 14.8418 -15.002 25.9502c0 1.33789 0.0878906 2.65527 0.257812 3.94629z" />
    <glyph glyph-name="uF0023" unicode="&#xf0023;" 
d="M500 643c-171.563 0 -310 -138.437 -310 -310s138.437 -310 310 -310s310 138.437 310 310s-138.437 310 -310 310zM500 703c203.99 0 370 -166.01 370 -370s-166.01 -370 -370 -370s-370 166.01 -370 370s166.01 370 370 370zM335.256 562.912
c-0.169922 1.29102 -0.289062 2.55859 -0.289062 3.89648c0 11.1084 6.05078 20.8145 15.0332 26c4.40625 2.54395 9.53125 4.05078 14.9805 4.05078c11.1084 0 20.8145 -6.05078 26 -15.0332l120 -207.846l129.904 75c4.40625 2.54395 9.53125 4.05176 14.9805 4.05176
c11.1084 0 20.8145 -6.05078 26 -15.0322c2.54395 -4.40625 4.05176 -9.53125 4.05176 -14.9805c0 -11.1084 -6.05078 -20.8145 -15.0322 -26l-155.885 -90c-4.40625 -2.54297 -9.53125 -4.0498 -14.9795 -4.0498c-11.1084 0 -20.8145 6.04883 -26.001 15.0303l-135 233.826
c-1.91992 3.3252 -3.24121 7.11523 -3.76367 11.0859z" />
    <glyph glyph-name="uF0024" unicode="&#xf0024;" 
d="M500 643c-171.563 0 -310 -138.437 -310 -310s138.437 -310 310 -310s310 138.437 310 310s-138.437 310 -310 310zM500 703c203.99 0 370 -166.01 370 -370s-166.01 -370 -370 -370s-370 166.01 -370 370s166.01 370 370 370zM470 333v270c0 16.5576 13.4424 30 30 30
s30 -13.4424 30 -30v-240h150c16.5576 0 30 -13.4424 30 -30s-13.4424 -30 -30 -30h-180c-16.5566 0.00195312 -30 13.4434 -30 30z" />
    <glyph glyph-name="uF0025" unicode="&#xf0025;" 
d="M500 643c-171.563 0 -310 -138.437 -310 -310s138.437 -310 310 -310s310 138.437 310 310s-138.437 310 -310 310zM500 703c203.99 0 370 -166.01 370 -370s-166.01 -370 -370 -370s-370 166.01 -370 370s166.01 370 370 370zM470.166 336.137
c0.447266 4.26172 1.80957 8.32129 3.85352 11.8633c0 0 135.013 233.775 135 233.826c5.18555 8.98242 14.9053 14.9824 26.0137 14.9824c5.44922 0 10.5605 -1.45605 14.9668 -4c8.98242 -5.18555 14.9814 -14.9053 14.9814 -26.0137
c0 -5.44922 -1.45605 -10.5625 -4.00098 -14.9688l-109.02 -188.826h128.039c16.5576 0 30 -13.4424 30 -30s-13.4424 -30 -30 -30h-180c-16.5566 0.00292969 -29.999 13.415 -29.999 29.9727c0 1.06836 0.0556641 2.12402 0.165039 3.16406z" />
    <glyph glyph-name="uF0026" unicode="&#xf0026;" 
d="M500 643c-171.563 0 -310 -138.437 -310 -310s138.437 -310 310 -310s310 138.437 310 310s-138.437 310 -310 310zM500 703c203.99 0 370 -166.01 370 -370s-166.01 -370 -370 -370s-370 166.01 -370 370s166.01 370 370 370zM470.463 338.209
c1.56348 8.875 7.00195 16.418 14.5371 20.7715l233.826 135c4.40625 2.54492 9.53223 4.05176 14.9824 4.05176c11.1084 0 20.8145 -6.0498 26 -15.0322c2.54395 -4.40625 4.05078 -9.53125 4.05078 -14.9805c0 -11.1084 -6.05078 -20.8145 -15.0332 -26l-136.865 -79.0195
h68.0391c16.5576 0 30 -13.4424 30 -30s-13.4424 -30 -30 -30h-180c-16.5537 0.00585938 -29.9932 13.4209 -29.9932 29.9766c0 1.78418 0.15625 3.5332 0.456055 5.23242z" />
    <glyph glyph-name="uF0027" unicode="&#xf0027;" 
d="M500 643c-171.563 0 -310 -138.437 -310 -310s138.437 -310 310 -310s310 138.437 310 310s-138.437 310 -310 310zM500 703c203.99 0 370 -166.01 370 -370s-166.01 -370 -370 -370s-370 166.01 -370 370s166.01 370 370 370zM471.16 326.383
c-0.482422 2.13477 -0.731445 4.33789 -0.731445 6.61719c0 16.415 13.2109 29.7686 29.5713 30h180h90c16.5576 0 30 -13.4424 30 -30s-13.4424 -30 -30 -30h-90h-180c-14.0879 0.199219 -25.8467 10.1475 -28.8398 23.3828z" />
    <glyph glyph-name="uF0028" unicode="&#xf0028;" 
d="M500 643c-171.563 0 -310 -138.437 -310 -310s138.437 -310 310 -310s310 138.437 310 310s-138.437 310 -310 310zM500 703c203.99 0 370 -166.01 370 -370s-166.01 -370 -370 -370s-370 166.01 -370 370s166.01 370 370 370zM470.463 327.791
c-0.299805 1.69922 -0.455078 3.4209 -0.455078 5.20605c0 16.5557 13.4385 29.9971 29.9922 30.0029h180c16.5576 0 30 -13.4424 30 -30s-13.4424 -30 -30 -30h-68.0391s136.814 -79.0322 136.865 -79.0195c8.98242 -5.18555 14.9824 -14.9053 14.9824 -26.0137
c0 -5.44922 -1.45605 -10.5605 -4 -14.9668c-5.18555 -8.98242 -14.9053 -14.9814 -26.0137 -14.9814c-5.44922 0 -10.5625 1.45605 -14.9688 4.00098c0 0 -233.795 135.008 -233.826 135c-7.53516 4.35352 -12.9736 11.8965 -14.5371 20.7715z" />
    <glyph glyph-name="uF0029" unicode="&#xf0029;" 
d="M500 643c-171.563 0 -310 -138.437 -310 -310s138.437 -310 310 -310s310 138.437 310 310s-138.437 310 -310 310zM500 703c203.99 0 370 -166.01 370 -370s-166.01 -370 -370 -370s-370 166.01 -370 370s166.01 370 370 370zM470.166 329.863
c-0.109375 1.04004 -0.164062 2.06543 -0.164062 3.13379c0 16.5576 13.4414 30 29.998 30.0029h180c16.5576 0 30 -13.4424 30 -30s-13.4424 -30 -30 -30h-128.039l109.02 -188.826c2.54492 -4.40625 4.05176 -9.53223 4.05176 -14.9824
c0 -11.1084 -6.0498 -20.8145 -15.0322 -26c-4.40625 -2.54395 -9.53125 -4.05078 -14.9805 -4.05078c-11.1084 0 -20.8145 6.05078 -26 15.0332l-135 233.826c-2.04395 3.54199 -3.40625 7.60156 -3.85352 11.8633z" />
    <glyph glyph-name="uF002A" unicode="&#xf002a;" 
d="M500 643c-171.563 0 -310 -138.437 -310 -310s138.437 -310 310 -310s310 138.437 310 310s-138.437 310 -310 310zM500 703c203.99 0 370 -166.01 370 -370s-166.01 -370 -370 -370s-370 166.01 -370 370s166.01 370 370 370zM470 63v270
c0.00195312 16.5566 13.4434 29.998 30 30h180c16.5576 0 30 -13.4424 30 -30s-13.4424 -30 -30 -30h-150v-240c0 -16.5576 -13.4424 -30 -30 -30s-30 13.4424 -30 30z" />
    <glyph glyph-name="uF002B" unicode="&#xf002b;" 
d="M500 643c-171.563 0 -310 -138.437 -310 -310s138.437 -310 310 -310s310 138.437 310 310s-138.437 310 -310 310zM500 703c203.99 0 370 -166.01 370 -370s-166.01 -370 -370 -370s-370 166.01 -370 370s166.01 370 370 370zM335.256 103.088
c0.522461 3.9707 1.84375 7.76074 3.76367 11.0859c0 0 134.981 233.794 135 233.826c5.18652 8.98145 14.873 14.999 25.9805 15h180c16.5576 0 30 -13.4424 30 -30s-13.4424 -30 -30 -30h-162.68s-126.353 -218.775 -126.34 -218.826
c-5.18555 -8.98242 -14.9053 -14.9824 -26.0137 -14.9824c-5.44922 0 -10.5605 1.45605 -14.9668 4c-8.98242 5.18555 -15.002 14.8418 -15.002 25.9502c0 1.33789 0.0878906 2.65527 0.257812 3.94629z" />
    <glyph glyph-name="uF002C" unicode="&#xf002c;" 
d="M500 643c-171.563 0 -310 -138.437 -310 -310s138.437 -310 310 -310s310 138.437 310 310s-138.437 310 -310 310zM500 703c203.99 0 370 -166.01 370 -370s-166.01 -370 -370 -370s-370 166.01 -370 370s166.01 370 370 370zM236.43 194.084
c-0.169922 1.29102 -0.289062 2.55859 -0.289062 3.89648c0 11.1084 6.05078 20.8145 15.0332 26l233.826 135c4.40625 2.54395 9.55078 4.01953 15 4.01953h180c16.5576 0 30 -13.4424 30 -30s-13.4424 -30 -30 -30h-171.961l-226.865 -130.98
c-4.40625 -2.54492 -9.53223 -4.05176 -14.9824 -4.05176c-11.1084 0 -20.8145 6.0498 -26 15.0322c-1.91895 3.3252 -3.23926 7.11426 -3.76172 11.084z" />
    <glyph glyph-name="uF002D" unicode="&#xf002d;" 
d="M500 643c-171.563 0 -310 -138.437 -310 -310s138.437 -310 310 -310s310 138.437 310 310s-138.437 310 -310 310zM500 703c203.99 0 370 -166.01 370 -370s-166.01 -370 -370 -370s-370 166.01 -370 370s166.01 370 370 370zM200 333c0 16.5576 13.4424 30 30 30h270
h180c16.5576 0 30 -13.4424 30 -30s-13.4424 -30 -30 -30h-180h-270c-16.5576 0 -30 13.4424 -30 30z" />
    <glyph glyph-name="uF002E" unicode="&#xf002e;" 
d="M500 643c-171.563 0 -310 -138.437 -310 -310s138.437 -310 310 -310s310 138.437 310 310s-138.437 310 -310 310zM500 703c203.99 0 370 -166.01 370 -370s-166.01 -370 -370 -370s-370 166.01 -370 370s166.01 370 370 370zM236.43 471.916
c0.522461 3.96973 1.84277 7.75879 3.76172 11.084c5.18555 8.98242 14.9053 14.9814 26.0137 14.9814c5.44922 0 10.5625 -1.45605 14.9688 -4.00098l226.865 -130.98h171.961c16.5576 0 30 -13.4424 30 -30s-13.4424 -30 -30 -30h-180
c-5.44922 0 -10.5938 1.47559 -15 4.01953c0 0 -233.795 134.95 -233.826 135c-8.98242 5.18555 -15.002 14.8418 -15.002 25.9502c0 1.33789 0.0878906 2.65527 0.257812 3.94629z" />
    <glyph glyph-name="uF002F" unicode="&#xf002f;" 
d="M500 643c-171.563 0 -310 -138.437 -310 -310s138.437 -310 310 -310s310 138.437 310 310s-138.437 310 -310 310zM500 703c203.99 0 370 -166.01 370 -370s-166.01 -370 -370 -370s-370 166.01 -370 370s166.01 370 370 370zM335.256 562.912
c-0.169922 1.29102 -0.289062 2.55859 -0.289062 3.89648c0 11.1084 6.05078 20.8145 15.0332 26c4.40625 2.54395 9.53125 4.05078 14.9805 4.05078c11.1084 0 20.8145 -6.05078 26 -15.0332l126.34 -218.826h162.68c16.5576 0 30 -13.4424 30 -30s-13.4424 -30 -30 -30
c0 0 -179.981 -0.0322266 -180 0c-11.1074 0.000976562 -20.7939 6.01855 -25.9805 15l-135 233.826c-1.91992 3.3252 -3.24121 7.11523 -3.76367 11.0859z" />
    <glyph glyph-name="uF0030" unicode="&#xf0030;" 
d="M500 643c-171.563 0 -310 -138.437 -310 -310s138.437 -310 310 -310s310 138.437 310 310s-138.437 310 -310 310zM500 703c203.99 0 370 -166.01 370 -370s-166.01 -370 -370 -370s-370 166.01 -370 370s166.01 370 370 370zM470 333v270c0 16.5576 13.4424 30 30 30
s30 -13.4424 30 -30v-252.68s140.834 -81.3525 140.885 -81.3398c8.98145 -5.18555 14.9805 -14.9053 14.9805 -26.0127c0 -5.44922 -1.45605 -10.5615 -4 -14.9678c-5.18555 -8.98145 -14.9053 -14.9805 -26.0127 -14.9805c-5.44922 0 -10.5615 1.45605 -14.9678 4
c0 0 -155.853 89.9814 -155.885 90c-8.98145 5.18652 -15 14.873 -15 25.9805z" />
    <glyph glyph-name="uF0031" unicode="&#xf0031;" 
d="M500 643c-171.563 0 -310 -138.437 -310 -310s138.437 -310 310 -310s310 138.437 310 310s-138.437 310 -310 310zM500 703c203.99 0 370 -166.01 370 -370s-166.01 -370 -370 -370s-370 166.01 -370 370s166.01 370 370 370zM470.258 336.916
c0.522461 3.96973 1.84277 7.75879 3.76172 11.084c0 0 135.013 233.775 135 233.826c5.18555 8.98242 14.9053 14.9824 26.0137 14.9824c5.44922 0 10.5605 -1.45605 14.9668 -4c8.98242 -5.18555 14.9814 -14.9053 14.9814 -26.0137
c0 -5.44922 -1.45605 -10.5625 -4.00098 -14.9688l-120 -207.846s129.854 -75.0127 129.904 -75c8.98145 -5.18555 14.9805 -14.9053 14.9805 -26.0127c0 -5.44922 -1.45605 -10.5615 -4 -14.9678c-5.18555 -8.98145 -14.9053 -14.9805 -26.0127 -14.9805
c-5.44922 0 -10.5615 1.45605 -14.9678 4c0 0 -155.854 89.9502 -155.885 90c-8.98145 5.18652 -15 14.8428 -15 25.9512c0 1.33691 0.0878906 2.6543 0.257812 3.94531z" />
    <glyph glyph-name="uF0032" unicode="&#xf0032;" 
d="M500 643c-171.563 0 -310 -138.437 -310 -310s138.437 -310 310 -310s310 138.437 310 310s-138.437 310 -310 310zM500 703c203.99 0 370 -166.01 370 -370s-166.01 -370 -370 -370s-370 166.01 -370 370s166.01 370 370 370zM470.658 326.764
c-0.428711 2.01855 -0.6875 4.07129 -0.6875 6.2168c0 11.1074 6.04883 20.8135 15.0293 26l233.826 135c4.40625 2.54492 9.53223 4.05176 14.9824 4.05176c11.1084 0 20.8145 -6.0498 26 -15.0322c2.54395 -4.40625 4.05078 -9.53125 4.05078 -14.9805
c0 -11.1084 -6.05078 -20.8145 -15.0332 -26l-188.826 -109.02s110.834 -64.0322 110.885 -64.0195c8.98145 -5.18555 14.9805 -14.9053 14.9805 -26.0127c0 -5.44922 -1.45605 -10.5615 -4 -14.9678c-5.18555 -8.98145 -14.9053 -14.9805 -26.0127 -14.9805
c-5.44922 0 -10.5615 1.45605 -14.9678 4c0 0 -155.852 90.002 -155.885 90c-7.24609 4.18457 -12.5498 11.3135 -14.3418 19.7441z" />
    <glyph glyph-name="uF0033" unicode="&#xf0033;" 
d="M500 643c-171.563 0 -310 -138.437 -310 -310s138.437 -310 310 -310s310 138.437 310 310s-138.437 310 -310 310zM500 703c203.99 0 370 -166.01 370 -370s-166.01 -370 -370 -370s-370 166.01 -370 370s166.01 370 370 370zM470.463 327.791
c-0.299805 1.69922 -0.455078 3.4209 -0.455078 5.20605c0 16.5557 13.4385 29.9971 29.9922 30.0029h270c16.5576 0 30 -13.4424 30 -30s-13.4424 -30 -30 -30h-158.039s58.873 -34.0322 58.9238 -34.0195c8.98145 -5.18555 14.9805 -14.9053 14.9805 -26.0127
c0 -5.44922 -1.45605 -10.5615 -4 -14.9678c-5.18555 -8.98145 -14.9053 -14.9805 -26.0127 -14.9805c-5.44922 0 -10.5615 1.45605 -14.9678 4c0 0 -155.854 90.0078 -155.885 90c-7.53516 4.35352 -12.9736 11.8965 -14.5371 20.7715z" />
    <glyph glyph-name="uF0034" unicode="&#xf0034;" 
d="M500 643c-171.563 0 -310 -138.437 -310 -310s138.437 -310 310 -310s310 138.437 310 310s-138.437 310 -310 310zM500 703c203.99 0 370 -166.01 370 -370s-166.01 -370 -370 -370s-370 166.01 -370 370s166.01 370 370 370zM470.674 328.496
c-0.204102 1.41113 -0.276367 2.80469 -0.276367 4.27246c0 16.5586 13.4434 30.0029 30.0029 30.0029c5.29785 0 10.2773 -1.37695 14.5996 -3.79102l155.885 -90c0.00195312 -0.00195312 77.8906 -45.0127 77.9414 -45
c8.98242 -5.18555 14.9824 -14.9053 14.9824 -26.0137c0 -5.44922 -1.45605 -10.5605 -4 -14.9668c-5.18555 -8.98242 -14.9053 -14.9814 -26.0137 -14.9814c-5.44922 0 -10.5625 1.45605 -14.9688 4.00098l-77.9414 45s-155.854 90.0107 -155.885 90
c-7.60449 4.53516 -13.0068 12.3496 -14.3262 21.4766z" />
    <glyph glyph-name="uF0035" unicode="&#xf0035;" 
d="M500 643c-171.563 0 -310 -138.437 -310 -310s138.437 -310 310 -310s310 138.437 310 310s-138.437 310 -310 310zM500 703c203.99 0 370 -166.01 370 -370s-166.01 -370 -370 -370s-370 166.01 -370 370s166.01 370 370 370zM470.262 336.914
c1.9375 14.6934 14.5586 26.0615 29.7773 26.0615c5.44629 0 10.5557 -1.4541 14.9609 -3.99512c0 0 155.834 -90.0127 155.885 -90c8.98145 -5.18555 14.9805 -14.9053 14.9805 -26.0127c0 -5.44922 -1.45605 -10.5615 -4 -14.9678
c-5.18555 -8.98145 -14.9053 -14.9805 -26.0127 -14.9805c-5.44922 0 -10.5615 1.45605 -14.9678 4l-58.9238 34.0195l79.0195 -136.865c2.54492 -4.40625 4.05176 -9.53223 4.05176 -14.9824c0 -11.1084 -6.0498 -20.8145 -15.0322 -26
c-4.40625 -2.54395 -9.53125 -4.05078 -14.9805 -4.05078c-11.1084 0 -20.8145 6.05078 -26 15.0332l-135 233.826c-2.54102 4.40527 -4.0166 9.51562 -4.0166 14.9629c0 1.33887 0.0878906 2.6582 0.258789 3.95117z" />
    <glyph glyph-name="uF0036" unicode="&#xf0036;" 
d="M500 643c-171.563 0 -310 -138.437 -310 -310s138.437 -310 310 -310s310 138.437 310 310s-138.437 310 -310 310zM500 703c203.99 0 370 -166.01 370 -370s-166.01 -370 -370 -370s-370 166.01 -370 370s166.01 370 370 370zM470 63c0 0 0.0322266 269.981 0 270
c0.00292969 16.5566 13.4775 29.9785 30.0352 29.9785c5.44824 0 10.5586 -1.45508 14.9648 -3.99805c0 0 155.834 -90.0127 155.885 -90c8.98145 -5.18555 14.9805 -14.9053 14.9805 -26.0127c0 -5.44922 -1.45605 -10.5615 -4 -14.9678
c-5.18555 -8.98145 -14.9053 -14.9805 -26.0127 -14.9805c-5.44922 0 -10.5615 1.45605 -14.9678 4l-110.885 64.0195v-218.039c0 -16.5576 -13.4424 -30 -30 -30s-30 13.4424 -30 30z" />
    <glyph glyph-name="uF0037" unicode="&#xf0037;" 
d="M500 643c-171.563 0 -310 -138.437 -310 -310s138.437 -310 310 -310s310 138.437 310 310s-138.437 310 -310 310zM500 703c203.99 0 370 -166.01 370 -370s-166.01 -370 -370 -370s-370 166.01 -370 370s166.01 370 370 370zM335.256 103.088
c0.522461 3.9707 1.84375 7.76074 3.76367 11.0859c0 0 135.013 233.775 135 233.826c5.18652 8.98145 14.9062 14.9795 26.0137 14.9795c5.44922 0 10.5605 -1.45605 14.9668 -3.99902c0 0 155.834 -90.0127 155.885 -90
c8.98145 -5.18555 14.9805 -14.9053 14.9805 -26.0127c0 -5.44922 -1.45605 -10.5615 -4 -14.9678c-5.18555 -8.98145 -14.9053 -14.9805 -26.0127 -14.9805c-5.44922 0 -10.5615 1.45605 -14.9678 4l-129.904 75s-120.013 -207.795 -120 -207.846
c-5.18555 -8.98242 -14.9053 -14.9824 -26.0137 -14.9824c-5.44922 0 -10.5605 1.45605 -14.9668 4c-8.98242 5.18555 -15.002 14.8418 -15.002 25.9502c0 1.33789 0.0878906 2.65527 0.257812 3.94629z" />
    <glyph glyph-name="uF0038" unicode="&#xf0038;" 
d="M500 643c-171.563 0 -310 -138.437 -310 -310s138.437 -310 310 -310s310 138.437 310 310s-138.437 310 -310 310zM500 703c203.99 0 370 -166.01 370 -370s-166.01 -370 -370 -370s-370 166.01 -370 370s166.01 370 370 370zM236.43 194.084
c-0.169922 1.29102 -0.289062 2.55859 -0.289062 3.89648c0 11.1084 6.05078 20.8145 15.0332 26l233.826 135c4.40625 2.54395 9.58301 4 15.0322 4s10.5615 -1.45605 14.9678 -4c0 0 155.834 -90.0127 155.885 -90c8.98145 -5.18555 14.9805 -14.9053 14.9805 -26.0127
c0 -5.44922 -1.45605 -10.5615 -4 -14.9678c-5.18555 -8.98145 -14.9053 -14.9805 -26.0127 -14.9805c-5.44922 0 -10.5615 1.45605 -14.9678 4l-140.885 81.3398l-218.826 -126.34c-4.40625 -2.54492 -9.53223 -4.05176 -14.9824 -4.05176
c-11.1084 0 -20.8145 6.0498 -26 15.0322c-1.91895 3.3252 -3.23926 7.11426 -3.76172 11.084z" />
    <glyph glyph-name="uF0039" unicode="&#xf0039;" 
d="M500 643c-171.563 0 -310 -138.437 -310 -310s138.437 -310 310 -310s310 138.437 310 310s-138.437 310 -310 310zM500 703c203.99 0 370 -166.01 370 -370s-166.01 -370 -370 -370s-370 166.01 -370 370s166.01 370 370 370zM200 333c0 16.5576 13.4424 30 30 30h270
c5.44922 0 10.5938 -1.47559 15 -4.01953c0 0 155.834 -90.0127 155.885 -90c8.98145 -5.18555 14.9805 -14.9053 14.9805 -26.0127c0 -5.44922 -1.45605 -10.5615 -4 -14.9678c-5.18555 -8.98145 -14.9053 -14.9805 -26.0127 -14.9805
c-5.44922 0 -10.5615 1.45605 -14.9678 4l-148.924 85.9805h-261.961c-16.5576 0 -30 13.4424 -30 30z" />
    <glyph glyph-name="uF003A" unicode="&#xf003a;" 
d="M500 643c-171.563 0 -310 -138.437 -310 -310s138.437 -310 310 -310s310 138.437 310 310s-138.437 310 -310 310zM500 703c203.99 0 370 -166.01 370 -370s-166.01 -370 -370 -370s-370 166.01 -370 370s166.01 370 370 370zM236.43 471.916
c0.522461 3.96973 1.84277 7.75879 3.76172 11.084c5.18555 8.98242 14.9053 14.9814 26.0137 14.9814c5.44922 0 10.5625 -1.45605 14.9688 -4.00098l233.826 -135s155.834 -90.0127 155.885 -90c8.98145 -5.18555 14.9805 -14.9053 14.9805 -26.0127
c0 -5.44922 -1.45605 -10.5615 -4 -14.9678c-5.18555 -8.98145 -14.9053 -14.9805 -26.0127 -14.9805c-5.44922 0 -10.5615 1.45605 -14.9678 4l-155.885 90s-233.795 134.95 -233.826 135c-8.98242 5.18555 -15.002 14.8418 -15.002 25.9502
c0 1.33789 0.0878906 2.65527 0.257812 3.94629z" />
    <glyph glyph-name="uF003B" unicode="&#xf003b;" 
d="M500 643c-171.563 0 -310 -138.437 -310 -310s138.437 -310 310 -310s310 138.437 310 310s-138.437 310 -310 310zM500 703c203.99 0 370 -166.01 370 -370s-166.01 -370 -370 -370s-370 166.01 -370 370s166.01 370 370 370zM335.256 562.912
c-0.169922 1.29102 -0.289062 2.55859 -0.289062 3.89648c0 11.1084 6.05078 20.8145 15.0332 26c4.40625 2.54395 9.53125 4.05078 14.9805 4.05078c11.1084 0 20.8145 -6.05078 26 -15.0332l130.98 -226.865s148.873 -85.9932 148.924 -85.9805
c8.98145 -5.18555 14.9805 -14.9053 14.9805 -26.0127c0 -5.44922 -1.45605 -10.5615 -4 -14.9678c-5.18555 -8.98145 -14.9053 -14.9805 -26.0127 -14.9805c-5.44922 0 -10.5615 1.45605 -14.9678 4c0 0 -155.834 89.9492 -155.885 90
c-4.5752 2.6416 -8.33887 6.40527 -10.9805 10.9805l-135 233.826c-1.91992 3.3252 -3.24121 7.11523 -3.76367 11.0859z" />
    <glyph glyph-name="uF003C" unicode="&#xf003c;" 
d="M500 643c-171.563 0 -310 -138.437 -310 -310s138.437 -310 310 -310s310 138.437 310 310s-138.437 310 -310 310zM500 703c203.99 0 370 -166.01 370 -370s-166.01 -370 -370 -370s-370 166.01 -370 370s166.01 370 370 370zM470 333v270c0 16.5576 13.4424 30 30 30
s30 -13.4424 30 -30v-261.961l85.9805 -148.924c2.54395 -4.40625 4.05176 -9.53125 4.05176 -14.9805c0 -11.1084 -6.05078 -20.8145 -15.0322 -26c-4.40625 -2.54395 -9.53125 -4.05176 -14.9805 -4.05176c-11.1084 0 -20.8145 6.05078 -26 15.0322l-90 155.885
c-2.54395 4.40625 -4.01953 9.55078 -4.01953 15z" />
    <glyph glyph-name="uF003D" unicode="&#xf003d;" 
d="M500 643c-171.563 0 -310 -138.437 -310 -310s138.437 -310 310 -310s310 138.437 310 310s-138.437 310 -310 310zM500 703c203.99 0 370 -166.01 370 -370s-166.01 -370 -370 -370s-370 166.01 -370 370s166.01 370 370 370zM470.457 327.791
c-0.299805 1.7002 -0.436523 3.45605 -0.436523 5.24219c0 5.44922 1.45508 10.5605 3.99902 14.9668c0 0 135.013 233.775 135 233.826c5.18555 8.98242 14.9053 14.9824 26.0137 14.9824c5.44922 0 10.5605 -1.45605 14.9668 -4
c8.98242 -5.18555 14.9814 -14.9053 14.9814 -26.0137c0 -5.44922 -1.45605 -10.5625 -4.00098 -14.9688l-126.34 -218.826l81.3398 -140.885c2.54395 -4.40625 4.05176 -9.53125 4.05176 -14.9805c0 -11.1084 -6.05078 -20.8145 -15.0322 -26
c-4.40625 -2.54395 -9.53125 -4.05176 -14.9805 -4.05176c-11.1084 0 -20.8145 6.05078 -26 15.0322l-90 155.885c-1.70996 2.96289 -2.94727 6.30273 -3.5625 9.79102z" />
    <glyph glyph-name="uF003E" unicode="&#xf003e;" 
d="M500 643c-171.563 0 -310 -138.437 -310 -310s138.437 -310 310 -310s310 138.437 310 310s-138.437 310 -310 310zM500 703c203.99 0 370 -166.01 370 -370s-166.01 -370 -370 -370s-370 166.01 -370 370s166.01 370 370 370zM470.258 329.084
c-0.169922 1.29102 -0.289062 2.55859 -0.289062 3.89551c0 11.1084 6.0498 20.8145 15.0312 26.001l233.826 135c4.40625 2.54492 9.53223 4.05176 14.9824 4.05176c11.1084 0 20.8145 -6.0498 26 -15.0322c2.54395 -4.40625 4.05078 -9.53125 4.05078 -14.9805
c0 -11.1084 -6.05078 -20.8145 -15.0332 -26l-207.846 -120l75 -129.904c2.54395 -4.40625 4.05176 -9.53125 4.05176 -14.9805c0 -11.1084 -6.05078 -20.8145 -15.0322 -26c-4.40625 -2.54395 -9.53125 -4.05176 -14.9805 -4.05176
c-11.1084 0 -20.8145 6.05078 -26 15.0322l-90 155.885c-1.91895 3.3252 -3.23926 7.11426 -3.76172 11.084z" />
    <glyph glyph-name="uF003F" unicode="&#xf003f;" 
d="M500 643c-171.563 0 -310 -138.437 -310 -310s138.437 -310 310 -310s310 138.437 310 310s-138.437 310 -310 310zM500 703c203.99 0 370 -166.01 370 -370s-166.01 -370 -370 -370s-370 166.01 -370 370s166.01 370 370 370zM470.166 329.863
c-0.109375 1.04004 -0.164062 2.06543 -0.164062 3.13379c0 16.5576 13.4414 30 29.998 30.0029h270c16.5576 0 30 -13.4424 30 -30s-13.4424 -30 -30 -30h-218.039l64.0195 -110.885c2.54395 -4.40625 4.05176 -9.53125 4.05176 -14.9805
c0 -11.1084 -6.05078 -20.8145 -15.0322 -26c-4.40625 -2.54395 -9.53125 -4.05176 -14.9805 -4.05176c-11.1084 0 -20.8145 6.05078 -26 15.0322l-90 155.885c-2.04395 3.54199 -3.40625 7.60156 -3.85352 11.8633z" />
    <glyph glyph-name="uF0040" unicode="&#xf0040;" 
d="M500 643c-171.563 0 -310 -138.437 -310 -310s138.437 -310 310 -310s310 138.437 310 310s-138.437 310 -310 310zM500 703c203.99 0 370 -166.01 370 -370s-166.01 -370 -370 -370s-370 166.01 -370 370s166.01 370 370 370zM470.262 336.914
c1.9375 14.6934 14.5586 26.0615 29.7773 26.0615c5.44629 0 10.5557 -1.4541 14.9609 -3.99512c0 0 233.775 -135.013 233.826 -135c8.98242 -5.18555 14.9824 -14.9053 14.9824 -26.0137c0 -5.44922 -1.45605 -10.5605 -4 -14.9668
c-5.18555 -8.98242 -14.9053 -14.9814 -26.0137 -14.9814c-5.44922 0 -10.5625 1.45605 -14.9688 4.00098l-136.865 79.0195l34.0195 -58.9238c2.54395 -4.40625 4.05176 -9.53125 4.05176 -14.9805c0 -11.1084 -6.05078 -20.8145 -15.0322 -26
c-4.40625 -2.54395 -9.53125 -4.05176 -14.9805 -4.05176c-11.1084 0 -20.8145 6.05078 -26 15.0322l-90 155.885c-2.54102 4.40527 -4.0166 9.51562 -4.0166 14.9629c0 1.33887 0.0878906 2.6582 0.258789 3.95117z" />
    <glyph glyph-name="uF0041" unicode="&#xf0041;" 
d="M500 643c-171.563 0 -310 -138.437 -310 -310s138.437 -310 310 -310s310 138.437 310 310s-138.437 310 -310 310zM500 703c203.99 0 370 -166.01 370 -370s-166.01 -370 -370 -370s-370 166.01 -370 370s166.01 370 370 370zM470.271 330.693
c-0.0419922 0.649414 -0.0820312 1.31152 -0.0820312 1.97168c0 16.5586 13.4443 30.0029 30.0029 30.0029c10.958 0 20.5518 -5.88672 25.7881 -14.668l90 -155.885l45 -77.9414c2.54492 -4.40625 4.05176 -9.53223 4.05176 -14.9824
c0 -11.1084 -6.0498 -20.8145 -15.0322 -26c-4.40625 -2.54395 -9.53125 -4.05078 -14.9795 -4.05078c-11.1094 0 -20.8154 6.05078 -26.001 15.0332l-44.998 77.9395l-90.002 155.887c-2.11426 3.78418 -3.45215 8.12891 -3.74805 12.6934z" />
    <glyph glyph-name="uF0042" unicode="&#xf0042;" 
d="M500 643c-171.563 0 -310 -138.437 -310 -310s138.437 -310 310 -310s310 138.437 310 310s-138.437 310 -310 310zM500 703c203.99 0 370 -166.01 370 -370s-166.01 -370 -370 -370s-370 166.01 -370 370s166.01 370 370 370zM470 63v270
c0.00683594 16.5537 13.4287 30.0234 29.9844 30.0234c11.1045 0 20.8086 -6.0459 25.9961 -15.0234l90 -155.885c2.54395 -4.40625 4.05176 -9.53125 4.05176 -14.9805c0 -11.1084 -6.05078 -20.8145 -15.0322 -26c-4.40625 -2.54395 -9.53125 -4.05176 -14.9805 -4.05176
c-11.1084 0 -20.8145 6.05078 -26 15.0322l-34.0195 58.9238v-158.039c0 -16.5576 -13.4424 -30 -30 -30s-30 13.4424 -30 30z" />
    <glyph glyph-name="uF0043" unicode="&#xf0043;" 
d="M500 643c-171.563 0 -310 -138.437 -310 -310s138.437 -310 310 -310s310 138.437 310 310s-138.437 310 -310 310zM500 703c203.99 0 370 -166.01 370 -370s-166.01 -370 -370 -370s-370 166.01 -370 370s166.01 370 370 370zM335.256 103.088
c0.522461 3.9707 1.84375 7.76074 3.76367 11.0859c0 0 134.962 233.826 135 233.826c5.18652 8.98047 14.8545 15.0283 25.9609 15.0283c11.1074 0 20.8135 -6.04785 26 -15.0283l90 -155.885c2.54395 -4.40625 4.05176 -9.53125 4.05176 -14.9805
c0 -11.1084 -6.05078 -20.8145 -15.0322 -26c-4.40625 -2.54395 -9.53125 -4.05176 -14.9805 -4.05176c-11.1084 0 -20.8145 6.05078 -26 15.0322l-64.0195 110.885s-109.032 -188.775 -109.02 -188.826c-5.18555 -8.98242 -14.9053 -14.9824 -26.0137 -14.9824
c-5.44922 0 -10.5605 1.45605 -14.9668 4c-8.98242 5.18555 -15.002 14.8418 -15.002 25.9502c0 1.33789 0.0878906 2.65527 0.257812 3.94629z" />
    <glyph glyph-name="uF0044" unicode="&#xf0044;" 
d="M500 643c-171.563 0 -310 -138.437 -310 -310s138.437 -310 310 -310s310 138.437 310 310s-138.437 310 -310 310zM500 703c203.99 0 370 -166.01 370 -370s-166.01 -370 -370 -370s-370 166.01 -370 370s166.01 370 370 370zM236.43 194.084
c-0.169922 1.29102 -0.289062 2.55859 -0.289062 3.89648c0 11.1084 6.05078 20.8145 15.0332 26l233.826 135c4.40625 2.54297 9.53125 4.0498 14.9795 4.0498c11.1084 0 20.8145 -6.04883 26.001 -15.0303l90 -155.885
c2.54395 -4.40625 4.05176 -9.53125 4.05176 -14.9805c0 -11.1084 -6.05078 -20.8145 -15.0322 -26c-4.40625 -2.54395 -9.53125 -4.05176 -14.9805 -4.05176c-11.1084 0 -20.8145 6.05078 -26 15.0322l-75 129.904l-207.846 -120
c-4.40625 -2.54492 -9.53223 -4.05176 -14.9824 -4.05176c-11.1084 0 -20.8145 6.0498 -26 15.0322c-1.91895 3.3252 -3.23926 7.11426 -3.76172 11.084z" />
    <glyph glyph-name="uF0045" unicode="&#xf0045;" 
d="M500 643c-171.563 0 -310 -138.437 -310 -310s138.437 -310 310 -310s310 138.437 310 310s-138.437 310 -310 310zM500 703c203.99 0 370 -166.01 370 -370s-166.01 -370 -370 -370s-370 166.01 -370 370s166.01 370 370 370zM200 333c0 16.5576 13.4424 30 30 30
c0 0 269.981 0.0322266 270 0c11.1074 -0.000976562 20.7939 -6.01855 25.9805 -15l90 -155.885c2.54395 -4.40625 4.05176 -9.53125 4.05176 -14.9805c0 -11.1084 -6.05078 -20.8145 -15.0322 -26c-4.40625 -2.54395 -9.53125 -4.05176 -14.9805 -4.05176
c-11.1084 0 -20.8145 6.05078 -26 15.0322l-81.3398 140.885h-252.68c-16.5576 0 -30 13.4424 -30 30z" />
    <glyph glyph-name="uF0046" unicode="&#xf0046;" 
d="M500 643c-171.563 0 -310 -138.437 -310 -310s138.437 -310 310 -310s310 138.437 310 310s-138.437 310 -310 310zM500 703c203.99 0 370 -166.01 370 -370s-166.01 -370 -370 -370s-370 166.01 -370 370s166.01 370 370 370zM236.43 471.916
c0.522461 3.96973 1.84277 7.75879 3.76172 11.084c5.18555 8.98242 14.9053 14.9814 26.0137 14.9814c5.44922 0 10.5625 -1.45605 14.9688 -4.00098c0 0 233.775 -134.949 233.826 -135c4.5752 -2.6416 8.33887 -6.40527 10.9805 -10.9805l90 -155.885
c2.54395 -4.40625 4.05176 -9.53125 4.05176 -14.9805c0 -11.1084 -6.05078 -20.8145 -15.0322 -26c-4.40625 -2.54395 -9.53125 -4.05176 -14.9805 -4.05176c-11.1084 0 -20.8145 6.05078 -26 15.0322l-85.9805 148.924s-226.834 130.931 -226.865 130.98
c-8.98242 5.18555 -15.002 14.8418 -15.002 25.9502c0 1.33789 0.0878906 2.65527 0.257812 3.94629z" />
    <glyph glyph-name="uF0047" unicode="&#xf0047;" 
d="M500 643c-171.563 0 -310 -138.437 -310 -310s138.437 -310 310 -310s310 138.437 310 310s-138.437 310 -310 310zM500 703c203.99 0 370 -166.01 370 -370s-166.01 -370 -370 -370s-370 166.01 -370 370s166.01 370 370 370zM335.256 562.912
c-0.169922 1.29102 -0.289062 2.55859 -0.289062 3.89648c0 11.1084 6.05078 20.8145 15.0332 26c4.40625 2.54395 9.53125 4.05078 14.9805 4.05078c11.1084 0 20.8145 -6.05078 26 -15.0332l135 -233.826l90 -155.885c2.54395 -4.40625 4.05176 -9.53125 4.05176 -14.9805
c0 -11.1084 -6.05078 -20.8145 -15.0322 -26c-4.40625 -2.54395 -9.53125 -4.05176 -14.9805 -4.05176c-11.1084 0 -20.8145 6.05078 -26 15.0322l-90 155.885l-135 233.826c-1.91992 3.3252 -3.24121 7.11523 -3.76367 11.0859z" />
    <glyph glyph-name="uF0048" unicode="&#xf0048;" 
d="M500 643c-171.563 0 -310 -138.437 -310 -310s138.437 -310 310 -310s310 138.437 310 310s-138.437 310 -310 310zM500 703c203.99 0 370 -166.01 370 -370s-166.01 -370 -370 -370s-370 166.01 -370 370s166.01 370 370 370zM470 153v180v270
c0 16.5576 13.4424 30 30 30s30 -13.4424 30 -30v-270v-180c0 -16.5576 -13.4424 -30 -30 -30s-30 13.4424 -30 30z" />
    <glyph glyph-name="uF0049" unicode="&#xf0049;" 
d="M500 643c-171.563 0 -310 -138.437 -310 -310s138.437 -310 310 -310s310 138.437 310 310s-138.437 310 -310 310zM500 703c203.99 0 370 -166.01 370 -370s-166.01 -370 -370 -370s-370 166.01 -370 370s166.01 370 370 370zM470 153v180
c0 5.44922 1.47559 10.5938 4.01953 15c0 0 135.013 233.775 135 233.826c5.18555 8.98242 14.9053 14.9824 26.0137 14.9824c5.44922 0 10.5605 -1.45605 14.9668 -4c8.98242 -5.18555 14.9814 -14.9053 14.9814 -26.0137c0 -5.44922 -1.45605 -10.5625 -4.00098 -14.9688
l-130.98 -226.865v-171.961c0 -16.5576 -13.4424 -30 -30 -30s-30 13.4424 -30 30z" />
    <glyph glyph-name="uF004A" unicode="&#xf004a;" 
d="M500 643c-171.563 0 -310 -138.437 -310 -310s138.437 -310 310 -310s310 138.437 310 310s-138.437 310 -310 310zM500 703c203.99 0 370 -166.01 370 -370s-166.01 -370 -370 -370s-370 166.01 -370 370s166.01 370 370 370zM470 153c0 0 -0.0322266 179.981 0 180
c0.000976562 11.1074 6.01855 20.7939 15 25.9805l233.826 135c4.40625 2.54492 9.53223 4.05176 14.9824 4.05176c11.1084 0 20.8145 -6.0498 26 -15.0322c2.54395 -4.40625 4.05078 -9.53125 4.05078 -14.9805c0 -11.1084 -6.05078 -20.8145 -15.0332 -26
l-218.826 -126.34v-162.68c0 -16.5576 -13.4424 -30 -30 -30s-30 13.4424 -30 30z" />
    <glyph glyph-name="uF004B" unicode="&#xf004b;" 
d="M500 643c-171.563 0 -310 -138.437 -310 -310s138.437 -310 310 -310s310 138.437 310 310s-138.437 310 -310 310zM500 703c203.99 0 370 -166.01 370 -370s-166.01 -370 -370 -370s-370 166.01 -370 370s166.01 370 370 370zM470 153v180
c0.00195312 16.5566 13.4434 29.998 30 30h270c16.5576 0 30 -13.4424 30 -30s-13.4424 -30 -30 -30h-240v-150c0 -16.5576 -13.4424 -30 -30 -30s-30 13.4424 -30 30z" />
    <glyph glyph-name="uF004C" unicode="&#xf004c;" 
d="M500 643c-171.563 0 -310 -138.437 -310 -310s138.437 -310 310 -310s310 138.437 310 310s-138.437 310 -310 310zM500 703c203.99 0 370 -166.01 370 -370s-166.01 -370 -370 -370s-370 166.01 -370 370s166.01 370 370 370zM470 153c0 0 0.0322266 179.981 0 180
c0.00292969 16.5566 13.4775 29.9785 30.0352 29.9785c5.44824 0 10.5586 -1.45508 14.9648 -3.99805c0 0 233.775 -135.013 233.826 -135c8.98242 -5.18555 14.9824 -14.9053 14.9824 -26.0137c0 -5.44922 -1.45605 -10.5605 -4 -14.9668
c-5.18555 -8.98242 -14.9053 -14.9814 -26.0137 -14.9814c-5.44922 0 -10.5625 1.45605 -14.9688 4.00098l-188.826 109.02v-128.039c0 -16.5576 -13.4424 -30 -30 -30s-30 13.4424 -30 30z" />
    <glyph glyph-name="uF004D" unicode="&#xf004d;" 
d="M500 643c-171.563 0 -310 -138.437 -310 -310s138.437 -310 310 -310s310 138.437 310 310s-138.437 310 -310 310zM500 703c203.99 0 370 -166.01 370 -370s-166.01 -370 -370 -370s-370 166.01 -370 370s166.01 370 370 370zM470 153v180
c0.00683594 16.5537 13.4287 30.0234 29.9844 30.0234c11.1045 0 20.8086 -6.0459 25.9961 -15.0234l135 -233.826c2.54492 -4.40625 4.05176 -9.53223 4.05176 -14.9824c0 -11.1084 -6.0498 -20.8145 -15.0322 -26c-4.40625 -2.54395 -9.53125 -4.05078 -14.9805 -4.05078
c-11.1084 0 -20.8145 6.05078 -26 15.0332l-79.0195 136.865v-68.0391c0 -16.5576 -13.4424 -30 -30 -30s-30 13.4424 -30 30z" />
    <glyph glyph-name="uF004E" unicode="&#xf004e;" 
d="M500 643c-171.563 0 -310 -138.437 -310 -310s138.437 -310 310 -310s310 138.437 310 310s-138.437 310 -310 310zM500 703c203.99 0 370 -166.01 370 -370s-166.01 -370 -370 -370s-370 166.01 -370 370s166.01 370 370 370zM470 63v90v180
c0.231445 16.3604 13.585 29.5713 30 29.5713s29.7686 -13.2109 30 -29.5713v-180v-90c0 -16.5576 -13.4424 -30 -30 -30s-30 13.4424 -30 30z" />
    <glyph glyph-name="uF004F" unicode="&#xf004f;" 
d="M500 643c-171.563 0 -310 -138.437 -310 -310s138.437 -310 310 -310s310 138.437 310 310s-138.437 310 -310 310zM500 703c203.99 0 370 -166.01 370 -370s-166.01 -370 -370 -370s-370 166.01 -370 370s166.01 370 370 370zM335.256 103.088
c0.522461 3.9707 1.84375 7.76074 3.76367 11.0859c0 0 134.98 233.794 135 233.826c5.1875 8.97754 14.8721 14.9912 25.9775 14.9912c16.5547 0 29.9961 -13.4375 30.0029 -29.9912v-180c0 -16.5576 -13.4424 -30 -30 -30s-30 13.4424 -30 30v68.0391
s-79.0322 -136.814 -79.0195 -136.865c-5.18555 -8.98242 -14.9053 -14.9824 -26.0137 -14.9824c-5.44922 0 -10.5605 1.45605 -14.9668 4c-8.98242 5.18555 -15.002 14.8418 -15.002 25.9502c0 1.33789 0.0878906 2.65527 0.257812 3.94629z" />
    <glyph glyph-name="uF0050" unicode="&#xf0050;" 
d="M500 643c-171.563 0 -310 -138.437 -310 -310s138.437 -310 310 -310s310 138.437 310 310s-138.437 310 -310 310zM500 703c203.99 0 370 -166.01 370 -370s-166.01 -370 -370 -370s-370 166.01 -370 370s166.01 370 370 370zM236.43 194.084
c-0.169922 1.29102 -0.289062 2.55859 -0.289062 3.89648c0 11.1084 6.05078 20.8145 15.0332 26l233.826 135c4.40625 2.54297 9.54883 4.0166 14.9971 4.0166c16.5576 0 30 -13.4404 30.0029 -29.9971v-180c0 -16.5576 -13.4424 -30 -30 -30s-30 13.4424 -30 30v128.039
l-188.826 -109.02c-4.40625 -2.54492 -9.53223 -4.05176 -14.9824 -4.05176c-11.1084 0 -20.8145 6.0498 -26 15.0322c-1.91895 3.3252 -3.23926 7.11426 -3.76172 11.084z" />
    <glyph glyph-name="uF0051" unicode="&#xf0051;" 
d="M500 643c-171.563 0 -310 -138.437 -310 -310s138.437 -310 310 -310s310 138.437 310 310s-138.437 310 -310 310zM500 703c203.99 0 370 -166.01 370 -370s-166.01 -370 -370 -370s-370 166.01 -370 370s166.01 370 370 370zM200 333c0 16.5576 13.4424 30 30 30h270
c16.5566 -0.00195312 29.998 -13.4434 30 -30v-180c0 -16.5576 -13.4424 -30 -30 -30s-30 13.4424 -30 30v150h-240c-16.5576 0 -30 13.4424 -30 30z" />
    <glyph glyph-name="uF0052" unicode="&#xf0052;" 
d="M500 643c-171.563 0 -310 -138.437 -310 -310s138.437 -310 310 -310s310 138.437 310 310s-138.437 310 -310 310zM500 703c203.99 0 370 -166.01 370 -370s-166.01 -370 -370 -370s-370 166.01 -370 370s166.01 370 370 370zM236.43 471.916
c0.522461 3.96973 1.84277 7.75879 3.76172 11.084c5.18555 8.98242 14.9053 14.9814 26.0137 14.9814c5.44922 0 10.5625 -1.45605 14.9688 -4.00098c0 0 233.794 -134.981 233.826 -135c8.98145 -5.18652 14.999 -14.873 15 -25.9805v-180
c0 -16.5576 -13.4424 -30 -30 -30s-30 13.4424 -30 30v162.68s-218.795 126.29 -218.826 126.34c-8.98242 5.18555 -15.002 14.8418 -15.002 25.9502c0 1.33789 0.0878906 2.65527 0.257812 3.94629z" />
    <glyph glyph-name="uF0053" unicode="&#xf0053;" 
d="M500 643c-171.563 0 -310 -138.437 -310 -310s138.437 -310 310 -310s310 138.437 310 310s-138.437 310 -310 310zM500 703c203.99 0 370 -166.01 370 -370s-166.01 -370 -370 -370s-370 166.01 -370 370s166.01 370 370 370zM335.256 562.912
c-0.169922 1.29102 -0.289062 2.55859 -0.289062 3.89648c0 11.1084 6.05078 20.8145 15.0332 26c4.40625 2.54395 9.53125 4.05078 14.9805 4.05078c11.1084 0 20.8145 -6.05078 26 -15.0332l135 -233.826c2.54395 -4.40625 4.01953 -9.55078 4.01953 -15v-180
c0 -16.5576 -13.4424 -30 -30 -30s-30 13.4424 -30 30v171.961l-130.98 226.865c-1.91992 3.3252 -3.24121 7.11523 -3.76367 11.0859z" />
    <glyph glyph-name="uF0054" unicode="&#xf0054;" 
d="M500 643c-171.563 0 -310 -138.437 -310 -310s138.437 -310 310 -310s310 138.437 310 310s-138.437 310 -310 310zM500 703c203.99 0 370 -166.01 370 -370s-166.01 -370 -370 -370s-370 166.01 -370 370s166.01 370 370 370zM380.256 181.031
c0.523438 3.96973 1.84375 7.75977 3.76367 11.084l85.9805 148.924v261.961c0 16.5576 13.4424 30 30 30s30 -13.4424 30 -30v-270c0 -5.44922 -1.47559 -10.5938 -4.01953 -15c0 0 -90.0127 -155.834 -90 -155.885c-5.18555 -8.98145 -14.9053 -14.9805 -26.0127 -14.9805
c-5.44922 0 -10.5615 1.45605 -14.9678 4c-8.98242 5.18555 -15.002 14.8418 -15.002 25.9502c0 1.33789 0.0878906 2.65527 0.257812 3.94629z" />
    <glyph glyph-name="uF0055" unicode="&#xf0055;" 
d="M500 643c-171.563 0 -310 -138.437 -310 -310s138.437 -310 310 -310s310 138.437 310 310s-138.437 310 -310 310zM500 703c203.99 0 370 -166.01 370 -370s-166.01 -370 -370 -370s-370 166.01 -370 370s166.01 370 370 370zM380.256 181.031
c0.523438 3.96973 1.84375 7.75977 3.76367 11.084l90 155.885s135.013 233.775 135 233.826c5.18555 8.98242 14.9053 14.9824 26.0137 14.9824c5.44922 0 10.5605 -1.45605 14.9668 -4c8.98242 -5.18555 14.9814 -14.9053 14.9814 -26.0137
c0 -5.44922 -1.45605 -10.5625 -4.00098 -14.9688l-135 -233.826s-90.0127 -155.834 -90 -155.885c-5.18555 -8.98145 -14.9053 -14.9805 -26.0127 -14.9805c-5.44922 0 -10.5615 1.45605 -14.9678 4c-8.98242 5.18555 -15.002 14.8418 -15.002 25.9502
c0 1.33789 0.0878906 2.65527 0.257812 3.94629z" />
    <glyph glyph-name="uF0056" unicode="&#xf0056;" 
d="M500 643c-171.563 0 -310 -138.437 -310 -310s138.437 -310 310 -310s310 138.437 310 310s-138.437 310 -310 310zM500 703c203.99 0 370 -166.01 370 -370s-166.01 -370 -370 -370s-370 166.01 -370 370s166.01 370 370 370zM380.256 181.031
c0.523438 3.96973 1.84375 7.75977 3.76367 11.084c0 0 89.9492 155.834 90 155.885c2.6416 4.5752 6.40527 8.33887 10.9805 10.9805l233.826 135c4.40625 2.54492 9.53223 4.05176 14.9824 4.05176c11.1084 0 20.8145 -6.0498 26 -15.0322
c2.54395 -4.40625 4.05078 -9.53125 4.05078 -14.9805c0 -11.1084 -6.05078 -20.8145 -15.0332 -26l-226.865 -130.98s-85.9932 -148.873 -85.9805 -148.924c-5.18555 -8.98145 -14.9053 -14.9805 -26.0127 -14.9805c-5.44922 0 -10.5615 1.45605 -14.9678 4
c-8.98242 5.18555 -15.002 14.8418 -15.002 25.9502c0 1.33789 0.0878906 2.65527 0.257812 3.94629z" />
    <glyph glyph-name="uF0057" unicode="&#xf0057;" 
d="M500 643c-171.563 0 -310 -138.437 -310 -310s138.437 -310 310 -310s310 138.437 310 310s-138.437 310 -310 310zM500 703c203.99 0 370 -166.01 370 -370s-166.01 -370 -370 -370s-370 166.01 -370 370s166.01 370 370 370zM380.256 181.031
c0.523438 3.96973 1.84375 7.75977 3.76367 11.084c0 0 89.9814 155.853 90 155.885c5.18652 8.98145 14.873 14.999 25.9805 15h270c16.5576 0 30 -13.4424 30 -30s-13.4424 -30 -30 -30h-252.68s-81.3525 -140.834 -81.3398 -140.885
c-5.18555 -8.98145 -14.9053 -14.9805 -26.0127 -14.9805c-5.44922 0 -10.5615 1.45605 -14.9678 4c-8.98242 5.18555 -15.002 14.8418 -15.002 25.9502c0 1.33789 0.0878906 2.65527 0.257812 3.94629z" />
    <glyph glyph-name="uF0058" unicode="&#xf0058;" 
d="M500 643c-171.563 0 -310 -138.437 -310 -310s138.437 -310 310 -310s310 138.437 310 310s-138.437 310 -310 310zM500 703c203.99 0 370 -166.01 370 -370s-166.01 -370 -370 -370s-370 166.01 -370 370s166.01 370 370 370zM380.256 181.031
c0.523438 3.96973 1.84375 7.75977 3.76367 11.084c0 0 90.0127 155.834 90 155.885c5.18652 8.98145 14.9062 14.9795 26.0137 14.9795c5.44922 0 10.5605 -1.45605 14.9668 -3.99902c0 0 233.775 -135.013 233.826 -135
c8.98242 -5.18555 14.9824 -14.9053 14.9824 -26.0137c0 -5.44922 -1.45605 -10.5605 -4 -14.9668c-5.18555 -8.98242 -14.9053 -14.9814 -26.0137 -14.9814c-5.44922 0 -10.5625 1.45605 -14.9688 4.00098l-207.846 120s-75.0127 -129.854 -75 -129.904
c-5.18555 -8.98145 -14.9053 -14.9805 -26.0127 -14.9805c-5.44922 0 -10.5615 1.45605 -14.9678 4c-8.98242 5.18555 -15.002 14.8418 -15.002 25.9502c0 1.33789 0.0878906 2.65527 0.257812 3.94629z" />
    <glyph glyph-name="uF0059" unicode="&#xf0059;" 
d="M500 643c-171.563 0 -310 -138.437 -310 -310s138.437 -310 310 -310s310 138.437 310 310s-138.437 310 -310 310zM500 703c203.99 0 370 -166.01 370 -370s-166.01 -370 -370 -370s-370 166.01 -370 370s166.01 370 370 370zM380.256 181.031
c0.523438 3.96973 1.84375 7.75977 3.76367 11.084c0 0 89.9619 155.885 90 155.885c5.18652 8.98047 14.8545 15.0283 25.9609 15.0283c11.1074 0 20.8135 -6.04785 26 -15.0283l135 -233.826c2.54492 -4.40625 4.05176 -9.53223 4.05176 -14.9824
c0 -11.1084 -6.0498 -20.8145 -15.0322 -26c-4.40625 -2.54395 -9.53125 -4.05078 -14.9805 -4.05078c-11.1084 0 -20.8145 6.05078 -26 15.0332l-109.02 188.826s-64.0322 -110.834 -64.0195 -110.885c-5.18555 -8.98145 -14.9053 -14.9805 -26.0127 -14.9805
c-5.44922 0 -10.5615 1.45605 -14.9678 4c-8.98242 5.18555 -15.002 14.8418 -15.002 25.9502c0 1.33789 0.0878906 2.65527 0.257812 3.94629z" />
    <glyph glyph-name="uF005A" unicode="&#xf005a;" 
d="M500 643c-171.563 0 -310 -138.437 -310 -310s138.437 -310 310 -310s310 138.437 310 310s-138.437 310 -310 310zM500 703c203.99 0 370 -166.01 370 -370s-166.01 -370 -370 -370s-370 166.01 -370 370s166.01 370 370 370zM380.256 181.031
c0.523438 3.96973 1.84375 7.75977 3.76367 11.084c0 0 89.9805 155.853 90 155.885c5.1875 8.97754 14.8721 14.9912 25.9775 14.9912c16.5547 0 29.9961 -13.4375 30.0029 -29.9912v-270c0 -16.5576 -13.4424 -30 -30 -30s-30 13.4424 -30 30v158.039
s-34.0322 -58.873 -34.0195 -58.9238c-5.18555 -8.98145 -14.9053 -14.9805 -26.0127 -14.9805c-5.44922 0 -10.5615 1.45605 -14.9678 4c-8.98242 5.18555 -15.002 14.8418 -15.002 25.9502c0 1.33789 0.0878906 2.65527 0.257812 3.94629z" />
    <glyph glyph-name="uF005B" unicode="&#xf005b;" 
d="M500 643c-171.563 0 -310 -138.437 -310 -310s138.437 -310 310 -310s310 138.437 310 310s-138.437 310 -310 310zM500 703c203.99 0 370 -166.01 370 -370s-166.01 -370 -370 -370s-370 166.01 -370 370s166.01 370 370 370zM335.256 103.088
c0.522461 3.9707 1.84375 7.76074 3.76367 11.0859l45 77.9414s89.9619 155.821 90 155.885c5.23828 8.77246 14.7891 14.5889 25.7402 14.5889c16.5596 0 30.0039 -13.4443 30.0039 -30.0029c0 -5.29297 -1.37402 -10.2666 -3.7832 -14.5859l-90 -155.885
s-45.0127 -77.8906 -45 -77.9414c-5.18555 -8.98242 -14.9053 -14.9824 -26.0137 -14.9824c-5.44922 0 -10.5605 1.45605 -14.9668 4c-8.98242 5.18555 -15.002 14.8418 -15.002 25.9502c0 1.33789 0.0878906 2.65527 0.257812 3.94629z" />
    <glyph glyph-name="uF005C" unicode="&#xf005c;" 
d="M500 643c-171.563 0 -310 -138.437 -310 -310s138.437 -310 310 -310s310 138.437 310 310s-138.437 310 -310 310zM500 703c203.99 0 370 -166.01 370 -370s-166.01 -370 -370 -370s-370 166.01 -370 370s166.01 370 370 370zM236.43 194.084
c-0.169922 1.29102 -0.289062 2.55859 -0.289062 3.89648c0 11.1084 6.05078 20.8145 15.0332 26l233.826 135c4.4043 2.54102 9.52637 3.98145 14.9717 3.98145c16.5596 0 30.0029 -13.4434 30.0029 -30.0029c0 -5.44531 -1.45312 -10.5547 -3.99414 -14.959
c0 0 -90.0127 -155.834 -90 -155.885c-5.18555 -8.98145 -14.9053 -14.9805 -26.0127 -14.9805c-5.44922 0 -10.5615 1.45605 -14.9678 4c-8.98145 5.18555 -14.9805 14.9053 -14.9805 26.0127c0 5.44922 1.45605 10.5615 4 14.9678l34.0195 58.9238l-136.865 -79.0195
c-4.40625 -2.54492 -9.53223 -4.05176 -14.9824 -4.05176c-11.1084 0 -20.8145 6.0498 -26 15.0322c-1.91895 3.3252 -3.23926 7.11426 -3.76172 11.084z" />
    <glyph glyph-name="uF005D" unicode="&#xf005d;" 
d="M500 643c-171.563 0 -310 -138.437 -310 -310s138.437 -310 310 -310s310 138.437 310 310s-138.437 310 -310 310zM500 703c203.99 0 370 -166.01 370 -370s-166.01 -370 -370 -370s-370 166.01 -370 370s166.01 370 370 370zM200 333c0 16.5576 13.4424 30 30 30
c0 0 269.981 -0.0322266 270 0c16.5566 -0.00292969 29.9785 -13.4775 29.9785 -30.0352c0 -5.44824 -1.45508 -10.5586 -3.99805 -14.9648c0 0 -90.0127 -155.834 -90 -155.885c-5.18555 -8.98145 -14.9053 -14.9805 -26.0127 -14.9805
c-5.44922 0 -10.5615 1.45605 -14.9678 4c-8.98145 5.18555 -14.9805 14.9053 -14.9805 26.0127c0 5.44922 1.45605 10.5615 4 14.9678l64.0195 110.885h-218.039c-16.5576 0 -30 13.4424 -30 30z" />
    <glyph glyph-name="uF005E" unicode="&#xf005e;" 
d="M500 643c-171.563 0 -310 -138.437 -310 -310s138.437 -310 310 -310s310 138.437 310 310s-138.437 310 -310 310zM500 703c203.99 0 370 -166.01 370 -370s-166.01 -370 -370 -370s-370 166.01 -370 370s166.01 370 370 370zM236.43 471.916
c0.522461 3.96973 1.84277 7.75879 3.76172 11.084c5.18555 8.98242 14.9053 14.9814 26.0137 14.9814c5.44922 0 10.5625 -1.45605 14.9688 -4.00098c0 0 233.775 -135.013 233.826 -135c8.98145 -5.18652 14.9795 -14.9062 14.9795 -26.0137
c0 -5.44922 -1.45605 -10.5605 -3.99902 -14.9668c0 0 -90.0127 -155.834 -90 -155.885c-5.18555 -8.98145 -14.9053 -14.9805 -26.0127 -14.9805c-5.44922 0 -10.5615 1.45605 -14.9678 4c-8.98145 5.18555 -14.9805 14.9053 -14.9805 26.0127
c0 5.44922 1.45605 10.5615 4 14.9678l75 129.904s-207.814 119.95 -207.846 120c-8.98242 5.18555 -15.002 14.8418 -15.002 25.9502c0 1.33789 0.0878906 2.65527 0.257812 3.94629z" />
    <glyph glyph-name="uF005F" unicode="&#xf005f;" 
d="M500 643c-171.563 0 -310 -138.437 -310 -310s138.437 -310 310 -310s310 138.437 310 310s-138.437 310 -310 310zM500 703c203.99 0 370 -166.01 370 -370s-166.01 -370 -370 -370s-370 166.01 -370 370s166.01 370 370 370zM335.256 562.912
c-0.169922 1.29102 -0.289062 2.55859 -0.289062 3.89648c0 11.1084 6.05078 20.8145 15.0332 26c4.40625 2.54395 9.53125 4.05078 14.9805 4.05078c11.1084 0 20.8145 -6.05078 26 -15.0332l135 -233.826c2.54395 -4.40625 4 -9.58301 4 -15.0322
s-1.45605 -10.5615 -4 -14.9678c0 0 -90.0127 -155.834 -90 -155.885c-5.18555 -8.98145 -14.9053 -14.9805 -26.0127 -14.9805c-5.44922 0 -10.5615 1.45605 -14.9678 4c-8.98145 5.18555 -14.9805 14.9053 -14.9805 26.0127c0 5.44922 1.45605 10.5615 4 14.9678
l81.3398 140.885l-126.34 218.826c-1.91992 3.3252 -3.24121 7.11523 -3.76367 11.0859z" />
    <glyph glyph-name="uF0060" unicode="&#xf0060;" 
d="M500 643c-171.563 0 -310 -138.437 -310 -310s138.437 -310 310 -310s310 138.437 310 310s-138.437 310 -310 310zM500 703c203.99 0 370 -166.01 370 -370s-166.01 -370 -370 -370s-370 166.01 -370 370s166.01 370 370 370zM314.371 239.084
c-0.169922 1.29102 -0.289062 2.55859 -0.289062 3.89648c0 11.1084 6.05078 20.8145 15.0332 26l140.885 81.3398v252.68c0 16.5576 13.4424 30 30 30s30 -13.4424 30 -30c0 0 0.0322266 -269.981 0 -270c-0.000976562 -11.1074 -6.01855 -20.7939 -15 -25.9805
l-155.885 -90c-4.40625 -2.54395 -9.53125 -4.05176 -14.9805 -4.05176c-11.1084 0 -20.8145 6.05078 -26 15.0322c-1.91992 3.32422 -3.24023 7.11426 -3.76367 11.084z" />
    <glyph glyph-name="uF0061" unicode="&#xf0061;" 
d="M500 643c-171.563 0 -310 -138.437 -310 -310s138.437 -310 310 -310s310 138.437 310 310s-138.437 310 -310 310zM500 703c203.99 0 370 -166.01 370 -370s-166.01 -370 -370 -370s-370 166.01 -370 370s166.01 370 370 370zM314.371 239.084
c-0.169922 1.29102 -0.289062 2.55859 -0.289062 3.89648c0 11.1084 6.05078 20.8145 15.0332 26l148.924 85.9805s130.993 226.814 130.98 226.865c5.18555 8.98242 14.9053 14.9824 26.0137 14.9824c5.44922 0 10.5605 -1.45605 14.9668 -4
c8.98242 -5.18555 14.9814 -14.9053 14.9814 -26.0137c0 -5.44922 -1.45605 -10.5625 -4.00098 -14.9688c0 0 -134.949 -233.775 -135 -233.826c-2.6416 -4.5752 -6.40527 -8.33887 -10.9805 -10.9805l-155.885 -90c-4.40625 -2.54395 -9.53125 -4.05176 -14.9805 -4.05176
c-11.1084 0 -20.8145 6.05078 -26 15.0322c-1.91992 3.32422 -3.24023 7.11426 -3.76367 11.084z" />
    <glyph glyph-name="uF0062" unicode="&#xf0062;" 
d="M500 643c-171.563 0 -310 -138.437 -310 -310s138.437 -310 310 -310s310 138.437 310 310s-138.437 310 -310 310zM500 703c203.99 0 370 -166.01 370 -370s-166.01 -370 -370 -370s-370 166.01 -370 370s166.01 370 370 370zM314.371 239.084
c-0.169922 1.29102 -0.289062 2.55859 -0.289062 3.89648c0 11.1084 6.05078 20.8145 15.0332 26l155.885 90l233.826 135c4.40625 2.54492 9.53223 4.05176 14.9824 4.05176c11.1084 0 20.8145 -6.0498 26 -15.0322c2.54395 -4.40625 4.05078 -9.53125 4.05078 -14.9805
c0 -11.1084 -6.05078 -20.8145 -15.0332 -26l-233.826 -135l-155.885 -90c-4.40625 -2.54395 -9.53125 -4.05176 -14.9805 -4.05176c-11.1084 0 -20.8145 6.05078 -26 15.0322c-1.91992 3.32422 -3.24023 7.11426 -3.76367 11.084z" />
    <glyph glyph-name="uF0063" unicode="&#xf0063;" 
d="M500 643c-171.563 0 -310 -138.437 -310 -310s138.437 -310 310 -310s310 138.437 310 310s-138.437 310 -310 310zM500 703c203.99 0 370 -166.01 370 -370s-166.01 -370 -370 -370s-370 166.01 -370 370s166.01 370 370 370zM314.371 239.084
c-0.169922 1.29102 -0.289062 2.55859 -0.289062 3.89648c0 11.1084 6.05078 20.8145 15.0332 26l155.885 90c4.40625 2.54395 9.55078 4.01953 15 4.01953h270c16.5576 0 30 -13.4424 30 -30s-13.4424 -30 -30 -30h-261.961l-148.924 -85.9805
c-4.40625 -2.54395 -9.53125 -4.05176 -14.9805 -4.05176c-11.1084 0 -20.8145 6.05078 -26 15.0322c-1.91992 3.32422 -3.24023 7.11426 -3.76367 11.084z" />
    <glyph glyph-name="uF0064" unicode="&#xf0064;" 
d="M500 643c-171.563 0 -310 -138.437 -310 -310s138.437 -310 310 -310s310 138.437 310 310s-138.437 310 -310 310zM500 703c203.99 0 370 -166.01 370 -370s-166.01 -370 -370 -370s-370 166.01 -370 370s166.01 370 370 370zM314.371 239.084
c-0.169922 1.29102 -0.289062 2.55859 -0.289062 3.89648c0 11.1084 6.05078 20.8145 15.0332 26l155.885 90c4.40625 2.54395 9.58301 4 15.0322 4s10.5615 -1.45605 14.9678 -4c0 0 233.775 -135.013 233.826 -135c8.98242 -5.18555 14.9824 -14.9053 14.9824 -26.0137
c0 -5.44922 -1.45605 -10.5605 -4 -14.9668c-5.18555 -8.98242 -14.9053 -14.9814 -26.0137 -14.9814c-5.44922 0 -10.5625 1.45605 -14.9688 4.00098l-218.826 126.34l-140.885 -81.3398c-4.40625 -2.54395 -9.53125 -4.05176 -14.9805 -4.05176
c-11.1084 0 -20.8145 6.05078 -26 15.0322c-1.91992 3.32422 -3.24023 7.11426 -3.76367 11.084z" />
    <glyph glyph-name="uF0065" unicode="&#xf0065;" 
d="M500 643c-171.563 0 -310 -138.437 -310 -310s138.437 -310 310 -310s310 138.437 310 310s-138.437 310 -310 310zM500 703c203.99 0 370 -166.01 370 -370s-166.01 -370 -370 -370s-370 166.01 -370 370s166.01 370 370 370zM314.371 239.084
c-0.169922 1.29102 -0.289062 2.55859 -0.289062 3.89648c0 11.1084 6.05078 20.8145 15.0332 26l155.885 90c4.40625 2.54297 9.53125 4.0498 14.9795 4.0498c11.1084 0 20.8145 -6.04883 26.001 -15.0303l135 -233.826
c2.54492 -4.40625 4.05176 -9.53223 4.05176 -14.9824c0 -11.1084 -6.0498 -20.8145 -15.0322 -26c-4.40625 -2.54395 -9.53125 -4.05078 -14.9805 -4.05078c-11.1084 0 -20.8145 6.05078 -26 15.0332l-120 207.846l-129.904 -75
c-4.40625 -2.54395 -9.53125 -4.05176 -14.9805 -4.05176c-11.1084 0 -20.8145 6.05078 -26 15.0322c-1.91992 3.32422 -3.24023 7.11426 -3.76367 11.084z" />
    <glyph glyph-name="uF0066" unicode="&#xf0066;" 
d="M500 643c-171.563 0 -310 -138.437 -310 -310s138.437 -310 310 -310s310 138.437 310 310s-138.437 310 -310 310zM500 703c203.99 0 370 -166.01 370 -370s-166.01 -370 -370 -370s-370 166.01 -370 370s166.01 370 370 370zM314.371 239.084
c-0.169922 1.29102 -0.289062 2.55859 -0.289062 3.89648c0 11.1084 6.05078 20.8145 15.0332 26l155.885 90c4.40625 2.54297 9.54883 4.0166 14.9971 4.0166c16.5576 0 30 -13.4404 30.0029 -29.9971v-270c0 -16.5576 -13.4424 -30 -30 -30s-30 13.4424 -30 30v218.039
l-110.885 -64.0195c-4.40625 -2.54395 -9.53125 -4.05176 -14.9805 -4.05176c-11.1084 0 -20.8145 6.05078 -26 15.0322c-1.91992 3.32422 -3.24023 7.11426 -3.76367 11.084z" />
    <glyph glyph-name="uF0067" unicode="&#xf0067;" 
d="M500 643c-171.563 0 -310 -138.437 -310 -310s138.437 -310 310 -310s310 138.437 310 310s-138.437 310 -310 310zM500 703c203.99 0 370 -166.01 370 -370s-166.01 -370 -370 -370s-370 166.01 -370 370s166.01 370 370 370zM314.371 239.084
c-0.169922 1.29102 -0.289062 2.55859 -0.289062 3.89648c0 11.1084 6.05078 20.8145 15.0332 26l155.885 90c4.4043 2.54102 9.52637 3.98145 14.9717 3.98145c16.5596 0 30.0029 -13.4434 30.0029 -30.0029c0 -5.44531 -1.45312 -10.5547 -3.99414 -14.959
c0 0 -135.013 -233.775 -135 -233.826c-5.18555 -8.98242 -14.9053 -14.9824 -26.0137 -14.9824c-5.44922 0 -10.5605 1.45605 -14.9668 4c-8.98242 5.18555 -14.9814 14.9053 -14.9814 26.0137c0 5.44922 1.45605 10.5625 4.00098 14.9688l79.0195 136.865
l-58.9238 -34.0195c-4.40625 -2.54395 -9.53125 -4.05176 -14.9805 -4.05176c-11.1084 0 -20.8145 6.05078 -26 15.0322c-1.91992 3.32422 -3.24023 7.11426 -3.76367 11.084z" />
    <glyph glyph-name="uF0068" unicode="&#xf0068;" 
d="M500 643c-171.563 0 -310 -138.437 -310 -310s138.437 -310 310 -310s310 138.437 310 310s-138.437 310 -310 310zM500 703c203.99 0 370 -166.01 370 -370s-166.01 -370 -370 -370s-370 166.01 -370 370s166.01 370 370 370zM236.43 194.084
c-0.169922 1.29102 -0.289062 2.55859 -0.289062 3.89648c0 11.1084 6.05078 20.8145 15.0332 26l77.9395 44.998l155.887 90.002c4.31836 2.40918 9.35742 3.82031 14.6494 3.82031c16.5596 0 30.0029 -13.4434 30.0029 -30.0029
c0 -10.9512 -5.87988 -20.54 -14.6523 -25.7783l-155.885 -90l-77.9414 -45c-4.40625 -2.54492 -9.53223 -4.05176 -14.9824 -4.05176c-11.1084 0 -20.8145 6.0498 -26 15.0322c-1.91895 3.3252 -3.23926 7.11426 -3.76172 11.084z" />
    <glyph glyph-name="uF0069" unicode="&#xf0069;" 
d="M500 643c-171.563 0 -310 -138.437 -310 -310s138.437 -310 310 -310s310 138.437 310 310s-138.437 310 -310 310zM500 703c203.99 0 370 -166.01 370 -370s-166.01 -370 -370 -370s-370 166.01 -370 370s166.01 370 370 370zM200 333c0 16.5576 13.4424 30 30 30h270
c16.5537 -0.00683594 30.0234 -13.4287 30.0234 -29.9844c0 -11.1045 -6.0459 -20.8086 -15.0234 -25.9961l-155.885 -90c-4.40625 -2.54395 -9.53125 -4.05176 -14.9805 -4.05176c-11.1084 0 -20.8145 6.05078 -26 15.0322
c-2.54395 4.40625 -4.05176 9.53125 -4.05176 14.9805c0 11.1084 6.05078 20.8145 15.0322 26l58.9238 34.0195h-158.039c-16.5576 0 -30 13.4424 -30 30z" />
    <glyph glyph-name="uF006A" unicode="&#xf006a;" 
d="M500 643c-171.563 0 -310 -138.437 -310 -310s138.437 -310 310 -310s310 138.437 310 310s-138.437 310 -310 310zM500 703c203.99 0 370 -166.01 370 -370s-166.01 -370 -370 -370s-370 166.01 -370 370s166.01 370 370 370zM236.43 471.916
c0.522461 3.96973 1.84277 7.75879 3.76172 11.084c5.18555 8.98242 14.9053 14.9814 26.0137 14.9814c5.44922 0 10.5625 -1.45605 14.9688 -4.00098c0 0 233.826 -134.962 233.826 -135c8.98047 -5.18652 15.0283 -14.8545 15.0283 -25.9609
c0 -11.1074 -6.04785 -20.8135 -15.0283 -26l-155.885 -90c-4.40625 -2.54395 -9.53125 -4.05176 -14.9805 -4.05176c-11.1084 0 -20.8145 6.05078 -26 15.0322c-2.54395 4.40625 -4.05176 9.53125 -4.05176 14.9805c0 11.1084 6.05078 20.8145 15.0322 26l110.885 64.0195
s-188.795 108.97 -188.826 109.02c-8.98242 5.18555 -15.002 14.8418 -15.002 25.9502c0 1.33789 0.0878906 2.65527 0.257812 3.94629z" />
    <glyph glyph-name="uF006B" unicode="&#xf006b;" 
d="M500 643c-171.563 0 -310 -138.437 -310 -310s138.437 -310 310 -310s310 138.437 310 310s-138.437 310 -310 310zM500 703c203.99 0 370 -166.01 370 -370s-166.01 -370 -370 -370s-370 166.01 -370 370s166.01 370 370 370zM314.371 239.084
c-0.169922 1.29102 -0.289062 2.55859 -0.289062 3.89648c0 11.1084 6.05078 20.8145 15.0332 26l129.904 75l-120 207.846c-2.54492 4.40625 -4.05176 9.53223 -4.05176 14.9824c0 11.1084 6.0498 20.8145 15.0322 26c4.40625 2.54395 9.53125 4.05078 14.9805 4.05078
c11.1084 0 20.8145 -6.05078 26 -15.0332l135 -233.826c2.54297 -4.40625 4.0498 -9.53125 4.0498 -14.9795c0 -11.1084 -6.04883 -20.8145 -15.0303 -26.001l-155.885 -90c-4.40625 -2.54395 -9.53125 -4.05176 -14.9805 -4.05176c-11.1084 0 -20.8145 6.05078 -26 15.0322
c-1.91992 3.32422 -3.24023 7.11426 -3.76367 11.084z" />
    <glyph glyph-name="uF006C" unicode="&#xf006c;" 
d="M500 643c-171.563 0 -310 -138.437 -310 -310s138.437 -310 310 -310s310 138.437 310 310s-138.437 310 -310 310zM500 703c203.99 0 370 -166.01 370 -370s-166.01 -370 -370 -370s-370 166.01 -370 370s166.01 370 370 370zM290 333c0 16.5576 13.4424 30 30 30h150
v240c0 16.5576 13.4424 30 30 30s30 -13.4424 30 -30v-270c-0.00195312 -16.5566 -13.4434 -29.998 -30 -30h-180c-16.5576 0 -30 13.4424 -30 30z" />
    <glyph glyph-name="uF006D" unicode="&#xf006d;" 
d="M500 643c-171.563 0 -310 -138.437 -310 -310s138.437 -310 310 -310s310 138.437 310 310s-138.437 310 -310 310zM500 703c203.99 0 370 -166.01 370 -370s-166.01 -370 -370 -370s-370 166.01 -370 370s166.01 370 370 370zM290 333c0 16.5576 13.4424 30 30 30
h162.68s126.353 218.775 126.34 218.826c5.18555 8.98242 14.9053 14.9824 26.0137 14.9824c5.44922 0 10.5605 -1.45605 14.9668 -4c8.98242 -5.18555 14.9814 -14.9053 14.9814 -26.0137c0 -5.44922 -1.45605 -10.5625 -4.00098 -14.9688
c0 0 -134.981 -233.794 -135 -233.826c-5.18652 -8.98145 -14.873 -14.999 -25.9805 -15h-180c-16.5576 0 -30 13.4424 -30 30z" />
    <glyph glyph-name="uF006E" unicode="&#xf006e;" 
d="M500 643c-171.563 0 -310 -138.437 -310 -310s138.437 -310 310 -310s310 138.437 310 310s-138.437 310 -310 310zM500 703c203.99 0 370 -166.01 370 -370s-166.01 -370 -370 -370s-370 166.01 -370 370s166.01 370 370 370zM290 333c0 16.5576 13.4424 30 30 30
h171.961l226.865 130.98c4.40625 2.54492 9.53223 4.05176 14.9824 4.05176c11.1084 0 20.8145 -6.0498 26 -15.0322c2.54395 -4.40625 4.05078 -9.53125 4.05078 -14.9805c0 -11.1084 -6.05078 -20.8145 -15.0332 -26l-233.826 -135
c-4.40625 -2.54395 -9.55078 -4.01953 -15 -4.01953h-180c-16.5576 0 -30 13.4424 -30 30z" />
    <glyph glyph-name="uF006F" unicode="&#xf006f;" 
d="M500 643c-171.563 0 -310 -138.437 -310 -310s138.437 -310 310 -310s310 138.437 310 310s-138.437 310 -310 310zM500 703c203.99 0 370 -166.01 370 -370s-166.01 -370 -370 -370s-370 166.01 -370 370s166.01 370 370 370zM290 333c0 16.5576 13.4424 30 30 30h180
h270c16.5576 0 30 -13.4424 30 -30s-13.4424 -30 -30 -30h-270h-180c-16.5576 0 -30 13.4424 -30 30z" />
    <glyph glyph-name="uF0070" unicode="&#xf0070;" 
d="M500 643c-171.563 0 -310 -138.437 -310 -310s138.437 -310 310 -310s310 138.437 310 310s-138.437 310 -310 310zM500 703c203.99 0 370 -166.01 370 -370s-166.01 -370 -370 -370s-370 166.01 -370 370s166.01 370 370 370zM290 333c0 16.5576 13.4424 30 30 30h180
c5.44922 0 10.5938 -1.47559 15 -4.01953c0 0 233.775 -135.013 233.826 -135c8.98242 -5.18555 14.9824 -14.9053 14.9824 -26.0137c0 -5.44922 -1.45605 -10.5605 -4 -14.9668c-5.18555 -8.98242 -14.9053 -14.9814 -26.0137 -14.9814
c-5.44922 0 -10.5625 1.45605 -14.9688 4.00098l-226.865 130.98h-171.961c-16.5576 0 -30 13.4424 -30 30z" />
    <glyph glyph-name="uF0071" unicode="&#xf0071;" 
d="M500 643c-171.563 0 -310 -138.437 -310 -310s138.437 -310 310 -310s310 138.437 310 310s-138.437 310 -310 310zM500 703c203.99 0 370 -166.01 370 -370s-166.01 -370 -370 -370s-370 166.01 -370 370s166.01 370 370 370zM290 333c0 16.5576 13.4424 30 30 30
c0 0 179.981 0.0322266 180 0c11.1074 -0.000976562 20.7939 -6.01855 25.9805 -15l135 -233.826c2.54492 -4.40625 4.05176 -9.53223 4.05176 -14.9824c0 -11.1084 -6.0498 -20.8145 -15.0322 -26c-4.40625 -2.54395 -9.53125 -4.05078 -14.9805 -4.05078
c-11.1084 0 -20.8145 6.05078 -26 15.0332l-126.34 218.826h-162.68c-16.5576 0 -30 13.4424 -30 30z" />
    <glyph glyph-name="uF0072" unicode="&#xf0072;" 
d="M500 643c-171.563 0 -310 -138.437 -310 -310s138.437 -310 310 -310s310 138.437 310 310s-138.437 310 -310 310zM500 703c203.99 0 370 -166.01 370 -370s-166.01 -370 -370 -370s-370 166.01 -370 370s166.01 370 370 370zM290 333c0 16.5576 13.4424 30 30 30h180
c16.5566 -0.00195312 29.998 -13.4434 30 -30v-270c0 -16.5576 -13.4424 -30 -30 -30s-30 13.4424 -30 30v240h-150c-16.5576 0 -30 13.4424 -30 30z" />
    <glyph glyph-name="uF0073" unicode="&#xf0073;" 
d="M500 643c-171.563 0 -310 -138.437 -310 -310s138.437 -310 310 -310s310 138.437 310 310s-138.437 310 -310 310zM500 703c203.99 0 370 -166.01 370 -370s-166.01 -370 -370 -370s-370 166.01 -370 370s166.01 370 370 370zM290 333c0 16.5576 13.4424 30 30 30
c0 0 179.981 -0.0322266 180 0c16.5566 -0.00292969 29.9785 -13.4775 29.9785 -30.0352c0 -5.44824 -1.45508 -10.5586 -3.99805 -14.9648c0 0 -135.013 -233.775 -135 -233.826c-5.18555 -8.98242 -14.9053 -14.9824 -26.0137 -14.9824
c-5.44922 0 -10.5605 1.45605 -14.9668 4c-8.98242 5.18555 -14.9814 14.9053 -14.9814 26.0137c0 5.44922 1.45605 10.5625 4.00098 14.9688l109.02 188.826h-128.039c-16.5576 0 -30 13.4424 -30 30z" />
    <glyph glyph-name="uF0074" unicode="&#xf0074;" 
d="M500 643c-171.563 0 -310 -138.437 -310 -310s138.437 -310 310 -310s310 138.437 310 310s-138.437 310 -310 310zM500 703c203.99 0 370 -166.01 370 -370s-166.01 -370 -370 -370s-370 166.01 -370 370s166.01 370 370 370zM236.43 194.084
c-0.169922 1.29102 -0.289062 2.55859 -0.289062 3.89648c0 11.1084 6.05078 20.8145 15.0332 26l136.865 79.0195h-68.0391c-16.5576 0 -30 13.4424 -30 30s13.4424 30 30 30h180c16.5537 -0.00683594 30.0234 -13.4287 30.0234 -29.9844
c0 -11.1045 -6.0459 -20.8086 -15.0234 -25.9961l-233.826 -135c-4.40625 -2.54492 -9.53223 -4.05176 -14.9824 -4.05176c-11.1084 0 -20.8145 6.0498 -26 15.0322c-1.91895 3.3252 -3.23926 7.11426 -3.76172 11.084z" />
    <glyph glyph-name="uF0075" unicode="&#xf0075;" 
d="M500 643c-171.563 0 -310 -138.437 -310 -310s138.437 -310 310 -310s310 138.437 310 310s-138.437 310 -310 310zM500 703c203.99 0 370 -166.01 370 -370s-166.01 -370 -370 -370s-370 166.01 -370 370s166.01 370 370 370zM200 333c0 16.5576 13.4424 30 30 30h90
h180c16.3604 -0.231445 29.5713 -13.585 29.5713 -30s-13.2109 -29.7686 -29.5713 -30h-180h-90c-16.5576 0 -30 13.4424 -30 30z" />
    <glyph glyph-name="uF0076" unicode="&#xf0076;" 
d="M500 643c-171.563 0 -310 -138.437 -310 -310s138.437 -310 310 -310s310 138.437 310 310s-138.437 310 -310 310zM500 703c203.99 0 370 -166.01 370 -370s-166.01 -370 -370 -370s-370 166.01 -370 370s166.01 370 370 370zM236.43 471.916
c0.522461 3.96973 1.84277 7.75879 3.76172 11.084c5.18555 8.98242 14.9053 14.9814 26.0137 14.9814c5.44922 0 10.5625 -1.45605 14.9688 -4.00098c0 0 233.794 -134.98 233.826 -135c8.97754 -5.1875 14.9912 -14.8721 14.9912 -25.9775
c0 -16.5547 -13.4375 -29.9961 -29.9912 -30.0029h-180c-16.5576 0 -30 13.4424 -30 30s13.4424 30 30 30h68.0391s-136.834 78.9697 -136.865 79.0195c-8.98242 5.18555 -15.002 14.8418 -15.002 25.9502c0 1.33789 0.0878906 2.65527 0.257812 3.94629z" />
    <glyph glyph-name="uF0077" unicode="&#xf0077;" 
d="M500 643c-171.563 0 -310 -138.437 -310 -310s138.437 -310 310 -310s310 138.437 310 310s-138.437 310 -310 310zM500 703c203.99 0 370 -166.01 370 -370s-166.01 -370 -370 -370s-370 166.01 -370 370s166.01 370 370 370zM290 333c0 16.5576 13.4424 30 30 30
h128.039l-109.02 188.826c-2.54492 4.40625 -4.05176 9.53223 -4.05176 14.9824c0 11.1084 6.0498 20.8145 15.0322 26c4.40625 2.54395 9.53125 4.05078 14.9805 4.05078c11.1084 0 20.8145 -6.05078 26 -15.0332l135 -233.826
c2.54297 -4.40625 4.0166 -9.54883 4.0166 -14.9971c0 -16.5576 -13.4404 -30 -29.9971 -30.0029h-180c-16.5576 0 -30 13.4424 -30 30z" />
    <glyph glyph-name="uF0078" unicode="&#xf0078;" 
d="M500 643c-171.563 0 -310 -138.437 -310 -310s138.437 -310 310 -310s310 138.437 310 310s-138.437 310 -310 310zM500 703c203.99 0 370 -166.01 370 -370s-166.01 -370 -370 -370s-370 166.01 -370 370s166.01 370 370 370zM314.371 426.916
c0.523438 3.96973 1.84375 7.75977 3.76367 11.084c5.18555 8.98145 14.9053 14.9805 26.0127 14.9805c5.44922 0 10.5615 -1.45605 14.9678 -4l110.885 -64.0195v218.039c0 16.5576 13.4424 30 30 30s30 -13.4424 30 -30c0 0 -0.0322266 -269.981 0 -270
c-0.00292969 -16.5566 -13.4775 -29.9785 -30.0352 -29.9785c-5.44824 0 -10.5586 1.45508 -14.9648 3.99805c0 0 -155.854 89.9502 -155.885 90c-8.98242 5.18555 -15.002 14.8418 -15.002 25.9502c0 1.33789 0.0878906 2.65527 0.257812 3.94629z" />
    <glyph glyph-name="uF0079" unicode="&#xf0079;" 
d="M500 643c-171.563 0 -310 -138.437 -310 -310s138.437 -310 310 -310s310 138.437 310 310s-138.437 310 -310 310zM500 703c203.99 0 370 -166.01 370 -370s-166.01 -370 -370 -370s-370 166.01 -370 370s166.01 370 370 370zM314.371 426.916
c0.523438 3.96973 1.84375 7.75977 3.76367 11.084c5.18555 8.98145 14.9053 14.9805 26.0127 14.9805c5.44922 0 10.5615 -1.45605 14.9678 -4l129.904 -75s120.013 207.795 120 207.846c5.18555 8.98242 14.9053 14.9824 26.0137 14.9824
c5.44922 0 10.5605 -1.45605 14.9668 -4c8.98242 -5.18555 14.9814 -14.9053 14.9814 -26.0137c0 -5.44922 -1.45605 -10.5625 -4.00098 -14.9688c0 0 -135.013 -233.775 -135 -233.826c-5.18652 -8.98145 -14.9062 -14.9795 -26.0137 -14.9795
c-5.44922 0 -10.5605 1.45605 -14.9668 3.99902c0 0 -155.854 89.9502 -155.885 90c-8.98242 5.18555 -15.002 14.8418 -15.002 25.9502c0 1.33789 0.0878906 2.65527 0.257812 3.94629z" />
    <glyph glyph-name="uF007A" unicode="&#xf007a;" 
d="M500 643c-171.563 0 -310 -138.437 -310 -310s138.437 -310 310 -310s310 138.437 310 310s-138.437 310 -310 310zM500 703c203.99 0 370 -166.01 370 -370s-166.01 -370 -370 -370s-370 166.01 -370 370s166.01 370 370 370zM314.371 426.916
c0.523438 3.96973 1.84375 7.75977 3.76367 11.084c5.18555 8.98145 14.9053 14.9805 26.0127 14.9805c5.44922 0 10.5615 -1.45605 14.9678 -4l140.885 -81.3398l218.826 126.34c4.40625 2.54492 9.53223 4.05176 14.9824 4.05176c11.1084 0 20.8145 -6.0498 26 -15.0322
c2.54395 -4.40625 4.05078 -9.53125 4.05078 -14.9805c0 -11.1084 -6.05078 -20.8145 -15.0332 -26l-233.826 -135c-4.40625 -2.54395 -9.58301 -4 -15.0322 -4s-10.5615 1.45605 -14.9678 4c0 0 -155.854 89.9502 -155.885 90
c-8.98242 5.18555 -15.002 14.8418 -15.002 25.9502c0 1.33789 0.0878906 2.65527 0.257812 3.94629z" />
    <glyph glyph-name="uF007B" unicode="&#xf007b;" 
d="M500 643c-171.563 0 -310 -138.437 -310 -310s138.437 -310 310 -310s310 138.437 310 310s-138.437 310 -310 310zM500 703c203.99 0 370 -166.01 370 -370s-166.01 -370 -370 -370s-370 166.01 -370 370s166.01 370 370 370zM314.371 426.916
c0.523438 3.96973 1.84375 7.75977 3.76367 11.084c5.18555 8.98145 14.9053 14.9805 26.0127 14.9805c5.44922 0 10.5615 -1.45605 14.9678 -4l148.924 -85.9805h261.961c16.5576 0 30 -13.4424 30 -30s-13.4424 -30 -30 -30h-270c-5.44922 0 -10.5938 1.47559 -15 4.01953
c0 0 -155.854 89.9502 -155.885 90c-8.98242 5.18555 -15.002 14.8418 -15.002 25.9502c0 1.33789 0.0878906 2.65527 0.257812 3.94629z" />
    <glyph glyph-name="uF007C" unicode="&#xf007c;" 
d="M500 643c-171.563 0 -310 -138.437 -310 -310s138.437 -310 310 -310s310 138.437 310 310s-138.437 310 -310 310zM500 703c203.99 0 370 -166.01 370 -370s-166.01 -370 -370 -370s-370 166.01 -370 370s166.01 370 370 370zM314.371 426.916
c0.523438 3.96973 1.84375 7.75977 3.76367 11.084c5.18555 8.98145 14.9053 14.9805 26.0127 14.9805c5.44922 0 10.5615 -1.45605 14.9678 -4l155.885 -90s233.775 -135.013 233.826 -135c8.98242 -5.18555 14.9824 -14.9053 14.9824 -26.0137
c0 -5.44922 -1.45605 -10.5605 -4 -14.9668c-5.18555 -8.98242 -14.9053 -14.9814 -26.0137 -14.9814c-5.44922 0 -10.5625 1.45605 -14.9688 4.00098l-233.826 135s-155.854 89.9502 -155.885 90c-8.98242 5.18555 -15.002 14.8418 -15.002 25.9502
c0 1.33789 0.0878906 2.65527 0.257812 3.94629z" />
    <glyph glyph-name="uF007D" unicode="&#xf007d;" 
d="M500 643c-171.563 0 -310 -138.437 -310 -310s138.437 -310 310 -310s310 138.437 310 310s-138.437 310 -310 310zM500 703c203.99 0 370 -166.01 370 -370s-166.01 -370 -370 -370s-370 166.01 -370 370s166.01 370 370 370zM314.371 426.916
c0.523438 3.96973 1.84375 7.75977 3.76367 11.084c5.18555 8.98145 14.9053 14.9805 26.0127 14.9805c5.44922 0 10.5615 -1.45605 14.9678 -4c0 0 155.834 -89.9492 155.885 -90c4.5752 -2.6416 8.33887 -6.40527 10.9805 -10.9805l135 -233.826
c2.54492 -4.40625 4.05176 -9.53223 4.05176 -14.9824c0 -11.1084 -6.0498 -20.8145 -15.0322 -26c-4.40625 -2.54395 -9.53125 -4.05078 -14.9805 -4.05078c-11.1084 0 -20.8145 6.05078 -26 15.0332l-130.98 226.865s-148.893 85.9307 -148.924 85.9805
c-8.98242 5.18555 -15.002 14.8418 -15.002 25.9502c0 1.33789 0.0878906 2.65527 0.257812 3.94629z" />
    <glyph glyph-name="uF007E" unicode="&#xf007e;" 
d="M500 643c-171.563 0 -310 -138.437 -310 -310s138.437 -310 310 -310s310 138.437 310 310s-138.437 310 -310 310zM500 703c203.99 0 370 -166.01 370 -370s-166.01 -370 -370 -370s-370 166.01 -370 370s166.01 370 370 370zM314.371 426.916
c0.523438 3.96973 1.84375 7.75977 3.76367 11.084c5.18555 8.98145 14.9053 14.9805 26.0127 14.9805c5.44922 0 10.5615 -1.45605 14.9678 -4c0 0 155.853 -89.9814 155.885 -90c8.98145 -5.18652 14.999 -14.873 15 -25.9805v-270c0 -16.5576 -13.4424 -30 -30 -30
s-30 13.4424 -30 30v252.68s-140.854 81.29 -140.885 81.3398c-8.98242 5.18555 -15.002 14.8418 -15.002 25.9502c0 1.33789 0.0878906 2.65527 0.257812 3.94629z" />
    <glyph glyph-name="uF007F" unicode="&#xf007f;" 
d="M500 643c-171.563 0 -310 -138.437 -310 -310s138.437 -310 310 -310s310 138.437 310 310s-138.437 310 -310 310zM500 703c203.99 0 370 -166.01 370 -370s-166.01 -370 -370 -370s-370 166.01 -370 370s166.01 370 370 370zM314.371 426.916
c0.523438 3.96973 1.84375 7.75977 3.76367 11.084c5.18555 8.98145 14.9053 14.9805 26.0127 14.9805c5.44922 0 10.5615 -1.45605 14.9678 -4c0 0 155.834 -90.0127 155.885 -90c8.98145 -5.18652 14.9795 -14.9062 14.9795 -26.0137
c0 -5.44922 -1.45605 -10.5605 -3.99902 -14.9668c0 0 -135.013 -233.775 -135 -233.826c-5.18555 -8.98242 -14.9053 -14.9824 -26.0137 -14.9824c-5.44922 0 -10.5605 1.45605 -14.9668 4c-8.98242 5.18555 -14.9814 14.9053 -14.9814 26.0137
c0 5.44922 1.45605 10.5625 4.00098 14.9688l120 207.846s-129.873 74.9502 -129.904 75c-8.98242 5.18555 -15.002 14.8418 -15.002 25.9502c0 1.33789 0.0878906 2.65527 0.257812 3.94629z" />
    <glyph glyph-name="uF0080" unicode="&#xf0080;" 
d="M500 643c-171.563 0 -310 -138.437 -310 -310s138.437 -310 310 -310s310 138.437 310 310s-138.437 310 -310 310zM500 703c203.99 0 370 -166.01 370 -370s-166.01 -370 -370 -370s-370 166.01 -370 370s166.01 370 370 370zM236.43 194.084
c-0.169922 1.29102 -0.289062 2.55859 -0.289062 3.89648c0 11.1084 6.05078 20.8145 15.0332 26l188.826 109.02s-110.834 64.0322 -110.885 64.0195c-8.98145 5.18555 -14.9805 14.9053 -14.9805 26.0127c0 5.44922 1.45605 10.5615 4 14.9678
c5.18555 8.98145 14.9053 14.9805 26.0127 14.9805c5.44922 0 10.5615 -1.45605 14.9678 -4c0 0 155.885 -89.9619 155.885 -90c8.98047 -5.18652 15.0283 -14.8545 15.0283 -25.9609c0 -11.1074 -6.04785 -20.8135 -15.0283 -26l-233.826 -135
c-4.40625 -2.54492 -9.53223 -4.05176 -14.9824 -4.05176c-11.1084 0 -20.8145 6.0498 -26 15.0322c-1.91895 3.3252 -3.23926 7.11426 -3.76172 11.084z" />
    <glyph glyph-name="uF0081" unicode="&#xf0081;" 
d="M500 643c-171.563 0 -310 -138.437 -310 -310s138.437 -310 310 -310s310 138.437 310 310s-138.437 310 -310 310zM500 703c203.99 0 370 -166.01 370 -370s-166.01 -370 -370 -370s-370 166.01 -370 370s166.01 370 370 370zM200 333c0 16.5576 13.4424 30 30 30
h158.039s-58.873 34.0322 -58.9238 34.0195c-8.98145 5.18555 -14.9805 14.9053 -14.9805 26.0127c0 5.44922 1.45605 10.5615 4 14.9678c5.18555 8.98145 14.9053 14.9805 26.0127 14.9805c5.44922 0 10.5615 -1.45605 14.9678 -4c0 0 155.853 -89.9805 155.885 -90
c8.97754 -5.1875 14.9912 -14.8721 14.9912 -25.9775c0 -16.5547 -13.4375 -29.9961 -29.9912 -30.0029h-270c-16.5576 0 -30 13.4424 -30 30z" />
    <glyph glyph-name="uF0082" unicode="&#xf0082;" 
d="M500 643c-171.563 0 -310 -138.437 -310 -310s138.437 -310 310 -310s310 138.437 310 310s-138.437 310 -310 310zM500 703c203.99 0 370 -166.01 370 -370s-166.01 -370 -370 -370s-370 166.01 -370 370s166.01 370 370 370zM236.43 471.916
c0.522461 3.96973 1.84277 7.75879 3.76172 11.084c5.18555 8.98242 14.9053 14.9814 26.0137 14.9814c5.44922 0 10.5625 -1.45605 14.9688 -4.00098l77.9414 -45s155.821 -89.9619 155.885 -90c8.77246 -5.23828 14.5889 -14.7891 14.5889 -25.7402
c0 -16.5596 -13.4443 -30.0039 -30.0029 -30.0039c-5.29297 0 -10.2666 1.37402 -14.5859 3.7832l-155.885 90s-77.9102 44.9502 -77.9414 45c-8.98242 5.18555 -15.002 14.8418 -15.002 25.9502c0 1.33789 0.0878906 2.65527 0.257812 3.94629z" />
    <glyph glyph-name="uF0083" unicode="&#xf0083;" 
d="M500 643c-171.563 0 -310 -138.437 -310 -310s138.437 -310 310 -310s310 138.437 310 310s-138.437 310 -310 310zM500 703c203.99 0 370 -166.01 370 -370s-166.01 -370 -370 -370s-370 166.01 -370 370s166.01 370 370 370zM314.371 426.916
c0.523438 3.96973 1.84375 7.75977 3.76367 11.084c5.18555 8.98145 14.9053 14.9805 26.0127 14.9805c5.44922 0 10.5615 -1.45605 14.9678 -4l58.9238 -34.0195l-79.0195 136.865c-2.54492 4.40625 -4.05176 9.53223 -4.05176 14.9824
c0 11.1084 6.0498 20.8145 15.0322 26c4.40625 2.54395 9.53125 4.05078 14.9805 4.05078c11.1084 0 20.8145 -6.05078 26 -15.0332l135 -233.826c2.54102 -4.4043 3.98145 -9.52637 3.98145 -14.9717c0 -16.5596 -13.4434 -30.0029 -30.0029 -30.0029
c-5.44531 0 -10.5547 1.45312 -14.959 3.99414c0 0 -155.854 89.9502 -155.885 90c-8.98242 5.18555 -15.002 14.8418 -15.002 25.9502c0 1.33789 0.0878906 2.65527 0.257812 3.94629z" />
    <glyph glyph-name="uF0084" unicode="&#xf0084;" 
d="M500 643c-171.563 0 -310 -138.437 -310 -310s138.437 -310 310 -310s310 138.437 310 310s-138.437 310 -310 310zM500 703c203.99 0 370 -166.01 370 -370s-166.01 -370 -370 -370s-370 166.01 -370 370s166.01 370 370 370zM380.256 484.969
c-0.169922 1.29102 -0.289062 2.55859 -0.289062 3.89648c0 11.1084 6.05078 20.8145 15.0332 26c4.40625 2.54395 9.53125 4.05176 14.9805 4.05176c11.1084 0 20.8145 -6.05078 26 -15.0322l34.0195 -58.9238v158.039c0 16.5576 13.4424 30 30 30s30 -13.4424 30 -30v-270
c-0.00683594 -16.5537 -13.4287 -30.0234 -29.9844 -30.0234c-11.1045 0 -20.8086 6.0459 -25.9961 15.0234l-90 155.885c-1.91992 3.32422 -3.24023 7.11426 -3.76367 11.084z" />
    <glyph glyph-name="uF0085" unicode="&#xf0085;" 
d="M500 643c-171.563 0 -310 -138.437 -310 -310s138.437 -310 310 -310s310 138.437 310 310s-138.437 310 -310 310zM500 703c203.99 0 370 -166.01 370 -370s-166.01 -370 -370 -370s-370 166.01 -370 370s166.01 370 370 370zM380.256 484.969
c-0.169922 1.29102 -0.289062 2.55859 -0.289062 3.89648c0 11.1084 6.05078 20.8145 15.0332 26c4.40625 2.54395 9.53125 4.05176 14.9805 4.05176c11.1084 0 20.8145 -6.05078 26 -15.0322l64.0195 -110.885s109.032 188.775 109.02 188.826
c5.18555 8.98242 14.9053 14.9824 26.0137 14.9824c5.44922 0 10.5605 -1.45605 14.9668 -4c8.98242 -5.18555 14.9814 -14.9053 14.9814 -26.0137c0 -5.44922 -1.45605 -10.5625 -4.00098 -14.9688c0 0 -134.962 -233.826 -135 -233.826
c-5.18652 -8.98047 -14.8545 -15.0283 -25.9609 -15.0283c-11.1074 0 -20.8135 6.04785 -26 15.0283l-90 155.885c-1.91992 3.32422 -3.24023 7.11426 -3.76367 11.084z" />
    <glyph glyph-name="uF0086" unicode="&#xf0086;" 
d="M500 643c-171.563 0 -310 -138.437 -310 -310s138.437 -310 310 -310s310 138.437 310 310s-138.437 310 -310 310zM500 703c203.99 0 370 -166.01 370 -370s-166.01 -370 -370 -370s-370 166.01 -370 370s166.01 370 370 370zM380.256 484.969
c-0.169922 1.29102 -0.289062 2.55859 -0.289062 3.89648c0 11.1084 6.05078 20.8145 15.0332 26c4.40625 2.54395 9.53125 4.05176 14.9805 4.05176c11.1084 0 20.8145 -6.05078 26 -15.0322l75 -129.904l207.846 120c4.40625 2.54492 9.53223 4.05176 14.9824 4.05176
c11.1084 0 20.8145 -6.0498 26 -15.0322c2.54395 -4.40625 4.05078 -9.53125 4.05078 -14.9805c0 -11.1084 -6.05078 -20.8145 -15.0332 -26l-233.826 -135c-4.40625 -2.54297 -9.53125 -4.0498 -14.9795 -4.0498c-11.1084 0 -20.8145 6.04883 -26.001 15.0303l-90 155.885
c-1.91992 3.32422 -3.24023 7.11426 -3.76367 11.084z" />
    <glyph glyph-name="uF0087" unicode="&#xf0087;" 
d="M500 643c-171.563 0 -310 -138.437 -310 -310s138.437 -310 310 -310s310 138.437 310 310s-138.437 310 -310 310zM500 703c203.99 0 370 -166.01 370 -370s-166.01 -370 -370 -370s-370 166.01 -370 370s166.01 370 370 370zM380.256 484.969
c-0.169922 1.29102 -0.289062 2.55859 -0.289062 3.89648c0 11.1084 6.05078 20.8145 15.0332 26c4.40625 2.54395 9.53125 4.05176 14.9805 4.05176c11.1084 0 20.8145 -6.05078 26 -15.0322l81.3398 -140.885h252.68c16.5576 0 30 -13.4424 30 -30s-13.4424 -30 -30 -30
c0 0 -269.981 -0.0322266 -270 0c-11.1074 0.000976562 -20.7939 6.01855 -25.9805 15l-90 155.885c-1.91992 3.32422 -3.24023 7.11426 -3.76367 11.084z" />
    <glyph glyph-name="uF0088" unicode="&#xf0088;" 
d="M500 643c-171.563 0 -310 -138.437 -310 -310s138.437 -310 310 -310s310 138.437 310 310s-138.437 310 -310 310zM500 703c203.99 0 370 -166.01 370 -370s-166.01 -370 -370 -370s-370 166.01 -370 370s166.01 370 370 370zM380.256 484.969
c-0.169922 1.29102 -0.289062 2.55859 -0.289062 3.89648c0 11.1084 6.05078 20.8145 15.0332 26c4.40625 2.54395 9.53125 4.05176 14.9805 4.05176c11.1084 0 20.8145 -6.05078 26 -15.0322l85.9805 -148.924s226.814 -130.993 226.865 -130.98
c8.98242 -5.18555 14.9824 -14.9053 14.9824 -26.0137c0 -5.44922 -1.45605 -10.5605 -4 -14.9668c-5.18555 -8.98242 -14.9053 -14.9814 -26.0137 -14.9814c-5.44922 0 -10.5625 1.45605 -14.9688 4.00098c0 0 -233.775 134.949 -233.826 135
c-4.5752 2.6416 -8.33887 6.40527 -10.9805 10.9805l-90 155.885c-1.91992 3.32422 -3.24023 7.11426 -3.76367 11.084z" />
    </font>
</defs>
</svg>
