<?xml version="1.0" standalone="no"?>
<!DOCTYPE svg PUBLIC "-//W3C//DTD SVG 1.1//EN" "http://www.w3.org/Graphics/SVG/1.1/DTD/svg11.dtd" >
<!--
2022-10-4: Created with FontForge (http://fontforge.org)
-->
<svg xmlns="http://www.w3.org/2000/svg" xmlns:xlink="http://www.w3.org/1999/xlink" version="1.1">
<metadata>
Created by FontForge 20220308 at Tue Oct  4 13:56:42 2022
 By Jason
Copyright (c) 2022, Jason
</metadata>
<defs>
<font id="ClockFaceFatHands-Regular" horiz-adv-x="1000" >
  <font-face 
    font-family="ClockFaceFatHands"
    font-weight="400"
    font-stretch="normal"
    units-per-em="1000"
    panose-1="2 0 5 9 0 0 0 0 0 0"
    ascent="833"
    descent="-167"
    bbox="120 -47 880 713"
    underline-thickness="55.5556"
    underline-position="-111.111"
    unicode-range="U+F0000-F008F"
  />
    <missing-glyph />
    <glyph glyph-name="uF0000" unicode="&#xf0000;" 
d="M500 633c-166.159 0 -300 -133.841 -300 -300s133.841 -300 300 -300s300 133.841 300 300s-133.841 300 -300 300zM500 713c209.395 0 380 -170.605 380 -380s-170.605 -380 -380 -380s-380 170.605 -380 380s170.605 380 380 380zM460 333v180v30v40h80v-40v-30v-180
c-0.308594 -21.8135 -18.1133 -39.4277 -40 -39.4277s-39.6914 17.6143 -40 39.4277z" />
    <glyph glyph-name="uF0001" unicode="&#xf0001;" 
d="M500 633c-166.159 0 -300 -133.841 -300 -300s133.841 -300 300 -300s300 133.841 300 300s-133.841 300 -300 300zM500 713c209.395 0 380 -170.605 380 -380s-170.605 -380 -380 -380s-380 170.605 -380 380s170.605 380 380 380zM460 333v140v40h80v-30.7188
l30.3594 52.584l20 34.6406l69.2812 -40l-20 -34.6406s-104.975 -181.822 -105 -181.865c-6.91699 -11.9697 -19.8301 -19.9883 -34.6367 -19.9883c-22.0732 0 -40.0039 17.917 -40.0039 39.9883z" />
    <glyph glyph-name="uF0002" unicode="&#xf0002;" 
d="M500 633c-166.159 0 -300 -133.841 -300 -300s133.841 -300 300 -300s300 133.841 300 300s-133.841 300 -300 300zM500 713c209.395 0 380 -170.605 380 -380s-170.605 -380 -380 -380s-380 170.605 -380 380s170.605 380 380 380zM460 333v140v40h80v-40v-70.7188
l121.865 70.3594l34.6406 20l40 -69.2812l-34.6406 -20l-181.865 -105c-5.87402 -3.39062 -12.7314 -5.35547 -19.9961 -5.35547c-22.0762 0 -40.0039 17.9209 -40.0039 39.9961z" />
    <glyph glyph-name="uF0003" unicode="&#xf0003;" 
d="M500 633c-166.159 0 -300 -133.841 -300 -300s133.841 -300 300 -300s300 133.841 300 300s-133.841 300 -300 300zM500 713c209.395 0 380 -170.605 380 -380s-170.605 -380 -380 -380s-380 170.605 -380 380s170.605 380 380 380zM460 333v140v40h80v-40v-100h170h40
v-80h-40h-210c-22.0752 0.00195312 -40 17.9248 -40 40z" />
    <glyph glyph-name="uF0004" unicode="&#xf0004;" 
d="M500 633c-166.159 0 -300 -133.841 -300 -300s133.841 -300 300 -300s300 133.841 300 300s-133.841 300 -300 300zM500 713c209.395 0 380 -170.605 380 -380s-170.605 -380 -380 -380s-380 170.605 -380 380s170.605 380 380 380zM460 333v140v40h80v-40v-116.906
l161.865 -93.4531l34.6406 -20l-40 -69.2812l-34.6406 20s-181.822 104.975 -181.865 105c-11.9756 6.91504 -20 19.8301 -20 34.6406z" />
    <glyph glyph-name="uF0005" unicode="&#xf0005;" 
d="M500 633c-166.159 0 -300 -133.841 -300 -300s133.841 -300 300 -300s300 133.841 300 300s-133.841 300 -300 300zM500 713c209.395 0 380 -170.605 380 -380s-170.605 -380 -380 -380s-380 170.605 -380 380s170.605 380 380 380zM460 333v140v40h80v-40v-129.281
l99.6406 -172.584l20 -34.6406l-69.2812 -40l-20 34.6406l-105 181.865c-3.3916 5.875 -5.35938 12.7344 -5.35938 20z" />
    <glyph glyph-name="uF0006" unicode="&#xf0006;" 
d="M500 633c-166.159 0 -300 -133.841 -300 -300s133.841 -300 300 -300s300 133.841 300 300s-133.841 300 -300 300zM500 713c209.395 0 380 -170.605 380 -380s-170.605 -380 -380 -380s-380 170.605 -380 380s170.605 380 380 380zM460 83v40v210v140v40h80v-40v-140
v-210v-40h-80z" />
    <glyph glyph-name="uF0007" unicode="&#xf0007;" 
d="M500 633c-166.159 0 -300 -133.841 -300 -300s133.841 -300 300 -300s300 133.841 300 300s-133.841 300 -300 300zM500 713c209.395 0 380 -170.605 380 -380s-170.605 -380 -380 -380s-380 170.605 -380 380s170.605 380 380 380zM340.359 136.494l20 34.6406
l99.6406 172.584v129.281v40h80v-40v-140c0 -7.26562 -1.96777 -14.125 -5.35938 -20l-105 -181.865l-20 -34.6406z" />
    <glyph glyph-name="uF0008" unicode="&#xf0008;" 
d="M500 633c-166.159 0 -300 -133.841 -300 -300s133.841 -300 300 -300s300 133.841 300 300s-133.841 300 -300 300zM500 713c209.395 0 380 -170.605 380 -380s-170.605 -380 -380 -380s-380 170.605 -380 380s170.605 380 380 380zM263.494 242.641l34.6406 20
l161.865 93.4531v116.906v40h80v-40s0.0429688 -139.975 0 -140c-0.000976562 -14.8105 -8.02441 -27.7256 -20 -34.6406l-181.865 -105l-34.6406 -20z" />
    <glyph glyph-name="uF0009" unicode="&#xf0009;" 
d="M500 633c-166.159 0 -300 -133.841 -300 -300s133.841 -300 300 -300s300 133.841 300 300s-133.841 300 -300 300zM500 713c209.395 0 380 -170.605 380 -380s-170.605 -380 -380 -380s-380 170.605 -380 380s170.605 380 380 380zM250 293v80h40h170v100v40h80v-40
v-140c-0.00195312 -22.0752 -17.9248 -39.998 -40 -40h-210h-40z" />
    <glyph glyph-name="uF000A" unicode="&#xf000a;" 
d="M500 633c-166.159 0 -300 -133.841 -300 -300s133.841 -300 300 -300s300 133.841 300 300s-133.841 300 -300 300zM500 713c209.395 0 380 -170.605 380 -380s-170.605 -380 -380 -380s-380 170.605 -380 380s170.605 380 380 380zM263.494 423.359l40 69.2812
l34.6406 -20l121.865 -70.3594v70.7188v40h80v-40s-0.0429688 -139.975 0 -140c-0.00390625 -22.0752 -17.9707 -39.9717 -40.0469 -39.9717c-7.26367 0 -14.0791 1.94043 -19.9531 5.33105l-181.865 105z" />
    <glyph glyph-name="uF000B" unicode="&#xf000b;" 
d="M500 633c-166.159 0 -300 -133.841 -300 -300s133.841 -300 300 -300s300 133.841 300 300s-133.841 300 -300 300zM500 713c209.395 0 380 -170.605 380 -380s-170.605 -380 -380 -380s-380 170.605 -380 380s170.605 380 380 380zM340.359 529.506l69.2812 40
l20 -34.6406l30.3594 -52.584v30.7188h80v-40v-140c-0.00878906 -22.0713 -17.9053 -40.0312 -39.9785 -40.0312c-14.8066 0 -27.7451 8.06152 -34.6621 20.0312l-105 181.865z" />
    <glyph glyph-name="uF000C" unicode="&#xf000c;" 
d="M500 633c-166.159 0 -300 -133.841 -300 -300s133.841 -300 300 -300s300 133.841 300 300s-133.841 300 -300 300zM500 713c209.395 0 380 -170.605 380 -380s-170.605 -380 -380 -380s-380 170.605 -380 380s170.605 380 380 380zM460 333v210v40h80v-40v-60.7188
l15.3594 26.6035l69.2812 -40l-20 -34.6406s-69.9746 -121.201 -70 -121.244c-6.91699 -11.9697 -19.8301 -19.9883 -34.6367 -19.9883c-22.0732 0 -40.0039 17.917 -40.0039 39.9883z" />
    <glyph glyph-name="uF000D" unicode="&#xf000d;" 
d="M500 633c-166.159 0 -300 -133.841 -300 -300s133.841 -300 300 -300s300 133.841 300 300s-133.841 300 -300 300zM500 713c209.395 0 380 -170.605 380 -380s-170.605 -380 -380 -380s-380 170.605 -380 380s170.605 380 380 380zM460.363 336.076
c0.394531 6.08594 2.17773 11.8789 4.99609 16.9238l70 121.244l20 34.6406l15 25.9805l20 34.6406l69.2812 -40l-20 -34.6406l-15 -25.9805l-20 -34.6406s-69.9756 -121.235 -70 -121.244c-6.98242 -11.707 -19.749 -19.5459 -34.3574 -19.5459
c-22.0791 0 -40.0049 17.9248 -40.0049 40.0039c0 0.879883 0.0292969 1.75293 0.0849609 2.61816z" />
    <glyph glyph-name="uF000E" unicode="&#xf000e;" 
d="M500 633c-166.159 0 -300 -133.841 -300 -300s133.841 -300 300 -300s300 133.841 300 300s-133.841 300 -300 300zM500 713c209.395 0 380 -170.605 380 -380s-170.605 -380 -380 -380s-380 170.605 -380 380s170.605 380 380 380zM460.158 336.488
c0.518555 5.94336 2.36621 11.5967 5.20117 16.5117l70 121.244l20 34.6406l69.2812 -40l-15.3594 -26.6035l52.584 30.3594l34.6406 20l40 -69.2812l-34.6406 -20l-181.865 -105c-5.87305 -3.3877 -12.7295 -5.3916 -19.9902 -5.3916
c-22.0791 0 -40.0039 17.9258 -40.0039 40.0049c0 1.18457 0.0507812 2.35742 0.152344 3.51562z" />
    <glyph glyph-name="uF000F" unicode="&#xf000f;" 
d="M500 633c-166.159 0 -300 -133.841 -300 -300s133.841 -300 300 -300s300 133.841 300 300s-133.841 300 -300 300zM500 713c209.395 0 380 -170.605 380 -380s-170.605 -380 -380 -380s-380 170.605 -380 380s170.605 380 380 380zM460.221 337.182
c0.59668 5.68262 2.41309 11.0957 5.13867 15.8184l70 121.244l20 34.6406l69.2812 -40l-20 -34.6406l-35.3594 -61.2441h140.719h40v-80h-40h-210c-22.0762 0.00292969 -40 17.8867 -40 39.9629c0 1.4248 0.0751953 2.83203 0.220703 4.21875z" />
    <glyph glyph-name="uF0010" unicode="&#xf0010;" 
d="M500 633c-166.159 0 -300 -133.841 -300 -300s133.841 -300 300 -300s300 133.841 300 300s-133.841 300 -300 300zM500 713c209.395 0 380 -170.605 380 -380s-170.605 -380 -380 -380s-380 170.605 -380 380s170.605 380 380 380zM460.344 338.221
c0.696289 5.29297 2.45703 10.3457 5.01562 14.7793l70 121.244l20 34.6406l69.2812 -40l-20 -34.6406l-50 -86.6035l147.225 -85l34.6406 -20l-40 -69.2812l-34.6406 20s-181.824 104.934 -181.865 105c-11.9746 6.91602 -20 19.79 -20 34.6006
c0 1.7832 0.117188 3.53906 0.34375 5.26074z" />
    <glyph glyph-name="uF0011" unicode="&#xf0011;" 
d="M500 633c-166.159 0 -300 -133.841 -300 -300s133.841 -300 300 -300s300 133.841 300 300s-133.841 300 -300 300zM500 713c209.395 0 380 -170.605 380 -380s-170.605 -380 -380 -380s-380 170.605 -380 380s170.605 380 380 380zM460.607 326.055
c-0.399414 2.2666 -0.582031 4.60645 -0.582031 6.98633c0 7.2666 1.94141 14.083 5.33398 19.959l70 121.244l20 34.6406l69.2812 -40l-20 -34.6406l-58.4531 -101.244l93.4531 -161.865l20 -34.6406l-69.2812 -40l-20 34.6406l-105 181.865
c-2.28027 3.9502 -3.93164 8.40332 -4.75195 13.0547z" />
    <glyph glyph-name="uF0012" unicode="&#xf0012;" 
d="M500 633c-166.159 0 -300 -133.841 -300 -300s133.841 -300 300 -300s300 133.841 300 300s-133.841 300 -300 300zM500 713c209.395 0 380 -170.605 380 -380s-170.605 -380 -380 -380s-380 170.605 -380 380s170.605 380 380 380zM460 83v40v210
c0 7.26562 1.96777 14.125 5.35938 20l70 121.244l20 34.6406l69.2812 -40l-20 -34.6406l-64.6406 -111.963v-199.281v-40h-80z" />
    <glyph glyph-name="uF0013" unicode="&#xf0013;" 
d="M500 633c-166.159 0 -300 -133.841 -300 -300s133.841 -300 300 -300s300 133.841 300 300s-133.841 300 -300 300zM500 713c209.395 0 380 -170.605 380 -380s-170.605 -380 -380 -380s-380 170.605 -380 380s170.605 380 380 380zM340.359 136.494l20 34.6406
l105 181.865l70 121.244l20 34.6406l69.2812 -40l-20 -34.6406l-70 -121.244l-105 -181.865l-20 -34.6406z" />
    <glyph glyph-name="uF0014" unicode="&#xf0014;" 
d="M500 633c-166.159 0 -300 -133.841 -300 -300s133.841 -300 300 -300s300 133.841 300 300s-133.841 300 -300 300zM500 713c209.395 0 380 -170.605 380 -380s-170.605 -380 -380 -380s-380 170.605 -380 380s170.605 380 380 380zM263.494 242.641l34.6406 20
l172.584 99.6406l64.6406 111.963l20 34.6406l69.2812 -40l-20 -34.6406s-69.9316 -121.176 -70 -121.244c-3.52246 -6.10059 -8.54004 -11.1182 -14.6406 -14.6406l-181.865 -105l-34.6406 -20z" />
    <glyph glyph-name="uF0015" unicode="&#xf0015;" 
d="M500 633c-166.159 0 -300 -133.841 -300 -300s133.841 -300 300 -300s300 133.841 300 300s-133.841 300 -300 300zM500 713c209.395 0 380 -170.605 380 -380s-170.605 -380 -380 -380s-380 170.605 -380 380s170.605 380 380 380zM250 293v80h40h186.906
l58.4531 101.244l20 34.6406l69.2812 -40l-20 -34.6406s-69.9746 -121.201 -70 -121.244c-6.91504 -11.9756 -19.8301 -19.999 -34.6406 -20h-210h-40z" />
    <glyph glyph-name="uF0016" unicode="&#xf0016;" 
d="M500 633c-166.159 0 -300 -133.841 -300 -300s133.841 -300 300 -300s300 133.841 300 300s-133.841 300 -300 300zM500 713c209.395 0 380 -170.605 380 -380s-170.605 -380 -380 -380s-380 170.605 -380 380s170.605 380 380 380zM263.494 423.359l40 69.2812
l34.6406 -20l147.225 -85l50 86.6035l20 34.6406l69.2812 -40l-20 -34.6406s-70.0176 -121.176 -70 -121.244c-6.91602 -11.9746 -19.874 -19.9727 -34.6855 -19.9727c-7.26465 0 -14.0801 1.94043 -19.9551 5.33203l-181.865 105z" />
    <glyph glyph-name="uF0017" unicode="&#xf0017;" 
d="M500 633c-166.159 0 -300 -133.841 -300 -300s133.841 -300 300 -300s300 133.841 300 300s-133.841 300 -300 300zM500 713c209.395 0 380 -170.605 380 -380s-170.605 -380 -380 -380s-380 170.605 -380 380s170.605 380 380 380zM340.359 529.506l69.2812 40
l20 -34.6406l70.3594 -121.865l35.3594 61.2441l20 34.6406l69.2812 -40l-20 -34.6406s-69.9492 -121.244 -70 -121.244c-6.91602 -11.9736 -19.8057 -20.0381 -34.6152 -20.0381s-27.75 8.06445 -34.666 20.0381l-105 181.865z" />
    <glyph glyph-name="uF0018" unicode="&#xf0018;" 
d="M500 633c-166.159 0 -300 -133.841 -300 -300s133.841 -300 300 -300s300 133.841 300 300s-133.841 300 -300 300zM500 713c209.395 0 380 -170.605 380 -380s-170.605 -380 -380 -380s-380 170.605 -380 380s170.605 380 380 380zM460 333v210v40h80v-40v-140.719
l61.2441 35.3594l34.6406 20l40 -69.2812l-34.6406 -20l-121.244 -70c-5.87402 -3.39062 -12.7314 -5.35547 -19.9961 -5.35547c-22.0762 0 -40.0039 17.9209 -40.0039 39.9961z" />
    <glyph glyph-name="uF0019" unicode="&#xf0019;" 
d="M500 633c-166.159 0 -300 -133.841 -300 -300s133.841 -300 300 -300s300 133.841 300 300s-133.841 300 -300 300zM500 713c209.395 0 380 -170.605 380 -380s-170.605 -380 -380 -380s-380 170.605 -380 380s170.605 380 380 380zM460.158 336.488
c0.518555 5.94336 2.36621 11.5967 5.20117 16.5117l105 181.865l20 34.6406l69.2812 -40l-20 -34.6406l-30.3594 -52.584l26.6035 15.3594l40 -69.2812l-34.6406 -20l-121.244 -70c-5.87305 -3.3877 -12.7295 -5.3916 -19.9902 -5.3916
c-22.0791 0 -40.0039 17.9258 -40.0039 40.0049c0 1.18457 0.0507812 2.35742 0.152344 3.51562z" />
    <glyph glyph-name="uF001A" unicode="&#xf001a;" 
d="M500 633c-166.159 0 -300 -133.841 -300 -300s133.841 -300 300 -300s300 133.841 300 300s-133.841 300 -300 300zM500 713c209.395 0 380 -170.605 380 -380s-170.605 -380 -380 -380s-380 170.605 -380 380s170.605 380 380 380zM460.896 339.006
c1.75977 12.1689 8.96387 22.5879 19.1035 28.6348l121.244 70l34.6406 20l25.9805 15l34.6406 20l40 -69.2812l-34.6406 -20l-25.9805 -15l-34.6406 -20l-121.244 -70c-5.76367 -3.21973 -12.4473 -5.12109 -19.5127 -5.12109
c-22.0781 0 -40.0039 17.9258 -40.0039 40.0039c0 1.95703 0.140625 3.88184 0.413086 5.76367z" />
    <glyph glyph-name="uF001B" unicode="&#xf001b;" 
d="M500 633c-166.159 0 -300 -133.841 -300 -300s133.841 -300 300 -300s300 133.841 300 300s-133.841 300 -300 300zM500 713c209.395 0 380 -170.605 380 -380s-170.605 -380 -380 -380s-380 170.605 -380 380s170.605 380 380 380zM460.617 339.945
c2.08496 11.833 9.33691 21.8906 19.3828 27.6953l121.244 70l34.6406 20l40 -69.2812l-26.6035 -15.3594h60.7188h40v-80h-40h-210c-22.0723 0.0078125 -39.9902 17.8945 -39.9902 39.9678c0 2.37988 0.208008 4.71191 0.607422 6.97754z" />
    <glyph glyph-name="uF001C" unicode="&#xf001c;" 
d="M500 633c-166.159 0 -300 -133.841 -300 -300s133.841 -300 300 -300s300 133.841 300 300s-133.841 300 -300 300zM500 713c209.395 0 380 -170.605 380 -380s-170.605 -380 -380 -380s-380 170.605 -380 380s170.605 380 380 380zM460.877 324.684
c-0.572266 2.69141 -0.916992 5.42969 -0.916992 8.29004c0 14.8105 8.06543 27.751 20.04 34.667l121.244 70l34.6406 20l40 -69.2812l-34.6406 -20l-61.2441 -35.3594l121.865 -70.3594l34.6406 -20l-40 -69.2812l-34.6406 20s-181.821 105.002 -181.865 105
c-9.66113 5.5791 -16.7334 15.083 -19.123 26.3242z" />
    <glyph glyph-name="uF001D" unicode="&#xf001d;" 
d="M500 633c-166.159 0 -300 -133.841 -300 -300s133.841 -300 300 -300s300 133.841 300 300s-133.841 300 -300 300zM500 713c209.395 0 380 -170.605 380 -380s-170.605 -380 -380 -380s-380 170.605 -380 380s170.605 380 380 380zM460.344 327.779
c-0.226562 1.72168 -0.384766 3.41113 -0.384766 5.19336c0 14.8105 8.06641 27.752 20.041 34.668l121.244 70l34.6406 20l40 -69.2812l-34.6406 -20l-86.6035 -50l85 -147.225l20 -34.6406l-69.2812 -40l-20 34.6406l-105 181.865
c-2.55859 4.43359 -4.31934 9.48633 -5.01562 14.7793z" />
    <glyph glyph-name="uF001E" unicode="&#xf001e;" 
d="M500 633c-166.159 0 -300 -133.841 -300 -300s133.841 -300 300 -300s300 133.841 300 300s-133.841 300 -300 300zM500 713c209.395 0 380 -170.605 380 -380s-170.605 -380 -380 -380s-380 170.605 -380 380s170.605 380 380 380zM460 83v40s-0.0429688 209.975 0 210
c0.000976562 14.8105 8.02441 27.7256 20 34.6406l121.244 70l34.6406 20l40 -69.2812l-34.6406 -20l-101.244 -58.4531v-186.906v-40h-80z" />
    <glyph glyph-name="uF001F" unicode="&#xf001f;" 
d="M500 633c-166.159 0 -300 -133.841 -300 -300s133.841 -300 300 -300s300 133.841 300 300s-133.841 300 -300 300zM500 713c209.395 0 380 -170.605 380 -380s-170.605 -380 -380 -380s-380 170.605 -380 380s170.605 380 380 380zM340.359 136.494l20 34.6406
s104.932 181.797 105 181.865c3.52246 6.10059 8.54004 11.1182 14.6406 14.6406l121.244 70l34.6406 20l40 -69.2812l-34.6406 -20l-111.963 -64.6406l-99.6406 -172.584l-20 -34.6406z" />
    <glyph glyph-name="uF0020" unicode="&#xf0020;" 
d="M500 633c-166.159 0 -300 -133.841 -300 -300s133.841 -300 300 -300s300 133.841 300 300s-133.841 300 -300 300zM500 713c209.395 0 380 -170.605 380 -380s-170.605 -380 -380 -380s-380 170.605 -380 380s170.605 380 380 380zM263.494 242.641l34.6406 20
l181.865 105l121.244 70l34.6406 20l40 -69.2812l-34.6406 -20l-121.244 -70l-181.865 -105l-34.6406 -20z" />
    <glyph glyph-name="uF0021" unicode="&#xf0021;" 
d="M500 633c-166.159 0 -300 -133.841 -300 -300s133.841 -300 300 -300s300 133.841 300 300s-133.841 300 -300 300zM500 713c209.395 0 380 -170.605 380 -380s-170.605 -380 -380 -380s-380 170.605 -380 380s170.605 380 380 380zM250 293v80h40h199.281
l111.963 64.6406l34.6406 20l40 -69.2812l-34.6406 -20l-121.244 -70c-5.875 -3.3916 -12.7344 -5.35938 -20 -5.35938h-210h-40z" />
    <glyph glyph-name="uF0022" unicode="&#xf0022;" 
d="M500 633c-166.159 0 -300 -133.841 -300 -300s133.841 -300 300 -300s300 133.841 300 300s-133.841 300 -300 300zM500 713c209.395 0 380 -170.605 380 -380s-170.605 -380 -380 -380s-380 170.605 -380 380s170.605 380 380 380zM263.494 423.359l40 69.2812
l34.6406 -20l161.865 -93.4531l101.244 58.4531l34.6406 20l40 -69.2812l-34.6406 -20l-121.244 -70c-5.875 -3.3916 -12.7773 -5.33301 -20.043 -5.33301s-14.082 1.94141 -19.957 5.33301l-181.865 105z" />
    <glyph glyph-name="uF0023" unicode="&#xf0023;" 
d="M500 633c-166.159 0 -300 -133.841 -300 -300s133.841 -300 300 -300s300 133.841 300 300s-133.841 300 -300 300zM500 713c209.395 0 380 -170.605 380 -380s-170.605 -380 -380 -380s-380 170.605 -380 380s170.605 380 380 380zM340.359 529.506l69.2812 40
l20 -34.6406l85 -147.225l86.6035 50l34.6406 20l40 -69.2812l-34.6406 -20l-121.244 -70c-5.875 -3.3916 -12.708 -5.40039 -19.9727 -5.40039c-14.8105 0 -27.752 8.06641 -34.668 20.041l-105 181.865z" />
    <glyph glyph-name="uF0024" unicode="&#xf0024;" 
d="M500 633c-166.159 0 -300 -133.841 -300 -300s133.841 -300 300 -300s300 133.841 300 300s-133.841 300 -300 300zM500 713c209.395 0 380 -170.605 380 -380s-170.605 -380 -380 -380s-380 170.605 -380 380s170.605 380 380 380zM460 333v210v40h80v-40v-170h100h40
v-80h-40h-140c-22.0752 0.00195312 -40 17.9248 -40 40z" />
    <glyph glyph-name="uF0025" unicode="&#xf0025;" 
d="M500 633c-166.159 0 -300 -133.841 -300 -300s133.841 -300 300 -300s300 133.841 300 300s-133.841 300 -300 300zM500 713c209.395 0 380 -170.605 380 -380s-170.605 -380 -380 -380s-380 170.605 -380 380s170.605 380 380 380zM460.221 337.182
c0.59668 5.68262 2.41309 11.0957 5.13867 15.8184l105 181.865l20 34.6406l69.2812 -40l-20 -34.6406l-70.3594 -121.865h70.7188h40v-80h-40h-140c-22.0762 0.00292969 -40 17.8867 -40 39.9629c0 1.4248 0.0751953 2.83203 0.220703 4.21875z" />
    <glyph glyph-name="uF0026" unicode="&#xf0026;" 
d="M500 633c-166.159 0 -300 -133.841 -300 -300s133.841 -300 300 -300s300 133.841 300 300s-133.841 300 -300 300zM500 713c209.395 0 380 -170.605 380 -380s-170.605 -380 -380 -380s-380 170.605 -380 380s170.605 380 380 380zM460.617 339.945
c2.08496 11.833 9.33691 21.8906 19.3828 27.6953l181.865 105l34.6406 20l40 -69.2812l-34.6406 -20l-52.584 -30.3594h30.7188v-80h-40h-140c-22.0723 0.0078125 -39.9902 17.8945 -39.9902 39.9678c0 2.37988 0.208008 4.71191 0.607422 6.97754z" />
    <glyph glyph-name="uF0027" unicode="&#xf0027;" 
d="M500 633c-166.159 0 -300 -133.841 -300 -300s133.841 -300 300 -300s300 133.841 300 300s-133.841 300 -300 300zM500 713c209.395 0 380 -170.605 380 -380s-170.605 -380 -380 -380s-380 170.605 -380 380s170.605 380 380 380zM461.547 324.178
c-0.643555 2.8457 -0.974609 5.7832 -0.974609 8.82227c0 21.8867 17.6143 39.6914 39.4277 40h180h30h40v-80h-40h-30h-40h-140c-18.7842 0.265625 -34.4629 13.5303 -38.4531 31.1777z" />
    <glyph glyph-name="uF0028" unicode="&#xf0028;" 
d="M500 633c-166.159 0 -300 -133.841 -300 -300s133.841 -300 300 -300s300 133.841 300 300s-133.841 300 -300 300zM500 713c209.395 0 380 -170.605 380 -380s-170.605 -380 -380 -380s-380 170.605 -380 380s170.605 380 380 380zM460.617 326.055
c-0.399414 2.26562 -0.606445 4.56152 -0.606445 6.94141c0 22.0742 17.917 39.9961 39.9893 40.0039h140h40v-80h-30.7188l52.584 -30.3594l34.6406 -20l-40 -69.2812l-34.6406 20s-181.823 105.011 -181.865 105c-10.0459 5.80469 -17.2979 15.8623 -19.3828 27.6953z" />
    <glyph glyph-name="uF0029" unicode="&#xf0029;" 
d="M500 633c-166.159 0 -300 -133.841 -300 -300s133.841 -300 300 -300s300 133.841 300 300s-133.841 300 -300 300zM500 713c209.395 0 380 -170.605 380 -380s-170.605 -380 -380 -380s-380 170.605 -380 380s170.605 380 380 380zM460.221 328.818
c-0.145508 1.38672 -0.21875 2.75293 -0.21875 4.17773c0 22.0771 17.9219 40.001 39.998 40.0039h140h40v-80h-40h-70.7188l70.3594 -121.865l20 -34.6406l-69.2812 -40l-20 34.6406l-105 181.865c-2.72559 4.72266 -4.54199 10.1357 -5.13867 15.8184z" />
    <glyph glyph-name="uF002A" unicode="&#xf002a;" 
d="M500 633c-166.159 0 -300 -133.841 -300 -300s133.841 -300 300 -300s300 133.841 300 300s-133.841 300 -300 300zM500 713c209.395 0 380 -170.605 380 -380s-170.605 -380 -380 -380s-380 170.605 -380 380s170.605 380 380 380zM460 83v40v210
c0.00195312 22.0752 17.9248 39.998 40 40h140h40v-80h-40h-100v-170v-40h-80z" />
    <glyph glyph-name="uF002B" unicode="&#xf002b;" 
d="M500 633c-166.159 0 -300 -133.841 -300 -300s133.841 -300 300 -300s300 133.841 300 300s-133.841 300 -300 300zM500 713c209.395 0 380 -170.605 380 -380s-170.605 -380 -380 -380s-380 170.605 -380 380s170.605 380 380 380zM340.359 136.494l20 34.6406
s104.975 181.822 105 181.865c6.91504 11.9756 19.8301 19.999 34.6406 20h140h40v-80h-40h-116.906l-93.4531 -161.865l-20 -34.6406z" />
    <glyph glyph-name="uF002C" unicode="&#xf002c;" 
d="M500 633c-166.159 0 -300 -133.841 -300 -300s133.841 -300 300 -300s300 133.841 300 300s-133.841 300 -300 300zM500 713c209.395 0 380 -170.605 380 -380s-170.605 -380 -380 -380s-380 170.605 -380 380s170.605 380 380 380zM263.494 242.641l34.6406 20
l181.865 105c5.875 3.3916 12.7344 5.35938 20 5.35938h140h40v-80h-40h-129.281l-172.584 -99.6406l-34.6406 -20z" />
    <glyph glyph-name="uF002D" unicode="&#xf002d;" 
d="M500 633c-166.159 0 -300 -133.841 -300 -300s133.841 -300 300 -300s300 133.841 300 300s-133.841 300 -300 300zM500 713c209.395 0 380 -170.605 380 -380s-170.605 -380 -380 -380s-380 170.605 -380 380s170.605 380 380 380zM250 293v80h40h210h140h40v-80h-40
h-140h-210h-40z" />
    <glyph glyph-name="uF002E" unicode="&#xf002e;" 
d="M500 633c-166.159 0 -300 -133.841 -300 -300s133.841 -300 300 -300s300 133.841 300 300s-133.841 300 -300 300zM500 713c209.395 0 380 -170.605 380 -380s-170.605 -380 -380 -380s-380 170.605 -380 380s170.605 380 380 380zM263.494 423.359l40 69.2812
l34.6406 -20l172.584 -99.6406h129.281h40v-80h-40h-140c-7.26562 0 -14.125 1.96777 -20 5.35938l-181.865 105z" />
    <glyph glyph-name="uF002F" unicode="&#xf002f;" 
d="M500 633c-166.159 0 -300 -133.841 -300 -300s133.841 -300 300 -300s300 133.841 300 300s-133.841 300 -300 300zM500 713c209.395 0 380 -170.605 380 -380s-170.605 -380 -380 -380s-380 170.605 -380 380s170.605 380 380 380zM340.359 529.506l69.2812 40
l20 -34.6406l93.4531 -161.865h116.906h40v-80h-40s-139.975 -0.0429688 -140 0c-14.8105 0.000976562 -27.7256 8.02441 -34.6406 20l-105 181.865z" />
    <glyph glyph-name="uF0030" unicode="&#xf0030;" 
d="M500 633c-166.159 0 -300 -133.841 -300 -300s133.841 -300 300 -300s300 133.841 300 300s-133.841 300 -300 300zM500 713c209.395 0 380 -170.605 380 -380s-170.605 -380 -380 -380s-380 170.605 -380 380s170.605 380 380 380zM460 333v210v40h80v-40v-186.906
l101.244 -58.4531l34.6406 -20l-40 -69.2812l-34.6406 20s-121.201 69.9746 -121.244 70c-11.9756 6.91504 -20 19.8301 -20 34.6406z" />
    <glyph glyph-name="uF0031" unicode="&#xf0031;" 
d="M500 633c-166.159 0 -300 -133.841 -300 -300s133.841 -300 300 -300s300 133.841 300 300s-133.841 300 -300 300zM500 713c209.395 0 380 -170.605 380 -380s-170.605 -380 -380 -380s-380 170.605 -380 380s170.605 380 380 380zM460.344 338.221
c0.696289 5.29297 2.45703 10.3457 5.01562 14.7793l105 181.865l20 34.6406l69.2812 -40l-20 -34.6406l-85 -147.225l86.6035 -50l34.6406 -20l-40 -69.2812l-34.6406 20s-121.203 69.9336 -121.244 70c-11.9746 6.91602 -20 19.79 -20 34.6006
c0 1.7832 0.117188 3.53906 0.34375 5.26074z" />
    <glyph glyph-name="uF0032" unicode="&#xf0032;" 
d="M500 633c-166.159 0 -300 -133.841 -300 -300s133.841 -300 300 -300s300 133.841 300 300s-133.841 300 -300 300zM500 713c209.395 0 380 -170.605 380 -380s-170.605 -380 -380 -380s-380 170.605 -380 380s170.605 380 380 380zM460.877 324.684
c-0.572266 2.69141 -0.916992 5.42969 -0.916992 8.29004c0 14.8105 8.06543 27.751 20.04 34.667l181.865 105l34.6406 20l40 -69.2812l-34.6406 -20l-121.865 -70.3594l61.2441 -35.3594l34.6406 -20l-40 -69.2812l-34.6406 20s-121.2 70.002 -121.244 70
c-9.66113 5.5791 -16.7334 15.083 -19.123 26.3242z" />
    <glyph glyph-name="uF0033" unicode="&#xf0033;" 
d="M500 633c-166.159 0 -300 -133.841 -300 -300s133.841 -300 300 -300s300 133.841 300 300s-133.841 300 -300 300zM500 713c209.395 0 380 -170.605 380 -380s-170.605 -380 -380 -380s-380 170.605 -380 380s170.605 380 380 380zM460.617 326.055
c-0.399414 2.26562 -0.606445 4.56152 -0.606445 6.94141c0 22.0742 17.917 39.9961 39.9893 40.0039h210h40v-80h-40h-60.7188l26.6035 -15.3594l-40 -69.2812l-34.6406 20s-121.202 70.0107 -121.244 70c-10.0459 5.80469 -17.2979 15.8623 -19.3828 27.6953z" />
    <glyph glyph-name="uF0034" unicode="&#xf0034;" 
d="M500 633c-166.159 0 -300 -133.841 -300 -300s133.841 -300 300 -300s300 133.841 300 300s-133.841 300 -300 300zM500 713c209.395 0 380 -170.605 380 -380s-170.605 -380 -380 -380s-380 170.605 -380 380s170.605 380 380 380zM460.848 338.078
c2.6416 19.5273 19.4385 34.6172 39.6855 34.6172c7.06445 0 13.7041 -1.83496 19.4668 -5.05469l121.244 -70l34.6406 -20l25.9805 -15l34.6406 -20l-40 -69.2812l-34.6406 20l-25.9805 15l-34.6406 20s-121.203 69.9336 -121.244 70
c-11.707 6.98242 -19.5146 19.707 -19.5146 34.3164c0 1.83203 0.123047 3.63574 0.362305 5.40234z" />
    <glyph glyph-name="uF0035" unicode="&#xf0035;" 
d="M500 633c-166.159 0 -300 -133.841 -300 -300s133.841 -300 300 -300s300 133.841 300 300s-133.841 300 -300 300zM500 713c209.395 0 380 -170.605 380 -380s-170.605 -380 -380 -380s-380 170.605 -380 380s170.605 380 380 380zM460.074 335.324
c1.22656 20.9785 18.6943 37.6436 39.9785 37.6436c7.26172 0 14.0742 -1.93945 19.9473 -5.32715l121.244 -70l34.6406 -20l-40 -69.2812l-26.6035 15.3594l30.3594 -52.584l20 -34.6406l-69.2812 -40l-20 34.6406l-105 181.865
c-3.38867 5.87305 -5.35449 12.6973 -5.35449 19.959c0 0.793945 0.0234375 1.58301 0.0693359 2.36523z" />
    <glyph glyph-name="uF0036" unicode="&#xf0036;" 
d="M500 633c-166.159 0 -300 -133.841 -300 -300s133.841 -300 300 -300s300 133.841 300 300s-133.841 300 -300 300zM500 713c209.395 0 380 -170.605 380 -380s-170.605 -380 -380 -380s-380 170.605 -380 380s170.605 380 380 380zM460 83v40s0.0429688 209.975 0 210
c0.00390625 22.0752 17.9707 39.9717 40.0469 39.9717c7.26367 0 14.0791 -1.94043 19.9531 -5.33105l121.244 -70l34.6406 -20l-40 -69.2812l-34.6406 20l-61.2441 35.3594v-140.719v-40h-80z" />
    <glyph glyph-name="uF0037" unicode="&#xf0037;" 
d="M500 633c-166.159 0 -300 -133.841 -300 -300s133.841 -300 300 -300s300 133.841 300 300s-133.841 300 -300 300zM500 713c209.395 0 380 -170.605 380 -380s-170.605 -380 -380 -380s-380 170.605 -380 380s170.605 380 380 380zM340.359 136.494l20 34.6406
s105.018 181.797 105 181.865c6.91602 11.9746 19.874 19.9727 34.6855 19.9727c7.26465 0 14.0801 -1.94043 19.9551 -5.33203l121.244 -70l34.6406 -20l-40 -69.2812l-34.6406 20l-86.6035 50l-85 -147.225l-20 -34.6406z" />
    <glyph glyph-name="uF0038" unicode="&#xf0038;" 
d="M500 633c-166.159 0 -300 -133.841 -300 -300s133.841 -300 300 -300s300 133.841 300 300s-133.841 300 -300 300zM500 713c209.395 0 380 -170.605 380 -380s-170.605 -380 -380 -380s-380 170.605 -380 380s170.605 380 380 380zM263.494 242.641l34.6406 20
l181.865 105c5.875 3.3916 12.7773 5.33301 20.043 5.33301s14.082 -1.94141 19.957 -5.33301l121.244 -70l34.6406 -20l-40 -69.2812l-34.6406 20l-101.244 58.4531l-161.865 -93.4531l-34.6406 -20z" />
    <glyph glyph-name="uF0039" unicode="&#xf0039;" 
d="M500 633c-166.159 0 -300 -133.841 -300 -300s133.841 -300 300 -300s300 133.841 300 300s-133.841 300 -300 300zM500 713c209.395 0 380 -170.605 380 -380s-170.605 -380 -380 -380s-380 170.605 -380 380s170.605 380 380 380zM250 293v80h40h210
c7.26562 0 14.125 -1.96777 20 -5.35938l121.244 -70l34.6406 -20l-40 -69.2812l-34.6406 20l-111.963 64.6406h-199.281h-40z" />
    <glyph glyph-name="uF003A" unicode="&#xf003a;" 
d="M500 633c-166.159 0 -300 -133.841 -300 -300s133.841 -300 300 -300s300 133.841 300 300s-133.841 300 -300 300zM500 713c209.395 0 380 -170.605 380 -380s-170.605 -380 -380 -380s-380 170.605 -380 380s170.605 380 380 380zM263.494 423.359l40 69.2812
l34.6406 -20l181.865 -105l121.244 -70l34.6406 -20l-40 -69.2812l-34.6406 20l-121.244 70l-181.865 105z" />
    <glyph glyph-name="uF003B" unicode="&#xf003b;" 
d="M500 633c-166.159 0 -300 -133.841 -300 -300s133.841 -300 300 -300s300 133.841 300 300s-133.841 300 -300 300zM500 713c209.395 0 380 -170.605 380 -380s-170.605 -380 -380 -380s-380 170.605 -380 380s170.605 380 380 380zM340.359 529.506l69.2812 40
l20 -34.6406l99.6406 -172.584l111.963 -64.6406l34.6406 -20l-40 -69.2812l-34.6406 20s-121.176 69.9316 -121.244 70c-6.10059 3.52246 -11.1182 8.54004 -14.6406 14.6406l-105 181.865z" />
    <glyph glyph-name="uF003C" unicode="&#xf003c;" 
d="M500 633c-166.159 0 -300 -133.841 -300 -300s133.841 -300 300 -300s300 133.841 300 300s-133.841 300 -300 300zM500 713c209.395 0 380 -170.605 380 -380s-170.605 -380 -380 -380s-380 170.605 -380 380s170.605 380 380 380zM460 333v210v40h80v-40v-199.281
l64.6406 -111.963l20 -34.6406l-69.2812 -40l-20 34.6406l-70 121.244c-3.3916 5.875 -5.35938 12.7344 -5.35938 20z" />
    <glyph glyph-name="uF003D" unicode="&#xf003d;" 
d="M500 633c-166.159 0 -300 -133.841 -300 -300s133.841 -300 300 -300s300 133.841 300 300s-133.841 300 -300 300zM500 713c209.395 0 380 -170.605 380 -380s-170.605 -380 -380 -380s-380 170.605 -380 380s170.605 380 380 380zM460.607 326.055
c-0.399414 2.2666 -0.582031 4.60645 -0.582031 6.98633c0 7.2666 1.94141 14.083 5.33398 19.959l105 181.865l20 34.6406l69.2812 -40l-20 -34.6406l-93.4531 -161.865l58.4531 -101.244l20 -34.6406l-69.2812 -40l-20 34.6406l-70 121.244
c-2.28027 3.9502 -3.93164 8.40332 -4.75195 13.0547z" />
    <glyph glyph-name="uF003E" unicode="&#xf003e;" 
d="M500 633c-166.159 0 -300 -133.841 -300 -300s133.841 -300 300 -300s300 133.841 300 300s-133.841 300 -300 300zM500 713c209.395 0 380 -170.605 380 -380s-170.605 -380 -380 -380s-380 170.605 -380 380s170.605 380 380 380zM460.344 327.779
c-0.226562 1.72168 -0.384766 3.41113 -0.384766 5.19336c0 14.8105 8.06641 27.752 20.041 34.668l181.865 105l34.6406 20l40 -69.2812l-34.6406 -20l-147.225 -85l50 -86.6035l20 -34.6406l-69.2812 -40l-20 34.6406l-70 121.244
c-2.55859 4.43359 -4.31934 9.48633 -5.01562 14.7793z" />
    <glyph glyph-name="uF003F" unicode="&#xf003f;" 
d="M500 633c-166.159 0 -300 -133.841 -300 -300s133.841 -300 300 -300s300 133.841 300 300s-133.841 300 -300 300zM500 713c209.395 0 380 -170.605 380 -380s-170.605 -380 -380 -380s-380 170.605 -380 380s170.605 380 380 380zM460.221 328.818
c-0.145508 1.38672 -0.21875 2.75293 -0.21875 4.17773c0 22.0771 17.9219 40.001 39.998 40.0039h210h40v-80h-40h-140.719l35.3594 -61.2441l20 -34.6406l-69.2812 -40l-20 34.6406l-70 121.244c-2.72559 4.72266 -4.54199 10.1357 -5.13867 15.8184z" />
    <glyph glyph-name="uF0040" unicode="&#xf0040;" 
d="M500 633c-166.159 0 -300 -133.841 -300 -300s133.841 -300 300 -300s300 133.841 300 300s-133.841 300 -300 300zM500 713c209.395 0 380 -170.605 380 -380s-170.605 -380 -380 -380s-380 170.605 -380 380s170.605 380 380 380zM460.074 335.324
c1.22656 20.9785 18.6943 37.6436 39.9785 37.6436c7.26172 0 14.0742 -1.93945 19.9473 -5.32715l181.865 -105l34.6406 -20l-40 -69.2812l-34.6406 20l-52.584 30.3594l15.3594 -26.6035l-69.2812 -40l-20 34.6406l-70 121.244
c-3.38867 5.87305 -5.35449 12.6973 -5.35449 19.959c0 0.793945 0.0234375 1.58301 0.0693359 2.36523z" />
    <glyph glyph-name="uF0041" unicode="&#xf0041;" 
d="M500 633c-166.159 0 -300 -133.841 -300 -300s133.841 -300 300 -300s300 133.841 300 300s-133.841 300 -300 300zM500 713c209.395 0 380 -170.605 380 -380s-170.605 -380 -380 -380s-380 170.605 -380 380s170.605 380 380 380zM460.568 327.709
c-0.191406 1.58691 -0.314453 3.2041 -0.314453 4.84277c0 22.0781 17.9248 40.0039 40.0039 40.0039c14.6094 0 27.4004 -7.84863 34.3828 -19.5557l70 -121.244l20 -34.6406l15 -25.9805l20 -34.6406l-69.2812 -40l-20 34.6406l-15 25.9805l-20 34.6406l-70 121.244
c-2.47266 4.42578 -4.15527 9.45312 -4.79102 14.709z" />
    <glyph glyph-name="uF0042" unicode="&#xf0042;" 
d="M500 633c-166.159 0 -300 -133.841 -300 -300s133.841 -300 300 -300s300 133.841 300 300s-133.841 300 -300 300zM500 713c209.395 0 380 -170.605 380 -380s-170.605 -380 -380 -380s-380 170.605 -380 380s170.605 380 380 380zM460 83v40v210
c0.00878906 22.0713 17.9053 40.0312 39.9785 40.0312c14.8066 0 27.7451 -8.06152 34.6621 -20.0312l70 -121.244l20 -34.6406l-69.2812 -40l-15.3594 26.6035v-60.7188v-40h-80z" />
    <glyph glyph-name="uF0043" unicode="&#xf0043;" 
d="M500 633c-166.159 0 -300 -133.841 -300 -300s133.841 -300 300 -300s300 133.841 300 300s-133.841 300 -300 300zM500 713c209.395 0 380 -170.605 380 -380s-170.605 -380 -380 -380s-380 170.605 -380 380s170.605 380 380 380zM340.359 136.494l20 34.6406
s104.949 181.865 105 181.865c6.91602 11.9736 19.8057 20.0381 34.6152 20.0381s27.75 -8.06445 34.666 -20.0381l70 -121.244l20 -34.6406l-69.2812 -40l-20 34.6406l-35.3594 61.2441l-70.3594 -121.865l-20 -34.6406z" />
    <glyph glyph-name="uF0044" unicode="&#xf0044;" 
d="M500 633c-166.159 0 -300 -133.841 -300 -300s133.841 -300 300 -300s300 133.841 300 300s-133.841 300 -300 300zM500 713c209.395 0 380 -170.605 380 -380s-170.605 -380 -380 -380s-380 170.605 -380 380s170.605 380 380 380zM263.494 242.641l34.6406 20
l181.865 105c5.875 3.3916 12.708 5.40039 19.9727 5.40039c14.8105 0 27.752 -8.06641 34.668 -20.041l70 -121.244l20 -34.6406l-69.2812 -40l-20 34.6406l-50 86.6035l-147.225 -85l-34.6406 -20z" />
    <glyph glyph-name="uF0045" unicode="&#xf0045;" 
d="M500 633c-166.159 0 -300 -133.841 -300 -300s133.841 -300 300 -300s300 133.841 300 300s-133.841 300 -300 300zM500 713c209.395 0 380 -170.605 380 -380s-170.605 -380 -380 -380s-380 170.605 -380 380s170.605 380 380 380zM250 293v80h40
s209.975 0.0429688 210 0c14.8105 -0.000976562 27.7256 -8.02441 34.6406 -20l70 -121.244l20 -34.6406l-69.2812 -40l-20 34.6406l-58.4531 101.244h-186.906h-40z" />
    <glyph glyph-name="uF0046" unicode="&#xf0046;" 
d="M500 633c-166.159 0 -300 -133.841 -300 -300s133.841 -300 300 -300s300 133.841 300 300s-133.841 300 -300 300zM500 713c209.395 0 380 -170.605 380 -380s-170.605 -380 -380 -380s-380 170.605 -380 380s170.605 380 380 380zM263.494 423.359l40 69.2812
l34.6406 -20s181.797 -104.932 181.865 -105c6.10059 -3.52246 11.1182 -8.54004 14.6406 -14.6406l70 -121.244l20 -34.6406l-69.2812 -40l-20 34.6406l-64.6406 111.963l-172.584 99.6406z" />
    <glyph glyph-name="uF0047" unicode="&#xf0047;" 
d="M500 633c-166.159 0 -300 -133.841 -300 -300s133.841 -300 300 -300s300 133.841 300 300s-133.841 300 -300 300zM500 713c209.395 0 380 -170.605 380 -380s-170.605 -380 -380 -380s-380 170.605 -380 380s170.605 380 380 380zM340.359 529.506l69.2812 40
l20 -34.6406l105 -181.865l70 -121.244l20 -34.6406l-69.2812 -40l-20 34.6406l-70 121.244l-105 181.865z" />
    <glyph glyph-name="uF0048" unicode="&#xf0048;" 
d="M500 633c-166.159 0 -300 -133.841 -300 -300s133.841 -300 300 -300s300 133.841 300 300s-133.841 300 -300 300zM500 713c209.395 0 380 -170.605 380 -380s-170.605 -380 -380 -380s-380 170.605 -380 380s170.605 380 380 380zM460 153v40v140v210v40h80v-40v-210
v-140v-40h-80z" />
    <glyph glyph-name="uF0049" unicode="&#xf0049;" 
d="M500 633c-166.159 0 -300 -133.841 -300 -300s133.841 -300 300 -300s300 133.841 300 300s-133.841 300 -300 300zM500 713c209.395 0 380 -170.605 380 -380s-170.605 -380 -380 -380s-380 170.605 -380 380s170.605 380 380 380zM460 153v40v140
c0 7.26562 1.96777 14.125 5.35938 20l105 181.865l20 34.6406l69.2812 -40l-20 -34.6406l-99.6406 -172.584v-129.281v-40h-80z" />
    <glyph glyph-name="uF004A" unicode="&#xf004a;" 
d="M500 633c-166.159 0 -300 -133.841 -300 -300s133.841 -300 300 -300s300 133.841 300 300s-133.841 300 -300 300zM500 713c209.395 0 380 -170.605 380 -380s-170.605 -380 -380 -380s-380 170.605 -380 380s170.605 380 380 380zM460 153v40s-0.0429688 139.975 0 140
c0.000976562 14.8105 8.02441 27.7256 20 34.6406l181.865 105l34.6406 20l40 -69.2812l-34.6406 -20l-161.865 -93.4531v-116.906v-40h-80z" />
    <glyph glyph-name="uF004B" unicode="&#xf004b;" 
d="M500 633c-166.159 0 -300 -133.841 -300 -300s133.841 -300 300 -300s300 133.841 300 300s-133.841 300 -300 300zM500 713c209.395 0 380 -170.605 380 -380s-170.605 -380 -380 -380s-380 170.605 -380 380s170.605 380 380 380zM460 153v40v140
c0.00195312 22.0752 17.9248 39.998 40 40h210h40v-80h-40h-170v-100v-40h-80z" />
    <glyph glyph-name="uF004C" unicode="&#xf004c;" 
d="M500 633c-166.159 0 -300 -133.841 -300 -300s133.841 -300 300 -300s300 133.841 300 300s-133.841 300 -300 300zM500 713c209.395 0 380 -170.605 380 -380s-170.605 -380 -380 -380s-380 170.605 -380 380s170.605 380 380 380zM460 153v40s0.0429688 139.975 0 140
c0.00390625 22.0752 17.9707 39.9717 40.0469 39.9717c7.26367 0 14.0791 -1.94043 19.9531 -5.33105l181.865 -105l34.6406 -20l-40 -69.2812l-34.6406 20l-121.865 70.3594v-70.7188v-40h-80z" />
    <glyph glyph-name="uF004D" unicode="&#xf004d;" 
d="M500 633c-166.159 0 -300 -133.841 -300 -300s133.841 -300 300 -300s300 133.841 300 300s-133.841 300 -300 300zM500 713c209.395 0 380 -170.605 380 -380s-170.605 -380 -380 -380s-380 170.605 -380 380s170.605 380 380 380zM460 153v40v140
c0.00878906 22.0713 17.9053 40.0312 39.9785 40.0312c14.8066 0 27.7451 -8.06152 34.6621 -20.0312l105 -181.865l20 -34.6406l-69.2812 -40l-20 34.6406l-30.3594 52.584v-30.7188h-80z" />
    <glyph glyph-name="uF004E" unicode="&#xf004e;" 
d="M500 633c-166.159 0 -300 -133.841 -300 -300s133.841 -300 300 -300s300 133.841 300 300s-133.841 300 -300 300zM500 713c209.395 0 380 -170.605 380 -380s-170.605 -380 -380 -380s-380 170.605 -380 380s170.605 380 380 380zM460 83v40v30v180
c0.308594 21.8135 18.1133 39.4277 40 39.4277s39.6914 -17.6143 40 -39.4277v-180v-30v-40h-80z" />
    <glyph glyph-name="uF004F" unicode="&#xf004f;" 
d="M500 633c-166.159 0 -300 -133.841 -300 -300s133.841 -300 300 -300s300 133.841 300 300s-133.841 300 -300 300zM500 713c209.395 0 380 -170.605 380 -380s-170.605 -380 -380 -380s-380 170.605 -380 380s170.605 380 380 380zM340.359 136.494l20 34.6406
s104.975 181.822 105 181.865c6.91699 11.9697 19.8301 19.9883 34.6367 19.9883c22.0732 0 39.9951 -17.917 40.0039 -39.9883v-140v-40h-80v30.7188l-30.3594 -52.584l-20 -34.6406z" />
    <glyph glyph-name="uF0050" unicode="&#xf0050;" 
d="M500 633c-166.159 0 -300 -133.841 -300 -300s133.841 -300 300 -300s300 133.841 300 300s-133.841 300 -300 300zM500 713c209.395 0 380 -170.605 380 -380s-170.605 -380 -380 -380s-380 170.605 -380 380s170.605 380 380 380zM263.494 242.641l34.6406 20
l181.865 105c5.87402 3.39062 12.7314 5.35547 19.9961 5.35547c22.0762 0 40 -17.9209 40.0039 -39.9961v-140v-40h-80v40v70.7188l-121.865 -70.3594l-34.6406 -20z" />
    <glyph glyph-name="uF0051" unicode="&#xf0051;" 
d="M500 633c-166.159 0 -300 -133.841 -300 -300s133.841 -300 300 -300s300 133.841 300 300s-133.841 300 -300 300zM500 713c209.395 0 380 -170.605 380 -380s-170.605 -380 -380 -380s-380 170.605 -380 380s170.605 380 380 380zM250 293v80h40h210
c22.0752 -0.00195312 39.998 -17.9248 40 -40v-140v-40h-80v40v100h-170h-40z" />
    <glyph glyph-name="uF0052" unicode="&#xf0052;" 
d="M500 633c-166.159 0 -300 -133.841 -300 -300s133.841 -300 300 -300s300 133.841 300 300s-133.841 300 -300 300zM500 713c209.395 0 380 -170.605 380 -380s-170.605 -380 -380 -380s-380 170.605 -380 380s170.605 380 380 380zM263.494 423.359l40 69.2812
l34.6406 -20s181.822 -104.975 181.865 -105c11.9756 -6.91504 19.999 -19.8301 20 -34.6406v-140v-40h-80v40v116.906l-161.865 93.4531z" />
    <glyph glyph-name="uF0053" unicode="&#xf0053;" 
d="M500 633c-166.159 0 -300 -133.841 -300 -300s133.841 -300 300 -300s300 133.841 300 300s-133.841 300 -300 300zM500 713c209.395 0 380 -170.605 380 -380s-170.605 -380 -380 -380s-380 170.605 -380 380s170.605 380 380 380zM340.359 529.506l69.2812 40
l20 -34.6406l105 -181.865c3.3916 -5.875 5.35938 -12.7344 5.35938 -20v-140v-40h-80v40v129.281l-99.6406 172.584z" />
    <glyph glyph-name="uF0054" unicode="&#xf0054;" 
d="M500 633c-166.159 0 -300 -133.841 -300 -300s133.841 -300 300 -300s300 133.841 300 300s-133.841 300 -300 300zM500 713c209.395 0 380 -170.605 380 -380s-170.605 -380 -380 -380s-380 170.605 -380 380s170.605 380 380 380zM375.359 197.115l20 34.6406
l64.6406 111.963v199.281v40h80v-40v-210c0 -7.26562 -1.96777 -14.125 -5.35938 -20l-70 -121.244l-20 -34.6406z" />
    <glyph glyph-name="uF0055" unicode="&#xf0055;" 
d="M500 633c-166.159 0 -300 -133.841 -300 -300s133.841 -300 300 -300s300 133.841 300 300s-133.841 300 -300 300zM500 713c209.395 0 380 -170.605 380 -380s-170.605 -380 -380 -380s-380 170.605 -380 380s170.605 380 380 380zM375.359 197.115l20 34.6406
l70 121.244l105 181.865l20 34.6406l69.2812 -40l-20 -34.6406l-105 -181.865l-70 -121.244l-20 -34.6406z" />
    <glyph glyph-name="uF0056" unicode="&#xf0056;" 
d="M500 633c-166.159 0 -300 -133.841 -300 -300s133.841 -300 300 -300s300 133.841 300 300s-133.841 300 -300 300zM500 713c209.395 0 380 -170.605 380 -380s-170.605 -380 -380 -380s-380 170.605 -380 380s170.605 380 380 380zM375.359 197.115l20 34.6406
s69.9316 121.176 70 121.244c3.52246 6.10059 8.54004 11.1182 14.6406 14.6406l181.865 105l34.6406 20l40 -69.2812l-34.6406 -20l-172.584 -99.6406l-64.6406 -111.963l-20 -34.6406z" />
    <glyph glyph-name="uF0057" unicode="&#xf0057;" 
d="M500 633c-166.159 0 -300 -133.841 -300 -300s133.841 -300 300 -300s300 133.841 300 300s-133.841 300 -300 300zM500 713c209.395 0 380 -170.605 380 -380s-170.605 -380 -380 -380s-380 170.605 -380 380s170.605 380 380 380zM375.359 197.115l20 34.6406
s69.9746 121.201 70 121.244c6.91504 11.9756 19.8301 19.999 34.6406 20h210h40v-80h-40h-186.906l-58.4531 -101.244l-20 -34.6406z" />
    <glyph glyph-name="uF0058" unicode="&#xf0058;" 
d="M500 633c-166.159 0 -300 -133.841 -300 -300s133.841 -300 300 -300s300 133.841 300 300s-133.841 300 -300 300zM500 713c209.395 0 380 -170.605 380 -380s-170.605 -380 -380 -380s-380 170.605 -380 380s170.605 380 380 380zM375.359 197.115l20 34.6406
s70.0176 121.176 70 121.244c6.91602 11.9746 19.874 19.9727 34.6855 19.9727c7.26465 0 14.0801 -1.94043 19.9551 -5.33203l181.865 -105l34.6406 -20l-40 -69.2812l-34.6406 20l-147.225 85l-50 -86.6035l-20 -34.6406z" />
    <glyph glyph-name="uF0059" unicode="&#xf0059;" 
d="M500 633c-166.159 0 -300 -133.841 -300 -300s133.841 -300 300 -300s300 133.841 300 300s-133.841 300 -300 300zM500 713c209.395 0 380 -170.605 380 -380s-170.605 -380 -380 -380s-380 170.605 -380 380s170.605 380 380 380zM375.359 197.115l20 34.6406
s69.9492 121.244 70 121.244c6.91602 11.9736 19.8057 20.0381 34.6152 20.0381s27.75 -8.06445 34.666 -20.0381l105 -181.865l20 -34.6406l-69.2812 -40l-20 34.6406l-70.3594 121.865l-35.3594 -61.2441l-20 -34.6406z" />
    <glyph glyph-name="uF005A" unicode="&#xf005a;" 
d="M500 633c-166.159 0 -300 -133.841 -300 -300s133.841 -300 300 -300s300 133.841 300 300s-133.841 300 -300 300zM500 713c209.395 0 380 -170.605 380 -380s-170.605 -380 -380 -380s-380 170.605 -380 380s170.605 380 380 380zM375.359 197.115l20 34.6406
s69.9746 121.201 70 121.244c6.91699 11.9697 19.8301 19.9883 34.6367 19.9883c22.0732 0 39.9951 -17.917 40.0039 -39.9883v-210v-40h-80v40v60.7188l-15.3594 -26.6035z" />
    <glyph glyph-name="uF005B" unicode="&#xf005b;" 
d="M500 633c-166.159 0 -300 -133.841 -300 -300s133.841 -300 300 -300s300 133.841 300 300s-133.841 300 -300 300zM500 713c209.395 0 380 -170.605 380 -380s-170.605 -380 -380 -380s-380 170.605 -380 380s170.605 380 380 380zM340.359 136.494l20 34.6406
l15 25.9805l20 34.6406s69.9492 121.159 70 121.244c6.98438 11.6963 19.7188 19.4512 34.3213 19.4512c22.0781 0 40.0039 -17.9248 40.0039 -40.0039c0 -7.05664 -1.83105 -13.6885 -5.04395 -19.4473l-70 -121.244l-20 -34.6406l-15 -25.9805l-20 -34.6406z" />
    <glyph glyph-name="uF005C" unicode="&#xf005c;" 
d="M500 633c-166.159 0 -300 -133.841 -300 -300s133.841 -300 300 -300s300 133.841 300 300s-133.841 300 -300 300zM500 713c209.395 0 380 -170.605 380 -380s-170.605 -380 -380 -380s-380 170.605 -380 380s170.605 380 380 380zM263.494 242.641l34.6406 20
l181.865 105c5.87305 3.3877 12.7021 5.30859 19.9629 5.30859c22.0791 0 40.0039 -17.9248 40.0039 -40.0039c0 -7.26074 -1.93848 -14.0723 -5.32617 -19.9453l-70 -121.244l-20 -34.6406l-69.2812 40l15.3594 26.6035l-52.584 -30.3594l-34.6406 -20z" />
    <glyph glyph-name="uF005D" unicode="&#xf005d;" 
d="M500 633c-166.159 0 -300 -133.841 -300 -300s133.841 -300 300 -300s300 133.841 300 300s-133.841 300 -300 300zM500 713c209.395 0 380 -170.605 380 -380s-170.605 -380 -380 -380s-380 170.605 -380 380s170.605 380 380 380zM250 293v80h40
s209.975 -0.0429688 210 0c22.0752 -0.00390625 39.9717 -17.9707 39.9717 -40.0469c0 -7.26367 -1.94043 -14.0791 -5.33105 -19.9531l-70 -121.244l-20 -34.6406l-69.2812 40l20 34.6406l35.3594 61.2441h-140.719h-40z" />
    <glyph glyph-name="uF005E" unicode="&#xf005e;" 
d="M500 633c-166.159 0 -300 -133.841 -300 -300s133.841 -300 300 -300s300 133.841 300 300s-133.841 300 -300 300zM500 713c209.395 0 380 -170.605 380 -380s-170.605 -380 -380 -380s-380 170.605 -380 380s170.605 380 380 380zM263.494 423.359l40 69.2812
l34.6406 -20s181.797 -105.018 181.865 -105c11.9746 -6.91602 19.9727 -19.874 19.9727 -34.6855c0 -7.26465 -1.94043 -14.0801 -5.33203 -19.9551l-70 -121.244l-20 -34.6406l-69.2812 40l20 34.6406l50 86.6035l-147.225 85z" />
    <glyph glyph-name="uF005F" unicode="&#xf005f;" 
d="M500 633c-166.159 0 -300 -133.841 -300 -300s133.841 -300 300 -300s300 133.841 300 300s-133.841 300 -300 300zM500 713c209.395 0 380 -170.605 380 -380s-170.605 -380 -380 -380s-380 170.605 -380 380s170.605 380 380 380zM340.359 529.506l69.2812 40
l20 -34.6406l105 -181.865c3.3916 -5.875 5.33301 -12.7773 5.33301 -20.043s-1.94141 -14.082 -5.33301 -19.957l-70 -121.244l-20 -34.6406l-69.2812 40l20 34.6406l58.4531 101.244l-93.4531 161.865z" />
    <glyph glyph-name="uF0060" unicode="&#xf0060;" 
d="M500 633c-166.159 0 -300 -133.841 -300 -300s133.841 -300 300 -300s300 133.841 300 300s-133.841 300 -300 300zM500 713c209.395 0 380 -170.605 380 -380s-170.605 -380 -380 -380s-380 170.605 -380 380s170.605 380 380 380zM324.115 277.641l34.6406 20
l101.244 58.4531v186.906v40h80v-40s0.0429688 -209.975 0 -210c-0.000976562 -14.8105 -8.02441 -27.7256 -20 -34.6406l-121.244 -70l-34.6406 -20z" />
    <glyph glyph-name="uF0061" unicode="&#xf0061;" 
d="M500 633c-166.159 0 -300 -133.841 -300 -300s133.841 -300 300 -300s300 133.841 300 300s-133.841 300 -300 300zM500 713c209.395 0 380 -170.605 380 -380s-170.605 -380 -380 -380s-380 170.605 -380 380s170.605 380 380 380zM324.115 277.641l34.6406 20
l111.963 64.6406l99.6406 172.584l20 34.6406l69.2812 -40l-20 -34.6406s-104.932 -181.797 -105 -181.865c-3.52246 -6.10059 -8.54004 -11.1182 -14.6406 -14.6406l-121.244 -70l-34.6406 -20z" />
    <glyph glyph-name="uF0062" unicode="&#xf0062;" 
d="M500 633c-166.159 0 -300 -133.841 -300 -300s133.841 -300 300 -300s300 133.841 300 300s-133.841 300 -300 300zM500 713c209.395 0 380 -170.605 380 -380s-170.605 -380 -380 -380s-380 170.605 -380 380s170.605 380 380 380zM324.115 277.641l34.6406 20
l121.244 70l181.865 105l34.6406 20l40 -69.2812l-34.6406 -20l-181.865 -105l-121.244 -70l-34.6406 -20z" />
    <glyph glyph-name="uF0063" unicode="&#xf0063;" 
d="M500 633c-166.159 0 -300 -133.841 -300 -300s133.841 -300 300 -300s300 133.841 300 300s-133.841 300 -300 300zM500 713c209.395 0 380 -170.605 380 -380s-170.605 -380 -380 -380s-380 170.605 -380 380s170.605 380 380 380zM324.115 277.641l34.6406 20
l121.244 70c5.875 3.3916 12.7344 5.35938 20 5.35938h210h40v-80h-40h-199.281l-111.963 -64.6406l-34.6406 -20z" />
    <glyph glyph-name="uF0064" unicode="&#xf0064;" 
d="M500 633c-166.159 0 -300 -133.841 -300 -300s133.841 -300 300 -300s300 133.841 300 300s-133.841 300 -300 300zM500 713c209.395 0 380 -170.605 380 -380s-170.605 -380 -380 -380s-380 170.605 -380 380s170.605 380 380 380zM324.115 277.641l34.6406 20
l121.244 70c5.875 3.3916 12.7773 5.33301 20.043 5.33301s14.082 -1.94141 19.957 -5.33301l181.865 -105l34.6406 -20l-40 -69.2812l-34.6406 20l-161.865 93.4531l-101.244 -58.4531l-34.6406 -20z" />
    <glyph glyph-name="uF0065" unicode="&#xf0065;" 
d="M500 633c-166.159 0 -300 -133.841 -300 -300s133.841 -300 300 -300s300 133.841 300 300s-133.841 300 -300 300zM500 713c209.395 0 380 -170.605 380 -380s-170.605 -380 -380 -380s-380 170.605 -380 380s170.605 380 380 380zM324.115 277.641l34.6406 20
l121.244 70c5.875 3.3916 12.708 5.40039 19.9727 5.40039c14.8105 0 27.752 -8.06641 34.668 -20.041l105 -181.865l20 -34.6406l-69.2812 -40l-20 34.6406l-85 147.225l-86.6035 -50l-34.6406 -20z" />
    <glyph glyph-name="uF0066" unicode="&#xf0066;" 
d="M500 633c-166.159 0 -300 -133.841 -300 -300s133.841 -300 300 -300s300 133.841 300 300s-133.841 300 -300 300zM500 713c209.395 0 380 -170.605 380 -380s-170.605 -380 -380 -380s-380 170.605 -380 380s170.605 380 380 380zM324.115 277.641l34.6406 20
l121.244 70c5.87402 3.39062 12.7314 5.35547 19.9961 5.35547c22.0762 0 40 -17.9209 40.0039 -39.9961v-210v-40h-80v40v140.719l-61.2441 -35.3594l-34.6406 -20z" />
    <glyph glyph-name="uF0067" unicode="&#xf0067;" 
d="M500 633c-166.159 0 -300 -133.841 -300 -300s133.841 -300 300 -300s300 133.841 300 300s-133.841 300 -300 300zM500 713c209.395 0 380 -170.605 380 -380s-170.605 -380 -380 -380s-380 170.605 -380 380s170.605 380 380 380zM324.115 277.641l34.6406 20
l121.244 70c5.87305 3.3877 12.7021 5.30859 19.9629 5.30859c22.0791 0 40.0039 -17.9248 40.0039 -40.0039c0 -7.26074 -1.93848 -14.0723 -5.32617 -19.9453l-105 -181.865l-20 -34.6406l-69.2812 40l20 34.6406l30.3594 52.584l-26.6035 -15.3594z" />
    <glyph glyph-name="uF0068" unicode="&#xf0068;" 
d="M500 633c-166.159 0 -300 -133.841 -300 -300s133.841 -300 300 -300s300 133.841 300 300s-133.841 300 -300 300zM500 713c209.395 0 380 -170.605 380 -380s-170.605 -380 -380 -380s-380 170.605 -380 380s170.605 380 380 380zM263.494 242.641l34.6406 20
l25.9805 15l34.6406 20l121.244 70c5.75879 3.21289 12.4756 5.09473 19.5322 5.09473c22.0791 0 40.0049 -17.9258 40.0049 -40.0049c0 -14.6016 -7.84082 -27.3867 -19.5371 -34.3711l-121.244 -70l-34.6406 -20l-25.9805 -15l-34.6406 -20z" />
    <glyph glyph-name="uF0069" unicode="&#xf0069;" 
d="M500 633c-166.159 0 -300 -133.841 -300 -300s133.841 -300 300 -300s300 133.841 300 300s-133.841 300 -300 300zM500 713c209.395 0 380 -170.605 380 -380s-170.605 -380 -380 -380s-380 170.605 -380 380s170.605 380 380 380zM250 293v80h40h210
c22.0713 -0.00878906 40.0312 -17.9053 40.0312 -39.9785c0 -14.8066 -8.06152 -27.7451 -20.0312 -34.6621l-121.244 -70l-34.6406 -20l-40 69.2812l26.6035 15.3594h-60.7188h-40z" />
    <glyph glyph-name="uF006A" unicode="&#xf006a;" 
d="M500 633c-166.159 0 -300 -133.841 -300 -300s133.841 -300 300 -300s300 133.841 300 300s-133.841 300 -300 300zM500 713c209.395 0 380 -170.605 380 -380s-170.605 -380 -380 -380s-380 170.605 -380 380s170.605 380 380 380zM263.494 423.359l40 69.2812
l34.6406 -20s181.865 -104.949 181.865 -105c11.9736 -6.91602 20.0381 -19.8057 20.0381 -34.6152s-8.06445 -27.75 -20.0381 -34.666l-121.244 -70l-34.6406 -20l-40 69.2812l34.6406 20l61.2441 35.3594l-121.865 70.3594z" />
    <glyph glyph-name="uF006B" unicode="&#xf006b;" 
d="M500 633c-166.159 0 -300 -133.841 -300 -300s133.841 -300 300 -300s300 133.841 300 300s-133.841 300 -300 300zM500 713c209.395 0 380 -170.605 380 -380s-170.605 -380 -380 -380s-380 170.605 -380 380s170.605 380 380 380zM324.115 277.641l34.6406 20
l86.6035 50l-85 147.225l-20 34.6406l69.2812 40l20 -34.6406l105 -181.865c3.3916 -5.875 5.40039 -12.708 5.40039 -19.9727c0 -14.8105 -8.06641 -27.752 -20.041 -34.668l-121.244 -70l-34.6406 -20z" />
    <glyph glyph-name="uF006C" unicode="&#xf006c;" 
d="M500 633c-166.159 0 -300 -133.841 -300 -300s133.841 -300 300 -300s300 133.841 300 300s-133.841 300 -300 300zM500 713c209.395 0 380 -170.605 380 -380s-170.605 -380 -380 -380s-380 170.605 -380 380s170.605 380 380 380zM320 293v80h40h100v170v40h80v-40
v-210c-0.00195312 -22.0752 -17.9248 -39.998 -40 -40h-140h-40z" />
    <glyph glyph-name="uF006D" unicode="&#xf006d;" 
d="M500 633c-166.159 0 -300 -133.841 -300 -300s133.841 -300 300 -300s300 133.841 300 300s-133.841 300 -300 300zM500 713c209.395 0 380 -170.605 380 -380s-170.605 -380 -380 -380s-380 170.605 -380 380s170.605 380 380 380zM320 293v80h40h116.906
l93.4531 161.865l20 34.6406l69.2812 -40l-20 -34.6406s-104.975 -181.822 -105 -181.865c-6.91504 -11.9756 -19.8301 -19.999 -34.6406 -20h-140h-40z" />
    <glyph glyph-name="uF006E" unicode="&#xf006e;" 
d="M500 633c-166.159 0 -300 -133.841 -300 -300s133.841 -300 300 -300s300 133.841 300 300s-133.841 300 -300 300zM500 713c209.395 0 380 -170.605 380 -380s-170.605 -380 -380 -380s-380 170.605 -380 380s170.605 380 380 380zM320 293v80h40h129.281
l172.584 99.6406l34.6406 20l40 -69.2812l-34.6406 -20l-181.865 -105c-5.875 -3.3916 -12.7344 -5.35938 -20 -5.35938h-140h-40z" />
    <glyph glyph-name="uF006F" unicode="&#xf006f;" 
d="M500 633c-166.159 0 -300 -133.841 -300 -300s133.841 -300 300 -300s300 133.841 300 300s-133.841 300 -300 300zM500 713c209.395 0 380 -170.605 380 -380s-170.605 -380 -380 -380s-380 170.605 -380 380s170.605 380 380 380zM320 293v80h40h140h210h40v-80h-40
h-210h-140h-40z" />
    <glyph glyph-name="uF0070" unicode="&#xf0070;" 
d="M500 633c-166.159 0 -300 -133.841 -300 -300s133.841 -300 300 -300s300 133.841 300 300s-133.841 300 -300 300zM500 713c209.395 0 380 -170.605 380 -380s-170.605 -380 -380 -380s-380 170.605 -380 380s170.605 380 380 380zM320 293v80h40h140
c7.26562 0 14.125 -1.96777 20 -5.35938l181.865 -105l34.6406 -20l-40 -69.2812l-34.6406 20l-172.584 99.6406h-129.281h-40z" />
    <glyph glyph-name="uF0071" unicode="&#xf0071;" 
d="M500 633c-166.159 0 -300 -133.841 -300 -300s133.841 -300 300 -300s300 133.841 300 300s-133.841 300 -300 300zM500 713c209.395 0 380 -170.605 380 -380s-170.605 -380 -380 -380s-380 170.605 -380 380s170.605 380 380 380zM320 293v80h40
s139.975 0.0429688 140 0c14.8105 -0.000976562 27.7256 -8.02441 34.6406 -20l105 -181.865l20 -34.6406l-69.2812 -40l-20 34.6406l-93.4531 161.865h-116.906h-40z" />
    <glyph glyph-name="uF0072" unicode="&#xf0072;" 
d="M500 633c-166.159 0 -300 -133.841 -300 -300s133.841 -300 300 -300s300 133.841 300 300s-133.841 300 -300 300zM500 713c209.395 0 380 -170.605 380 -380s-170.605 -380 -380 -380s-380 170.605 -380 380s170.605 380 380 380zM320 293v80h40h140
c22.0752 -0.00195312 39.998 -17.9248 40 -40v-210v-40h-80v40v170h-100h-40z" />
    <glyph glyph-name="uF0073" unicode="&#xf0073;" 
d="M500 633c-166.159 0 -300 -133.841 -300 -300s133.841 -300 300 -300s300 133.841 300 300s-133.841 300 -300 300zM500 713c209.395 0 380 -170.605 380 -380s-170.605 -380 -380 -380s-380 170.605 -380 380s170.605 380 380 380zM320 293v80h40
s139.975 -0.0429688 140 0c22.0752 -0.00390625 39.9717 -17.9707 39.9717 -40.0469c0 -7.26367 -1.94043 -14.0791 -5.33105 -19.9531l-105 -181.865l-20 -34.6406l-69.2812 40l20 34.6406l70.3594 121.865h-70.7188h-40z" />
    <glyph glyph-name="uF0074" unicode="&#xf0074;" 
d="M500 633c-166.159 0 -300 -133.841 -300 -300s133.841 -300 300 -300s300 133.841 300 300s-133.841 300 -300 300zM500 713c209.395 0 380 -170.605 380 -380s-170.605 -380 -380 -380s-380 170.605 -380 380s170.605 380 380 380zM263.494 242.641l34.6406 20
l52.584 30.3594h-30.7188v80h40h140c22.0713 -0.00878906 40.0312 -17.9053 40.0312 -39.9785c0 -14.8066 -8.06152 -27.7451 -20.0312 -34.6621l-181.865 -105l-34.6406 -20z" />
    <glyph glyph-name="uF0075" unicode="&#xf0075;" 
d="M500 633c-166.159 0 -300 -133.841 -300 -300s133.841 -300 300 -300s300 133.841 300 300s-133.841 300 -300 300zM500 713c209.395 0 380 -170.605 380 -380s-170.605 -380 -380 -380s-380 170.605 -380 380s170.605 380 380 380zM250 293v80h40h30h40h140
c21.8135 -0.308594 39.4277 -18.1133 39.4277 -40s-17.6143 -39.6914 -39.4277 -40h-140h-40h-30h-40z" />
    <glyph glyph-name="uF0076" unicode="&#xf0076;" 
d="M500 633c-166.159 0 -300 -133.841 -300 -300s133.841 -300 300 -300s300 133.841 300 300s-133.841 300 -300 300zM500 713c209.395 0 380 -170.605 380 -380s-170.605 -380 -380 -380s-380 170.605 -380 380s170.605 380 380 380zM263.494 423.359l40 69.2812
l34.6406 -20s181.822 -104.975 181.865 -105c11.9697 -6.91699 19.9883 -19.8301 19.9883 -34.6367c0 -22.0732 -17.917 -39.9951 -39.9883 -40.0039h-140h-40v80h30.7188l-52.584 30.3594z" />
    <glyph glyph-name="uF0077" unicode="&#xf0077;" 
d="M500 633c-166.159 0 -300 -133.841 -300 -300s133.841 -300 300 -300s300 133.841 300 300s-133.841 300 -300 300zM500 713c209.395 0 380 -170.605 380 -380s-170.605 -380 -380 -380s-380 170.605 -380 380s170.605 380 380 380zM320 293v80h40h70.7188
l-70.3594 121.865l-20 34.6406l69.2812 40l20 -34.6406l105 -181.865c3.39062 -5.87402 5.35547 -12.7314 5.35547 -19.9961c0 -22.0762 -17.9209 -40 -39.9961 -40.0039h-140h-40z" />
    <glyph glyph-name="uF0078" unicode="&#xf0078;" 
d="M500 633c-166.159 0 -300 -133.841 -300 -300s133.841 -300 300 -300s300 133.841 300 300s-133.841 300 -300 300zM500 713c209.395 0 380 -170.605 380 -380s-170.605 -380 -380 -380s-380 170.605 -380 380s170.605 380 380 380zM324.115 388.359l40 69.2812
l34.6406 -20l61.2441 -35.3594v140.719v40h80v-40s-0.0429688 -209.975 0 -210c-0.00390625 -22.0752 -17.9707 -39.9717 -40.0469 -39.9717c-7.26367 0 -14.0791 1.94043 -19.9531 5.33105l-121.244 70z" />
    <glyph glyph-name="uF0079" unicode="&#xf0079;" 
d="M500 633c-166.159 0 -300 -133.841 -300 -300s133.841 -300 300 -300s300 133.841 300 300s-133.841 300 -300 300zM500 713c209.395 0 380 -170.605 380 -380s-170.605 -380 -380 -380s-380 170.605 -380 380s170.605 380 380 380zM324.115 388.359l40 69.2812
l34.6406 -20l86.6035 -50l85 147.225l20 34.6406l69.2812 -40l-20 -34.6406s-105.018 -181.797 -105 -181.865c-6.91602 -11.9746 -19.874 -19.9727 -34.6855 -19.9727c-7.26465 0 -14.0801 1.94043 -19.9551 5.33203l-121.244 70z" />
    <glyph glyph-name="uF007A" unicode="&#xf007a;" 
d="M500 633c-166.159 0 -300 -133.841 -300 -300s133.841 -300 300 -300s300 133.841 300 300s-133.841 300 -300 300zM500 713c209.395 0 380 -170.605 380 -380s-170.605 -380 -380 -380s-380 170.605 -380 380s170.605 380 380 380zM324.115 388.359l40 69.2812
l34.6406 -20l101.244 -58.4531l161.865 93.4531l34.6406 20l40 -69.2812l-34.6406 -20l-181.865 -105c-5.875 -3.3916 -12.7773 -5.33301 -20.043 -5.33301s-14.082 1.94141 -19.957 5.33301l-121.244 70z" />
    <glyph glyph-name="uF007B" unicode="&#xf007b;" 
d="M500 633c-166.159 0 -300 -133.841 -300 -300s133.841 -300 300 -300s300 133.841 300 300s-133.841 300 -300 300zM500 713c209.395 0 380 -170.605 380 -380s-170.605 -380 -380 -380s-380 170.605 -380 380s170.605 380 380 380zM324.115 388.359l40 69.2812
l34.6406 -20l111.963 -64.6406h199.281h40v-80h-40h-210c-7.26562 0 -14.125 1.96777 -20 5.35938l-121.244 70z" />
    <glyph glyph-name="uF007C" unicode="&#xf007c;" 
d="M500 633c-166.159 0 -300 -133.841 -300 -300s133.841 -300 300 -300s300 133.841 300 300s-133.841 300 -300 300zM500 713c209.395 0 380 -170.605 380 -380s-170.605 -380 -380 -380s-380 170.605 -380 380s170.605 380 380 380zM324.115 388.359l40 69.2812
l34.6406 -20l121.244 -70l181.865 -105l34.6406 -20l-40 -69.2812l-34.6406 20l-181.865 105l-121.244 70z" />
    <glyph glyph-name="uF007D" unicode="&#xf007d;" 
d="M500 633c-166.159 0 -300 -133.841 -300 -300s133.841 -300 300 -300s300 133.841 300 300s-133.841 300 -300 300zM500 713c209.395 0 380 -170.605 380 -380s-170.605 -380 -380 -380s-380 170.605 -380 380s170.605 380 380 380zM324.115 388.359l40 69.2812
l34.6406 -20s121.176 -69.9316 121.244 -70c6.10059 -3.52246 11.1182 -8.54004 14.6406 -14.6406l105 -181.865l20 -34.6406l-69.2812 -40l-20 34.6406l-99.6406 172.584l-111.963 64.6406z" />
    <glyph glyph-name="uF007E" unicode="&#xf007e;" 
d="M500 633c-166.159 0 -300 -133.841 -300 -300s133.841 -300 300 -300s300 133.841 300 300s-133.841 300 -300 300zM500 713c209.395 0 380 -170.605 380 -380s-170.605 -380 -380 -380s-380 170.605 -380 380s170.605 380 380 380zM324.115 388.359l40 69.2812
l34.6406 -20s121.201 -69.9746 121.244 -70c11.9756 -6.91504 19.999 -19.8301 20 -34.6406v-210v-40h-80v40v186.906l-101.244 58.4531z" />
    <glyph glyph-name="uF007F" unicode="&#xf007f;" 
d="M500 633c-166.159 0 -300 -133.841 -300 -300s133.841 -300 300 -300s300 133.841 300 300s-133.841 300 -300 300zM500 713c209.395 0 380 -170.605 380 -380s-170.605 -380 -380 -380s-380 170.605 -380 380s170.605 380 380 380zM324.115 388.359l40 69.2812
l34.6406 -20s121.176 -70.0176 121.244 -70c11.9746 -6.91602 19.9727 -19.874 19.9727 -34.6855c0 -7.26465 -1.94043 -14.0801 -5.33203 -19.9551l-105 -181.865l-20 -34.6406l-69.2812 40l20 34.6406l85 147.225l-86.6035 50z" />
    <glyph glyph-name="uF0080" unicode="&#xf0080;" 
d="M500 633c-166.159 0 -300 -133.841 -300 -300s133.841 -300 300 -300s300 133.841 300 300s-133.841 300 -300 300zM500 713c209.395 0 380 -170.605 380 -380s-170.605 -380 -380 -380s-380 170.605 -380 380s170.605 380 380 380zM263.494 242.641l34.6406 20
l121.865 70.3594l-61.2441 35.3594l-34.6406 20l40 69.2812l34.6406 -20s121.244 -69.9492 121.244 -70c11.9736 -6.91602 20.0381 -19.8057 20.0381 -34.6152s-8.06445 -27.75 -20.0381 -34.666l-181.865 -105l-34.6406 -20z" />
    <glyph glyph-name="uF0081" unicode="&#xf0081;" 
d="M500 633c-166.159 0 -300 -133.841 -300 -300s133.841 -300 300 -300s300 133.841 300 300s-133.841 300 -300 300zM500 713c209.395 0 380 -170.605 380 -380s-170.605 -380 -380 -380s-380 170.605 -380 380s170.605 380 380 380zM250 293v80h40h60.7188
l-26.6035 15.3594l40 69.2812l34.6406 -20s121.201 -69.9746 121.244 -70c11.9697 -6.91699 19.9883 -19.8301 19.9883 -34.6367c0 -22.0732 -17.917 -39.9951 -39.9883 -40.0039h-210h-40z" />
    <glyph glyph-name="uF0082" unicode="&#xf0082;" 
d="M500 633c-166.159 0 -300 -133.841 -300 -300s133.841 -300 300 -300s300 133.841 300 300s-133.841 300 -300 300zM500 713c209.395 0 380 -170.605 380 -380s-170.605 -380 -380 -380s-380 170.605 -380 380s170.605 380 380 380zM263.494 423.359l40 69.2812
l34.6406 -20l25.9805 -15l34.6406 -20s121.159 -69.9492 121.244 -70c11.6963 -6.98438 19.4512 -19.7188 19.4512 -34.3213c0 -22.0781 -17.9248 -40.0039 -40.0039 -40.0039c-7.05664 0 -13.6885 1.83105 -19.4473 5.04395l-121.244 70l-34.6406 20l-25.9805 15z" />
    <glyph glyph-name="uF0083" unicode="&#xf0083;" 
d="M500 633c-166.159 0 -300 -133.841 -300 -300s133.841 -300 300 -300s300 133.841 300 300s-133.841 300 -300 300zM500 713c209.395 0 380 -170.605 380 -380s-170.605 -380 -380 -380s-380 170.605 -380 380s170.605 380 380 380zM324.115 388.359l40 69.2812
l26.6035 -15.3594l-30.3594 52.584l-20 34.6406l69.2812 40l20 -34.6406l105 -181.865c3.3877 -5.87305 5.30859 -12.7021 5.30859 -19.9629c0 -22.0791 -17.9248 -40.0039 -40.0039 -40.0039c-7.26074 0 -14.0723 1.93848 -19.9453 5.32617l-121.244 70z" />
    <glyph glyph-name="uF0084" unicode="&#xf0084;" 
d="M500 633c-166.159 0 -300 -133.841 -300 -300s133.841 -300 300 -300s300 133.841 300 300s-133.841 300 -300 300zM500 713c209.395 0 380 -170.605 380 -380s-170.605 -380 -380 -380s-380 170.605 -380 380s170.605 380 380 380zM375.359 468.885l69.2812 40
l15.3594 -26.6035v60.7188v40h80v-40v-210c-0.00878906 -22.0713 -17.9053 -40.0312 -39.9785 -40.0312c-14.8066 0 -27.7451 8.06152 -34.6621 20.0312l-70 121.244z" />
    <glyph glyph-name="uF0085" unicode="&#xf0085;" 
d="M500 633c-166.159 0 -300 -133.841 -300 -300s133.841 -300 300 -300s300 133.841 300 300s-133.841 300 -300 300zM500 713c209.395 0 380 -170.605 380 -380s-170.605 -380 -380 -380s-380 170.605 -380 380s170.605 380 380 380zM375.359 468.885l69.2812 40
l20 -34.6406l35.3594 -61.2441l70.3594 121.865l20 34.6406l69.2812 -40l-20 -34.6406s-104.949 -181.865 -105 -181.865c-6.91602 -11.9736 -19.8057 -20.0381 -34.6152 -20.0381s-27.75 8.06445 -34.666 20.0381l-70 121.244z" />
    <glyph glyph-name="uF0086" unicode="&#xf0086;" 
d="M500 633c-166.159 0 -300 -133.841 -300 -300s133.841 -300 300 -300s300 133.841 300 300s-133.841 300 -300 300zM500 713c209.395 0 380 -170.605 380 -380s-170.605 -380 -380 -380s-380 170.605 -380 380s170.605 380 380 380zM375.359 468.885l69.2812 40
l20 -34.6406l50 -86.6035l147.225 85l34.6406 20l40 -69.2812l-34.6406 -20l-181.865 -105c-5.875 -3.3916 -12.708 -5.40039 -19.9727 -5.40039c-14.8105 0 -27.752 8.06641 -34.668 20.041l-70 121.244z" />
    <glyph glyph-name="uF0087" unicode="&#xf0087;" 
d="M500 633c-166.159 0 -300 -133.841 -300 -300s133.841 -300 300 -300s300 133.841 300 300s-133.841 300 -300 300zM500 713c209.395 0 380 -170.605 380 -380s-170.605 -380 -380 -380s-380 170.605 -380 380s170.605 380 380 380zM375.359 468.885l69.2812 40
l20 -34.6406l58.4531 -101.244h186.906h40v-80h-40s-209.975 -0.0429688 -210 0c-14.8105 0.000976562 -27.7256 8.02441 -34.6406 20l-70 121.244z" />
    <glyph glyph-name="uF0088" unicode="&#xf0088;" 
d="M500 633c-166.159 0 -300 -133.841 -300 -300s133.841 -300 300 -300s300 133.841 300 300s-133.841 300 -300 300zM500 713c209.395 0 380 -170.605 380 -380s-170.605 -380 -380 -380s-380 170.605 -380 380s170.605 380 380 380zM375.359 468.885l69.2812 40
l20 -34.6406l64.6406 -111.963l172.584 -99.6406l34.6406 -20l-40 -69.2812l-34.6406 20s-181.797 104.932 -181.865 105c-6.10059 3.52246 -11.1182 8.54004 -14.6406 14.6406l-70 121.244z" />
    <glyph glyph-name="uF0089" unicode="&#xf0089;" 
d="M500 633c-166.159 0 -300 -133.841 -300 -300s133.841 -300 300 -300s300 133.841 300 300s-133.841 300 -300 300zM500 713c209.395 0 380 -170.605 380 -380s-170.605 -380 -380 -380s-380 170.605 -380 380s170.605 380 380 380zM375.359 468.885l69.2812 40
l20 -34.6406l70 -121.244l105 -181.865l20 -34.6406l-69.2812 -40l-20 34.6406l-105 181.865l-70 121.244z" />
    <glyph glyph-name="uF008A" unicode="&#xf008a;" 
d="M500 633c-166.159 0 -300 -133.841 -300 -300s133.841 -300 300 -300s300 133.841 300 300s-133.841 300 -300 300zM500 713c209.395 0 380 -170.605 380 -380s-170.605 -380 -380 -380s-380 170.605 -380 380s170.605 380 380 380zM375.359 468.885l69.2812 40
l20 -34.6406l70 -121.244c3.3916 -5.875 5.35938 -12.7344 5.35938 -20v-210v-40h-80v40v199.281l-64.6406 111.963z" />
    <glyph glyph-name="uF008B" unicode="&#xf008b;" 
d="M500 633c-166.159 0 -300 -133.841 -300 -300s133.841 -300 300 -300s300 133.841 300 300s-133.841 300 -300 300zM500 713c209.395 0 380 -170.605 380 -380s-170.605 -380 -380 -380s-380 170.605 -380 380s170.605 380 380 380zM340.359 136.494l20 34.6406
l93.4531 161.865l-58.4531 101.244l-20 34.6406l69.2812 40l20 -34.6406l70 -121.244c3.3916 -5.875 5.33301 -12.7773 5.33301 -20.043s-1.94141 -14.082 -5.33301 -19.957l-105 -181.865l-20 -34.6406z" />
    <glyph glyph-name="uF008C" unicode="&#xf008c;" 
d="M500 633c-166.159 0 -300 -133.841 -300 -300s133.841 -300 300 -300s300 133.841 300 300s-133.841 300 -300 300zM500 713c209.395 0 380 -170.605 380 -380s-170.605 -380 -380 -380s-380 170.605 -380 380s170.605 380 380 380zM263.494 242.641l34.6406 20
l147.225 85l-50 86.6035l-20 34.6406l69.2812 40l20 -34.6406l70 -121.244c3.3916 -5.875 5.40039 -12.708 5.40039 -19.9727c0 -14.8105 -8.06641 -27.752 -20.041 -34.668l-181.865 -105l-34.6406 -20z" />
    <glyph glyph-name="uF008D" unicode="&#xf008d;" 
d="M500 633c-166.159 0 -300 -133.841 -300 -300s133.841 -300 300 -300s300 133.841 300 300s-133.841 300 -300 300zM500 713c209.395 0 380 -170.605 380 -380s-170.605 -380 -380 -380s-380 170.605 -380 380s170.605 380 380 380zM250 293v80h40h140.719
l-35.3594 61.2441l-20 34.6406l69.2812 40l20 -34.6406l70 -121.244c3.39062 -5.87402 5.35547 -12.7314 5.35547 -19.9961c0 -22.0762 -17.9209 -40 -39.9961 -40.0039h-210h-40z" />
    <glyph glyph-name="uF008E" unicode="&#xf008e;" 
d="M500 633c-166.159 0 -300 -133.841 -300 -300s133.841 -300 300 -300s300 133.841 300 300s-133.841 300 -300 300zM500 713c209.395 0 380 -170.605 380 -380s-170.605 -380 -380 -380s-380 170.605 -380 380s170.605 380 380 380zM263.494 423.359l40 69.2812
l34.6406 -20l52.584 -30.3594l-15.3594 26.6035l69.2812 40l20 -34.6406l70 -121.244c3.3877 -5.87305 5.30859 -12.7021 5.30859 -19.9629c0 -22.0791 -17.9248 -40.0039 -40.0039 -40.0039c-7.26074 0 -14.0723 1.93848 -19.9453 5.32617l-181.865 105z" />
    <glyph glyph-name="uF008F" unicode="&#xf008f;" 
d="M500 633c-166.159 0 -300 -133.841 -300 -300s133.841 -300 300 -300s300 133.841 300 300s-133.841 300 -300 300zM500 713c209.395 0 380 -170.605 380 -380s-170.605 -380 -380 -380s-380 170.605 -380 380s170.605 380 380 380zM340.359 529.506l69.2812 40
l20 -34.6406l15 -25.9805l20 -34.6406l70 -121.244c3.21289 -5.75879 5.09473 -12.4756 5.09473 -19.5322c0 -22.0791 -17.9258 -40.0049 -40.0049 -40.0049c-14.6016 0 -27.3867 7.84082 -34.3711 19.5371l-70 121.244l-20 34.6406l-15 25.9805z" />
  </font>
</defs>
</svg>
