<?xml version="1.0" encoding="UTF-8" standalone="no"?>
<svg
   height="1000"
   width="1000"
   version="1.1"
   id="h06m30"
   viewBox="0 0 1000 1000"
   sodipodi:docname="h00m00_out.svg"
   inkscape:version="1.2 (dc2aeda, 2022-05-15)"
   xmlns:inkscape="http://www.inkscape.org/namespaces/inkscape"
   xmlns:sodipodi="http://sodipodi.sourceforge.net/DTD/sodipodi-0.dtd"
   xmlns="http://www.w3.org/2000/svg"
   xmlns:svg="http://www.w3.org/2000/svg">
  <defs
     id="defs15" />
  <sodipodi:namedview
     id="namedview13"
     pagecolor="#505050"
     bordercolor="#ffffff"
     borderopacity="1"
     inkscape:showpageshadow="0"
     inkscape:pageopacity="0"
     inkscape:pagecheckerboard="1"
     inkscape:deskcolor="#505050"
     showgrid="false"
     inkscape:zoom="1.027"
     inkscape:cx="494.6446"
     inkscape:cy="499.51315"
     inkscape:window-width="2560"
     inkscape:window-height="1412"
     inkscape:window-x="0"
     inkscape:window-y="0"
     inkscape:window-maximized="0"
     inkscape:current-layer="clock-face" />
  <!--g id="rotation" transform-origin="500 426" transform="rotate(180)"-->
  <g
     id="clock-face"
     transform="translate(0,74)">
    <path
       id="frame"
       style="color:#000000;fill:#000000;-inkscape-stroke:none"
       d="M 500,111 C 326.38599,111 185,252.38599 185,426 185,599.61401 326.38599,741 500,741 673.61401,741 815,599.61401 815,426 815,252.38599 673.61401,111 500,111 Z m 0,60 c 141.18767,0 255,113.81233 255,255 0,141.18767 -113.81233,255 -255,255 -141.18767,0 -255,-113.81233 -255,-255 0,-4.41211 0.11043,-8.79829 0.33008,-13.1543 C 252.13927,277.80943 363.22445,171 500,171 Z m 0,25 a 30,30 0 0 0 -30,30 v 70 130 a 30,30 0 0 0 0.95508,7.25391 30,30 0 0 0 0.7832,2.23828 30,30 0 0 0 1.89844,4.58398 30,30 0 0 0 1.47266,2.34571 30,30 0 0 0 2.80078,3.64843 30,30 0 0 0 2.01953,2.01953 30,30 0 0 0 3.64843,2.80078 30,30 0 0 0 2.34571,1.47266 30,30 0 0 0 4.58398,1.89844 30,30 0 0 0 2.23828,0.7832 A 30,30 0 0 0 500,456 a 30,30 0 0 0 7.25391,-0.95508 30,30 0 0 0 2.23828,-0.7832 30,30 0 0 0 4.58398,-1.89844 30,30 0 0 0 2.34571,-1.47266 30,30 0 0 0 3.64843,-2.80078 30,30 0 0 0 2.01953,-2.01953 30,30 0 0 0 2.80078,-3.64843 30,30 0 0 0 1.47266,-2.34571 30,30 0 0 0 1.89844,-4.58398 30,30 0 0 0 0.7832,-2.23828 A 30,30 0 0 0 530,426 V 296 226 a 30,30 0 0 0 -30,-30 z" />
  </g>
  <g
     id="hour-hand"
     transform-origin="500 426"
     transform="rotate(180,500,463)" />
  <g
     id="minute-hand"
     transform-origin="500 426"
     transform="rotate(180,500,463)" />
  <!-- /g -->
</svg>
