<?xml version="1.0" encoding="UTF-8" standalone="no"?>
<svg
   height="1000"
   width="1000"
   version="1.1"
   id="h06m45"
   viewBox="0 0 1000 1000"
   sodipodi:docname="h00m15.svg"
   xmlns:inkscape="http://www.inkscape.org/namespaces/inkscape"
   xmlns:sodipodi="http://sodipodi.sourceforge.net/DTD/sodipodi-0.dtd"
   xmlns="http://www.w3.org/2000/svg"
   xmlns:svg="http://www.w3.org/2000/svg">
  <defs
     id="defs15" />
  <sodipodi:namedview
     id="namedview13"
     pagecolor="#505050"
     bordercolor="#ffffff"
     borderopacity="1"
     inkscape:showpageshadow="0"
     inkscape:pageopacity="0"
     inkscape:pagecheckerboard="1"
     inkscape:deskcolor="#505050" />
  <!--g id="rotation" transform-origin="500 426" transform="rotate(180)"-->
  <g
     id="clock-face"
     transform="translate(0,74)">
    <path
       id="frame"
       style="color:#000000;fill:#000000;-inkscape-stroke:none"
       d="M 500 111 C 326.38599 111 185 252.38599 185 426 C 185 599.61401 326.38599 741 500 741 C 673.61401 741 815 599.61401 815 426 C 815 252.38599 673.61401 111 500 111 z M 500 171 C 641.18767 171 755 284.81233 755 426 C 755 567.18767 641.18767 681 500 681 C 358.81233 681 245 567.18767 245 426 C 245 421.58789 245.11043 417.20171 245.33008 412.8457 C 252.13927 277.80943 363.22445 171 500 171 z M 500 266 A 30 30 0 0 0 470 296 L 470 426 A 30 30 0 0 0 470.95508 433.25391 A 30 30 0 0 0 471.73828 435.49219 A 30 30 0 0 0 473.63672 440.07617 A 30 30 0 0 0 475.10938 442.42188 A 30 30 0 0 0 477.91016 446.07031 A 30 30 0 0 0 479.92969 448.08984 A 30 30 0 0 0 483.57812 450.89062 A 30 30 0 0 0 485.92383 452.36328 A 30 30 0 0 0 490.50781 454.26172 A 30 30 0 0 0 492.74609 455.04492 A 30 30 0 0 0 500 456 L 700 456 A 30 30 0 0 0 730 426 A 30 30 0 0 0 700 396 L 530 396 L 530 296 A 30 30 0 0 0 500 266 z " />
  </g>
  <g
     id="hour-hand"
     transform-origin="500 426"
     transform="rotate(180,500,463)" />
  <g
     id="minute-hand"
     transform-origin="500 426"
     transform="rotate(-90,537,463)" />
  <!-- /g -->
</svg>
