<?xml version="1.0" encoding="UTF-8" standalone="no"?>
<svg
   height="1000"
   width="1000"
   version="1.1"
   id="h07m30"
   viewBox="0 0 1000 1000"
   sodipodi:docname="h01m00.svg"
   xmlns:inkscape="http://www.inkscape.org/namespaces/inkscape"
   xmlns:sodipodi="http://sodipodi.sourceforge.net/DTD/sodipodi-0.dtd"
   xmlns="http://www.w3.org/2000/svg"
   xmlns:svg="http://www.w3.org/2000/svg">
  <defs
     id="defs15" />
  <sodipodi:namedview
     id="namedview13"
     pagecolor="#505050"
     bordercolor="#ffffff"
     borderopacity="1"
     inkscape:showpageshadow="0"
     inkscape:pageopacity="0"
     inkscape:pagecheckerboard="1"
     inkscape:deskcolor="#505050" />
  <!--g id="rotation" transform-origin="500 426" transform="rotate(180)"-->
  <g
     id="clock-face"
     transform="translate(0,74)">
    <path
       id="frame"
       style="color:#000000;fill:#000000;-inkscape-stroke:none"
       d="M 500 111 C 445.18895 111 393.60806 125.11999 348.65625 149.86914 C 346.63954 150.96965 344.67196 152.16701 342.67773 153.3125 C 340.62745 154.50057 338.54626 155.64042 336.52539 156.87305 C 292.62014 183.42756 254.60471 221.03569 227.20117 268.5 C 225.92854 270.70426 224.78742 272.94774 223.57422 275.16992 C 223.26248 275.73867 222.95286 276.30805 222.64453 276.87891 C 222.64135 276.88479 222.63795 276.8906 222.63477 276.89648 C 220.62653 280.62958 218.69778 284.38287 216.85547 288.16211 C 216.33843 289.21925 215.83363 290.282 215.32812 291.3457 C 215.32501 291.35226 215.32148 291.35867 215.31836 291.36523 C 213.68892 294.8056 212.11708 298.25856 210.62305 301.73242 C 209.99205 303.19515 209.38473 304.66857 208.77539 306.14258 C 208.77295 306.14849 208.77002 306.15424 208.76758 306.16016 C 207.46443 309.32262 206.19863 312.49146 205.00586 315.67773 C 204.30851 317.53481 203.6474 319.40785 202.98438 321.28125 C 201.96887 324.15988 200.97579 327.04071 200.04883 329.93555 C 199.3256 332.18643 198.65008 334.45608 197.97656 336.72852 C 197.97539 336.73246 197.97382 336.73629 197.97266 336.74023 C 197.21298 339.31321 196.4624 341.88551 195.77148 344.46875 C 195.07151 347.07551 194.429 349.70322 193.79492 352.33594 C 193.24642 354.6234 192.70056 356.90956 192.20508 359.20312 C 191.55945 362.17738 190.97859 365.17316 190.41797 368.17773 C 190.05411 370.13888 189.68897 372.09831 189.36328 374.0625 C 188.80739 377.39383 188.32302 380.74592 187.87305 384.11133 C 187.65712 385.73958 187.44006 387.36671 187.25 388.99609 C 186.81177 392.71739 186.45119 396.45947 186.14453 400.21875 C 186.14411 400.22397 186.143 400.22915 186.14258 400.23438 C 186.04645 401.43187 185.95146 402.62858 185.86914 403.82617 C 185.57549 408.01845 185.36921 412.23157 185.24219 416.4668 C 185.24199 416.47331 185.24043 416.47981 185.24023 416.48633 C 185.22204 417.12851 185.20566 417.77004 185.19141 418.41211 C 185.131 420.94262 185 423.4553 185 426 C 185 480.81105 199.11999 532.39194 223.86914 577.34375 C 224.96965 579.36046 226.16701 581.32804 227.3125 583.32227 C 228.50057 585.37255 229.64042 587.45374 230.87305 589.47461 C 257.42756 633.37986 295.03569 671.39529 342.5 698.79883 C 344.70426 700.07146 346.94774 701.21258 349.16992 702.42578 C 349.73867 702.73752 350.30805 703.04714 350.87891 703.35547 C 350.88479 703.35865 350.8906 703.36205 350.89648 703.36523 C 354.62958 705.37347 358.38287 707.30222 362.16211 709.14453 C 363.21925 709.66157 364.282 710.16637 365.3457 710.67188 C 365.35226 710.67499 365.35867 710.67852 365.36523 710.68164 C 368.8056 712.31108 372.25856 713.88292 375.73242 715.37695 C 377.19515 716.00795 378.66857 716.61527 380.14258 717.22461 C 380.14849 717.22705 380.15424 717.22998 380.16016 717.23242 C 383.32262 718.53557 386.49146 719.80137 389.67773 720.99414 C 391.53481 721.69149 393.40785 722.3526 395.28125 723.01562 C 398.15988 724.03113 401.04071 725.02421 403.93555 725.95117 C 406.18643 726.6744 408.45608 727.34992 410.72852 728.02344 C 410.73246 728.02461 410.73629 728.02618 410.74023 728.02734 C 413.31321 728.78702 415.88551 729.5376 418.46875 730.22852 C 421.07551 730.92849 423.70322 731.571 426.33594 732.20508 C 428.6234 732.75358 430.90956 733.29944 433.20312 733.79492 C 436.17738 734.44055 439.17316 735.02141 442.17773 735.58203 C 444.13888 735.94589 446.09831 736.31103 448.0625 736.63672 C 451.39383 737.19261 454.74592 737.67698 458.11133 738.12695 C 459.73958 738.34288 461.36671 738.55994 462.99609 738.75 C 466.71739 739.18823 470.45947 739.54881 474.21875 739.85547 C 474.22397 739.85589 474.22915 739.857 474.23438 739.85742 C 475.43187 739.95355 476.62858 740.04854 477.82617 740.13086 C 482.01845 740.42451 486.23157 740.63079 490.4668 740.75781 C 490.47331 740.75801 490.47981 740.75957 490.48633 740.75977 C 491.12851 740.77796 491.77004 740.79434 492.41211 740.80859 C 494.94262 740.869 497.4553 741 500 741 C 505.42544 741 510.81857 740.86266 516.17773 740.58984 C 564.96005 738.10654 610.84147 724.43023 651.34375 702.13086 C 653.36046 701.03035 655.32804 699.83299 657.32227 698.6875 C 659.27202 697.55768 661.25847 696.48458 663.18164 695.31445 C 663.2808 695.25412 663.37552 695.18739 663.47461 695.12695 C 707.37986 668.57244 745.39529 630.96431 772.79883 583.5 C 774.07146 581.29574 775.21258 579.05226 776.42578 576.83008 C 776.73752 576.26133 777.04714 575.69195 777.35547 575.12109 C 779.36714 571.38218 781.29931 567.6231 783.14453 563.83789 C 783.66157 562.78075 784.16637 561.718 784.67188 560.6543 C 786.30469 557.20743 787.88007 553.74807 789.37695 550.26758 C 790.00795 548.80485 790.61527 547.33143 791.22461 545.85742 C 792.5304 542.68908 793.79913 539.5145 794.99414 536.32227 C 795.69149 534.46519 796.3526 532.59215 797.01562 530.71875 C 798.03113 527.84012 799.02421 524.95929 799.95117 522.06445 C 800.6744 519.81357 801.34992 517.54392 802.02344 515.27148 C 802.78438 512.69459 803.53654 510.11845 804.22852 507.53125 C 804.92849 504.92449 805.571 502.29678 806.20508 499.66406 C 806.75358 497.3766 807.29944 495.09044 807.79492 492.79688 C 808.44055 489.82262 809.02141 486.82684 809.58203 483.82227 C 809.94589 481.86112 810.31103 479.90169 810.63672 477.9375 C 811.19261 474.60617 811.67698 471.25408 812.12695 467.88867 C 812.34288 466.26042 812.55994 464.63329 812.75 463.00391 C 813.18823 459.28261 813.54881 455.54053 813.85547 451.78125 C 813.95208 450.57853 814.04818 449.37665 814.13086 448.17383 C 814.42451 443.98155 814.63079 439.76843 814.75781 435.5332 C 814.77623 434.88449 814.7942 434.23648 814.80859 433.58789 C 814.869 431.05738 815 428.5447 815 426 C 815 420.57456 814.86266 415.18143 814.58984 409.82227 C 812.10654 361.03995 798.43023 315.15853 776.13086 274.65625 C 775.03035 272.63954 773.83299 270.67196 772.6875 268.67773 C 771.49943 266.62745 770.35958 264.54626 769.12695 262.52539 C 742.57244 218.62014 704.96431 180.60471 657.5 153.20117 C 655.29574 151.92854 653.05226 150.78742 650.83008 149.57422 C 650.26133 149.26248 649.69195 148.95286 649.12109 148.64453 C 645.38218 146.63286 641.6231 144.70069 637.83789 142.85547 C 636.78075 142.33843 635.718 141.83363 634.6543 141.32812 C 631.20743 139.69531 627.74807 138.11993 624.26758 136.62305 C 622.80485 135.99205 621.33143 135.38473 619.85742 134.77539 C 616.68908 133.4696 613.5145 132.20087 610.32227 131.00586 C 609.59765 130.73376 608.89313 130.42119 608.16602 130.1543 C 607.02964 129.73719 605.86117 129.38869 604.71875 128.98438 C 601.84012 127.96887 598.95929 126.97579 596.06445 126.04883 C 593.81357 125.3256 591.54392 124.65008 589.27148 123.97656 C 586.69459 123.21562 584.11845 122.46346 581.53125 121.77148 C 580.55009 121.50802 579.59035 121.19362 578.60547 120.93945 C 576.97371 120.51834 575.30585 120.19034 573.66406 119.79492 C 571.3766 119.24642 569.09044 118.70056 566.79688 118.20508 C 565.65255 117.95668 564.52974 117.64994 563.38086 117.41406 C 561.54366 117.03686 559.67084 116.7629 557.82227 116.41797 C 555.86112 116.05411 553.90169 115.68897 551.9375 115.36328 C 550.58253 115.13718 549.24936 114.84734 547.88867 114.63867 C 545.90396 114.33431 543.88525 114.14 541.88867 113.87305 C 540.26042 113.65712 538.63329 113.44006 537.00391 113.25 C 533.28261 112.81177 529.54053 112.45119 525.78125 112.14453 C 524.57853 112.04792 523.37665 111.95182 522.17383 111.86914 C 517.98155 111.57549 513.76843 111.36921 509.5332 111.24219 C 508.88449 111.22377 508.23648 111.2058 507.58789 111.19141 C 505.05738 111.131 502.5447 111 500 111 z M 500 171 C 517.43132 171 534.44091 172.74966 550.875 176.05664 C 551.24792 176.13315 551.62138 176.20302 551.99414 176.28125 C 555.0191 176.90408 558.00792 177.62118 560.99219 178.34961 C 562.67939 178.76842 564.36805 179.17423 566.05078 179.62891 C 567.68577 180.0638 569.30209 180.54154 570.92383 181.00781 C 570.92976 181.00952 570.93548 181.01197 570.94141 181.01367 C 573.92238 181.88356 576.9022 182.76585 579.86523 183.75 C 579.99545 183.7927 580.12378 183.83991 580.25391 183.88281 C 580.46347 183.95191 580.67153 184.02412 580.88086 184.09375 C 596.77786 189.44826 612.39378 196.44248 627.5 205.16406 C 657.65423 222.57361 682.87999 245.16025 702.75391 271.12305 C 702.84289 271.23951 702.93661 271.35212 703.02539 271.46875 C 703.25354 271.76845 703.49581 272.05668 703.72266 272.35742 C 705.58178 274.81752 707.35241 277.33306 709.11523 279.85156 C 709.75773 280.77081 710.43189 281.66563 711.0625 282.59375 C 711.06544 282.59807 711.06737 282.6031 711.07031 282.60742 C 712.51081 284.7249 713.86546 286.88949 715.23828 289.04492 C 716.0889 290.38195 716.97652 291.69295 717.80273 293.04688 C 717.80471 293.05012 717.80662 293.0534 717.80859 293.05664 C 718.92111 294.8779 719.95483 296.73999 721.01953 298.58594 C 722.02451 300.33013 723.06083 302.0541 724.02539 303.82422 C 724.02721 303.82756 724.02943 303.83065 724.03125 303.83398 C 724.79178 305.2282 725.48512 306.65361 726.21875 308.06055 C 727.41265 310.35301 728.6224 312.63575 729.74805 314.96875 C 730.19273 315.88891 730.59005 316.82889 731.02344 317.75391 C 732.35509 320.6012 733.67779 323.45342 734.90625 326.35742 C 734.90705 326.35931 734.9074 326.36139 734.9082 326.36328 C 735.14088 326.91197 735.34543 327.47129 735.57422 328.02148 C 748.07621 358.16774 755 391.24751 755 426 C 755 434.82423 754.55555 443.5416 753.6875 452.13086 C 753.25347 456.42549 752.71344 460.68805 752.07031 464.91602 C 751.45884 468.93591 750.73921 472.92001 749.94336 476.875 C 749.86685 477.24792 749.79698 477.62138 749.71875 477.99414 C 749.09592 481.0191 748.37882 484.00792 747.65039 486.99219 C 747.23158 488.67939 746.82577 490.36805 746.37109 492.05078 C 745.9362 493.68577 745.45846 495.30209 744.99219 496.92383 C 744.99048 496.92976 744.98803 496.93548 744.98633 496.94141 C 744.11644 499.92238 743.23415 502.9022 742.25 505.86523 C 742.2073 505.99545 742.16009 506.12378 742.11719 506.25391 C 742.04809 506.46347 741.97588 506.67153 741.90625 506.88086 C 736.55174 522.77786 729.55752 538.39378 720.83594 553.5 C 703.42639 583.65423 680.83975 608.87999 654.87695 628.75391 C 654.76049 628.84289 654.64788 628.93661 654.53125 629.02539 C 654.23155 629.25354 653.94332 629.49581 653.64258 629.72266 C 651.18248 631.58178 648.66694 633.35241 646.14844 635.11523 C 645.22919 635.75773 644.33437 636.43189 643.40625 637.0625 C 643.40193 637.06544 643.3969 637.06737 643.39258 637.07031 C 641.2751 638.51081 639.11051 639.86546 636.95508 641.23828 C 635.61805 642.0889 634.30705 642.97652 632.95312 643.80273 C 632.94988 643.80471 632.9466 643.80662 632.94336 643.80859 C 631.1221 644.92111 629.26001 645.95483 627.41406 647.01953 C 625.66987 648.02451 623.9459 649.06083 622.17578 650.02539 C 622.17244 650.02721 622.16935 650.02943 622.16602 650.03125 C 620.7718 650.79178 619.34639 651.48512 617.93945 652.21875 C 615.64699 653.41265 613.36425 654.6224 611.03125 655.74805 C 610.11109 656.19273 609.17111 656.59005 608.24609 657.02344 C 605.3988 658.35509 602.54658 659.67779 599.64258 660.90625 C 599.64069 660.90705 599.63861 660.9074 599.63672 660.9082 C 599.08803 661.14088 598.52871 661.34543 597.97852 661.57422 C 583.14152 667.72729 567.60546 672.55069 551.49414 675.83398 C 539.02603 678.37484 526.22232 680.01097 513.1543 680.66992 C 508.79829 680.88957 504.41211 681 500 681 C 482.56868 681 465.55909 679.25034 449.125 675.94336 C 448.75208 675.86685 448.37862 675.79698 448.00586 675.71875 C 444.9809 675.09592 441.99208 674.37882 439.00781 673.65039 C 437.32061 673.23158 435.63195 672.82577 433.94922 672.37109 C 432.31423 671.9362 430.69791 671.45846 429.07617 670.99219 C 426.08924 670.12079 423.10368 669.2361 420.13477 668.25 C 420.00455 668.2073 419.87622 668.16009 419.74609 668.11719 C 419.53653 668.04809 419.32847 667.97588 419.11914 667.90625 C 403.22214 662.55174 387.60622 655.55752 372.5 646.83594 C 342.34577 629.42639 317.12001 606.83975 297.24609 580.87695 C 297.15711 580.76049 297.06339 580.64788 296.97461 580.53125 C 296.74646 580.23155 296.50419 579.94332 296.27734 579.64258 C 294.41822 577.18248 292.64759 574.66694 290.88477 572.14844 C 290.24227 571.22919 289.56811 570.33437 288.9375 569.40625 C 287.49391 567.28451 286.13735 565.11493 284.76172 562.95508 C 283.9111 561.61805 283.02348 560.30705 282.19727 558.95312 C 281.08268 557.12866 280.04706 555.26329 278.98047 553.41406 C 277.97549 551.66987 276.93917 549.9459 275.97461 548.17578 C 275.2122 546.77827 274.51663 545.34975 273.78125 543.93945 C 272.58735 541.64699 271.3776 539.36425 270.25195 537.03125 C 269.80727 536.11109 269.40995 535.17111 268.97656 534.24609 C 267.64491 531.3988 266.32221 528.54658 265.09375 525.64258 C 264.86025 525.09201 264.65535 524.53061 264.42578 523.97852 C 251.92379 493.83226 245 460.75249 245 426 C 245 421.58789 245.11043 417.20171 245.33008 412.8457 C 245.97822 399.99205 247.5867 387.39939 250.05664 375.125 C 250.13315 374.75208 250.20302 374.37862 250.28125 374.00586 C 250.90408 370.9809 251.62118 367.99208 252.34961 365.00781 C 252.76842 363.32061 253.17423 361.63195 253.62891 359.94922 C 254.0638 358.31423 254.54154 356.69791 255.00781 355.07617 C 255.87921 352.08924 256.7639 349.10368 257.75 346.13477 C 257.7927 346.00455 257.83991 345.87622 257.88281 345.74609 C 257.95191 345.53653 258.02412 345.32847 258.09375 345.11914 C 263.44826 329.22214 270.44248 313.60622 279.16406 298.5 C 296.57361 268.34577 319.16025 243.12001 345.12305 223.24609 C 345.23951 223.15711 345.35212 223.06339 345.46875 222.97461 C 345.76845 222.74646 346.05668 222.50419 346.35742 222.27734 C 348.81752 220.41822 351.33306 218.64759 353.85156 216.88477 C 354.77081 216.24227 355.66563 215.56811 356.59375 214.9375 C 358.71549 213.49391 360.88507 212.13735 363.04492 210.76172 C 364.38195 209.9111 365.69295 209.02348 367.04688 208.19727 C 368.87134 207.08268 370.73671 206.04706 372.58594 204.98047 C 374.33013 203.97549 376.0541 202.93917 377.82422 201.97461 C 379.22173 201.2122 380.65025 200.51663 382.06055 199.78125 C 384.35301 198.58735 386.63575 197.3776 388.96875 196.25195 C 389.88891 195.80727 390.82889 195.40995 391.75391 194.97656 C 394.6012 193.64491 397.45342 192.32221 400.35742 191.09375 C 400.90799 190.86025 401.46939 190.65535 402.02148 190.42578 C 432.16774 177.92379 465.24751 171 500 171 z M 500 196 A 30 30 0 0 0 470 226 L 470 426 A 30 30 0 0 0 470.23438 427.78711 A 30 30 0 0 0 470.83203 432.32227 A 30 30 0 0 0 471.57617 435.10547 A 30 30 0 0 0 473.33398 439.34375 A 30 30 0 0 0 474.62695 441.79102 A 30 30 0 0 0 477.6543 445.73633 A 30 30 0 0 0 479.19336 447.52344 A 30 30 0 0 0 485 451.98047 A 30 30 0 0 0 491.76172 454.7832 A 30 30 0 0 0 494.08984 455.22266 A 30 30 0 0 0 499.00586 455.86914 A 30 30 0 0 0 500 456 A 30 30 0 0 0 501.78711 455.76562 A 30 30 0 0 0 506.32227 455.16797 A 30 30 0 0 0 509.10547 454.42383 A 30 30 0 0 0 513.34375 452.66602 A 30 30 0 0 0 515.79102 451.37305 A 30 30 0 0 0 519.73633 448.3457 A 30 30 0 0 0 521.52344 446.80664 A 30 30 0 0 0 525.98047 441 L 590.98047 328.41602 A 30 30 0 0 0 580 287.43555 A 30 30 0 0 0 539.01953 298.41602 L 530 314.03906 L 530 226 A 30 30 0 0 0 500 196 z " />
  </g>
  <g
     id="hour-hand"
     transform-origin="500 426"
     transform="rotate(-150,509.91412,463)" />
  <g
     id="minute-hand"
     transform-origin="500 426"
     transform="rotate(180,500,463)" />
  <!-- /g -->
</svg>
