<?xml version="1.0" encoding="UTF-8" standalone="no"?>
<svg
   height="1000"
   width="1000"
   version="1.1"
   id="h08m40"
   viewBox="0 0 1000 1000"
   sodipodi:docname="h02m10.svg"
   xmlns:inkscape="http://www.inkscape.org/namespaces/inkscape"
   xmlns:sodipodi="http://sodipodi.sourceforge.net/DTD/sodipodi-0.dtd"
   xmlns="http://www.w3.org/2000/svg"
   xmlns:svg="http://www.w3.org/2000/svg">
  <defs
     id="defs15" />
  <sodipodi:namedview
     id="namedview13"
     pagecolor="#505050"
     bordercolor="#ffffff"
     borderopacity="1"
     inkscape:showpageshadow="0"
     inkscape:pageopacity="0"
     inkscape:pagecheckerboard="1"
     inkscape:deskcolor="#505050" />
  <!--g id="rotation" transform-origin="500 426" transform="rotate(180)"-->
  <g
     id="clock-face"
     transform="translate(0,74)">
    <path
       id="frame"
       style="color:#000000;fill:#000000;-inkscape-stroke:none"
       d="M 500 111 C 497.4553 111 494.94262 111.131 492.41211 111.19141 C 491.76352 111.2058 491.11551 111.22377 490.4668 111.24219 C 490.45966 111.24239 490.45245 111.24198 490.44531 111.24219 C 486.2173 111.36928 482.01137 111.57599 477.82617 111.86914 C 476.62335 111.95182 475.42147 112.04792 474.21875 112.14453 C 474.21353 112.14495 474.20835 112.14606 474.20312 112.14648 C 470.44911 112.4529 466.71222 112.81237 462.99609 113.25 C 461.36671 113.44006 459.73958 113.65712 458.11133 113.87305 C 454.74592 114.32302 451.39383 114.80739 448.0625 115.36328 C 446.09831 115.68897 444.13888 116.05411 442.17773 116.41797 C 439.17316 116.97859 436.17738 117.55945 433.20312 118.20508 C 430.90956 118.70056 428.6234 119.24642 426.33594 119.79492 C 423.70322 120.429 421.07551 121.07151 418.46875 121.77148 C 415.88155 122.46346 413.30541 123.21562 410.72852 123.97656 C 410.72457 123.97773 410.72074 123.9793 410.7168 123.98047 C 408.44834 124.6529 406.18253 125.32685 403.93555 126.04883 C 401.04071 126.97579 398.15988 127.96887 395.28125 128.98438 C 393.40785 129.6474 391.53481 130.30851 389.67773 131.00586 C 386.4855 132.20087 383.31092 133.4696 380.14258 134.77539 C 380.13666 134.77783 380.13092 134.78076 380.125 134.7832 C 378.65695 135.39019 377.18928 135.99458 375.73242 136.62305 C 372.25193 138.11993 368.79257 139.69531 365.3457 141.32812 C 365.33992 141.33087 365.33391 141.3332 365.32812 141.33594 C 364.27024 141.83875 363.21351 142.34124 362.16211 142.85547 C 358.3769 144.70069 354.61782 146.63286 350.87891 148.64453 C 350.87251 148.64797 350.86578 148.65085 350.85938 148.6543 C 350.29494 148.9592 349.73229 149.26597 349.16992 149.57422 C 346.94774 150.78742 344.70426 151.92854 342.5 153.20117 C 295.03569 180.60471 257.42756 218.62014 230.87305 262.52539 C 229.64042 264.54626 228.50057 266.62745 227.3125 268.67773 C 226.16701 270.67196 224.96965 272.63954 223.86914 274.65625 C 199.11999 319.60806 185 371.18895 185 426 C 185 428.5447 185.131 431.05738 185.19141 433.58789 C 185.2058 434.23648 185.22377 434.88449 185.24219 435.5332 C 185.24239 435.54034 185.24198 435.54755 185.24219 435.55469 C 185.36928 439.7827 185.57599 443.98863 185.86914 448.17383 C 185.95182 449.37665 186.04792 450.57853 186.14453 451.78125 C 186.14495 451.78647 186.14606 451.79165 186.14648 451.79688 C 186.4529 455.55089 186.81237 459.28778 187.25 463.00391 C 187.44006 464.63329 187.65712 466.26042 187.87305 467.88867 C 188.32302 471.25408 188.80739 474.60617 189.36328 477.9375 C 189.68897 479.90169 190.05411 481.86112 190.41797 483.82227 C 190.97859 486.82684 191.55945 489.82262 192.20508 492.79688 C 192.70056 495.09044 193.24642 497.3766 193.79492 499.66406 C 194.429 502.29678 195.07151 504.92449 195.77148 507.53125 C 196.46346 510.11845 197.21562 512.69459 197.97656 515.27148 C 197.97773 515.27543 197.9793 515.27926 197.98047 515.2832 C 198.6529 517.55166 199.32685 519.81747 200.04883 522.06445 C 200.97579 524.95929 201.96887 527.84012 202.98438 530.71875 C 203.6474 532.59215 204.30851 534.46519 205.00586 536.32227 C 206.20087 539.5145 207.4696 542.68908 208.77539 545.85742 C 208.77783 545.86334 208.78076 545.86908 208.7832 545.875 C 209.39019 547.34305 209.99458 548.81072 210.62305 550.26758 C 212.11993 553.74807 213.69531 557.20743 215.32812 560.6543 C 215.33087 560.66008 215.3332 560.66609 215.33594 560.67188 C 215.83875 561.72976 216.34124 562.78649 216.85547 563.83789 C 218.70069 567.6231 220.63286 571.38218 222.64453 575.12109 C 222.64797 575.12749 222.65085 575.13422 222.6543 575.14062 C 222.9592 575.70506 223.26597 576.26771 223.57422 576.83008 C 224.78742 579.05226 225.92854 581.29574 227.20117 583.5 C 254.60471 630.96431 292.62014 668.57244 336.52539 695.12695 C 338.54626 696.35958 340.62745 697.49943 342.67773 698.6875 C 344.67196 699.83299 346.63954 701.03035 348.65625 702.13086 C 393.60806 726.88001 445.18895 741 500 741 C 502.5447 741 505.05738 740.869 507.58789 740.80859 C 508.23648 740.7942 508.88449 740.77623 509.5332 740.75781 C 509.54034 740.75761 509.54755 740.75802 509.55469 740.75781 C 513.7827 740.63072 517.98863 740.42401 522.17383 740.13086 C 523.37665 740.04818 524.57853 739.95208 525.78125 739.85547 C 529.54053 739.54881 533.28261 739.18823 537.00391 738.75 C 538.63329 738.55994 540.26042 738.34288 541.88867 738.12695 C 545.25408 737.67698 548.60617 737.19261 551.9375 736.63672 C 553.90169 736.31103 555.86112 735.94589 557.82227 735.58203 C 560.82684 735.02141 563.82262 734.44055 566.79688 733.79492 C 569.09044 733.29944 571.3766 732.75358 573.66406 732.20508 C 576.29678 731.571 578.92449 730.92849 581.53125 730.22852 C 584.11845 729.53654 586.69459 728.78438 589.27148 728.02344 C 591.54392 727.34992 593.81357 726.6744 596.06445 725.95117 C 598.95929 725.02421 601.84012 724.03113 604.71875 723.01562 C 606.59215 722.3526 608.46519 721.69149 610.32227 720.99414 C 613.5145 719.79913 616.68908 718.5304 619.85742 717.22461 C 621.33143 716.61527 622.80485 716.00795 624.26758 715.37695 C 627.74807 713.88007 631.20743 712.30469 634.6543 710.67188 C 635.718 710.16637 636.78075 709.66157 637.83789 709.14453 C 641.6231 707.29931 645.38218 705.36714 649.12109 703.35547 C 649.69195 703.04714 650.26133 702.73752 650.83008 702.42578 C 653.05226 701.21258 655.29574 700.07146 657.5 698.79883 C 704.96431 671.39529 742.57244 633.37986 769.12695 589.47461 C 770.35958 587.45374 771.49943 585.37255 772.6875 583.32227 C 773.83299 581.32804 775.03035 579.36046 776.13086 577.34375 C 800.88001 532.39194 815 480.81105 815 426 C 815 423.4553 814.869 420.94262 814.80859 418.41211 C 814.7942 417.76352 814.77623 417.11551 814.75781 416.4668 C 814.63079 412.23157 814.42451 408.01845 814.13086 403.82617 C 814.04818 402.62335 813.95208 401.42147 813.85547 400.21875 C 813.54881 396.45947 813.18823 392.71739 812.75 388.99609 C 812.55994 387.36671 812.34288 385.73958 812.12695 384.11133 C 811.67698 380.74592 811.19261 377.39383 810.63672 374.0625 C 810.31103 372.09831 809.94589 370.13888 809.58203 368.17773 C 809.02141 365.17316 808.44055 362.17738 807.79492 359.20312 C 807.29944 356.90956 806.75358 354.6234 806.20508 352.33594 C 805.571 349.70322 804.92849 347.07551 804.22852 344.46875 C 803.53654 341.88155 802.78438 339.30541 802.02344 336.72852 C 801.34992 334.45608 800.6744 332.18643 799.95117 329.93555 C 799.02421 327.04071 798.03113 324.15988 797.01562 321.28125 C 796.3526 319.40785 795.69149 317.53481 794.99414 315.67773 C 793.79913 312.4855 792.5304 309.31092 791.22461 306.14258 C 790.61527 304.66857 790.00795 303.19515 789.37695 301.73242 C 787.88007 298.25193 786.30469 294.79257 784.67188 291.3457 C 784.16637 290.282 783.66157 289.21925 783.14453 288.16211 C 781.29931 284.3769 779.36714 280.61782 777.35547 276.87891 C 777.04714 276.30805 776.73752 275.73867 776.42578 275.16992 C 775.21258 272.94774 774.07146 270.70426 772.79883 268.5 C 745.39529 221.03569 707.37986 183.42756 663.47461 156.87305 C 661.45374 155.64042 659.37255 154.50057 657.32227 153.3125 C 655.32804 152.16701 653.36046 150.96965 651.34375 149.86914 C 606.39194 125.11999 554.81105 111 500 111 z M 500 171 C 534.75249 171 567.83226 177.92379 597.97852 190.42578 C 598.53061 190.65535 599.09201 190.86025 599.64258 191.09375 C 599.64447 191.09455 599.64654 191.0949 599.64844 191.0957 C 602.55051 192.32343 605.40066 193.64577 608.24609 194.97656 C 609.17111 195.40995 610.11109 195.80727 611.03125 196.25195 C 613.36425 197.3776 615.64699 198.58735 617.93945 199.78125 C 619.34975 200.51663 620.77827 201.2122 622.17578 201.97461 C 622.17911 201.97643 622.18222 201.97865 622.18555 201.98047 C 623.95228 202.94329 625.67315 203.97739 627.41406 204.98047 C 629.26329 206.04706 631.12866 207.08268 632.95312 208.19727 C 632.95713 208.19971 632.96084 208.20263 632.96484 208.20508 C 634.31471 209.02892 635.62201 209.91362 636.95508 210.76172 C 639.11493 212.13735 641.28451 213.49391 643.40625 214.9375 C 643.41088 214.94065 643.41529 214.94411 643.41992 214.94727 C 644.34336 215.57478 645.23378 216.24548 646.14844 216.88477 C 648.01842 218.19366 649.87489 219.52663 651.71289 220.88867 C 652.35031 221.36103 653.0091 221.79862 653.64258 222.27734 C 654.06036 222.59247 654.46119 222.92846 654.87695 223.24609 C 680.83975 243.12001 703.42639 268.34577 720.83594 298.5 C 729.55752 313.60622 736.55174 329.22214 741.90625 345.11914 C 742.01911 345.45844 742.13852 345.79483 742.25 346.13477 C 743.2361 349.10368 744.12079 352.08924 744.99219 355.07617 C 744.99391 355.08209 744.99632 355.08783 744.99805 355.09375 C 745.4625 356.70961 745.93779 358.3202 746.37109 359.94922 C 746.69533 361.1492 746.97722 362.35434 747.2832 363.55664 C 747.4063 364.04031 747.53024 364.52379 747.65039 365.00781 C 748.37882 367.99208 749.09592 370.9809 749.71875 374.00586 C 749.79698 374.37862 749.86685 374.75208 749.94336 375.125 C 753.25034 391.55909 755 408.56868 755 426 C 755 460.75249 748.07621 493.83226 735.57422 523.97852 C 735.34465 524.53061 735.13975 525.09201 734.90625 525.64258 C 734.90545 525.64447 734.9051 525.64654 734.9043 525.64844 C 733.67657 528.55051 732.35423 531.40066 731.02344 534.24609 C 730.59005 535.17111 730.19273 536.11109 729.74805 537.03125 C 728.6224 539.36425 727.41265 541.64699 726.21875 543.93945 C 725.48337 545.34975 724.7878 546.77827 724.02539 548.17578 C 724.02357 548.17911 724.02135 548.18222 724.01953 548.18555 C 723.05671 549.95228 722.02261 551.67315 721.01953 553.41406 C 719.95294 555.26329 718.91732 557.12866 717.80273 558.95312 C 717.80029 558.95713 717.79737 558.96084 717.79492 558.96484 C 716.97108 560.31471 716.08638 561.62201 715.23828 562.95508 C 713.86265 565.11493 712.50609 567.28451 711.0625 569.40625 C 711.05935 569.41088 711.05589 569.41529 711.05273 569.41992 C 710.42522 570.34336 709.75452 571.23378 709.11523 572.14844 C 707.80634 574.01842 706.47337 575.87489 705.11133 577.71289 C 704.63897 578.35031 704.20138 579.0091 703.72266 579.64258 C 703.40753 580.06036 703.07154 580.46119 702.75391 580.87695 C 682.87999 606.83975 657.65423 629.42639 627.5 646.83594 C 612.39378 655.55752 596.77786 662.55174 580.88086 667.90625 C 580.54156 668.01911 580.20517 668.13852 579.86523 668.25 C 576.89632 669.2361 573.91076 670.12079 570.92383 670.99219 C 570.91791 670.99391 570.91217 670.99632 570.90625 670.99805 C 569.29039 671.4625 567.6798 671.93779 566.05078 672.37109 C 564.8508 672.69533 563.64566 672.97722 562.44336 673.2832 C 561.95969 673.4063 561.47621 673.53024 560.99219 673.65039 C 558.00792 674.37882 555.0191 675.09592 551.99414 675.71875 C 551.62138 675.79698 551.24792 675.86685 550.875 675.94336 C 534.44091 679.25034 517.43132 681 500 681 C 465.24751 681 432.16774 674.07621 402.02148 661.57422 C 401.46939 661.34465 400.90799 661.13975 400.35742 660.90625 C 397.45342 659.67779 394.6012 658.35509 391.75391 657.02344 C 390.82889 656.59005 389.88891 656.19273 388.96875 655.74805 C 386.63575 654.6224 384.35301 653.41265 382.06055 652.21875 C 380.65025 651.48337 379.22173 650.7878 377.82422 650.02539 C 376.0541 649.06083 374.33013 648.02451 372.58594 647.01953 C 370.73671 645.95294 368.87134 644.91732 367.04688 643.80273 C 365.69295 642.97652 364.38195 642.0889 363.04492 641.23828 C 360.88507 639.86265 358.71549 638.50609 356.59375 637.0625 C 355.66563 636.43189 354.77081 635.75773 353.85156 635.11523 C 351.98158 633.80634 350.12511 632.47337 348.28711 631.11133 C 347.64969 630.63897 346.9909 630.20138 346.35742 629.72266 C 345.93964 629.40753 345.53881 629.07154 345.12305 628.75391 C 319.16025 608.87999 296.57361 583.65423 279.16406 553.5 C 270.44248 538.39378 263.44826 522.77786 258.09375 506.88086 C 257.98089 506.54156 257.86148 506.20517 257.75 505.86523 C 256.7639 502.89632 255.87921 499.91076 255.00781 496.92383 C 254.54154 495.30209 254.0638 493.68577 253.62891 492.05078 C 253.30467 490.8508 253.02278 489.64566 252.7168 488.44336 C 252.5937 487.95969 252.46976 487.47621 252.34961 486.99219 C 251.62118 484.00792 250.90408 481.0191 250.28125 477.99414 C 250.20302 477.62138 250.13315 477.24792 250.05664 476.875 C 246.74966 460.44091 245 443.43132 245 426 C 245 391.24751 251.92379 358.16774 264.42578 328.02148 C 264.65535 327.46939 264.86025 326.90799 265.09375 326.35742 C 266.32221 323.45342 267.64491 320.6012 268.97656 317.75391 C 269.40995 316.82889 269.80727 315.88891 270.25195 314.96875 C 271.3776 312.63575 272.58735 310.35301 273.78125 308.06055 C 274.51663 306.65025 275.2122 305.22173 275.97461 303.82422 C 276.93917 302.0541 277.97549 300.33013 278.98047 298.58594 C 280.04706 296.73671 281.08268 294.87134 282.19727 293.04688 C 283.02348 291.69295 283.9111 290.38195 284.76172 289.04492 C 286.13735 286.88507 287.49391 284.71549 288.9375 282.59375 C 289.56811 281.66563 290.24227 280.77081 290.88477 279.85156 C 292.19366 277.98158 293.52663 276.12511 294.88867 274.28711 C 295.36103 273.64969 295.79862 272.9909 296.27734 272.35742 C 296.59247 271.93964 296.92846 271.53881 297.24609 271.12305 C 317.12001 245.16025 342.34577 222.57361 372.5 205.16406 C 387.60622 196.44248 403.22214 189.44826 419.11914 184.09375 C 419.45844 183.98089 419.79483 183.86148 420.13477 183.75 C 423.10368 182.7639 426.08924 181.87921 429.07617 181.00781 C 430.69791 180.54154 432.31423 180.0638 433.94922 179.62891 C 435.1492 179.30467 436.35434 179.02278 437.55664 178.7168 C 438.04031 178.5937 438.52379 178.46976 439.00781 178.34961 C 441.99208 177.62118 444.9809 176.90408 448.00586 176.28125 C 448.37862 176.20302 448.75208 176.13315 449.125 176.05664 C 465.55909 172.74966 482.56868 171 500 171 z M 673.20508 296 A 30 30 0 0 0 658.20508 300.01953 L 597.58398 335.01953 L 485 400.01953 A 30 30 0 0 0 479.19336 404.47656 A 30 30 0 0 0 477.6543 406.26367 A 30 30 0 0 0 474.62695 410.20898 A 30 30 0 0 0 473.33398 412.65625 A 30 30 0 0 0 471.57617 416.89453 A 30 30 0 0 0 470.83203 419.67773 A 30 30 0 0 0 470.23438 424.21289 A 30 30 0 0 0 470.13086 426.99414 A 30 30 0 0 0 470.77734 431.91016 A 30 30 0 0 0 471.2168 434.23828 A 30 30 0 0 0 474.01953 441 A 30 30 0 0 0 478.47656 446.80664 A 30 30 0 0 0 480.26367 448.3457 A 30 30 0 0 0 484.20898 451.37305 A 30 30 0 0 0 486.65625 452.66602 A 30 30 0 0 0 490.89453 454.42383 A 30 30 0 0 0 493.67773 455.16797 A 30 30 0 0 0 498.21289 455.76562 A 30 30 0 0 0 500.99414 455.86914 A 30 30 0 0 0 505.91016 455.22266 A 30 30 0 0 0 508.23828 454.7832 A 30 30 0 0 0 515 451.98047 L 627.58398 386.98047 A 30 30 0 0 0 627.5918 386.97656 L 688.20508 351.98047 A 30 30 0 0 0 699.18555 311 A 30 30 0 0 0 673.20508 296 z " />
  </g>
  <g
     id="hour-hand"
     transform-origin="500 426"
     transform="rotate(-120,521.36196,463)" />
  <g
     id="minute-hand"
     transform-origin="500 426"
     transform="rotate(-120,521.36196,463)" />
  <!-- /g -->
</svg>
