<?xml version="1.0" encoding="UTF-8" standalone="no"?>
<svg
   height="1000"
   width="1000"
   version="1.1"
   id="h08m05"
   viewBox="0 0 1000 1000"
   sodipodi:docname="h02m35.svg"
   xmlns:inkscape="http://www.inkscape.org/namespaces/inkscape"
   xmlns:sodipodi="http://sodipodi.sourceforge.net/DTD/sodipodi-0.dtd"
   xmlns="http://www.w3.org/2000/svg"
   xmlns:svg="http://www.w3.org/2000/svg">
  <defs
     id="defs15" />
  <sodipodi:namedview
     id="namedview13"
     pagecolor="#505050"
     bordercolor="#ffffff"
     borderopacity="1"
     inkscape:showpageshadow="0"
     inkscape:pageopacity="0"
     inkscape:pagecheckerboard="1"
     inkscape:deskcolor="#505050" />
  <!--g id="rotation" transform-origin="500 426" transform="rotate(180)"-->
  <g
     id="clock-face"
     transform="translate(0,74)">
    <path
       id="frame"
       style="color:#000000;fill:#000000;-inkscape-stroke:none"
       d="M 500 111 C 497.4553 111 494.94262 111.131 492.41211 111.19141 C 491.76352 111.2058 491.11551 111.22377 490.4668 111.24219 C 486.23157 111.36921 482.01845 111.57549 477.82617 111.86914 C 476.62335 111.95182 475.42147 112.04792 474.21875 112.14453 C 470.45947 112.45119 466.71739 112.81177 462.99609 113.25 C 461.36671 113.44006 459.73958 113.65712 458.11133 113.87305 C 454.74592 114.32302 451.39383 114.80739 448.0625 115.36328 C 446.09831 115.68897 444.13888 116.05411 442.17773 116.41797 C 439.17316 116.97859 436.17738 117.55945 433.20312 118.20508 C 430.90956 118.70056 428.6234 119.24642 426.33594 119.79492 C 423.70322 120.429 421.07551 121.07151 418.46875 121.77148 C 415.88155 122.46346 413.30541 123.21562 410.72852 123.97656 C 408.45608 124.65008 406.18643 125.3256 403.93555 126.04883 C 401.04071 126.97579 398.15988 127.96887 395.28125 128.98438 C 393.40785 129.6474 391.53481 130.30851 389.67773 131.00586 C 386.4855 132.20087 383.31092 133.4696 380.14258 134.77539 C 378.66857 135.38473 377.19515 135.99205 375.73242 136.62305 C 372.25193 138.11993 368.79257 139.69531 365.3457 141.32812 C 364.282 141.83363 363.21925 142.33843 362.16211 142.85547 C 358.3769 144.70069 354.61782 146.63286 350.87891 148.64453 C 350.30805 148.95286 349.73867 149.26248 349.16992 149.57422 C 346.94774 150.78742 344.70426 151.92854 342.5 153.20117 C 340.28717 154.47875 338.16804 155.85457 335.99805 157.17773 C 335.46021 157.50445 334.92472 157.83402 334.38867 158.16406 C 330.77207 160.39885 327.21404 162.69039 323.71875 165.04883 C 322.73269 165.71231 321.7546 166.38734 320.77539 167.0625 C 317.64212 169.22859 314.55215 171.43434 311.51953 173.69727 C 310.25057 174.64197 308.99626 175.60725 307.74023 176.57227 C 305.01271 178.67253 302.31464 180.79757 299.67188 182.97461 C 298.15437 184.22209 296.66042 185.50112 295.16406 186.7793 C 292.8303 188.77688 290.51431 190.78711 288.25 192.84375 C 286.50986 194.42114 284.80204 196.03982 283.09375 197.66016 C 281.13704 199.51986 279.18873 201.38359 277.28711 203.28711 C 275.38359 205.18873 273.51986 207.13704 271.66016 209.09375 C 270.03982 210.80204 268.42114 212.50986 266.84375 214.25 C 264.78711 216.51431 262.77688 218.8303 260.7793 221.16406 C 259.50112 222.66042 258.22209 224.15437 256.97461 225.67188 C 254.79757 228.31464 252.67253 231.01271 250.57227 233.74023 C 249.60725 234.99626 248.64197 236.25057 247.69727 237.51953 C 245.43434 240.55215 243.22859 243.64212 241.0625 246.77539 C 240.38734 247.7546 239.71231 248.73269 239.04883 249.71875 C 236.69039 253.21404 234.39885 256.77207 232.16406 260.38867 C 231.83203 260.92795 231.50054 261.46672 231.17188 262.00781 C 229.85075 264.17462 228.47684 266.29047 227.20117 268.5 C 225.92883 270.70376 224.78716 272.94629 223.57422 275.16797 C 223.2622 275.73721 222.95312 276.30755 222.64453 276.87891 C 220.63286 280.61782 218.70069 284.3769 216.85547 288.16211 C 216.33843 289.21925 215.83363 290.282 215.32812 291.3457 C 213.69531 294.79257 212.11993 298.25193 210.62305 301.73242 C 209.99205 303.19515 209.38473 304.66857 208.77539 306.14258 C 207.4696 309.31092 206.20087 312.4855 205.00586 315.67773 C 204.30851 317.53481 203.6474 319.40785 202.98438 321.28125 C 201.96887 324.15988 200.97579 327.04071 200.04883 329.93555 C 199.3256 332.18643 198.65008 334.45608 197.97656 336.72852 C 197.21562 339.30541 196.46346 341.88155 195.77148 344.46875 C 195.07151 347.07551 194.429 349.70322 193.79492 352.33594 C 193.24642 354.6234 192.70056 356.90956 192.20508 359.20312 C 191.55945 362.17738 190.97859 365.17316 190.41797 368.17773 C 190.05411 370.13888 189.68897 372.09831 189.36328 374.0625 C 188.80739 377.39383 188.32302 380.74592 187.87305 384.11133 C 187.65712 385.73958 187.44006 387.36671 187.25 388.99609 C 186.81177 392.71739 186.45119 396.45947 186.14453 400.21875 C 186.04792 401.42147 185.95182 402.62335 185.86914 403.82617 C 185.57549 408.01845 185.36921 412.23157 185.24219 416.4668 C 185.22377 417.11551 185.2058 417.76352 185.19141 418.41211 C 185.131 420.94262 185 423.4553 185 426 C 185 428.5447 185.131 431.05738 185.19141 433.58789 C 185.2058 434.23648 185.22377 434.88449 185.24219 435.5332 C 185.36921 439.76843 185.57549 443.98155 185.86914 448.17383 C 185.95182 449.37665 186.04792 450.57853 186.14453 451.78125 C 186.45119 455.54053 186.81177 459.28261 187.25 463.00391 C 187.44006 464.63329 187.65712 466.26042 187.87305 467.88867 C 188.32302 471.25408 188.80739 474.60617 189.36328 477.9375 C 189.68897 479.90169 190.05411 481.86112 190.41797 483.82227 C 190.97859 486.82684 191.55945 489.82262 192.20508 492.79688 C 192.70056 495.09044 193.24642 497.3766 193.79492 499.66406 C 194.429 502.29678 195.07151 504.92449 195.77148 507.53125 C 196.46346 510.11845 197.21562 512.69459 197.97656 515.27148 C 198.65008 517.54392 199.3256 519.81357 200.04883 522.06445 C 200.97579 524.95929 201.96887 527.84012 202.98438 530.71875 C 203.6474 532.59215 204.30851 534.46519 205.00586 536.32227 C 206.20087 539.5145 207.4696 542.68908 208.77539 545.85742 C 209.38473 547.33143 209.99205 548.80485 210.62305 550.26758 C 212.11993 553.74807 213.69531 557.20743 215.32812 560.6543 C 215.83363 561.718 216.33843 562.78075 216.85547 563.83789 C 218.70069 567.6231 220.63286 571.38218 222.64453 575.12109 C 222.95286 575.69195 223.26248 576.26133 223.57422 576.83008 C 224.78742 579.05226 225.92854 581.29574 227.20117 583.5 C 228.47875 585.71283 229.85457 587.83196 231.17773 590.00195 C 231.50445 590.53979 231.83402 591.07528 232.16406 591.61133 C 234.39885 595.22793 236.69039 598.78596 239.04883 602.28125 C 239.71231 603.26731 240.38734 604.2454 241.0625 605.22461 C 243.22859 608.35788 245.43434 611.44785 247.69727 614.48047 C 248.64197 615.74943 249.60725 617.00374 250.57227 618.25977 C 252.67253 620.98729 254.79757 623.68536 256.97461 626.32812 C 258.22209 627.84563 259.50112 629.33958 260.7793 630.83594 C 262.77688 633.1697 264.78711 635.48569 266.84375 637.75 C 268.42114 639.49014 270.03982 641.19796 271.66016 642.90625 C 273.51986 644.86296 275.38359 646.81127 277.28711 648.71289 C 279.18873 650.61641 281.13704 652.48014 283.09375 654.33984 C 284.80204 655.96018 286.50986 657.57886 288.25 659.15625 C 290.51431 661.21289 292.8303 663.22312 295.16406 665.2207 C 296.66042 666.49888 298.15437 667.77791 299.67188 669.02539 C 302.31464 671.20243 305.01271 673.32747 307.74023 675.42773 C 308.99626 676.39275 310.25057 677.35803 311.51953 678.30273 C 314.55215 680.56566 317.64212 682.77141 320.77539 684.9375 C 321.7546 685.61266 322.73269 686.28769 323.71875 686.95117 C 327.21404 689.30961 330.77207 691.60115 334.38867 693.83594 C 334.92795 694.16797 335.46672 694.49946 336.00781 694.82812 C 338.17462 696.14925 340.29047 697.52316 342.5 698.79883 C 344.70376 700.07117 346.94629 701.21284 349.16797 702.42578 C 349.73721 702.7378 350.30755 703.04688 350.87891 703.35547 C 354.61782 705.36714 358.3769 707.29931 362.16211 709.14453 C 363.21925 709.66157 364.282 710.16637 365.3457 710.67188 C 368.79257 712.30469 372.25193 713.88007 375.73242 715.37695 C 377.19515 716.00795 378.66857 716.61527 380.14258 717.22461 C 383.31092 718.5304 386.4855 719.79913 389.67773 720.99414 C 391.53481 721.69149 393.40785 722.3526 395.28125 723.01562 C 398.15988 724.03113 401.04071 725.02421 403.93555 725.95117 C 406.18643 726.6744 408.45608 727.34992 410.72852 728.02344 C 413.30541 728.78438 415.88155 729.53654 418.46875 730.22852 C 421.07551 730.92849 423.70322 731.571 426.33594 732.20508 C 428.6234 732.75358 430.90956 733.29944 433.20312 733.79492 C 436.17738 734.44055 439.17316 735.02141 442.17773 735.58203 C 444.13888 735.94589 446.09831 736.31103 448.0625 736.63672 C 451.39383 737.19261 454.74592 737.67698 458.11133 738.12695 C 459.73958 738.34288 461.36671 738.55994 462.99609 738.75 C 466.71739 739.18823 470.45947 739.54881 474.21875 739.85547 C 475.42147 739.95208 476.62335 740.04818 477.82617 740.13086 C 482.01845 740.42451 486.23157 740.63079 490.4668 740.75781 C 491.11551 740.77623 491.76352 740.7942 492.41211 740.80859 C 494.94262 740.869 497.4553 741 500 741 C 502.5447 741 505.05738 740.869 507.58789 740.80859 C 508.23648 740.7942 508.88449 740.77623 509.5332 740.75781 C 513.76843 740.63079 517.98155 740.42451 522.17383 740.13086 C 523.37665 740.04818 524.57853 739.95208 525.78125 739.85547 C 529.54053 739.54881 533.28261 739.18823 537.00391 738.75 C 538.63329 738.55994 540.26042 738.34288 541.88867 738.12695 C 545.25408 737.67698 548.60617 737.19261 551.9375 736.63672 C 553.90169 736.31103 555.86112 735.94589 557.82227 735.58203 C 560.82684 735.02141 563.82262 734.44055 566.79688 733.79492 C 569.09044 733.29944 571.3766 732.75358 573.66406 732.20508 C 576.29678 731.571 578.92449 730.92849 581.53125 730.22852 C 584.11845 729.53654 586.69459 728.78438 589.27148 728.02344 C 591.54392 727.34992 593.81357 726.6744 596.06445 725.95117 C 598.95929 725.02421 601.84012 724.03113 604.71875 723.01562 C 606.59215 722.3526 608.46519 721.69149 610.32227 720.99414 C 613.5145 719.79913 616.68908 718.5304 619.85742 717.22461 C 621.33143 716.61527 622.80485 716.00795 624.26758 715.37695 C 627.74807 713.88007 631.20743 712.30469 634.6543 710.67188 C 635.718 710.16637 636.78075 709.66157 637.83789 709.14453 C 641.6231 707.29931 645.38218 705.36714 649.12109 703.35547 C 649.69195 703.04714 650.26133 702.73752 650.83008 702.42578 C 653.05226 701.21258 655.29574 700.07146 657.5 698.79883 C 659.71283 697.52125 661.83196 696.14543 664.00195 694.82227 C 664.53979 694.49555 665.07528 694.16598 665.61133 693.83594 C 669.22793 691.60115 672.78596 689.30961 676.28125 686.95117 C 677.26731 686.28769 678.2454 685.61266 679.22461 684.9375 C 682.35788 682.77141 685.44785 680.56566 688.48047 678.30273 C 689.74943 677.35803 691.00374 676.39275 692.25977 675.42773 C 694.98729 673.32747 697.68536 671.20243 700.32812 669.02539 C 701.84563 667.77791 703.33958 666.49888 704.83594 665.2207 C 707.1697 663.22312 709.48569 661.21289 711.75 659.15625 C 713.49014 657.57886 715.19796 655.96018 716.90625 654.33984 C 718.86296 652.48014 720.81127 650.61641 722.71289 648.71289 C 724.61641 646.81127 726.48014 644.86296 728.33984 642.90625 C 729.96018 641.19796 731.57886 639.49014 733.15625 637.75 C 735.21289 635.48569 737.22312 633.1697 739.2207 630.83594 C 740.49888 629.33958 741.77791 627.84563 743.02539 626.32812 C 745.20243 623.68536 747.32747 620.98729 749.42773 618.25977 C 750.39275 617.00374 751.35803 615.74943 752.30273 614.48047 C 754.56566 611.44785 756.77141 608.35788 758.9375 605.22461 C 759.61266 604.2454 760.28769 603.26731 760.95117 602.28125 C 763.30961 598.78596 765.60115 595.22793 767.83594 591.61133 C 768.16797 591.07205 768.49946 590.53328 768.82812 589.99219 C 770.14925 587.82538 771.52316 585.70953 772.79883 583.5 C 774.07117 581.29624 775.21284 579.05371 776.42578 576.83203 C 776.7378 576.26279 777.04688 575.69245 777.35547 575.12109 C 779.36714 571.38218 781.29931 567.6231 783.14453 563.83789 C 783.66157 562.78075 784.16637 561.718 784.67188 560.6543 C 786.30469 557.20743 787.88007 553.74807 789.37695 550.26758 C 790.00795 548.80485 790.61527 547.33143 791.22461 545.85742 C 792.5304 542.68908 793.79913 539.5145 794.99414 536.32227 C 795.69149 534.46519 796.3526 532.59215 797.01562 530.71875 C 798.03113 527.84012 799.02421 524.95929 799.95117 522.06445 C 800.6744 519.81357 801.34992 517.54392 802.02344 515.27148 C 802.78438 512.69459 803.53654 510.11845 804.22852 507.53125 C 804.92849 504.92449 805.571 502.29678 806.20508 499.66406 C 806.75358 497.3766 807.29944 495.09044 807.79492 492.79688 C 808.44055 489.82262 809.02141 486.82684 809.58203 483.82227 C 809.94589 481.86112 810.31103 479.90169 810.63672 477.9375 C 811.19261 474.60617 811.67698 471.25408 812.12695 467.88867 C 812.34288 466.26042 812.55994 464.63329 812.75 463.00391 C 813.18823 459.28261 813.54881 455.54053 813.85547 451.78125 C 813.95208 450.57853 814.04818 449.37665 814.13086 448.17383 C 814.42451 443.98155 814.63079 439.76843 814.75781 435.5332 C 814.77623 434.88449 814.7942 434.23648 814.80859 433.58789 C 814.869 431.05738 815 428.5447 815 426 C 815 423.4553 814.869 420.94262 814.80859 418.41211 C 814.7942 417.76352 814.77623 417.11551 814.75781 416.4668 C 814.63079 412.23157 814.42451 408.01845 814.13086 403.82617 C 814.04818 402.62335 813.95208 401.42147 813.85547 400.21875 C 813.54881 396.45947 813.18823 392.71739 812.75 388.99609 C 812.55994 387.36671 812.34288 385.73958 812.12695 384.11133 C 811.67698 380.74592 811.19261 377.39383 810.63672 374.0625 C 810.31103 372.09831 809.94589 370.13888 809.58203 368.17773 C 809.02141 365.17316 808.44055 362.17738 807.79492 359.20312 C 807.29944 356.90956 806.75358 354.6234 806.20508 352.33594 C 805.571 349.70322 804.92849 347.07551 804.22852 344.46875 C 803.53654 341.88155 802.78438 339.30541 802.02344 336.72852 C 801.34992 334.45608 800.6744 332.18643 799.95117 329.93555 C 799.02421 327.04071 798.03113 324.15988 797.01562 321.28125 C 796.3526 319.40785 795.69149 317.53481 794.99414 315.67773 C 793.79913 312.4855 792.5304 309.31092 791.22461 306.14258 C 790.61527 304.66857 790.00795 303.19515 789.37695 301.73242 C 787.88007 298.25193 786.30469 294.79257 784.67188 291.3457 C 784.16637 290.282 783.66157 289.21925 783.14453 288.16211 C 781.29931 284.3769 779.36714 280.61782 777.35547 276.87891 C 777.04714 276.30805 776.73752 275.73867 776.42578 275.16992 C 775.21258 272.94774 774.07146 270.70426 772.79883 268.5 C 771.52125 266.28717 770.14543 264.16804 768.82227 261.99805 C 768.49555 261.46021 768.16598 260.92472 767.83594 260.38867 C 765.60115 256.77207 763.30961 253.21404 760.95117 249.71875 C 760.28769 248.73269 759.61266 247.7546 758.9375 246.77539 C 756.77141 243.64212 754.56566 240.55215 752.30273 237.51953 C 751.35803 236.25057 750.39275 234.99626 749.42773 233.74023 C 747.32747 231.01271 745.20243 228.31464 743.02539 225.67188 C 741.77791 224.15437 740.49888 222.66042 739.2207 221.16406 C 737.22312 218.8303 735.21289 216.51431 733.15625 214.25 C 731.57886 212.50986 729.96018 210.80204 728.33984 209.09375 C 726.48014 207.13704 724.61641 205.18873 722.71289 203.28711 C 720.81127 201.38359 718.86296 199.51986 716.90625 197.66016 C 715.19796 196.03982 713.49014 194.42114 711.75 192.84375 C 709.48569 190.78711 707.1697 188.77688 704.83594 186.7793 C 703.33958 185.50112 701.84563 184.22209 700.32812 182.97461 C 697.68536 180.79757 694.98729 178.67253 692.25977 176.57227 C 691.00374 175.60725 689.74943 174.64197 688.48047 173.69727 C 685.44785 171.43434 682.35788 169.22859 679.22461 167.0625 C 678.2454 166.38734 677.26731 165.71231 676.28125 165.04883 C 672.78596 162.69039 669.22793 160.39885 665.61133 158.16406 C 665.07205 157.83203 664.53328 157.50054 663.99219 157.17188 C 661.82538 155.85075 659.70953 154.47684 657.5 153.20117 C 655.29624 151.92883 653.05371 150.78716 650.83203 149.57422 C 650.26279 149.2622 649.69245 148.95312 649.12109 148.64453 C 645.38218 146.63286 641.6231 144.70069 637.83789 142.85547 C 636.78075 142.33843 635.718 141.83363 634.6543 141.32812 C 631.20743 139.69531 627.74807 138.11993 624.26758 136.62305 C 622.80485 135.99205 621.33143 135.38473 619.85742 134.77539 C 616.68908 133.4696 613.5145 132.20087 610.32227 131.00586 C 608.46519 130.30851 606.59215 129.6474 604.71875 128.98438 C 601.84012 127.96887 598.95929 126.97579 596.06445 126.04883 C 593.81357 125.3256 591.54392 124.65008 589.27148 123.97656 C 586.69459 123.21562 584.11845 122.46346 581.53125 121.77148 C 578.92449 121.07151 576.29678 120.429 573.66406 119.79492 C 571.3766 119.24642 569.09044 118.70056 566.79688 118.20508 C 563.82262 117.55945 560.82684 116.97859 557.82227 116.41797 C 555.86112 116.05411 553.90169 115.68897 551.9375 115.36328 C 548.60617 114.80739 545.25408 114.32302 541.88867 113.87305 C 540.26042 113.65712 538.63329 113.44006 537.00391 113.25 C 533.28261 112.81177 529.54053 112.45119 525.78125 112.14453 C 524.57853 112.04792 523.37665 111.95182 522.17383 111.86914 C 517.98155 111.57549 513.76843 111.36921 509.5332 111.24219 C 508.88449 111.22377 508.23648 111.2058 507.58789 111.19141 C 505.05738 111.131 502.5447 111 500 111 z M 500 171 C 517.43132 171 534.44091 172.74966 550.875 176.05664 C 551.24792 176.13315 551.62138 176.20302 551.99414 176.28125 C 555.0191 176.90408 558.00792 177.62118 560.99219 178.34961 C 562.67939 178.76842 564.36805 179.17423 566.05078 179.62891 C 567.68577 180.0638 569.30209 180.54154 570.92383 181.00781 C 573.91076 181.87921 576.89632 182.7639 579.86523 183.75 C 580.20517 183.86148 580.54156 183.98089 580.88086 184.09375 C 596.77786 189.44826 612.39378 196.44248 627.5 205.16406 C 642.60158 213.88296 656.46236 223.9063 669.04492 234.99219 C 669.32069 235.237 669.60017 235.47651 669.875 235.72266 C 672.19436 237.78409 674.43554 239.90975 676.66602 242.04297 C 677.90297 243.23525 679.14763 244.41628 680.36328 245.63672 C 681.58372 246.85237 682.76475 248.09703 683.95703 249.33398 C 686.09025 251.56446 688.21591 253.80564 690.27734 256.125 C 690.52349 256.39983 690.763 256.67931 691.00781 256.95508 C 702.0937 269.53764 712.11704 283.39842 720.83594 298.5 C 729.55752 313.60622 736.55174 329.22214 741.90625 345.11914 C 742.01911 345.45844 742.13852 345.79483 742.25 346.13477 C 743.2361 349.10368 744.12079 352.08924 744.99219 355.07617 C 745.45846 356.69791 745.9362 358.31423 746.37109 359.94922 C 746.82577 361.63195 747.23158 363.32061 747.65039 365.00781 C 748.37882 367.99208 749.09592 370.9809 749.71875 374.00586 C 749.79698 374.37862 749.86685 374.75208 749.94336 375.125 C 753.25034 391.55909 755 408.56868 755 426 C 755 443.43132 753.25034 460.44091 749.94336 476.875 C 749.86685 477.24792 749.79698 477.62138 749.71875 477.99414 C 749.09592 481.0191 748.37882 484.00792 747.65039 486.99219 C 747.23158 488.67939 746.82577 490.36805 746.37109 492.05078 C 745.9362 493.68577 745.45846 495.30209 744.99219 496.92383 C 744.12079 499.91076 743.2361 502.89632 742.25 505.86523 C 742.13852 506.20517 742.01911 506.54156 741.90625 506.88086 C 736.55174 522.77786 729.55752 538.39378 720.83594 553.5 C 712.11704 568.60158 702.0937 582.46236 691.00781 595.04492 C 690.763 595.32069 690.52349 595.60017 690.27734 595.875 C 688.21591 598.19436 686.09025 600.43554 683.95703 602.66602 C 682.76475 603.90297 681.58372 605.14763 680.36328 606.36328 C 679.14763 607.58372 677.90297 608.76475 676.66602 609.95703 C 674.43554 612.09025 672.19436 614.21591 669.875 616.27734 C 669.60017 616.52349 669.32069 616.763 669.04492 617.00781 C 656.46236 628.0937 642.60158 638.11704 627.5 646.83594 C 612.39378 655.55752 596.77786 662.55174 580.88086 667.90625 C 580.54156 668.01911 580.20517 668.13852 579.86523 668.25 C 576.89632 669.2361 573.91076 670.12079 570.92383 670.99219 C 569.30209 671.45846 567.68577 671.9362 566.05078 672.37109 C 564.36805 672.82577 562.67939 673.23158 560.99219 673.65039 C 558.00792 674.37882 555.0191 675.09592 551.99414 675.71875 C 551.62138 675.79698 551.24792 675.86685 550.875 675.94336 C 534.44091 679.25034 517.43132 681 500 681 C 482.56868 681 465.55909 679.25034 449.125 675.94336 C 448.75208 675.86685 448.37862 675.79698 448.00586 675.71875 C 444.9809 675.09592 441.99208 674.37882 439.00781 673.65039 C 437.32061 673.23158 435.63195 672.82577 433.94922 672.37109 C 432.31423 671.9362 430.69791 671.45846 429.07617 670.99219 C 426.08924 670.12079 423.10368 669.2361 420.13477 668.25 C 419.79483 668.13852 419.45844 668.01911 419.11914 667.90625 C 403.22214 662.55174 387.60622 655.55752 372.5 646.83594 C 357.39842 638.11704 343.53764 628.0937 330.95508 617.00781 C 330.67931 616.763 330.39983 616.52349 330.125 616.27734 C 327.80564 614.21591 325.56446 612.09025 323.33398 609.95703 C 322.09703 608.76475 320.85237 607.58372 319.63672 606.36328 C 318.41628 605.14763 317.23525 603.90297 316.04297 602.66602 C 313.90975 600.43554 311.78409 598.19436 309.72266 595.875 C 309.47651 595.60017 309.237 595.32069 308.99219 595.04492 C 297.9063 582.46236 287.88296 568.60158 279.16406 553.5 C 270.44248 538.39378 263.44826 522.77786 258.09375 506.88086 C 257.98089 506.54156 257.86148 506.20517 257.75 505.86523 C 256.7639 502.89632 255.87921 499.91076 255.00781 496.92383 C 254.54154 495.30209 254.0638 493.68577 253.62891 492.05078 C 253.17423 490.36805 252.76842 488.67939 252.34961 486.99219 C 251.62118 484.00792 250.90408 481.0191 250.28125 477.99414 C 250.20302 477.62138 250.13315 477.24792 250.05664 476.875 C 246.74966 460.44091 245 443.43132 245 426 C 245 408.56868 246.74966 391.55909 250.05664 375.125 C 250.13315 374.75208 250.20302 374.37862 250.28125 374.00586 C 250.90408 370.9809 251.62118 367.99208 252.34961 365.00781 C 252.76842 363.32061 253.17423 361.63195 253.62891 359.94922 C 254.0638 358.31423 254.54154 356.69791 255.00781 355.07617 C 255.87921 352.08924 256.7639 349.10368 257.75 346.13477 C 257.86148 345.79483 257.98089 345.45844 258.09375 345.11914 C 263.44826 329.22214 270.44248 313.60622 279.16406 298.5 C 287.88296 283.39842 297.9063 269.53764 308.99219 256.95508 C 309.237 256.67931 309.47651 256.39983 309.72266 256.125 C 311.78409 253.80564 313.90975 251.56446 316.04297 249.33398 C 317.23525 248.09703 318.41628 246.85237 319.63672 245.63672 C 320.85237 244.41628 322.09703 243.23525 323.33398 242.04297 C 325.56446 239.90975 327.80564 237.78409 330.125 235.72266 C 330.39983 235.47651 330.67931 235.237 330.95508 234.99219 C 343.53764 223.9063 357.39842 213.88296 372.5 205.16406 C 387.60622 196.44248 403.22214 189.44826 419.11914 184.09375 C 419.45844 183.98089 419.79483 183.86148 420.13477 183.75 C 423.10368 182.7639 426.08924 181.87921 429.07617 181.00781 C 430.69791 180.54154 432.31423 180.0638 433.94922 179.62891 C 435.63195 179.17423 437.32061 178.76842 439.00781 178.34961 C 441.99208 177.62118 444.9809 176.90408 448.00586 176.28125 C 448.37862 176.20302 448.75208 176.13315 449.125 176.05664 C 465.55909 172.74966 482.56868 171 500 171 z M 610.3418 331.08398 A 30 30 0 0 0 597.58398 335.01953 L 485 400.01953 A 30 30 0 0 0 479.19336 404.47656 A 30 30 0 0 0 477.6543 406.26367 A 30 30 0 0 0 474.62695 410.20898 A 30 30 0 0 0 474.01953 411 L 374.01953 584.20508 A 30 30 0 0 0 385 625.18555 A 30 30 0 0 0 425.98047 614.20508 L 521.96094 447.96094 L 627.58398 386.98047 A 30 30 0 0 0 638.56445 346 A 30 30 0 0 0 610.3418 331.08398 z " />
  </g>
  <g
     id="hour-hand"
     transform-origin="500 426"
     transform="rotate(-120,521.36196,463)" />
  <g
     id="minute-hand"
     transform-origin="500 426"
     transform="rotate(30,361.91412,463)" />
  <!-- /g -->
</svg>
