<?xml version="1.0" encoding="UTF-8" standalone="no"?>
<svg
   height="1000"
   width="1000"
   version="1.1"
   id="h00m20"
   viewBox="0 0 1000 1000"
   sodipodi:docname="h06m50.svg"
   xmlns:inkscape="http://www.inkscape.org/namespaces/inkscape"
   xmlns:sodipodi="http://sodipodi.sourceforge.net/DTD/sodipodi-0.dtd"
   xmlns="http://www.w3.org/2000/svg"
   xmlns:svg="http://www.w3.org/2000/svg">
  <defs
     id="defs15" />
  <sodipodi:namedview
     id="namedview13"
     pagecolor="#505050"
     bordercolor="#ffffff"
     borderopacity="1"
     inkscape:showpageshadow="0"
     inkscape:pageopacity="0"
     inkscape:pagecheckerboard="1"
     inkscape:deskcolor="#505050" />
  <!--g id="rotation" transform-origin="500 426" transform="rotate(180)"-->
  <g
     id="clock-face"
     transform="translate(0,74)">
    <path
       id="frame"
       style="color:#000000;fill:#000000;-inkscape-stroke:none"
       d="M 500 111 C 445.18895 111 393.60806 125.11999 348.65625 149.86914 C 346.63954 150.96965 344.67196 152.16701 342.67773 153.3125 C 340.62745 154.50057 338.54626 155.64042 336.52539 156.87305 C 292.62014 183.42756 254.60471 221.03569 227.20117 268.5 C 225.92854 270.70426 224.78742 272.94774 223.57422 275.16992 C 223.26248 275.73867 222.95286 276.30805 222.64453 276.87891 C 220.63286 280.61782 218.70069 284.3769 216.85547 288.16211 C 216.33843 289.21925 215.83363 290.282 215.32812 291.3457 C 213.69531 294.79257 212.11993 298.25193 210.62305 301.73242 C 209.99205 303.19515 209.38473 304.66857 208.77539 306.14258 C 207.4696 309.31092 206.20087 312.4855 205.00586 315.67773 C 204.30851 317.53481 203.6474 319.40785 202.98438 321.28125 C 201.96887 324.15988 200.97579 327.04071 200.04883 329.93555 C 199.3256 332.18643 198.65008 334.45608 197.97656 336.72852 C 197.21562 339.30541 196.46346 341.88155 195.77148 344.46875 C 195.07151 347.07551 194.429 349.70322 193.79492 352.33594 C 193.24642 354.6234 192.70056 356.90956 192.20508 359.20312 C 191.55945 362.17738 190.97859 365.17316 190.41797 368.17773 C 190.05411 370.13888 189.68897 372.09831 189.36328 374.0625 C 188.80739 377.39383 188.32302 380.74592 187.87305 384.11133 C 187.65712 385.73958 187.44006 387.36671 187.25 388.99609 C 186.81177 392.71739 186.45119 396.45947 186.14453 400.21875 C 186.04792 401.42147 185.95182 402.62335 185.86914 403.82617 C 185.57549 408.01845 185.36921 412.23157 185.24219 416.4668 C 185.22377 417.11551 185.2058 417.76352 185.19141 418.41211 C 185.131 420.94262 185 423.4553 185 426 C 185 480.81105 199.11999 532.39194 223.86914 577.34375 C 224.96965 579.36046 226.16701 581.32804 227.3125 583.32227 C 228.50057 585.37255 229.64042 587.45374 230.87305 589.47461 C 257.42756 633.37986 295.03569 671.39529 342.5 698.79883 C 344.70426 700.07146 346.94774 701.21258 349.16992 702.42578 C 349.73867 702.73752 350.30805 703.04714 350.87891 703.35547 C 354.61782 705.36714 358.3769 707.29931 362.16211 709.14453 C 363.21925 709.66157 364.282 710.16637 365.3457 710.67188 C 368.79257 712.30469 372.25193 713.88007 375.73242 715.37695 C 377.19515 716.00795 378.66857 716.61527 380.14258 717.22461 C 383.31092 718.5304 386.4855 719.79913 389.67773 720.99414 C 391.53481 721.69149 393.40785 722.3526 395.28125 723.01562 C 398.15988 724.03113 401.04071 725.02421 403.93555 725.95117 C 406.18643 726.6744 408.45608 727.34992 410.72852 728.02344 C 413.30541 728.78438 415.88155 729.53654 418.46875 730.22852 C 421.07551 730.92849 423.70322 731.571 426.33594 732.20508 C 428.6234 732.75358 430.90956 733.29944 433.20312 733.79492 C 436.17738 734.44055 439.17316 735.02141 442.17773 735.58203 C 444.13888 735.94589 446.09831 736.31103 448.0625 736.63672 C 451.39383 737.19261 454.74592 737.67698 458.11133 738.12695 C 459.73958 738.34288 461.36671 738.55994 462.99609 738.75 C 466.71739 739.18823 470.45947 739.54881 474.21875 739.85547 C 475.42147 739.95208 476.62335 740.04818 477.82617 740.13086 C 482.01845 740.42451 486.23157 740.63079 490.4668 740.75781 C 491.11551 740.77623 491.76352 740.7942 492.41211 740.80859 C 494.94262 740.869 497.4553 741 500 741 C 554.81105 741 606.39194 726.88001 651.34375 702.13086 C 653.36046 701.03035 655.32804 699.83299 657.32227 698.6875 C 659.37255 697.49943 661.45374 696.35958 663.47461 695.12695 C 707.37986 668.57244 745.39529 630.96431 772.79883 583.5 C 774.07146 581.29574 775.21258 579.05226 776.42578 576.83008 C 776.73752 576.26133 777.04714 575.69195 777.35547 575.12109 C 779.36714 571.38218 781.29931 567.6231 783.14453 563.83789 C 783.66157 562.78075 784.16637 561.718 784.67188 560.6543 C 786.30469 557.20743 787.88007 553.74807 789.37695 550.26758 C 790.00795 548.80485 790.61527 547.33143 791.22461 545.85742 C 792.5304 542.68908 793.79913 539.5145 794.99414 536.32227 C 795.69149 534.46519 796.3526 532.59215 797.01562 530.71875 C 798.03113 527.84012 799.02421 524.95929 799.95117 522.06445 C 800.6744 519.81357 801.34992 517.54392 802.02344 515.27148 C 802.78438 512.69459 803.53654 510.11845 804.22852 507.53125 C 804.92849 504.92449 805.571 502.29678 806.20508 499.66406 C 806.75358 497.3766 807.29944 495.09044 807.79492 492.79688 C 808.44055 489.82262 809.02141 486.82684 809.58203 483.82227 C 809.94589 481.86112 810.31103 479.90169 810.63672 477.9375 C 811.19261 474.60617 811.67698 471.25408 812.12695 467.88867 C 812.34288 466.26042 812.55994 464.63329 812.75 463.00391 C 813.18823 459.28261 813.54881 455.54053 813.85547 451.78125 C 813.95208 450.57853 814.04818 449.37665 814.13086 448.17383 C 814.42451 443.98155 814.63079 439.76843 814.75781 435.5332 C 814.77623 434.88449 814.7942 434.23648 814.80859 433.58789 C 814.869 431.05738 815 428.5447 815 426 C 815 371.18895 800.88001 319.60806 776.13086 274.65625 C 775.03035 272.63954 773.83299 270.67196 772.6875 268.67773 C 771.49943 266.62745 770.35958 264.54626 769.12695 262.52539 C 742.57244 218.62014 704.96431 180.60471 657.5 153.20117 C 655.29574 151.92854 653.05226 150.78742 650.83008 149.57422 C 650.26133 149.26248 649.69195 148.95286 649.12109 148.64453 C 645.38218 146.63286 641.6231 144.70069 637.83789 142.85547 C 636.78075 142.33843 635.718 141.83363 634.6543 141.32812 C 631.20743 139.69531 627.74807 138.11993 624.26758 136.62305 C 622.80485 135.99205 621.33143 135.38473 619.85742 134.77539 C 616.68908 133.4696 613.5145 132.20087 610.32227 131.00586 C 608.46519 130.30851 606.59215 129.6474 604.71875 128.98438 C 601.84012 127.96887 598.95929 126.97579 596.06445 126.04883 C 593.81357 125.3256 591.54392 124.65008 589.27148 123.97656 C 586.69459 123.21562 584.11845 122.46346 581.53125 121.77148 C 578.92449 121.07151 576.29678 120.429 573.66406 119.79492 C 571.3766 119.24642 569.09044 118.70056 566.79688 118.20508 C 563.82262 117.55945 560.82684 116.97859 557.82227 116.41797 C 555.86112 116.05411 553.90169 115.68897 551.9375 115.36328 C 548.60617 114.80739 545.25408 114.32302 541.88867 113.87305 C 540.26042 113.65712 538.63329 113.44006 537.00391 113.25 C 533.28261 112.81177 529.54053 112.45119 525.78125 112.14453 C 524.57853 112.04792 523.37665 111.95182 522.17383 111.86914 C 517.98155 111.57549 513.76843 111.36921 509.5332 111.24219 C 508.88449 111.22377 508.23648 111.2058 507.58789 111.19141 C 505.05738 111.131 502.5447 111 500 111 z M 500 171 C 517.43132 171 534.44091 172.74966 550.875 176.05664 C 551.24792 176.13315 551.62138 176.20302 551.99414 176.28125 C 555.0191 176.90408 558.00792 177.62118 560.99219 178.34961 C 562.67939 178.76842 564.36805 179.17423 566.05078 179.62891 C 567.68577 180.0638 569.30209 180.54154 570.92383 181.00781 C 573.91076 181.87921 576.89632 182.7639 579.86523 183.75 C 580.20517 183.86148 580.54156 183.98089 580.88086 184.09375 C 596.77786 189.44826 612.39378 196.44248 627.5 205.16406 C 657.65423 222.57361 682.87999 245.16025 702.75391 271.12305 C 703.07154 271.53881 703.40753 271.93964 703.72266 272.35742 C 705.58178 274.81752 707.35241 277.33306 709.11523 279.85156 C 709.75773 280.77081 710.43189 281.66563 711.0625 282.59375 C 712.50609 284.71549 713.86265 286.88507 715.23828 289.04492 C 716.0889 290.38195 716.97652 291.69295 717.80273 293.04688 C 718.91732 294.87134 719.95294 296.73671 721.01953 298.58594 C 722.02451 300.33013 723.06083 302.0541 724.02539 303.82422 C 724.7878 305.22173 725.48337 306.65025 726.21875 308.06055 C 727.41265 310.35301 728.6224 312.63575 729.74805 314.96875 C 730.19273 315.88891 730.59005 316.82889 731.02344 317.75391 C 732.35509 320.6012 733.67779 323.45342 734.90625 326.35742 C 735.13975 326.90799 735.34465 327.46939 735.57422 328.02148 C 748.07621 358.16774 755 391.24751 755 426 C 755 443.43132 753.25034 460.44091 749.94336 476.875 C 749.86685 477.24792 749.79698 477.62138 749.71875 477.99414 C 749.09592 481.0191 748.37882 484.00792 747.65039 486.99219 C 747.23158 488.67939 746.82577 490.36805 746.37109 492.05078 C 745.9362 493.68577 745.45846 495.30209 744.99219 496.92383 C 744.12079 499.91076 743.2361 502.89632 742.25 505.86523 C 742.13852 506.20517 742.01911 506.54156 741.90625 506.88086 C 736.55174 522.77786 729.55752 538.39378 720.83594 553.5 C 703.42639 583.65423 680.83975 608.87999 654.87695 628.75391 C 654.46119 629.07154 654.06036 629.40753 653.64258 629.72266 C 651.18248 631.58178 648.66694 633.35241 646.14844 635.11523 C 645.22919 635.75773 644.33437 636.43189 643.40625 637.0625 C 641.28451 638.50609 639.11493 639.86265 636.95508 641.23828 C 635.61805 642.0889 634.30705 642.97652 632.95312 643.80273 C 631.12866 644.91732 629.26329 645.95294 627.41406 647.01953 C 625.66987 648.02451 623.9459 649.06083 622.17578 650.02539 C 620.77827 650.7878 619.34975 651.48337 617.93945 652.21875 C 615.64699 653.41265 613.36425 654.6224 611.03125 655.74805 C 610.11109 656.19273 609.17111 656.59005 608.24609 657.02344 C 605.3988 658.35509 602.54658 659.67779 599.64258 660.90625 C 599.09201 661.13975 598.53061 661.34465 597.97852 661.57422 C 567.83226 674.07621 534.75249 681 500 681 C 482.56868 681 465.55909 679.25034 449.125 675.94336 C 448.75208 675.86685 448.37862 675.79698 448.00586 675.71875 C 444.9809 675.09592 441.99208 674.37882 439.00781 673.65039 C 437.32061 673.23158 435.63195 672.82577 433.94922 672.37109 C 432.31423 671.9362 430.69791 671.45846 429.07617 670.99219 C 426.08924 670.12079 423.10368 669.2361 420.13477 668.25 C 419.79483 668.13852 419.45844 668.01911 419.11914 667.90625 C 403.22214 662.55174 387.60622 655.55752 372.5 646.83594 C 342.34577 629.42639 317.12001 606.83975 297.24609 580.87695 C 296.92846 580.46119 296.59247 580.06036 296.27734 579.64258 C 294.41822 577.18248 292.64759 574.66694 290.88477 572.14844 C 290.24227 571.22919 289.56811 570.33437 288.9375 569.40625 C 287.49391 567.28451 286.13735 565.11493 284.76172 562.95508 C 283.9111 561.61805 283.02348 560.30705 282.19727 558.95312 C 281.08268 557.12866 280.04706 555.26329 278.98047 553.41406 C 277.97549 551.66987 276.93917 549.9459 275.97461 548.17578 C 275.2122 546.77827 274.51663 545.34975 273.78125 543.93945 C 272.58735 541.64699 271.3776 539.36425 270.25195 537.03125 C 269.80727 536.11109 269.40995 535.17111 268.97656 534.24609 C 267.64491 531.3988 266.32221 528.54658 265.09375 525.64258 C 264.86025 525.09201 264.65535 524.53061 264.42578 523.97852 C 251.92379 493.83226 245 460.75249 245 426 C 245 421.58789 245.11043 417.20171 245.33008 412.8457 C 245.97822 399.99205 247.5867 387.39939 250.05664 375.125 C 250.13315 374.75208 250.20302 374.37862 250.28125 374.00586 C 250.90408 370.9809 251.62118 367.99208 252.34961 365.00781 C 252.76842 363.32061 253.17423 361.63195 253.62891 359.94922 C 254.0638 358.31423 254.54154 356.69791 255.00781 355.07617 C 255.87921 352.08924 256.7639 349.10368 257.75 346.13477 C 257.86148 345.79483 257.98089 345.45844 258.09375 345.11914 C 263.44826 329.22214 270.44248 313.60622 279.16406 298.5 C 296.57361 268.34577 319.16025 243.12001 345.12305 223.24609 C 345.53881 222.92846 345.93964 222.59247 346.35742 222.27734 C 348.81752 220.41822 351.33306 218.64759 353.85156 216.88477 C 354.77081 216.24227 355.66563 215.56811 356.59375 214.9375 C 358.71549 213.49391 360.88507 212.13735 363.04492 210.76172 C 364.38195 209.9111 365.69295 209.02348 367.04688 208.19727 C 368.87134 207.08268 370.73671 206.04706 372.58594 204.98047 C 374.33013 203.97549 376.0541 202.93917 377.82422 201.97461 C 379.22173 201.2122 380.65025 200.51663 382.06055 199.78125 C 384.35301 198.58735 386.63575 197.3776 388.96875 196.25195 C 389.88891 195.80727 390.82889 195.40995 391.75391 194.97656 C 394.6012 193.64491 397.45342 192.32221 400.35742 191.09375 C 400.90799 190.86025 401.46939 190.65535 402.02148 190.42578 C 432.16774 177.92379 465.24751 171 500 171 z M 326.79492 296 A 30 30 0 0 0 300.81445 311 A 30 30 0 0 0 311.79492 351.98047 L 470 443.32031 L 470 556 A 30 30 0 0 0 500 586 A 30 30 0 0 0 530 556 L 530 426 A 30 30 0 0 0 529.89453 423.57031 A 30 30 0 0 0 529.79688 422.69727 A 30 30 0 0 0 529.5918 421.14453 A 30 30 0 0 0 529.41016 420.18164 A 30 30 0 0 0 529.08398 418.70898 A 30 30 0 0 0 528.83398 417.77734 A 30 30 0 0 0 528.37305 416.31445 A 30 30 0 0 0 528.0625 415.42773 A 30 30 0 0 0 527.42969 413.90234 A 30 30 0 0 0 527.11133 413.17188 A 30 30 0 0 0 525.98047 411 A 30 30 0 0 0 524.6582 408.92578 A 30 30 0 0 0 524.22461 408.33789 A 30 30 0 0 0 523.16992 406.96484 A 30 30 0 0 0 522.5957 406.29688 A 30 30 0 0 0 521.5332 405.13672 A 30 30 0 0 0 520.86328 404.4668 A 30 30 0 0 0 519.70312 403.4043 A 30 30 0 0 0 519.03516 402.83008 A 30 30 0 0 0 517.66211 401.77539 A 30 30 0 0 0 517.07422 401.3418 A 30 30 0 0 0 515 400.01953 L 341.79492 300.01953 A 30 30 0 0 0 326.79492 296 z " />
  </g>
  <g
     id="hour-hand"
     transform-origin="500 426"
     transform="translate(0,74)" />
  <g
     id="minute-hand"
     transform-origin="500 426"
     transform="rotate(120,478.63804,463)" />
  <!-- /g -->
</svg>
