<?xml version="1.0" encoding="UTF-8" standalone="no"?>
<svg
   height="1000"
   width="1000"
   version="1.1"
   id="h00m00"
   viewBox="0 0 1000 1000"
   sodipodi:docname="h06m30.svg"
   xmlns:inkscape="http://www.inkscape.org/namespaces/inkscape"
   xmlns:sodipodi="http://sodipodi.sourceforge.net/DTD/sodipodi-0.dtd"
   xmlns="http://www.w3.org/2000/svg"
   xmlns:svg="http://www.w3.org/2000/svg">
  <defs
     id="defs15" />
  <sodipodi:namedview
     id="namedview13"
     pagecolor="#505050"
     bordercolor="#ffffff"
     borderopacity="1"
     inkscape:showpageshadow="0"
     inkscape:pageopacity="0"
     inkscape:pagecheckerboard="1"
     inkscape:deskcolor="#505050" />
  <g
     id="clock-face"
     transform="translate(0,74)">
    <path
       id="frame"
       style="color:#000000;fill:#000000;-inkscape-stroke:none"
       d="M 500 111 C 326.38599 111 185 252.38599 185 426 C 185 599.61401 326.38599 741 500 741 C 673.61401 741 815 599.61401 815 426 C 815 252.38599 673.61401 111 500 111 z M 500 171 C 641.18767 171 755 284.81233 755 426 C 755 567.18767 641.18767 681 500 681 C 358.81233 681 245 567.18767 245 426 C 245 421.58789 245.11043 417.20171 245.33008 412.8457 C 252.13927 277.80943 363.22445 171 500 171 z M 500 396 A 30 30 0 0 0 492.74609 396.95508 A 30 30 0 0 0 490.50781 397.73828 A 30 30 0 0 0 485.92383 399.63672 A 30 30 0 0 0 483.57812 401.10938 A 30 30 0 0 0 479.92969 403.91016 A 30 30 0 0 0 477.91016 405.92969 A 30 30 0 0 0 475.10938 409.57812 A 30 30 0 0 0 473.63672 411.92383 A 30 30 0 0 0 471.73828 416.50781 A 30 30 0 0 0 470.95508 418.74609 A 30 30 0 0 0 470 426 L 470 556 L 470 626 A 30 30 0 0 0 500 656 A 30 30 0 0 0 530 626 L 530 556 L 530 426 A 30 30 0 0 0 529.89453 423.57031 A 30 30 0 0 0 529.79688 422.69727 A 30 30 0 0 0 529.5918 421.14453 A 30 30 0 0 0 529.41016 420.18164 A 30 30 0 0 0 529.08398 418.70898 A 30 30 0 0 0 528.83398 417.77734 A 30 30 0 0 0 528.37305 416.31445 A 30 30 0 0 0 528.0625 415.42773 A 30 30 0 0 0 527.42969 413.90234 A 30 30 0 0 0 527.11133 413.17188 A 30 30 0 0 0 525.98047 411 A 30 30 0 0 0 524.6582 408.92578 A 30 30 0 0 0 524.22461 408.33789 A 30 30 0 0 0 523.16992 406.96484 A 30 30 0 0 0 522.5957 406.29688 A 30 30 0 0 0 521.5332 405.13672 A 30 30 0 0 0 520.86328 404.4668 A 30 30 0 0 0 519.70312 403.4043 A 30 30 0 0 0 519.03516 402.83008 A 30 30 0 0 0 517.66211 401.77539 A 30 30 0 0 0 517.07422 401.3418 A 30 30 0 0 0 515 400.01953 A 30 30 0 0 0 512.82812 398.88867 A 30 30 0 0 0 512.09766 398.57031 A 30 30 0 0 0 510.57227 397.9375 A 30 30 0 0 0 509.68555 397.62695 A 30 30 0 0 0 508.22266 397.16602 A 30 30 0 0 0 507.29102 396.91602 A 30 30 0 0 0 505.81836 396.58984 A 30 30 0 0 0 504.85547 396.4082 A 30 30 0 0 0 503.30273 396.20312 A 30 30 0 0 0 502.42969 396.10547 A 30 30 0 0 0 500 396 z " />
  </g>
  <g
     id="hour-hand"
     transform-origin="500 426"
     transform="translate(0,74)" />
  <g
     id="minute-hand"
     transform-origin="500 426"
     transform="translate(0,74)" />
</svg>
