<?xml version="1.0" encoding="UTF-8" standalone="no"?>
<svg
   height="1000"
   width="1000"
   version="1.1"
   id="h02m45"
   viewBox="0 0 1000 1000"
   sodipodi:docname="h08m15.svg"
   xmlns:inkscape="http://www.inkscape.org/namespaces/inkscape"
   xmlns:sodipodi="http://sodipodi.sourceforge.net/DTD/sodipodi-0.dtd"
   xmlns="http://www.w3.org/2000/svg"
   xmlns:svg="http://www.w3.org/2000/svg">
  <defs
     id="defs15" />
  <sodipodi:namedview
     id="namedview13"
     pagecolor="#505050"
     bordercolor="#ffffff"
     borderopacity="1"
     inkscape:showpageshadow="0"
     inkscape:pageopacity="0"
     inkscape:pagecheckerboard="1"
     inkscape:deskcolor="#505050" />
  <!--g id="rotation" transform-origin="500 426" transform="rotate(180)"-->
  <g
     id="clock-face"
     transform="translate(0,74)">
    <path
       id="frame"
       style="color:#000000;fill:#000000;-inkscape-stroke:none"
       d="M 500 111 C 497.4553 111 494.94262 111.131 492.41211 111.19141 C 491.76352 111.2058 491.11551 111.22377 490.4668 111.24219 C 486.23157 111.36921 482.01845 111.57549 477.82617 111.86914 C 477.81769 111.86973 477.80926 111.8705 477.80078 111.87109 C 476.60644 111.95329 475.413 112.0486 474.21875 112.14453 C 470.45947 112.45119 466.71739 112.81177 462.99609 113.25 C 461.36671 113.44006 459.73958 113.65712 458.11133 113.87305 C 454.74592 114.32302 451.39383 114.80739 448.0625 115.36328 C 446.09831 115.68897 444.13888 116.05411 442.17773 116.41797 C 439.17316 116.97859 436.17738 117.55945 433.20312 118.20508 C 430.90956 118.70056 428.6234 119.24642 426.33594 119.79492 C 423.70322 120.429 421.07551 121.07151 418.46875 121.77148 C 415.88155 122.46346 413.30541 123.21562 410.72852 123.97656 C 408.45608 124.65008 406.18643 125.3256 403.93555 126.04883 C 403.93024 126.05053 403.92522 126.05298 403.91992 126.05469 C 401.03041 126.98011 398.15461 127.97073 395.28125 128.98438 C 393.40785 129.6474 391.53481 130.30851 389.67773 131.00586 C 386.4855 132.20087 383.31092 133.4696 380.14258 134.77539 C 378.66857 135.38473 377.19515 135.99205 375.73242 136.62305 C 375.72464 136.6264 375.71676 136.62946 375.70898 136.63281 C 372.23635 138.12665 368.78486 139.69896 365.3457 141.32812 C 364.282 141.83363 363.21925 142.33843 362.16211 142.85547 C 358.3769 144.70069 354.61782 146.63286 350.87891 148.64453 C 350.30805 148.95286 349.73867 149.26248 349.16992 149.57422 C 349.16149 149.57884 349.15297 149.58327 349.14453 149.58789 C 346.93085 150.7967 344.69589 151.93337 342.5 153.20117 C 295.03569 180.60471 257.42756 218.62014 230.87305 262.52539 C 229.64042 264.54626 228.50057 266.62745 227.3125 268.67773 C 227.26424 268.76101 227.21615 268.84441 227.16797 268.92773 C 226.07222 270.83942 224.92359 272.72394 223.86914 274.65625 C 199.11999 319.60806 185 371.18895 185 426 C 185 428.5447 185.131 431.05738 185.19141 433.58789 C 185.2058 434.23648 185.22377 434.88449 185.24219 435.5332 C 185.36921 439.76843 185.57549 443.98155 185.86914 448.17383 C 185.86973 448.18231 185.8705 448.19074 185.87109 448.19922 C 185.95329 449.39356 186.0486 450.587 186.14453 451.78125 C 186.45119 455.54053 186.81177 459.28261 187.25 463.00391 C 187.44006 464.63329 187.65712 466.26042 187.87305 467.88867 C 188.32302 471.25408 188.80739 474.60617 189.36328 477.9375 C 189.68897 479.90169 190.05411 481.86112 190.41797 483.82227 C 190.97859 486.82684 191.55945 489.82262 192.20508 492.79688 C 192.70056 495.09044 193.24642 497.3766 193.79492 499.66406 C 194.429 502.29678 195.07151 504.92449 195.77148 507.53125 C 196.46346 510.11845 197.21562 512.69459 197.97656 515.27148 C 198.65008 517.54392 199.3256 519.81357 200.04883 522.06445 C 200.05053 522.06976 200.05298 522.07478 200.05469 522.08008 C 200.98011 524.96959 201.97073 527.84539 202.98438 530.71875 C 203.6474 532.59215 204.30851 534.46519 205.00586 536.32227 C 206.20087 539.5145 207.4696 542.68908 208.77539 545.85742 C 209.38473 547.33143 209.99205 548.80485 210.62305 550.26758 C 210.6264 550.27536 210.62946 550.28324 210.63281 550.29102 C 212.12665 553.76365 213.69896 557.21514 215.32812 560.6543 C 215.83363 561.718 216.33843 562.78075 216.85547 563.83789 C 218.70069 567.6231 220.63286 571.38218 222.64453 575.12109 C 222.95286 575.69195 223.26248 576.26133 223.57422 576.83008 C 223.57884 576.83851 223.58327 576.84703 223.58789 576.85547 C 224.7967 579.06915 225.93337 581.30411 227.20117 583.5 C 254.60471 630.96431 292.62014 668.57244 336.52539 695.12695 C 338.54626 696.35958 340.62745 697.49943 342.67773 698.6875 C 342.76101 698.73576 342.84441 698.78385 342.92773 698.83203 C 344.83942 699.92778 346.72394 701.07641 348.65625 702.13086 C 393.60806 726.88001 445.18895 741 500 741 C 502.5447 741 505.05738 740.869 507.58789 740.80859 C 508.23648 740.7942 508.88449 740.77623 509.5332 740.75781 C 513.76843 740.63079 517.98155 740.42451 522.17383 740.13086 C 523.37665 740.04818 524.57853 739.95208 525.78125 739.85547 C 527.90066 739.68258 530.04094 739.58401 532.14844 739.36914 C 533.7791 739.20288 535.3806 738.94117 537.00391 738.75 C 538.63329 738.55994 540.26042 738.34288 541.88867 738.12695 C 543.88525 737.86 545.90396 737.66569 547.88867 737.36133 C 549.24936 737.15266 550.58253 736.86282 551.9375 736.63672 C 553.90169 736.31103 555.86112 735.94589 557.82227 735.58203 C 560.82684 735.02141 563.82262 734.44055 566.79688 733.79492 C 569.09044 733.29944 571.3766 732.75358 573.66406 732.20508 C 575.30585 731.80966 576.97371 731.48166 578.60547 731.06055 C 579.59035 730.80638 580.55009 730.49198 581.53125 730.22852 C 584.11845 729.53654 586.69459 728.78438 589.27148 728.02344 C 591.54392 727.34992 593.81357 726.6744 596.06445 725.95117 C 598.95929 725.02421 601.84012 724.03113 604.71875 723.01562 C 605.86117 722.61131 607.02964 722.26281 608.16602 721.8457 C 608.89313 721.57881 609.59765 721.26624 610.32227 720.99414 C 613.5145 719.79913 616.68908 718.5304 619.85742 717.22461 C 621.33143 716.61527 622.80485 716.00795 624.26758 715.37695 C 627.74807 713.88007 631.20743 712.30469 634.6543 710.67188 C 635.23391 710.39643 635.83249 710.15583 636.41016 709.87695 C 636.89262 709.64403 637.35678 709.37984 637.83789 709.14453 C 641.6231 707.29931 645.38218 705.36714 649.12109 703.35547 C 649.69195 703.04714 650.26133 702.73752 650.83008 702.42578 C 653.05226 701.21258 655.29574 700.07146 657.5 698.79883 C 704.96431 671.39529 742.57244 633.37986 769.12695 589.47461 C 770.35958 587.45374 771.49943 585.37255 772.6875 583.32227 C 773.83299 581.32804 775.03035 579.36046 776.13086 577.34375 C 800.88001 532.39194 815 480.81105 815 426 C 815 423.4553 814.869 420.94262 814.80859 418.41211 C 814.7942 417.76352 814.77623 417.11551 814.75781 416.4668 C 814.63079 412.23157 814.42451 408.01845 814.13086 403.82617 C 814.04818 402.62335 813.95208 401.42147 813.85547 400.21875 C 813.54881 396.45947 813.18823 392.71739 812.75 388.99609 C 812.55994 387.36671 812.34288 385.73958 812.12695 384.11133 C 811.67698 380.74592 811.19261 377.39383 810.63672 374.0625 C 810.31103 372.09831 809.94589 370.13888 809.58203 368.17773 C 809.02141 365.17316 808.44055 362.17738 807.79492 359.20312 C 807.29944 356.90956 806.75358 354.6234 806.20508 352.33594 C 805.571 349.70322 804.92849 347.07551 804.22852 344.46875 C 803.53654 341.88155 802.78438 339.30541 802.02344 336.72852 C 801.34992 334.45608 800.6744 332.18643 799.95117 329.93555 C 799.02421 327.04071 798.03113 324.15988 797.01562 321.28125 C 796.3526 319.40785 795.69149 317.53481 794.99414 315.67773 C 793.79913 312.4855 792.5304 309.31092 791.22461 306.14258 C 790.61527 304.66857 790.00795 303.19515 789.37695 301.73242 C 787.88007 298.25193 786.30469 294.79257 784.67188 291.3457 C 784.16637 290.282 783.66157 289.21925 783.14453 288.16211 C 781.29931 284.3769 779.36714 280.61782 777.35547 276.87891 C 777.04714 276.30805 776.73752 275.73867 776.42578 275.16992 C 775.21258 272.94774 774.07146 270.70426 772.79883 268.5 C 745.39529 221.03569 707.37986 183.42756 663.47461 156.87305 C 661.45374 155.64042 659.37255 154.50057 657.32227 153.3125 C 655.32804 152.16701 653.36046 150.96965 651.34375 149.86914 C 606.39194 125.11999 554.81105 111 500 111 z M 500 171 C 534.75249 171 567.83226 177.92379 597.97852 190.42578 C 598.00059 190.43494 598.02285 190.44397 598.04492 190.45312 C 598.57485 190.67366 599.11406 190.8696 599.64258 191.09375 C 600.30901 191.37567 600.95369 191.69698 601.61719 191.98438 C 603.84488 192.94932 606.05222 193.95051 608.24609 194.97656 C 609.17111 195.40995 610.11109 195.80727 611.03125 196.25195 C 613.36425 197.3776 615.64699 198.58735 617.93945 199.78125 C 619.34975 200.51663 620.77827 201.2122 622.17578 201.97461 C 623.9459 202.93917 625.66987 203.97549 627.41406 204.98047 C 627.45828 205.00595 627.50267 205.03114 627.54688 205.05664 C 629.35134 206.09886 631.17227 207.10933 632.95312 208.19727 C 633.37876 208.45701 633.78696 208.74174 634.21094 209.00391 C 635.13561 209.57567 636.03837 210.17851 636.95508 210.76172 C 639.11493 212.13735 641.28451 213.49391 643.40625 214.9375 C 644.33437 215.56811 645.22919 216.24227 646.14844 216.88477 C 646.18517 216.91044 646.22109 216.93719 646.25781 216.96289 C 648.73883 218.70144 651.21829 220.44529 653.64258 222.27734 C 654.06036 222.59247 654.46119 222.92846 654.87695 223.24609 C 654.88099 223.24918 654.88463 223.25277 654.88867 223.25586 C 680.84639 243.12835 703.42909 268.35045 720.83594 298.5 C 729.55752 313.60622 736.55174 329.22214 741.90625 345.11914 C 742.01911 345.45844 742.13852 345.79483 742.25 346.13477 C 742.25167 346.13986 742.25224 346.1453 742.25391 346.15039 C 743.23811 349.11424 744.12229 352.09438 744.99219 355.07617 C 745.45846 356.69791 745.9362 358.31423 746.37109 359.94922 C 746.37215 359.9532 746.37394 359.95695 746.375 359.96094 C 746.82852 361.6397 747.23257 363.32459 747.65039 365.00781 C 748.37882 367.99208 749.09592 370.9809 749.71875 374.00586 C 749.79698 374.37862 749.86685 374.75208 749.94336 375.125 C 753.25034 391.55909 755 408.56868 755 426 C 755 460.75249 748.07621 493.83226 735.57422 523.97852 C 735.56506 524.00059 735.55603 524.02285 735.54688 524.04492 C 735.32634 524.57485 735.1304 525.11406 734.90625 525.64258 C 734.62433 526.30901 734.30302 526.95369 734.01562 527.61719 C 733.05068 529.84488 732.04949 532.05222 731.02344 534.24609 C 730.59005 535.17111 730.19273 536.11109 729.74805 537.03125 C 728.6224 539.36425 727.41265 541.64699 726.21875 543.93945 C 725.48337 545.34975 724.7878 546.77827 724.02539 548.17578 C 723.06083 549.9459 722.02451 551.66987 721.01953 553.41406 C 720.99405 553.45828 720.96886 553.50267 720.94336 553.54688 C 719.90114 555.35134 718.89067 557.17227 717.80273 558.95312 C 717.54299 559.37876 717.25826 559.78696 716.99609 560.21094 C 716.42433 561.13561 715.82149 562.03837 715.23828 562.95508 C 713.86265 565.11493 712.50609 567.28451 711.0625 569.40625 C 710.43189 570.33437 709.75773 571.22919 709.11523 572.14844 C 709.08956 572.18517 709.06281 572.22109 709.03711 572.25781 C 707.29856 574.73883 705.55471 577.21829 703.72266 579.64258 C 703.40753 580.06036 703.07154 580.46119 702.75391 580.87695 C 702.75082 580.88099 702.74723 580.88463 702.74414 580.88867 C 682.87165 606.84639 657.64955 629.42909 627.5 646.83594 C 612.39378 655.55752 596.77786 662.55174 580.88086 667.90625 C 580.54156 668.01911 580.20517 668.13852 579.86523 668.25 C 579.86014 668.25167 579.8547 668.25224 579.84961 668.25391 C 576.88576 669.23811 573.90562 670.12229 570.92383 670.99219 C 569.30209 671.45846 567.68577 671.9362 566.05078 672.37109 C 566.0468 672.37215 566.04305 672.37394 566.03906 672.375 C 564.3603 672.82852 562.67541 673.23257 560.99219 673.65039 C 558.00792 674.37882 555.0191 675.09592 551.99414 675.71875 C 551.62138 675.79698 551.24792 675.86685 550.875 675.94336 C 534.44091 679.25034 517.43132 681 500 681 C 465.24751 681 432.16774 674.07621 402.02148 661.57422 C 401.46939 661.34465 400.90799 661.13975 400.35742 660.90625 C 399.69099 660.62433 399.04631 660.30302 398.38281 660.01562 C 396.15512 659.05068 393.94778 658.04949 391.75391 657.02344 C 390.82889 656.59005 389.88891 656.19273 388.96875 655.74805 C 386.63575 654.6224 384.35301 653.41265 382.06055 652.21875 C 380.65025 651.48337 379.22173 650.7878 377.82422 650.02539 C 376.0541 649.06083 374.33013 648.02451 372.58594 647.01953 C 370.73671 645.95294 368.87134 644.91732 367.04688 643.80273 C 366.62124 643.54299 366.21304 643.25826 365.78906 642.99609 C 364.86439 642.42433 363.96163 641.82149 363.04492 641.23828 C 360.88507 639.86265 358.71549 638.50609 356.59375 637.0625 C 355.66563 636.43189 354.77081 635.75773 353.85156 635.11523 C 351.33306 633.35241 348.81752 631.58178 346.35742 629.72266 C 345.93964 629.40753 345.53881 629.07154 345.12305 628.75391 C 319.16025 608.87999 296.57361 583.65423 279.16406 553.5 C 270.44248 538.39378 263.44826 522.77786 258.09375 506.88086 C 257.98089 506.54156 257.86148 506.20517 257.75 505.86523 C 256.7639 502.89632 255.87921 499.91076 255.00781 496.92383 C 254.54154 495.30209 254.0638 493.68577 253.62891 492.05078 C 253.17423 490.36805 252.76842 488.67939 252.34961 486.99219 C 251.62118 484.00792 250.90408 481.0191 250.28125 477.99414 C 250.20302 477.62138 250.13315 477.24792 250.05664 476.875 C 246.74966 460.44091 245 443.43132 245 426 C 245 421.58789 245.11043 417.20171 245.33008 412.8457 C 246.84053 382.89115 253.51102 354.34042 264.42578 328.02148 C 264.65535 327.46939 264.86025 326.90799 265.09375 326.35742 C 265.37567 325.69099 265.69698 325.04631 265.98438 324.38281 C 266.94932 322.15512 267.95051 319.94778 268.97656 317.75391 C 269.40995 316.82889 269.80727 315.88891 270.25195 314.96875 C 271.3776 312.63575 272.58735 310.35301 273.78125 308.06055 C 274.51663 306.65025 275.2122 305.22173 275.97461 303.82422 C 276.93917 302.0541 277.97549 300.33013 278.98047 298.58594 C 280.04706 296.73671 281.08268 294.87134 282.19727 293.04688 C 282.45701 292.62124 282.74174 292.21304 283.00391 291.78906 C 283.57567 290.86439 284.17851 289.96163 284.76172 289.04492 C 286.13735 286.88507 287.49391 284.71549 288.9375 282.59375 C 289.56811 281.66563 290.24227 280.77081 290.88477 279.85156 C 292.64759 277.33306 294.41822 274.81752 296.27734 272.35742 C 296.59247 271.93964 296.92846 271.53881 297.24609 271.12305 C 317.12001 245.16025 342.34577 222.57361 372.5 205.16406 C 387.60622 196.44248 403.22214 189.44826 419.11914 184.09375 C 419.45844 183.98089 419.79483 183.86148 420.13477 183.75 C 423.10368 182.7639 426.08924 181.87921 429.07617 181.00781 C 430.69791 180.54154 432.31423 180.0638 433.94922 179.62891 C 435.63195 179.17423 437.32061 178.76842 439.00781 178.34961 C 441.99208 177.62118 444.9809 176.90408 448.00586 176.28125 C 448.37862 176.20302 448.75208 176.13315 449.125 176.05664 C 465.55909 172.74966 482.56868 171 500 171 z M 500 396 A 30 30 0 0 0 499.00586 396.13086 A 30 30 0 0 0 494.08984 396.77734 A 30 30 0 0 0 491.76172 397.2168 A 30 30 0 0 0 485 400.01953 L 372.41602 465.01953 A 30 30 0 0 0 361.43555 506 A 30 30 0 0 0 402.41602 516.98047 L 508.03711 456 L 700 456 A 30 30 0 0 0 730 426 A 30 30 0 0 0 700 396 L 500 396 z " />
  </g>
  <g
     id="hour-hand"
     transform-origin="500 426"
     transform="rotate(60,435.91412,463)" />
  <g
     id="minute-hand"
     transform-origin="500 426"
     transform="rotate(-90,537,463)" />
  <!-- /g -->
</svg>
